<svg xmlns="http://www.w3.org/2000/svg" viewBox="0 0 500 185" xmlns:xlink="http://www.w3.org/1999/xlink">
<defs>
<path id="t" d="m221.44,15.906c-1.1563,0-2.2708,.1875-3.3438,.5625-1.0729,.375-2.0938,.9011-3.0625,1.5625-.9688,.6615-1.8958,1.4219-2.75,2.3125-.8542,.8907-1.6302,1.8646-2.3438,2.9062-.7135,1.0417-1.3438,2.1458-1.9062,3.2812-.5625,1.1354-1.0469,2.2656-1.4375,3.4062s-.6979,2.2448-.9062,3.3438-.3125,2.1354-.3125,3.0938c0,1.4063 .224,2.7552 .6562,4.0312 .4323,1.276 1.0417,2.3802 1.8438,3.3438 .8021,.9635 1.776,1.7448 2.9062,2.3125s2.4062,.8438 3.8125,.8438c1.2708,0 2.4219-.0937 3.4688-.2812s2.0052-.4323 2.875-.75 1.6562-.7031 2.375-1.125c.7187-.4219 1.3906-.849 2-1.3125s1.1614-.9323 1.6875-1.4062c.526-.474 1.0416-.9167 1.5312-1.3438 .0114-.01 .0199-.0213 .0312-.0312 .053,.2497 .1285,.493 .2188,.7188 .2188,.5469 .5104,.9948 .875,1.375s.776,.6719 1.25,.875 .9688,.3125 1.4688,.3125c.4688,0 .9375-.0625 1.4062-.2188 .4688-.1562 .9115-.3802 1.3438-.625s.8229-.5104 1.1875-.8125 .6875-.5833 .9375-.875c.3333,.8438 .7292,1.4635 1.1875,1.9062s1.0312,.6875 1.7188,.6875c.5729,0 1.1458-.1562 1.7188-.4375 .5729-.2812 1.0937-.625 1.5938-1.0312 .2384-.1937 .4716-.3905 .6875-.5938 .0502,.3508 .1214,.6877 .25,.9688 .1406,.3073 .3646,.5365 .625,.7188s.6042,.2812 1.0312,.2812c.3333,0 .6302-.0677 .9062-.2188 .276-.151 .5104-.4479 .7188-.875 .7187-1.4479 1.2969-2.6615 1.75-3.625s.8333-1.7396 1.125-2.3438 .526-1.0625 .6875-1.375 .3125-.5312 .4375-.6875h.2188c-.1667,.9583-.2917,1.8542-.4062,2.6875-.0521,.3542-.1042,.7031-.1562,1.0625-.0521,.3594-.1146,.7083-.1562,1.0312s-.0729,.5938-.0937,.8438-.0314,.4583-.0312,.5938c0,.3229 .026,.6562 .0625,1 .0364,.3438 .1094,.651 .2188,.9375s.2708,.5052 .4688,.6875c.1979,.1823 .4479,.2812 .7812,.2812 .4375,0 .8229-.0677 1.1562-.2188 .3333-.151 .6354-.4375 .9062-.875l3.1875-8.0938h.2188c-.0833,.75-.1406,1.4844-.1875,2.2188s-.0625,1.4375-.0625,2.0938c0,.6979 .0261,1.3438 .0937,1.9375 .0677,.5938 .1875,1.125 .3438,1.5625 .1562,.4375 .3385,.7552 .5938,1 .2552,.2448 .5937,.375 .9688,.375 .7604,0 1.4271-.1094 2.0312-.3125 .6042-.2031 1.151-.4635 1.6562-.7812 .1384-.0871 .2717-.1887 .4062-.2812-.2614,.4592-.5111,.9253-.75,1.375-.3021,.5729-.6198,1.1719-.9062,1.7812-.2865,.6094-.5208,1.1927-.75,1.7812s-.4271,1.151-.5625,1.6875-.1875,1.0417-.1875,1.4688c0,.7396 .026,1.4323 .125,2.0938s.2656,1.224 .5,1.7188 .5729,.8958 .9688,1.1875c.3958,.2916 .875,.4375 1.4688,.4375 .7396,0 1.4688-.2813 2.1562-.875 .6875-.5938 1.2812-1.4375 1.8125-2.5312 .5312-1.0938 .9635-2.4219 1.2812-3.9688s.4687-3.2604 .4688-5.1562v-.2812c.8646,.125 1.5573,.224 2.0625,.3125s.8854,.1667 1.1562,.2188 .4531,.0729 .5625,.0938c.1094,.0208 .2083,.0312 .2812,.0312 .6042,0 1.2239-.0781 1.8438-.25 .6198-.1719 1.2187-.401 1.7812-.6875s1.0573-.6198 1.5312-1 .8854-.7812 1.2188-1.1875l-.18-3.559c-.4583,.5417-.9948,1.026-1.5625,1.5s-1.2031,.8958-1.9062,1.25-1.4792,.6354-2.3438,.8438c-.8646,.2083-1.8229,.3125-2.875,.3125l-.0937-.3125c.9375-.4167 1.7552-.9115 2.4375-1.4375s1.2552-1.0833 1.75-1.6875 .9062-1.3021 1.2188-2.125c.2083-.5521 .3125-1.3333 .3125-2.3125 0-.8854-.1042-1.6406-.3438-2.25s-.5833-1.0833-1-1.4688c-.4167-.3854-.8854-.6719-1.4375-.8438s-1.1458-.25-1.7812-.25c-.8542,0-1.5833,.1563-2.1875,.4688s-1.1302,.7188-1.5625,1.25c-.4323,.5313-.8385,1.2448-1.2188,2.125-.3802,.8802-.6615,1.7292-.8438,2.5312-.1687,.742-.3223,1.4947-.4375,2.2812-.4575,.5418-.9401,1.0312-1.4062,1.4688-.2188,.2083-.4479,.401-.6875,.5938-.2396,.1927-.4688,.3854-.7188,.5312s-.5104,.25-.75,.3438-.4688,.1562-.6875,.1562c-.2083,0-.3854-.1771-.5312-.5312-.1458-.3542-.2188-.8125-.2188-1.375 0-.7187 .0521-1.4219 .125-2.0625s.1667-1.3437 .3125-2.125c.1458-.7812 .2708-1.4792 .3438-2.125 .0729-.6458 .0937-1.3437 .0937-2.0625 0-.4687-.1615-.8385-.5-1.0938-.3386-.2552-.7604-.375-1.25-.375-.4375,0-.7917,.1511-1.0938,.4375-.3021,.2865-.6042,.6458-.9062,1.0625-.3125,.4271-.6719,.9063-1.0312,1.4688-.3594,.5625-.6823,1.1146-1,1.625s-.6042,1.0156-.875,1.5312-.4167,.7813-.4375,.8125l-.1875-.1875c0-.0208 .0208-.0625 .0312-.125 .0312-.1979 .0625-.3333 .0937-.4375 .1875-.6458 .3021-1.1562 .375-1.5 .0937-.3958 .1771-.7292 .25-1 .0625-.2396 .125-.5937 .1875-1.0625 .0521-.3646 .0937-.75 .0937-1.1562 0-.4687-.1563-.8385-.4688-1.0938-.3125-.2552-.6875-.375-1.125-.375-.4688,0-.8802,.1563-1.2188,.4375-.3385,.2813-.6667,.6354-.9688,1.0625-.3125,.4271-.625,.9115-.9688,1.4688s-.6719,1.0833-.9688,1.5938c-.2969,.5104-.5885,1.0417-.8438,1.5625-.2552,.5208-.3854,.7813-.4062,.8125l-.1562-.1875c.1562-.875 .2917-1.6667 .4375-2.375 .0104-.0208 .0521-.2917 .125-.8125 .0416-.2708 .0729-.5208 .0937-.7812 .0312-.2604 .0469-.5208 .0625-.75 .0154-.2292 .0312-.4167 .0312-.5938 0-.3229-.0104-.5937-.0312-.7812s-.0781-.3385-.1875-.4375c-.1094-.0989-.276-.1614-.5-.1875-.224-.026-.5417-.0312-.9375-.0312-.2604,0-.4583,.0261-.625,.0625-.1667,.0365-.3177,.1094-.4375,.2188s-.2188,.2708-.3125,.4688c-.0937,.1979-.2083,.4479-.3125,.7812-.1042,.3229-.2188,.7396-.3438,1.25s-.2552,1.0729-.375,1.6875-.2448,1.3281-.4062,2.1562c-.1615,.8281-.2917,1.5729-.375,2.2188-.0113,.0878-.0205,.1634-.0312,.25-.2809,.3494-.5347,.6938-.8125,1-.2188,.2396-.474,.4635-.7188,.6875s-.474,.4167-.7188,.5938-.4792,.3281-.7188,.4375-.4688,.1562-.6875,.1562c-.2917,0-.5052-.1302-.5938-.4062s-.125-.6667-.125-1.1562c0-.5729 .1042-1.25 .2812-2.0625 .1771-.8125 .3125-1.5469 .4375-2.1875s.2396-1.2656 .3438-1.875 .1562-1.1562 .1562-1.6562c0-.3229-.0365-.5937-.0937-.7812-.0573-.1875-.1146-.3333-.2188-.4375s-.2396-.1562-.375-.1875c-.1354-.0312-.2813-.0625-.4375-.0625-.1146,0-.224-.005-.3438,0s-.2292,.0313-.3438,.0312c-.1354,0-.2761-.0157-.4062-.0312-.1302-.0156-.25-.0418-.375-.0938-.125-.0521-.2292-.1354-.3125-.25s-.1927-.2552-.2812-.375c-.0886-.1198-.1771-.2187-.3125-.3125-.1354-.0937-.3229-.125-.5625-.125-.7188,0-1.4323,.1302-2.125,.4375s-1.3438,.7292-1.9688,1.25-1.224,1.1458-1.75,1.8438c-.526,.6979-1.0104,1.5104-1.4688,2.4688-.3404,.7118-.573,1.3942-.7812,2.0312-.0609,.0363-.1271,.0566-.1875,.0938-.8386,.5156-1.6615,1.0573-2.4688,1.625s-1.6302,1.1562-2.4375,1.7188c-.8073,.5625-1.6354,1.0521-2.5,1.5s-1.7656,.8177-2.7188,1.0938c-.9531,.276-1.9896,.4062-3.0938,.4062-.8854,0-1.6667-.1146-2.375-.375s-1.3229-.6562-1.8125-1.1875c-.4896-.5312-.8594-1.2031-1.125-2s-.4063-1.7396-.4062-2.8125c0-.75 .0677-1.5781 .2188-2.4688 .151-.8906 .375-1.8021 .6562-2.75s.6302-1.8906 1.0312-2.8438c.401-.9531 .8437-1.8698 1.3438-2.75 .5-.8802 1.0364-1.6979 1.625-2.4688 .5885-.7708 1.2187-1.4375 1.875-2 .6562-.5625 1.3489-1.0156 2.0625-1.3438 .7135-.3281 1.4375-.5 2.1875-.5 .6354,0 1.1823,.0886 1.625,.2812 .4427,.1927 .8125,.4636 1.0938,.7812 .2812,.3177 .4687,.6719 .5938,1.0938 .125,.4219 .1875,.875 .1875,1.3438 0,.8854-.1823,1.7031-.5312,2.4375-.349,.7344-.7969,1.375-1.3438,1.9062-.5469,.5313-1.1615,.9271-1.8438,1.2188s-1.3333,.4375-2,.4375c-.25,0-.4636-.026-.625-.0625-.1615-.0364-.2917-.0522-.4062-.0938-.1146-.0417-.2188-.0885-.3125-.125-.0938-.0364-.2188-.0625-.3438-.0625-.2083,0-.3802,.0521-.5,.1562-.1198,.1042-.1875,.2396-.25,.4062-.0625,.1667-.1042,.3594-.125,.5625s-.0314,.4063-.0312,.5938c0,.125-.005,.2292 0,.3438s0,.2292 0,.3125c0,.4792 .25,.8386 .7188,1.0938 .4687,.2552 1.1771,.375 2.125,.375 .7187,0 1.4375-.1354 2.1562-.4062s1.3958-.6302 2.0625-1.0938c.6667-.4635 1.2968-1.0208 1.875-1.6562 .5781-.6354 1.0729-1.3073 1.5-2.0312s.7552-1.4948 1-2.2812 .375-1.5416 .375-2.3125c0-1.1458-.2031-2.1562-.5938-3-.3906-.8437-.8854-1.5416-1.5-2.0938-.6146-.5521-1.2917-.9531-2.0625-1.2188-.7708-.2656-1.5313-.4062-2.2812-.4062zm50.94,15.438c.3437,0 .5885,.0886 .7812,.2812 .1927,.1927 .3281,.4167 .4062,.6875s.1094,.5677 .0937,.875-.0417,.5833-.0937,.8125c-.0938,.4271-.3125,1.0417-.6562,1.8438-.5104,.9375-.8333,1.4167-.9688,1.4375-.3333,.4375-.7188,.8333-1.1562,1.2188-.4583,.3854-1,.75-1.625,1.0625 0-.6146 .026-1.2552 .0625-1.875 .0364-.6198 .151-1.2969 .3438-2.0312 .1927-.7344 .3594-1.3437 .5-1.8438 .1406-.5 .3177-.9167 .5312-1.2812 .2135-.3646 .4583-.6614 .75-.875 .2917-.2135 .6458-.3125 1.0312-.3125zm-34.844,.0625-1.1875,5.0938c-.0417,.3333-.1406,.75-.2812,1.25s-.3021,1-.5312,1.4688c-.2292,.4688-.5,.8542-.8125,1.1875s-.6771,.5-1.0625,.5c-.2396,0-.4375-.0677-.5938-.1875s-.2813-.276-.375-.4688c-.0938-.1927-.1511-.4115-.1875-.6562-.0365-.2448-.0625-.4896-.0625-.75 0-.4583 .0677-.9479 .1875-1.4688 .1198-.5208 .3333-1.125 .625-1.8125s.5729-1.25 .875-1.7188c.3021-.4687 .6406-.8854 1-1.25s.75-.6614 1.1562-.875c.4062-.2135 .8229-.3125 1.25-.3125zm-227.54,10.844 0,2.219c4.3995,0 5.8863,.0042 6.8125,2.875l15.5,45.281c.2777,.7873 .4036,1.3438 1.4688,1.3438 .9262,0 1.1284-.6664 1.4062-1.5l12.969-37.781 12.969,37.781c.3242,.8336 .4962,1.5 1.4688,1.5 .9725,0 1.1295-.4812 1.5-1.5l14.75-42.812c.6946-1.8988 1.9115-5.0949 7.4688-5.1875v-2.2188c-2.1766,.139-4.4797,.2188-6.6562,.2188-2.1303,0-6.8512-.1728-8.75-.2188v2.2188c3.9827,.0925 6.3125,1.776 6.3125,3.9062 0,.3705-.0045,.5275-.375,1.5l-11.783,34.374-12.531-36.468c-.092-.278-.281-.816-.281-1.094 0-2.2229 4.1336-2.2188 6.125-2.2188v-2.2188c-2.6397,.2314-7.7214,.2188-10.5,.2188-2.5008,0-5.6645-.0798-8.9062-.2188v2.2188c4.3532,0 5.3227,.2657 6.1562,1.5625 .4168,.741 2,5.5659 2,5.8438 0,.139 .0288,.2266-.1562,.875l-10.875,31.5-12.375-36.219c-.3705-.9725-.375-1.1585-.375-1.3438 0-2.2229 4.1348-2.2188 6.2188-2.2188v-2.2188c-2.594,.232-7.753,.219-10.532,.219-2.778,0-6.021-.173-9.031-.219zm255.97,1.344c-.0104,.1979-.0208,.4583-.0312,.75-.0105,.2604-.0469,.5781-.0625,.9688-.0156,.3906-.0313,.875-.0625,1.4375-.0209,.3229-.0263,.6875-.0312,1.0938-.005,.4062-.0104,.8229-.0312,1.25s-.0625,.8437-.0937,1.25c-.0312,.4062-.0833,.7708-.1562,1.0938-.0729,.3229-.1667,.5573-.2812,.75-.1146,.1927-.2604,.3125-.4375,.3125-.1979,0-.3646-.0729-.5-.2188-.1354-.1458-.2292-.3125-.3125-.5-.0834-.1875-.1511-.375-.1875-.5625-.0365-.1875-.0625-.3229-.0625-.4062 0-.1354 .0365-.3802 .0937-.6875 .0573-.3073 .1198-.6719 .2188-1.0938s.2396-.8542 .375-1.3438 .2708-.9792 .4375-1.4688 .3438-.9844 .5312-1.4375c.1875-.4531 .3958-.8438 .5938-1.1875zm159.56,9.75c-1.0188,0-1.0983,.4337-1.4688,1.4062l-11.875,30.312c-.7873,1.9914-2.0252,5.3611-6.6562,5.5v1.8438c1.6209-.1389 3.7229-.3125 5.3438-.3125 1.2504,0 4.6268,.22 6.0625,.3125v-1.8438c-3.0565-.1389-3.25-2.6954-3.25-3.3438 0-.602-.0004-.7202 2.5-7.25h15.188l1.5625,4.125c.602,1.482 1.5625,3.9119 1.5625,4.375 0,2.0377-2.5934,2.0938-3.8438,2.0938v1.8438c1.9914-.0925 6.3456-.3125 7.7812-.3125 2.5008,0 5.3339,.22 7.0938,.3125v-1.8438c-4.1216,0-4.7613-.4217-5.6875-2.9688l-12.688-32.625c-.4631-1.2041-.8377-1.625-1.625-1.625zm-321.06,.2188c-10.929,0-19.625,9.1181-19.625,20.094 0,11.068 8.9273,19.719 19.625,19.719 10.744,0 19.625-8.6505 19.625-19.719 0-10.976-8.742-20.094-19.625-20.094zm137,0c-11.115,0-20.594,8.7766-20.594,19.938s9.4792,19.875 20.594,19.875c9.54,0 15.281-7.6091 15.281-14 0-.6483 .0198-1.1875-.9062-1.1875-.8336,0-.8287,.4465-.875,1.1875-.5094,7.7802-6.872,12.219-13.031,12.219-3.6586,0-14.75-1.9777-14.75-18.094 0-16.301 11.368-18.062 14.656-18.062 5.372,0 11.642,3.7853 13.031,13.094 .1389,.5094 .2277,.9688 .9688,.9688 .9262,0 .9062-.2982 .9062-1.6875v-12.469c0-1.2041 .007-1.7812-.6875-1.7812-.4631,0-.538,.1653-1.0938,.9062l-2.9062,3.7812c-1.5282-1.6209-5.0828-4.6875-10.594-4.6875zm42.469,0c-10.929,0-19.625,9.1181-19.625,20.094 0,11.068 8.9272,19.719 19.625,19.719 10.744,0 19.625-8.6505 19.625-19.719 0-10.976-8.742-20.094-19.625-20.094zm-152.88,1.0625 0,1.8438c4.9552,0 5.3438,.3961 5.3438,3.4062v27.188c0,3.0102-.3885,3.5-5.3438,3.5v1.8438c2.2229-.0925 5.7436-.3125 7.7812-.3125 2.1303,0 6.0388,.22 7.9375,.3125v-1.8438c-4.9089,0-5.3438-.4898-5.3438-3.5v-12.75h6.6875c1.8061,0 3.7308,.0594 6,2.375 1.5282,1.5746 1.5625,3.3358 1.5625,6.5312 0,4.1217-.0806,5.512 2.2812,7.7812 1.2967,1.2967 4.2745,2.375 7.5625,2.375 4.7237,0 5.7812-4.5181 5.7812-6 0-.3705 .0198-1.125-.9062-1.125-.8336,0-.875,.6909-.875,.9688-.5094,4.4922-3.1156,4.5312-3.625,4.5312-1.4819,0-2.1306-.8852-2.5938-1.7188-.602-1.1578-1.0275-3.2601-2-7.9375-.5557-2.5934-1.3016-6.3072-6.8125-8.4375 5.1405-1.343 9.6875-4.6328 9.6875-9.125 0-5.1404-6.5771-9.9062-15.469-9.9062h-17.656zm44.188,0 0,1.8438c4.9089,0 5.25,.3961 5.25,3.4062v27.188c0,3.0102-.3411,3.5-5.25,3.5v1.8438c2.1303-.0925 6.2692-.3125 7.8438-.3125 1.6209,0 5.7771,.22 8,.3125v-1.8438c-4.9089,0-5.25-.4898-5.25-3.5v-8.375l7.0312-6.2188 9.7812,13.125c.741,.9725 1.5625,2.3874 1.5625,3.4062 0,1.3893-1.7105,1.5625-2.3125,1.5625v1.8438c1.4819-.0925 6.282-.3125 7.625-.3125 1.9914,0 4.2586,.1736 6.25,.3125v-1.8438c-2.4545,0-4.0177-.2488-6.75-4l-12.688-17.125c13.91-12.644 15.46-12.738 18.61-12.97v-1.8438c-1.6672,.139-2.8038,.2188-4.6562,.2188-1.9914,0-5.7937-.1728-6.8125-.2188v1.8438c.7873,.1852 1.25,.5727 1.25,1.4062 0,1.2967-1.2334,2.7786-2.4375,3.8438l-16.438,14.469v-16.312c0-3.0102 .3411-3.4062 5.25-3.4062v-1.8438c-2.1303,.0462-6.3791,.2188-8,.2188-1.5746,0-5.6208-.1728-7.8438-.2188zm176.5,0 0,1.8438c4.9089,0 5.25,.3961 5.25,3.4062v25.125c0,1.6672 .0298,5.5625-5.25,5.5625v1.8438c1.5283-.0925 4.7993-.3125 6.2812-.3125 1.1115,0 4.5064,.1736 6.3125,.3125v-1.8438c-5.2794,0-5.3438-3.8953-5.3438-5.5625v-27.719h.1562l13.688,33.719c.3242,.6947 .6491,1.4062 1.3438,1.4062 .741,0 1.1446-.7116 1.4688-1.4062l13.938-34.25 .0937,.0938v30.219c0,3.0102-.3885,3.5-5.3438,3.5v1.8438c1.4819-.0925 5.0779-.3125 7.625-.3125 2.5934,0 5.2169,.22 7.625,.3125v-1.8438c-4.9089,0-5.25-.4898-5.25-3.5v-27.188c0-3.0102 .3411-3.4062 5.25-3.4062v-1.8438h-8.875c-1.6672,0-1.8667,.0174-2.4688,1.4062l-12.59,30.812-12.6-30.906c-.5094-1.2967-.9255-1.3125-2.5-1.3125h-8.8125zm99.562,0 0,1.8438c1.7598,0 3.8456-.0556 5.2812,.5v28.031c0,1.6672-.001,5.5625-5.2812,5.5625v1.8438c1.5746-.0925 4.8306-.3125 6.3125-.3125 1.0651,0 4.4288,.1736 6.2812,.3125v-1.8438c-5.2794,0-5.25-3.8953-5.25-5.5625v-26.312l.75,.8125 23.031,32.094c.5557,.7873 .7869,.8125 1.25,.8125 1.0188,0 1.0625-.5482 1.0625-1.9375v-28.438c0-1.6672-.0298-5.5625 5.25-5.5625v-1.8438c-1.5282,.0462-4.8769,.2188-6.3125,.2188-1.1114,0-4.4288-.0798-6.2812-.2188v1.8438c5.2794,0 5.25,3.8953 5.25,5.5625v21.844l-20.375-28.312c-.6483-.9262-.7669-.9375-2.1562-.9375h-8.8125zm-140.93,.218v1.8438c4.9089,0 5.2812,.4585 5.2812,3.4688v26.906c0,3.0102-.3723,3.5-5.2812,3.5v1.8438h33.594l2.125-14.312h-1.8438c-1.2504,8.8916-2.974,12.469-12.375,12.469h-7.9375c-2.5471,0-2.9375-.2235-2.9375-3.1875v-13.562h5.1562c5.4183,0 6.3125,1.4198 6.3125,6.375h1.8438v-14.594h-1.8438c0,4.9089-.8942,6.3438-6.3125,6.3438h-5.1562v-12.125c0-2.9176 .3904-3.125 2.9375-3.125h7.5c8.5212,0 10.4,2.582 11.188,10.594h1.8438l-1.4062-12.438h-32.688zm-205.91,.5938c5.0015,0 13.281,3.6983 13.281,17.406 0,14.495-8.0482,18.656-13.281,18.656-5.1868,0-13.344-4.161-13.344-18.656 0-13.801 8.4348-17.406 13.344-17.406zm179.47,0c5.0015,0 13.25,3.6983 13.25,17.406 0,14.495-8.0169,18.656-13.25,18.656-5.1868,0-13.344-4.161-13.344-18.656 0-13.801 8.4348-17.406 13.344-17.406zm-139.97,1.031c.7236-.029 1.5079,0 2.1562,0 5.4646,0 11.781,.1896 11.781,8.0625 0,2.8713-.3975,8.1562-9.9375,8.1562h-6.5312v-13.031c0-1.8524 .1653-2.5983 .9062-2.9688 .2547-.1157 .9014-.1898 1.625-.2188zm279.88,3.9375 6.8125,17.688-13.719,0 6.9062-17.688z"/>
<path id="u" d="m278.5536,109.664 0-.6732-1.5591,0 0-1.8425 1.5591,0 0-.6732-1.5591,0 0-6.874c0-.1772 0-.3189-.0709-.3898-.0354-.0354-.1417-.0709-.3543-.0709-.1417,0-.2126,0-.2835,.0354-.0709,.0354-.1417,.1063-.2126,.2126l-5.5276,7.0866v.6732h4.5709v1.8425h-1.7717v.6732c.2835,0 .7087,0 1.2756-.0354 .5669,0 1.0276,0 1.3465,0 .3189,0 .7795,0 1.3465,0 .5669,.0354 .9567,.0354 1.2402,.0354zm-3.2953-3.189-3.9685,0 3.9685-5.1024zm-6.1299-.248-.6732,0c0,.2126-.0354,.4606-.1063,.7795-.0709,.3543-.1417,.5669-.2835,.6732-.1063,.0354-.3543,.0709-.7441,.1063-.4252,0-.7087,0-.8504,0h-2.4803l2.3032-1.9134c.8858-.6378 1.5945-1.2047 2.0906-1.7716 .4961-.5315 .7441-1.1693 .7441-1.9134 0-.9567-.3898-1.6654-1.0984-2.1968-.7087-.5315-1.6299-.815-2.6929-.815-.9567,0-1.7362,.248-2.374,.7087-.6378,.4606-.9921,1.063-.9921,1.8425 0,.4252 .1417,.7087 .3898,.8504 .2126,.1772 .4606,.248 .6732,.2126 .248,.0354 .4961-.0709 .7087-.248 .2126-.1772 .3189-.4252 .3543-.815-.0354-.3189-.1063-.5669-.3189-.7441-.2126-.1772-.4252-.2835-.6732-.3189 .3189-.3543 .6732-.5669 1.0276-.6732 .3543-.1063 .6024-.1417 .7795-.1417 .7441,.0354 1.2756,.2835 1.6653,.7441 .3543,.4961 .5315,1.0276 .5315,1.6299-.0354,.6378-.2126,1.2047-.5315,1.7362-.3189,.5315-.6378,.9921-.9921,1.3465l-3.4724,3.6142c-.0709,.0709-.1063,.1417-.1417,.1772 0,.0709 0,.1772 0,.3189v.248h6.6968zm-8.8228-1.8071c0-.4252-.0354-1.0276-.1417-1.8425-.1417-.815-.4606-1.5945-.9567-2.2677-.5315-.7087-1.4173-1.0984-2.622-1.1339-1.0984,0-2.0197,.3189-2.6929,.9213-.7087,.6024-1.063,1.4528-1.063,2.5512 0,1.0984 .3543,1.9488 .9921,2.5512 .6378,.5669 1.4528,.8504 2.4449,.8858 .3543,0 .7087-.0709 1.063-.2835 .3543-.1772 .6732-.5669 .9213-1.0984v.4606c.0354,.3898 0,.9213-.0709,1.559-.1063,.6024-.3189,1.2047-.6732,1.7008-.3543,.4961-.9213,.7795-1.7362,.815-.248,0-.5315-.0354-.7795-.1063-.248-.0709-.4606-.1772-.6378-.2835 .248-.0709 .4252-.1772 .5669-.3189 .1417-.1772 .2126-.3898 .248-.6378-.0354-.2835-.1063-.5315-.2835-.6732-.1772-.1772-.4252-.248-.6732-.2835-.2126,0-.4252,.0709-.6378,.248-.1772,.1417-.2835,.3898-.3189,.7441 0,.5669 .2126,1.0276 .6732,1.3819 .4252,.3543 1.0275,.5315 1.8779,.5669 .6732,0 1.3819-.1772 2.0551-.4961 .6732-.3543 1.2402-.9213 1.7008-1.7362 .4606-.7795 .7087-1.8779 .7441-3.2244zm-2.0551-1.5945c0,.6024-.1417,1.2047-.4252,1.7716-.248,.6024-.7441,.8858-1.3819,.9567-.7795-.0354-1.2401-.3189-1.3819-.8504-.1772-.5315-.248-1.2047-.2126-2.0197-.0354-.815 .0354-1.4882 .2126-2.0551 .1772-.5669 .7087-.8504 1.5236-.8858 .4961,.0354 .8858,.2126 1.0984,.4961 .2126,.2835 .3543,.4606 .3543,.6024 .0709,.248 .1417,.6024 .1772,.9921 0,.3898 .0354,.7087 .0354,.9921zm-7.4409,6.8386 0-.6732-2.1969,0 0-9.3543c0-.2126-.0354-.3543-.1063-.3898-.0354-.0709-.2126-.0709-.4606-.0709-.6378,.4961-1.2756,.7795-1.9488,.8858-.6732,.1063-1.1339,.1417-1.3465,.1417h-.3189v.6732h.3189c.2835,0 .6024,0 .9921-.0709 .3543-.0354 .7087-.1063 1.063-.2126v8.3976h-2.2323v.6732l3.0827-.0354zm-15.0945-1.1339c0-.3543-.1417-.6378-.3543-.8504-.2126-.2126-.4961-.3189-.815-.3189-.3189,0-.5669,.1063-.7795,.3189-.248,.2126-.3543,.4961-.3543,.8504 0,.3189 .1063,.6024 .3543,.815 .2126,.2126 .4606,.3189 .7795,.3189 .3189,0 .6024-.1063 .815-.3189 .2126-.2126 .3543-.4961 .3543-.815zm-4.6772-.8504 0-.8504-.6732,0 0,.8504c0,.5315-.1063,.8858-.2835,1.1339-.2126,.248-.4252,.3898-.6732,.3898-.4606-.0354-.7441-.248-.8504-.6024-.1063-.3543-.1417-.6378-.1063-.8504v-4.5h2.3031v-.6732h-2.3031v-3.0827h-.6732c0,.8504-.2126,1.5591-.6024,2.1969-.3898,.6378-.9921,.9921-1.7717,1.0276v.5315h1.2756v4.4646c.0354,.815 .3189,1.3819 .815,1.6654 .4961,.2835 1.063,.3898 1.6653,.3898 .6024,0 1.063-.2126 1.3819-.6024 .3189-.3898 .4961-.8858 .4961-1.4882zm-6.5906-.248c0-.3543-.1063-.7087-.248-.9567-.1417-.248-.3189-.4606-.4961-.6024-.3189-.2835-.6378-.4606-.9567-.5669-.3189-.0709-.6732-.1772-1.0984-.248-.5315-.0709-.9921-.1772-1.3819-.3189-.3898-.1772-.5669-.4252-.6024-.7795 .0354-.3543 .1417-.6024 .3898-.7441 .248-.1417 .4961-.248 .7795-.2835 .248-.0354 .4606-.0354 .6024-.0354 .8504,.0354 1.3819,.248 1.5945,.6024 .2126,.3898 .3189,.6732 .2835,.9213 .0354,.1063 .0709,.1772 .1063,.1772 .0709,.0354 .1417,.0354 .248,.0354 .1772,0 .248-.0354 .2835-.0709 .0354-.0354 .0709-.1772 .0354-.3543v-1.3819c.0354-.1417 0-.248 0-.3189-.0354-.0709-.1063-.0709-.2126-.0709-.0709,0-.1063,0-.1417,0-.0354,.0354-.1063,.0709-.248,.1417-.0354,0-.0709,.0354-.1417,.1063-.0709,.0354-.1063,.0709-.1772,.1063-.2126-.1417-.4606-.248-.7441-.2835-.2835-.0709-.5669-.0709-.8504-.0709-.2126-.0354-.5315,0-.9567,.0709-.4606,.0709-.8858,.248-1.311,.5315-.3898,.2835-.6024,.7795-.6378,1.4527 .0354,.5669 .2126,.9921 .5315,1.2756 .3543,.3189 .7087,.5315 1.0984,.6378 .3898,.1063 .6732,.1772 .8504,.2126 .248,.0354 .4606,.0709 .6732,.1063 .2126,.0354 .3189,.0709 .3543,.0709 .3543,.0709 .6378,.2126 .8858,.3898 .248,.2126 .3898,.4961 .3898,.815 0,.4252-.1417,.7087-.3898,.8858-.248,.1772-.4961,.2835-.7795,.3189-.2835,.0354-.4961,.0354-.6024,.0354-.4252,.0354-.8504-.0709-1.2756-.3189-.4252-.248-.7795-.7441-.9921-1.4882-.0354-.1417-.1063-.248-.1417-.2835-.0354-.0354-.1417-.0709-.248-.0709-.1772,0-.248,.0354-.2835,.0709-.0354,.0709-.0709,.1772-.0709,.3543v1.8425c0,.1417 .0354,.248 .0354,.3189 .0354,.0709 .1063,.1063 .2126,.1063 .0709,0 .1063,0 .1417-.0354 .0709-.0354 .1772-.1063 .3189-.2126l.4252-.3189c.3898,.2835 .7441,.4252 1.0984,.4961 .3543,.0709 .6024,.0709 .7795,.0709 .3189,0 .6732-.0354 1.1338-.1417 .4606-.0709 .8504-.3189 1.2047-.6378 .3189-.3189 .5315-.8504 .5315-1.5591zm-6.9803-2.0905-.6732,0c-.1417,1.2047-.4606,2.0905-.9567,2.7283-.4961,.6024-1.4173,.9213-2.7638,.9213h-2.5157v-4.6417h.9567c.7441,0 1.2047,.1772 1.4173,.4961 .2126,.3189 .3189,.7795 .2835,1.3819h.6732v-4.4291h-.6732c.0354,.6024-.0709,1.063-.2835,1.3819-.2126,.3189-.6732,.4961-1.4173,.4961h-.9567v-4.2165h2.5157c1.1693,0 1.9843,.248 2.4449,.7795 .4252,.5315 .6732,1.311 .7795,2.3386h.6732l-.4606-3.7913h-9.7441v.6732h1.7008v9.5315h-1.7008v.6732h9.9921z"/>
</defs>
<g stroke="#fff">
<g stroke-width="4">
<use xlink:href="#t"/>
<use xlink:href="#u"/>
</g>
</g>
<use xlink:href="#t"/>
<use xlink:href="#u"/>
<path fill="#fff" d="m381.812,179.896 0-.688-1.52,0-4.1119-10.1439c-.047-.1413-.101-.2387-.162-.292-.061-.0533-.183-.0786-.366-.076-.1907-.003-.3173,.0227-.38,.076-.0627,.0533-.1173,.1507-.164,.292l-3.9679,9.7599c-.0443,.123-.0957,.205-.154,.246-.0583,.041-.1937,.071-.406,.09-.187,.023-.329,.037-.426,.042-.097,.005-.227,.007-.39,.006h-.288v.688c.2297-.0153 .5303-.0247 .902-.028 .3717-.003 .6843-.005 .938-.004 .248-.0007 .584,.0007 1.008,.004 .424,.003 .744,.0127 .96,.028v-.688c-.1847,.004-.4073-.004-.668-.022-.2607-.0183-.5073-.0697-.74-.154 .0223-.069 .0377-.119 .046-.15 .008-.031 .0197-.061 .034-.09l.848-2.08h4.288l1.008,2.496h-1.504v.688c.2973-.0153 .7307-.0247 1.3-.028 .5693-.003 1.0266-.005 1.372-.004 .305-.0007 .743,.0007 1.314,.004 .571,.003 .981,.0127 1.23,.028zm-5.0079-3.8719-3.728,0 1.872-4.6079zm-8.96,.672c-.005-.7723-.243-1.4676-.714-2.086-.471-.6183-1.145-1.0377-2.022-1.258l-2.192-.496c-.761-.212-1.231-.516-1.41-.912-.179-.396-.253-.668-.222-.816-.0103-.4303 .1423-.8256 .458-1.186 .3157-.3603 .8563-.5516 1.622-.574 .7946-.0123 1.4933,.2003 2.096,.638 .6026,.4377 .9973,1.1743 1.184,2.21 .0167,.1617 .0433,.2623 .08,.302 .0367,.0397 .1273,.0563 .272,.05 .161,.006 .259-.0177 .294-.07 .035-.0523 .049-.1677 .042-.346v-3.008c.005-.1503-.005-.2577-.03-.322-.025-.0643-.095-.0957-.21-.094-.0527-.003-.0993,.007-.14,.028-.0407,.0213-.0953,.0707-.164,.148l-.688,.784c-.1927-.187-.5073-.389-.944-.606-.4367-.217-1.0393-.335-1.808-.354-1.147,.0237-2.017,.3363-2.61,.938-.593,.6017-.891,1.3503-.894,2.246 .0193,.5403 .1247,.9877 .316,1.342 .1913,.3543 .3527,.5897 .484,.706 .3827,.395 .7693,.669 1.16,.822 .3906,.153 .9853,.311 1.784,.474 .7673,.163 1.2806,.285 1.54,.366 .2593,.081 .4607,.199 .604,.354 .119,.1013 .257,.2707 .414,.508 .157,.2373 .243,.5587 .258,.964 .0233,.3823-.1073,.7937-.392,1.234-.2847,.4403-.8633,.6797-1.736,.718-.4873,.008-1.0113-.0618-1.5721-.211-.5608-.1491-1.0505-.4281-1.469-.8367-.4186-.4087-.6582-.9981-.7188-1.7683-.001-.14-.019-.232-.054-.276-.035-.044-.129-.064-.282-.06-.161-.006-.259,.0177-.294,.07-.035,.0523-.049,.1677-.042,.346v3.008c-.005,.1503 .005,.2577 .03,.322 .025,.0643 .095,.0957 .21,.094 .051,.002 .093-.006 .126-.026 .033-.0197 .087-.0643 .162-.134 .082-.0847 .174-.1873 .276-.308 .102-.1207 .25-.2793 .444-.476 .4793,.3613 1.0086,.6107 1.588,.748 .5793,.1373 1.1166,.2027 1.612,.196 1.24-.0353 2.144-.3887 2.712-1.06 .568-.6713 .848-1.4486 .84-2.332zm-10.0125,.24c-.015-.7713-.317-1.4047-.906-1.9-.589-.4953-1.375-.7846-2.358-.868 1.1227-.246 1.8693-.622 2.24-1.128 .3707-.506 .5413-.962 .512-1.368-.003-.7586-.3333-1.4013-.992-1.928-.6587-.5266-1.6293-.8013-2.912-.824h-6.7519v.688h1.696v9.5999h-1.696v.688h7.2319c1.319-.0273 2.305-.3287 2.958-.904 .653-.5753 .979-1.2606 .978-2.056zm-2.624-5.2799c.013,.5847-.169,1.1033-.546,1.556-.377,.4527-1.027,.6913-1.95,.716h-2.384v-4.32h2.896c.8037,.0353 1.3403,.2767 1.61,.724 .2697,.4473 .3943,.8887 .374,1.324zm.448,5.2479c.0157,.537-.1517,1.047-.502,1.53-.3503,.483-.9777,.741-1.882,.774h-2.944v-4.7519h3.184c.6158,.0169 1.0784,.1751 1.3878,.4747 .3094,.2996 .5149,.6391 .6163,1.0187 .1014,.3796 .148,.6978 .1399,.9547zm-16.7759,2.608c-.002-.528-.1183-.976-.35-1.344-.2317-.368-.5683-.56-1.01-.576-.3553,.009-.6327,.123-.832,.342-.1993,.219-.3007,.489-.304,.81 .001,.3 .099,.564 .294,.792 .195,.228 .481,.348 .858,.36 .233-.009 .419-.0513 .558-.128 .139-.0767 .225-.1353 .258-.176 .0163,.2467-.0563,.6453-.218,1.196-.1617,.5507-.5583,1.1173-1.19,1.7-.055,.0457-.093,.0823-.114,.11-.021,.0277-.031,.0603-.03,.098 .006,.0757 .042,.1443 .108,.206 .066,.0617 .126,.0943 .18,.098 .0876-.003 .2733-.146 .557-.4279 .2837-.2819 .5559-.6829 .8166-1.2029 .2606-.5201 .4001-1.1392 .4184-1.8572zm-4.264,.384 0-.688-1.104,0 0-10.4159-2.768,.128 0,.688c.48-.013 .788,.013 .924,.078 .136,.065 .196,.247 .18,.546v8.9759h-1.104v.688c.2147-.0153 .5293-.0247 .944-.028 .4147-.003 .7453-.005 .992-.004 .2467-.0007 .5773,.0007 .992,.004 .4146,.003 .7293,.0127 .944,.028zm-5.112,0 0-.688-.992,0 0-6.5119-2.72,.128 0,.688c.457-.013 .751,.013 .882,.078 .131,.065 .189,.247 .174,.546v5.0719h-1.104v.688c.2133-.0153 .5227-.0247 .928-.028 .4053-.003 .7307-.005 .976-.004 .2493-.0007 .5667,.0007 .952,.004 .3853,.003 .6866,.0127 .904,.028zm-.8-9.7279c-.01-.335-.126-.609-.348-.822-.222-.213-.49-.323-.804-.33-.3357,.009-.6123,.123-.83,.342-.2177,.219-.3303,.489-.338,.81 .01,.335 .126,.609 .348,.822 .222,.213 .49,.323 .804,.33 .3357-.009 .6123-.123 .83-.342 .2177-.219 .3303-.489 .338-.81zm-4.176,7.8559c-.004-.092-.04-.148-.108-.168-.068-.02-.144-.028-.228-.024-.1217-.003-.2023,.007-.242,.032-.0397,.0247-.0763,.0833-.11,.176-.041,.1903-.207,.4577-.498,.802-.291,.3443-.797,.5357-1.518,.574-.7381-.0256-1.2672-.2446-1.5875-.6572-.3203-.4125-.5153-.8651-.5849-1.3576-.0696-.4925-.0975-.8716-.0836-1.1372-.0127-.3347 .0145-.7373 .0818-1.2077 .0672-.4704 .2509-.8884 .5511-1.2539 .3001-.3655 .7932-.5583 1.4791-.5784 .093-.0003 .283,.008 .57,.026 .287,.0177 .449,.0463 .486,.086-0,.001-.004,.007-.012,.018-.008,.011-.02,.021-.036,.03-.0317,.0247-.0803,.0953-.146,.212-.0657,.1167-.1023,.2753-.11,.476 .0143,.3333 .1217,.5747 .322,.724 .2003,.1493 .4077,.2227 .622,.22 .1863,.007 .3857-.059 .598-.198 .2123-.139 .3277-.393 .346-.762-.0174-.4304-.1871-.7465-.509-.9481-.322-.2017-.692-.3305-1.1099-.3864-.418-.0559-.7797-.0804-1.085-.0735-1.4113,.039-2.4286,.425-3.052,1.158-.6233,.733-.9287,1.579-.916,2.538 .0143,1.104 .3657,1.984 1.054,2.64 .6883,.656 1.6276,.992 2.818,1.008 .8279-.0222 1.46-.184 1.8963-.4853 .4362-.3013 .7329-.6089 .8901-.9227 .1571-.3138 .231-.5004 .2216-.56zm-7.888,1.872 0-.688-1.104,0 0-4.208c.009-.761-.1733-1.335-.548-1.722-.3747-.387-.9973-.581-1.868-.582-.582-.002-1.106,.1417-1.572,.43-.466,.2883-.838,.7317-1.116,1.33h-.016v-1.76l-2.704,.128v.688c.48-.013 .788,.013 .924,.078 .136,.065 .196,.247 .18,.546v5.0719h-1.104v.688c.215-.0153 .533-.0247 .954-.028 .421-.003 .759-.005 1.014-.004 .2557-.0007 .5963,.0007 1.022,.004 .4257,.003 .7463,.0127 .962,.028v-.688h-1.104v-3.408c.032-.8633 .288-1.5086 .768-1.936 .48-.4273 .992-.6406 1.536-.64 .2977-.009 .5263,.1053 .686,.344 .1597,.2387 .2403,.6573 .242,1.256v4.3839h-1.104v.688c.215-.0153 .533-.0247 .954-.028 .421-.003 .759-.005 1.014-.004 .2557-.0007 .5963,.0007 1.022,.004 .4257,.003 .7463,.0127 .962,.028zm-10,0 0-.688c-.48,.013-.788-.013-.924-.078-.136-.065-.196-.247-.18-.546v-5.8879l-2.848,.128v.688c.48-.013 .788,.013 .924,.078 .136,.065 .196,.247 .18,.546v3.136c-.004,.6233-.176,1.1407-.516,1.552-.34,.4113-.824,.6247-1.452,.64-.5777,.002-.9383-.1017-1.082-.31-.1437-.2083-.2043-.5317-.182-.97v-5.4879l-2.848,.128v.688c.48-.013 .788,.013 .924,.078 .136,.065 .196,.247 .18,.546v3.792c.009,.786 .259,1.33 .75,1.632 .491,.302 1.169,.446 2.034,.432 .219,.027 .557-.027 1.014-.162 .457-.135 .871-.513 1.242-1.134h.016v1.296zm-10.12-3.504c-.009-1.101-.359-1.995-1.05-2.682-.691-.687-1.669-1.041-2.934-1.062-1.3077,.026-2.3003,.39-2.978,1.092-.6777,.702-1.0183,1.586-1.022,2.652 .009,1.067 .359,1.929 1.05,2.586 .691,.657 1.669,.995 2.934,1.014 1.3076-.024 2.3003-.372 2.978-1.044 .6777-.672 1.0183-1.524 1.022-2.556zm-1.92-.16c.043,.7137-.043,1.4103-.258,2.09-.215,.6797-.817,1.0443-1.806,1.094-.9967-.0507-1.6033-.4173-1.82-1.1-.2167-.6827-.3033-1.3773-.26-2.084-.006-.3817 .006-.7583 .038-1.13 .0317-.3717 .1203-.7043 .266-.998 .1843-.3186 .4357-.5533 .754-.704 .3183-.1507 .6537-.2253 1.006-.224 .4553,.009 .8286,.0993 1.12,.272 .2913,.1727 .5047,.3753 .64,.608 .1533,.2947 .2467,.6333 .28,1.016 .0333,.3827 .0467,.7693 .04,1.16zm-7.5761,.016c.001-.131-.025-.213-.078-.246-.053-.033-.139-.047-.258-.042-.083-.004-.157,.004-.222,.022-.065,.0183-.103,.0697-.114,.154-.0637,.8059-.2936,1.4483-.6898,1.9271-.3961,.4788-.8643,.8225-1.4044,1.0311-.5401,.2086-1.0581,.3105-1.5537,.3058-.5383,.009-1.1137-.081-1.726-.27-.6123-.189-1.1517-.531-1.618-1.026-.2897-.282-.5383-.698-.746-1.248-.2077-.55-.3163-1.366-.326-2.448-.006-.7813 .0657-1.4706 .214-2.068 .1483-.5973 .4077-1.1187 .778-1.564 .5413-.5816 1.1386-.9583 1.792-1.13 .6533-.1716 1.1866-.2483 1.6-.23 .6456-.0307 1.3383,.1987 2.078,.688 .7396,.4893 1.2523,1.4227 1.538,2.8 .0173,.069 .0586,.111 .124,.126 .0653,.015 .1467,.021 .244,.018 .1763,.007 .2837-.0147 .322-.064 .0383-.0493 .0537-.1667 .046-.352v-3.488c.007-.1783-.007-.2937-.044-.346-.0367-.0523-.1393-.0756-.308-.07l-1.2,1.152c-.4493-.384-.9387-.672-1.468-.864-.5293-.192-1.0907-.288-1.684-.288-1.935,.0267-3.461,.5533-4.5779,1.58-1.117,1.0267-1.687,2.3933-1.71,4.1 .0177,1.6787 .5783,3.0373 1.682,4.076 1.1037,1.0386 2.6443,1.5733 4.6219,1.604 1.4413-.042 2.5786-.446 3.412-1.212 .8333-.766 1.2586-1.642 1.276-2.628zm-18.5977,1.424c-.0107-.384-.0933-.708-.248-.972-.1547-.264-.3173-.468-.488-.612-.319-.2613-.637-.4427-.954-.544-.317-.1013-.687-.1867-1.11-.256-.5307-.0757-.9893-.1883-1.376-.338-.3867-.1497-.5893-.4103-.608-.782 .0155-.3402 .1427-.5842 .3816-.7318 .2389-.1476 .4965-.2375 .7727-.2696 .2762-.0321 .4781-.0449 .6056-.0385 .8543,.0383 1.3896,.2417 1.606,.61 .2163,.3683 .3157,.6717 .298,.91 .009,.0997 .043,.1603 .102,.182 .059,.0217 .137,.0303 .234,.026 .161,.006 .259-.0177 .294-.07 .035-.0523 .049-.1677 .042-.346v-1.376c.005-.1503-.005-.2577-.03-.322-.025-.0643-.095-.0957-.21-.094-.0423-.003-.0857,.003-.13,.018-.0443,.015-.1237,.057-.238,.126-.0363,.0267-.0877,.0613-.154,.104-.0663,.0427-.1217,.0773-.166,.104-.2273-.1267-.4807-.2173-.76-.272-.2793-.0547-.5647-.0813-.856-.08-.1867-.0128-.5067,.0129-.96,.077-.4533,.0642-.88,.244-1.28,.5393-.4,.2953-.6133,.7832-.64,1.4637 .0214,.5535 .199,.9789 .5327,1.2764 .3337,.2975 .695,.5061 1.0838,.6258 .3888,.1197 .6766,.1896 .8634,.2098 .2277,.0423 .4443,.0817 .65,.118 .2057,.0363 .3303,.0557 .374,.058 .3333,.0717 .6266,.2083 .88,.41 .2533,.2017 .3867,.4703 .4,.806-.0159,.4031-.1459,.692-.3899,.867-.2441,.1749-.5068,.2814-.7881,.3194-.2814,.038-.486,.0532-.6139,.0456-.4237,.0217-.8483-.0857-1.274-.322-.4257-.2363-.7583-.7317-.998-1.486-.041-.154-.083-.25-.126-.288-.043-.038-.129-.054-.258-.048-.161-.006-.259,.0177-.294,.07-.035,.0523-.049,.1677-.042,.346v1.84c-.005,.1503 .005,.2577 .03,.322 .025,.0643 .095,.0957 .21,.094 .0483,.005 .0997-.005 .154-.032 .0543-.0267 .1577-.1013 .31-.224l.416-.304c.375,.2683 .741,.4317 1.098,.49 .357,.0583 .615,.0817 .774,.07 .3126,.0108 .6918-.0321 1.1378-.1286 .4459-.0965 .8429-.3112 1.1911-.6441 .3481-.3329 .5318-.8487 .5511-1.5472zm-7.023-3.712c-.0187-.4097-.1893-.7223-.512-.938-.3227-.2157-.6853-.3243-1.088-.326-.6237,.032-1.0923,.244-1.406,.636-.3137,.392-.5223,.772-.626,1.14h-.016v-1.776l-2.624,.128v.688c.48-.013 .788,.013 .924,.078 .136,.065 .196,.247 .18,.546v5.0719h-1.104v.688c.217-.0153 .543-.0247 .978-.028 .435-.003 .781-.005 1.038-.004 .2683-.0007 .6357,.0007 1.102,.004 .4663,.003 .8136,.0127 1.042,.028v-.688h-1.392v-2.912c-.0102-.2041 .0226-.5478 .0984-1.0311 .0758-.4832 .2555-.9372 .5393-1.3618 .2837-.4246 .7325-.6509 1.3464-.6791-.112,.0897-.196,.1983-.252,.326-.056,.1277-.084,.2643-.084,.41 .0137,.3257 .1183,.5623 .314,.71 .1957,.1477 .4003,.2203 .614,.218 .2137,.002 .4183-.0703 .614-.218 .1957-.1477 .3003-.3843 .314-.71zm-7.3548,4.0639c-.008-.115-.052-.185-.132-.21-.08-.025-.148-.035-.204-.03-.1213-.002-.2027,.0143-.244,.05-.0413,.0357-.0827,.1043-.124,.206-.2273,.5123-.5567,.8717-.988,1.078-.4313,.2063-.8487,.3057-1.252,.298-.7592-.0211-1.3048-.2189-1.6367-.5932-.332-.3743-.535-.7984-.6092-1.2723-.0742-.4739-.1042-.8707-.0901-1.1905h4.8159c.1803,.008 .3037-.008 .37-.05 .0663-.0417 .0976-.1583 .094-.35 .0107-.2643-.0387-.6356-.148-1.114-.1093-.4783-.3427-.9176-.7-1.318-.34-.3306-.724-.5613-1.152-.692-.428-.1307-.876-.1933-1.344-.188-1.2527,.026-2.2073,.382-2.864,1.068-.6567,.686-.9873,1.546-.992,2.58 .0183,1.134 .3937,2.03 1.126,2.688 .7323,.658 1.7116,.994 2.938,1.008 .7993-.0193 1.4282-.1692 1.8868-.4498 .4586-.2806 .7829-.5763 .973-.8871 .1901-.3108 .2822-.5212 .2761-.6311zm-1.472-2.128-3.808,0c.009-.3283 .035-.6476 .078-.958 .043-.3103 .145-.6096 .306-.898 .1547-.26 .3653-.468 .632-.624 .2667-.156 .5733-.236 .92-.24 .5618,.0188 .976,.1946 1.2426,.5274 .2667,.3328 .4391,.7101 .5173,1.1318 .0782,.4217 .1156,.7753 .112,1.0607zm-6.62-2.416 0-.688c-.2637,.0153-.4643,.0247-.602,.028-.1377,.003-.3583,.005-.662,.004l-1.376-.032v.688c.2217,.001 .4063,.019 .554,.054 .1477,.035 .2243,.081 .23,.138 .002-.002-.002,.01-.01,.036-.008,.026-.0317,.078-.07,.156l-1.872,4.1119-2.064-4.4959h.88v-.688c-.214,.0153-.526,.0247-.936,.028-.41,.003-.738,.005-.984,.004-.2523,.0007-.5597-.0007-.922-.004-.3623-.003-.6577-.0127-.886-.028v.688h1.008l2.816,6.1119c.0627,.149 .1253,.251 .188,.306 .0627,.055 .1813,.081 .356,.078 .125,.005 .227-.0133 .306-.056 .079-.0427 .153-.1413 .222-.296l2.64-5.7759c.0353-.1203 .1207-.2117 .256-.274 .1353-.0623 .4446-.0937 .928-.094zm-9.6399,6.4159 0-.688-.992,0 0-6.5119-2.72,.128 0,.688c.457-.013 .751,.013 .882,.078 .131,.065 .189,.247 .174,.546v5.0719h-1.104v.688c.2133-.0153 .5227-.0247 .928-.028 .4053-.003 .7307-.005 .976-.004 .2493-.0007 .5667,.0007 .952,.004 .3853,.003 .6866,.0127 .904,.028zm-.8-9.7279c-.01-.335-.126-.609-.348-.822-.222-.213-.49-.323-.804-.33-.3357,.009-.6123,.123-.83,.342-.2177,.219-.3303,.489-.338,.81 .01,.335 .126,.609 .348,.822 .222,.213 .49,.323 .804,.33 .3357-.009 .6123-.123 .83-.342 .2177-.219 .3303-.489 .338-.81zm-3.7416,8.2559c-.001-.1323-.031-.2197-.09-.262-.059-.0423-.141-.0617-.246-.058-.146,.0003-.238,.0277-.276,.082-.038,.0543-.058,.1337-.06,.238-.0497,.3973-.1743,.6867-.374,.868-.1997,.1813-.4163,.2707-.65,.268-.4927-.014-.8153-.254-.968-.72-.1527-.466-.2513-1.074-.296-1.824-.0147-.4447-.1333-.9113-.356-1.4-.2227-.4887-.7493-.8753-1.58-1.16 1.057-.306 1.775-.702 2.154-1.188 .379-.486 .557-.954 .534-1.404-.008-.8226-.4117-1.5133-1.21-2.072-.7983-.5587-1.9417-.8493-3.43-.872h-5.9039v.688h1.696v9.5999h-1.696v.688c.2797-.0153 .7163-.0247 1.31-.028 .5937-.003 1.0583-.005 1.394-.004 .3363-.0007 .8037,.0007 1.402,.004 .5983,.003 1.0377,.0127 1.318,.028v-.688h-1.696v-4.5439h1.904c.3207-.0007 .6073,.0487 .86,.148 .2527,.0993 .4673,.2527 .644,.46 .23,.253 .37,.515 .42,.786 .05,.271 .07,.665 .06,1.182-.017,.5297 .017,.9743 .102,1.334 .085,.3597 .323,.6723 .714,.938 .446,.269 .922,.435 1.428,.498 .506,.063 .862,.089 1.068,.078 .5363-.0164 .9357-.1436 1.1982-.3816 .2625-.238 .4343-.4885 .5155-.7514 .0812-.2629 .1179-.4399 .1102-.5309zm-4.4639-6.5599c.0163,.3051-.0181,.6318-.1031,.9801-.085,.3484-.3185,.6478-.7004,.8984-.3819,.2506-1.0101,.3817-1.8844,.3935h-1.872v-4.5279h1.904c.8538,.0104 1.4697,.1354 1.8477,.3751 .378,.2397 .6111,.5318 .6993,.8764 .0882,.3446 .1245,.6794 .109,1.0044zm-15.912,6.0479 0-.848-.672,0 0,.832c-.01,.5253-.1103,.9107-.302,1.156-.1917,.2453-.4163,.3667-.674,.364-.46-.037-.74-.231-.84-.582-.1-.351-.14-.637-.12-.858v-4.4959h2.304v-.688h-2.304v-3.056h-.672c-.007,.824-.2053,1.552-.596,2.184-.3907,.632-.9813,.976-1.772,1.032v.528h1.296v4.4479c.0307,.828 .2973,1.384 .8,1.668 .5027,.284 1.0573,.416 1.664,.396 .5967-.0127 1.0593-.2113 1.388-.596 .3287-.3847 .4953-.8793 .5-1.484zm-6.3841,1.984 0-.688c-.48,.013-.788-.013-.924-.078-.136-.065-.196-.247-.18-.546v-5.8879l-2.848,.128v.688c.48-.013 .788,.013 .924,.078 .136,.065 .196,.247 .18,.546v3.136c-.004,.6233-.176,1.1407-.516,1.552-.34,.4113-.824,.6247-1.452,.64-.5777,.002-.9383-.1017-1.082-.31-.1437-.2083-.2043-.5317-.182-.97v-5.4879l-2.848,.128v.688c.48-.013 .788,.013 .924,.078 .136,.065 .196,.247 .18,.546v3.792c.009,.786 .259,1.33 .75,1.632 .491,.302 1.169,.446 2.034,.432 .219,.027 .557-.027 1.014-.162 .457-.135 .871-.513 1.242-1.134h.016v1.296zm-10.112-1.872c-.004-.092-.04-.148-.108-.168-.068-.02-.144-.028-.228-.024-.1217-.003-.2023,.007-.242,.032-.0397,.0247-.0763,.0833-.11,.176-.041,.1903-.207,.4577-.498,.802-.291,.3443-.797,.5357-1.518,.574-.7381-.0256-1.2672-.2446-1.5875-.6572-.3203-.4125-.5153-.8651-.5849-1.3576-.0696-.4925-.0975-.8716-.0836-1.1372-.0127-.3347 .0145-.7373 .0818-1.2077 .0672-.4704 .2509-.8884 .5511-1.2539 .3001-.3655 .7932-.5583 1.4791-.5784 .093-.0003 .283,.008 .57,.026 .287,.0177 .449,.0463 .486,.086-0,.001-.004,.007-.012,.018-.008,.011-.02,.021-.036,.03-.0317,.0247-.0803,.0953-.146,.212-.0657,.1167-.1023,.2753-.11,.476 .0143,.3333 .1217,.5747 .322,.724 .2003,.1493 .4077,.2227 .622,.22 .1863,.007 .3857-.059 .598-.198 .2123-.139 .3277-.393 .346-.762-.0174-.4304-.1871-.7465-.509-.9481-.322-.2017-.6919-.3305-1.1099-.3864-.418-.0559-.7797-.0804-1.085-.0735-1.4113,.039-2.4286,.425-3.052,1.158-.6233,.733-.9287,1.579-.916,2.538 .0143,1.104 .3657,1.984 1.054,2.64 .6883,.656 1.6276,.992 2.818,1.008 .8279-.0222 1.46-.184 1.8963-.4853 .4362-.3013 .7329-.6089 .8901-.9227 .1571-.3138 .231-.5004 .2216-.56zm-8.024,1.872 0-.688-.992,0 0-6.5119-2.72,.128 0,.688c.457-.013 .751,.013 .882,.078 .131,.065 .189,.247 .174,.546v5.0719h-1.104v.688c.2133-.0153 .5227-.0247 .928-.028 .4053-.003 .7307-.005 .976-.004 .2493-.0007 .5667,.0007 .952,.004 .3853,.003 .6866,.0127 .904,.028zm-.8-9.7279c-.01-.335-.126-.609-.348-.822-.222-.213-.49-.323-.804-.33-.3357,.009-.6123,.123-.83,.342-.2177,.219-.3303,.489-.338,.81 .01,.335 .126,.609 .348,.822 .222,.213 .49,.323 .804,.33 .3357-.009 .6123-.123 .83-.342 .2177-.219 .3303-.489 .338-.81zm-4.68,7.7439 0-.848-.672,0 0,.832c-.01,.5253-.1103,.9107-.302,1.156-.1917,.2453-.4163,.3667-.674,.364-.46-.037-.74-.231-.84-.582-.1-.351-.14-.637-.12-.858v-4.4959h2.304v-.688h-2.304v-3.056h-.672c-.007,.824-.2053,1.552-.596,2.184-.3907,.632-.9813,.976-1.772,1.032v.528h1.296v4.4479c.0307,.828 .2973,1.384 .8,1.668 .5027,.284 1.0573,.416 1.664,.396 .5967-.0127 1.0593-.2113 1.388-.596 .3287-.3847 .4953-.8793 .5-1.484zm-6.496,.112c-.004-.092-.04-.148-.108-.168-.068-.02-.144-.028-.228-.024-.1217-.003-.2023,.007-.242,.032-.0397,.0247-.0763,.0833-.11,.176-.041,.1903-.207,.4577-.498,.802-.291,.3443-.797,.5357-1.518,.574-.7381-.0256-1.2672-.2446-1.5875-.6572-.3203-.4125-.5153-.8651-.5849-1.3576-.0696-.4925-.0975-.8716-.0836-1.1372-.0127-.3347 .0145-.7373 .0818-1.2077 .0672-.4704 .2509-.8884 .5511-1.2539 .3001-.3655 .7932-.5583 1.4791-.5784 .093-.0003 .283,.008 .57,.026 .287,.0177 .449,.0463 .486,.086-0,.001-.004,.007-.012,.018-.008,.011-.02,.021-.036,.03-.0317,.0247-.0803,.0953-.146,.212-.0657,.1167-.1023,.2753-.11,.476 .0143,.3333 .1217,.5747 .322,.724 .2003,.1493 .4077,.2227 .622,.22 .1863,.007 .3857-.059 .598-.198 .2123-.139 .3277-.393 .346-.762-.0174-.4304-.1871-.7465-.509-.9481-.322-.2017-.6919-.3305-1.1099-.3864-.418-.0559-.7797-.0804-1.085-.0735-1.4113,.039-2.4286,.425-3.052,1.158-.6233,.733-.9287,1.579-.916,2.538 .0143,1.104 .3657,1.984 1.054,2.64 .6883,.656 1.6276,.992 2.818,1.008 .8279-.0222 1.46-.184 1.8963-.4853 .4362-.3013 .7329-.6089 .8901-.9227 .1571-.3138 .231-.5004 .2216-.56zm-8.0108,0c-.008-.115-.052-.185-.132-.21-.08-.025-.148-.035-.204-.03-.1213-.002-.2027,.0143-.244,.05-.0413,.0357-.0827,.1043-.124,.206-.2273,.5123-.5567,.8717-.988,1.078-.4313,.2063-.8487,.3057-1.252,.298-.7592-.0211-1.3048-.2189-1.6367-.5932-.332-.3743-.535-.7984-.6092-1.2723-.0742-.4739-.1042-.8707-.0901-1.1905h4.8159c.1803,.008 .3037-.008 .37-.05 .0663-.0417 .0976-.1583 .094-.35 .0107-.2643-.0387-.6356-.148-1.114-.1093-.4783-.3427-.9176-.7-1.318-.34-.3306-.724-.5613-1.152-.692-.428-.1307-.876-.1933-1.344-.188-1.2527,.026-2.2073,.382-2.864,1.068-.6567,.686-.9873,1.546-.992,2.58 .0183,1.134 .3937,2.03 1.126,2.688 .7323,.658 1.7116,.994 2.938,1.008 .7993-.0193 1.4282-.1692 1.8868-.4498 .4586-.2806 .7829-.5763 .973-.8871 .1901-.3108 .2822-.5212 .2761-.6311zm-1.472-2.128-3.808,0c.009-.3283 .035-.6476 .078-.958 .043-.3103 .145-.6096 .306-.898 .1547-.26 .3653-.468 .632-.624 .2667-.156 .5733-.236 .92-.24 .5618,.0188 .976,.1946 1.2426,.5274 .2667,.3328 .4391,.7101 .5173,1.1318 .0782,.4217 .1156,.7753 .112,1.0607zm-6.624,4 0-.688-1.104,0 0-4.208c.009-.761-.1733-1.335-.548-1.722-.3747-.387-.9973-.581-1.868-.582-.582-.002-1.106,.1417-1.572,.43-.466,.2883-.838,.7317-1.116,1.33h-.016v-1.76l-2.704,.128v.688c.48-.013 .788,.013 .924,.078 .136,.065 .196,.247 .18,.546v5.0719h-1.104v.688c.215-.0153 .533-.0247 .954-.028 .421-.003 .759-.005 1.014-.004 .2557-.0007 .5963,.0007 1.022,.004 .4256,.003 .7463,.0127 .962,.028v-.688h-1.104v-3.408c.032-.8633 .288-1.5086 .768-1.936 .48-.4273 .992-.6406 1.536-.64 .2977-.009 .5263,.1053 .686,.344 .1597,.2387 .2403,.6573 .242,1.256v4.3839h-1.104v.688c.215-.0153 .533-.0247 .954-.028 .421-.003 .759-.005 1.014-.004 .2557-.0007 .5963,.0007 1.022,.004 .4256,.003 .7463,.0127 .962,.028zm-10,0 0-.688-1.104,0 0-4.208c.009-.761-.1733-1.335-.548-1.722-.3747-.387-.9973-.581-1.868-.582-.582-.002-1.106,.1417-1.572,.43-.466,.2883-.838,.7317-1.116,1.33h-.016v-1.76l-2.704,.128v.688c.48-.013 .788,.013 .924,.078 .136,.065 .196,.247 .18,.546v5.0719h-1.104v.688c.215-.0153 .533-.0247 .954-.028 .421-.003 .759-.005 1.014-.004 .2557-.0007 .5963,.0007 1.022,.004 .4256,.003 .7463,.0127 .962,.028v-.688h-1.104v-3.408c.032-.8633 .288-1.5086 .768-1.936 .48-.4273 .992-.6406 1.536-.64 .2977-.009 .5263,.1053 .686,.344 .1597,.2387 .2403,.6573 .242,1.256v4.3839h-1.104v.688c.215-.0153 .533-.0247 .954-.028 .421-.003 .759-.005 1.014-.004 .2557-.0007 .5963,.0007 1.022,.004 .4256,.003 .7463,.0127 .962,.028zm-10.12-3.504c-.009-1.101-.359-1.995-1.05-2.682-.691-.687-1.669-1.041-2.934-1.062-1.3077,.026-2.3003,.39-2.978,1.092-.6776,.702-1.0183,1.586-1.022,2.652 .009,1.067 .359,1.929 1.05,2.586 .691,.657 1.669,.995 2.934,1.014 1.3076-.024 2.3003-.372 2.978-1.044 .6776-.672 1.0183-1.524 1.022-2.556zm-1.92-.16c.043,.7137-.043,1.4103-.258,2.09-.215,.6797-.817,1.0443-1.806,1.094-.9967-.0507-1.6033-.4173-1.82-1.1-.2167-.6827-.3033-1.3773-.26-2.084-.006-.3817 .006-.7583 .038-1.13 .0317-.3717 .1203-.7043 .266-.998 .1843-.3186 .4357-.5533 .754-.704 .3183-.1507 .6536-.2253 1.006-.224 .4553,.009 .8286,.0993 1.12,.272 .2913,.1727 .5047,.3753 .64,.608 .1533,.2947 .2467,.6333 .28,1.016 .0333,.3827 .0467,.7693 .04,1.16zm-7.5761,.016c.001-.131-.025-.213-.078-.246-.053-.033-.139-.047-.258-.042-.083-.004-.157,.004-.222,.022-.065,.0183-.103,.0697-.114,.154-.0637,.8059-.2936,1.4483-.6898,1.9271-.3962,.4788-.8643,.8225-1.4044,1.0311-.5401,.2086-1.0581,.3105-1.5537,.3058-.5383,.009-1.1137-.081-1.726-.27-.6123-.189-1.1517-.531-1.618-1.026-.2897-.282-.5383-.698-.746-1.248-.2077-.55-.3163-1.366-.326-2.448-.006-.7813 .0657-1.4706 .214-2.068 .1483-.5973 .4077-1.1187 .778-1.564 .5413-.5816 1.1386-.9583 1.792-1.13 .6533-.1716 1.1866-.2483 1.6-.23 .6457-.0307 1.3383,.1987 2.078,.688 .7396,.4893 1.2523,1.4227 1.538,2.8 .0173,.069 .0586,.111 .124,.126 .0653,.015 .1466,.021 .244,.018 .1763,.007 .2837-.0147 .322-.064 .0383-.0493 .0537-.1667 .046-.352v-3.488c.007-.1783-.007-.2937-.044-.346-.0367-.0523-.1393-.0756-.308-.07l-1.2,1.152c-.4493-.384-.9387-.672-1.468-.864-.5293-.192-1.0907-.288-1.684-.288-1.935,.0267-3.461,.5533-4.5779,1.58-1.117,1.0267-1.687,2.3933-1.71,4.1 .0177,1.6787 .5783,3.0373 1.682,4.076 1.1037,1.0386 2.6443,1.5733 4.6219,1.604 1.4413-.042 2.5786-.446 3.412-1.212 .8333-.766 1.2586-1.642 1.276-2.628z"/>
</svg>
