<!--
(c) 2013, Matthew Petroff
Based on pattern <http://subtlepatterns.com/tree-bark/> by GetDiscount <http://getdiscount.co.uk/>
Released under CC BY-SA 3.0 <http://creativecommons.org/licenses/by-sa/3.0/>
-->
<svg width="350" xmlns="http://www.w3.org/2000/svg" height="350" viewBox="0 0 350 350">
<path fill="#e6e6e6" d="m0,0v5.03c1.92,.32 3.43,.72 3.22,1.06-.3,.49-1.64,.77-3.22,.85v8.76c.96,0 1.96,0 3.03,.1 11.9,.4 12.9,.6 9.77,1.9-3.99,1.7-8.39,2-12.8,1v12.4c3.95,.2 5.07,1.2 2.19,2.3-.7,.3-1.44,.4-2.19,.5v9.3c2.1,.1 4.68,.2 7.16,.2 5.94-.1 7.44,.1 6.04,.9-3.41,1.9-8.63,2.3-13.2,1.1v5.4 19.1c1.06,.2 2.17,.5 2.78,.5 .83,0 2.57-.4 3.88-.8 1.52-.5 2.15-.5 1.75,.2-1.05,1.7-6.02,3-8.28,2.1h-.125v10.1c4.25,.1 5.75,.4 4.69,1-1.18,.7-2.88,1.1-4.69,1.3v8c2.26,.4 3.63,1.1 3.19,1.8-.25,.4-1.59,.6-3.19,.7v9.2c5.79,0 14,0 14.7,1 .2,0-.8,0-2.1,1-3.72,1-8.64,1-12.6,1v12c3.33,0 4.54,1 3.53,2h-3.53v10h7.19c6.11,0 6.71,0 5.01,2-1,0-2.59,1-3.54,1h-3.07c-1.01,1-3.31,0-5.59,0v4c.622,0 .555,0 0,1v19c2.04,1 3.41,1 5.28,0 3.63-1 4.32-1 2.03,1-1.84,1-4.87,1-7.31,1v10h.281c4.25,0 5.56,0 4.5,1-.91,1-2.74,1-4.78,1v7c3.99,1 4.94,1 2.19,2-.54,1-1.33,1-2.19,1v9c1.31,0 2.76-1 4.28-1 5.82,0 10.5,1 10.5,1s-1.6,1-3.5,2c-1.89,0-5.38,1-7.74,1h-3.56v12c3.6,0 3.85,0 2.31,2-.61,0-1.46,0-2.31,1v9h9.78c5.72-1 6.22,0 1.72,2-3.55,1-7.74,1-11.5,0v6 19c.645,0 1.41-1 2.38-1 4.59,0 5.16,1 3.71,2-.94,0-2.92,1-4.4,1h-1.69v9c3.3,0 5.78,1 5.78,1s-1.56,1-3.47,2h-2.31v8c3.94,0 5.06,1 2.19,2-.54,1-1.33,1-2.19,1v8h3.75c5.5,0 9.95,1 10,1 0,1-1.4,1-3.2,2-3.23,1-7.16,1-10.6,0v13c2.45,0 3.71,0 3.22,1-.68,1-1.88,1-3.22,1v10h4.28 10.5s-1.6,1-3.5,2c-3.38,1-7.6,1-11.3,0v5c.506,0 .47,1 0,1v18c1.32,1 3.15,1 4.66,1 3.33-1 3.44-1 1.65,1-1.82,1-4.15,1-6.31,1v9c4.58,1 5.4,1 4.12,2-.79,0-2.35,1-4.12,1v3h20.8l-.2-8c-.2-5 .1-13 .6-19l.9-10 4.3-2c2.4-1 4.4-3 4.4-3 0-1-.1-1-4.8,0l-4,2-.6-3c-.4-2-.7-14-.8-28-.1-13-.1-27-.2-29 0-2 .4-9 .8-15l.9-10 4.3-2c2.4-1 4.4-3 4.4-3 0-1-.1-1-4.8,0l-4,2-.6-3c-.4-2-.7-14-.7-27-.1-13-.2-26-.2-28-.1-2 .3-9 .7-15l.8-11 4.5-2c5.3-2 5.1-4-.3-2-2.1,0-4.1,1-4.4,0-.3,0-.6-10-.7-23-.1-12.3-.3-26.6-.5-31.5-.1-4.9 .1-13.6 .6-19.1l.9-10.2 4.4-2.1c5.3-2.6 5.1-3.7-.3-2.2-2.1,.6-4.1,.8-4.4,.5-.5-.5-1-18.4-1-37.6v-8.75h-20.8zm37.8,0l.5,7.75c.3,4.55-.1,12.4-1,18.8-1.2,9.2-1.3,14-.3,29 .6,9.9 1.3,18.6 1.6,19.4 .2,.7 .2,2.8-.2,4.6l-.6,3.3-6-2.5c-3.3-1.3-6.2-2.2-6.4-2.1-.2,.2 2.5,1.8 6,3.6l6.3,3.2 .6,9.8c.4,6.2 .1,13.2-.9,20.2-1.3,8-1.4,12-.4,29 .7,10 1.4,19 1.7,19 .2,1 .1,2-.2,4l-.7,4-5.9-3c-8.2-3-8.6-2-.8,2l6.6,3 .6,9c.4,6 .1,13-1,20-1.3,9-1.3,13-.3,29 .7,10 1.4,19 1.7,19 .2,1 .1,2-.2,4l-.7,4-5.9-3c-8.2-3-8.6-2-.8,1l6.6,4 .6,9c.3,6 0,14-1,21-1.2,9-1.3,13-.3,28 .6,10 1.3,19 1.6,20 .2,1 .2,3-.2,5l-.6,3-5.9-3c-8.3-3-8.6-2-.7,2 3.8,1 6.8,4 6.8,5h22.3l-.6-5c-.3-3 .1-9 .9-15 1.3-9 1.2-12-.2-22-.8-6-1.4-13-1.2-16l.3-5 6.5-4c6.8-3 6.3-4-1-1-2.3,0-4.5,1-4.8,1-1.1-1-.5-36 .7-44 .9-5 .8-9-.5-18-.8-6-1.4-14-1.2-17l.3-5 6.5-4c6.8-3 6.3-4-1-1-2.3,0-4.5,1-4.9,1-1,0-.3-36 .8-43 .9-5 .8-9-.5-18-.8-6-1.4-14-1.2-17l.3-5 6.5-4c6.8-3 6.3-4-1-2-2.3,1-4.5,2-4.8,2-1.1-1-.4-36.9 .8-44.3 .9-5.6 .8-9-.5-18-.9-6.2-1.5-13.7-1.3-16.7l.3-5.5 6.5-3.2c6.8-3.3 6.3-4.4-1-1.8-2.3,.8-4.6,1.5-5.1,1.5s-.6-4.4-.2-10l.6-10h-22.5zm35.7,0l.5,8.25c.3,4.55 .2,11.6-.2,15.8-.5,4.1-.7,15.6-.7,25.5 .2,30.5 .3,66.5 .2,86.5 0,11 0,30 .1,44 .1,13-.1,30-.2,38-.2,7-.1,21 .2,30 .7,24 .7,35-.2,53-.5,9-.5,20 0,27 .5,6 .8,13 .6,16l-.3,6h34.5l-1-9c0-5 0-13 1-19l2-9 4-3c2-1 4-2 4-3 0,0-2,1-5,1-2,1-4,1-4,1-1-1-1-69-1-77l1-6 4-3c6-3 6-4 0-3-2,1-5,2-5,2-1-1 0-67 0-75l2-9 4-3c5-3 5-4-1-2-2,1-4,2-4,1-1-1-1-69.2-1-77l1-6.5 4-2.5c6-3.2 6-4.3 0-2.5-2,.8-5,1.3-5,1.1v-23.5-23.1h-34.5zm52.5,0v14.2c-2,20.5-2,42.4-1,56.6 1,6.7 1,12.2 1,12.2-1,0-4-1.1-7-2.5-8-3.6-9-3-1,1.3l8,3.7-1,12.5v24c-1,8-1,18 0,30 1,10 1,18 1,19 0,0-3-1-6-3-9-3-9-2-1,2l7,3-1,16c-1,24-1,43 0,57 1,6 1,12 1,12-1,0-4-1-7-2-8-4-9-4-1,1l8,3-1,13v24c-1,8-1,18 0,30 1,9 1,17 1,18-1,0-3,0-6-1-8-4-9-3-1,1 4,2 7,5 6,5h22l1-12c1-14 1-21 0-39l-1-13 6-2c7-4 7-5 0-3-3,1-6,2-6,2v-22c1-28 1-34 1-49l-1-14 6-2c7-3 8-5 0-2-2,0-5,1-5,1-1,0-1-9-1-22 1-29 1-33 1-49l-1-13 6-2c7-4 7-5 0-3-3,1-6,2-6,2v-21.8c1-28.7 1-34.3 1-49.7l-1-13.1 6-2.8c4-1.6 7-3.1 7-3.3-1-.3-3,.2-6,1.1s-6,1.6-6,1.6c-1,0-1-4.5-1-10v-10h-21zm35,0v8.41c1,4.69 1,14.2 0,21.3-1,9.5-1,20.9 0,44.7 1,22.8 1,35.6 0,43.6s-1,20 0,44c1,23 1,36 0,43-1,8-1,21 0,44s1,36 0,43c-1,6-1,19 0,34v24h34v-8-19l1-10 5-2c2-1 4-3 4-3 0-1 0-1-5,0l-4,2v-3c-1-2-1-14-1-28v-29-15l1-10 5-2c2-1 4-3 4-3 0-1 0-1-5,0l-4,2v-3c-1-2-1-14-1-27v-28-15l1-11 5-2c5-2 5-4-1-2-2,0-4,1-4,0 0,0-1-10-1-23v-31.5-19.1l1-10.2 5-2.1c5-2.6 5-3.7-1-2.2-2,.6-4,.8-4,.5 0-.5-1-18.4-1-37.6v-8.75h-34zm52,0v8.03c1,5.17 0,11.9-1,18.8-1,9.3-1,13.2 0,29.2 2,20.4 2,25.6 1,26.5-1,.4-4-.5-7-1.9-7-2.7-7-2.2 2,2.4l5,2.9v9.2c1,5.9 0,12.9-1,19.9-1,10-1,14 0,29 2,21 2,26 1,27-1,0-4-1-7-2-7-3-7-3 1,1l5,4 1,8c1,6 1,12-1,19-1,10-1,14 0,29 1,21 1,21 1,25v3l-6-3c-3-1-6-2-7-2 0,0 3,2 6,4l7,3v10c1,6 0,13-1,20-1,9-1,13 0,28 1,21 1,21 1,25v3l-6-3c-3-1-6-2-7-2 0,0 3,2 7,4 3,2 6,5 6,5h22v-5c-1-2 0-9 1-15 1-9 1-11-1-21 0-6-1-14-1-17v-6l7-3c7-3 6-4-1-1-2,0-5,1-5,1-1,0 0-37 1-44 1-5 1-9-1-18 0-6-1-14-1-17v-6l7-3c7-3 6-4-1-1-2,0-5,1-5,1-1,0 0-34 1-42 1-6 1-10 0-18-1-6-2-13-2-16v-7l7-3c7-3 8-5 1-3-8,3-8,4-7-15.8 0-9.7 0-21.2 1-25.5 1-6.2 1-9.8 0-17.7-1-5.5-2-12.9-2-16.5v-6.5l7-3c7-3.3 8-4.9 1-2.5-8,2.8-8,2.9-7-8.5v-10h-22zm35,0l1,8.25v15.2c-1,10.4-1,31.8-1,50.5 1,23.2 1,33 0,52v26c1,5 1,16 1,24v16s0,9-1,19v28c1,5 1,24 0,43v41 18 9h35l-1-7c0-3 0-11 1-18l1-12 5-3c2-1 4-2 4-3 0,0-2,1-5,1-2,1-4,1-4,1-1-1-1-69-1-77l1-6 4-3c6-3 6-4 0-3-2,1-5,2-5,2v-77l1-6 5-3c4-3 4-3 1-3-1,1-4,1-5,2-2,0-2,0-2-5v-36-36.9l1-6.5 5-2.4c5-2.8 5-3.8-1-2.1-2,.7-4,1-5,.7v-23.7-23.1h-35zm52,0v11.8 23c-1,7.5-1,17.3 0,29.3 1,9.8 1,18.2 1,18.6-1,.3-3-.4-7-1.5-8-3.1-8-2.6 0,1.4l7,3.5-1,15.9c-1,23-1,43 0,57 1,9 1,12 0,12 0,0-3-1-7-3-8-3-7-2 1,2l7,4-1,15c-1,23-1,43 0,57 1,6 1,12 1,12s-3-1-7-2c-8-4-9-4 0,1l6,3v13 24c-1,8-1,18 0,30 1,9 1,17 1,18-1,0-3,0-6-1-8-4-9-3-1,1 4,2 7,5 6,5h22l1-12c1-14 1-21-1-39v-13l6-2c7-4 7-5 0-3-3,1-6,2-6,2v-22c1-29 1-34 0-50v-13l6-2c7-3 8-5 0-2-2,0-5,1-5,1-1,0-1-9-1-21 1-29 1-33 0-49v-13l6-3c7-3 8-4 1-2-8,2-7,3-7-20.2 1-28.8 1-34.2 0-49.4v-13.2l6-2.7c8-3.5 8-5 0-2.4-3,1-5,1.9-6,1.9v-10.5-10.5h-22zm36,0l1,8.41c1,4.69 0,14.2 0,21.3-1,9.5-1,20.9 0,44.7v43.6c-1,8-1,20 0,44v43c-1,8-1,21 0,44v43c-1,6-1,19-1,34l1,24h13v-3c-3,0-7,0-9-1-1-1 0-2 7-2h2v-9l-1-1c-3-2-3-3 0-2h1v-18l-1,1c-2,2-6,1-8-1s-2-2-1-2c1,1 4,1 7,1h3v-5h-3c-2-1-3-2-3-2h6v-10c-2,1-4,1-5,0-4-1-3-2 3-2h2v-13c-1,0-2,0-3-1-2,0-3-1-3-1 0-1 2-1 6-1v-8c-2,0-5,0-6-1-3-1-1-2 4-2h2v-8c-3,1-4,1-7,0-5-2-4-3 5-3h2v-9c-1,0-2-1-2-1-1-1 0-1 2-1v-19l-1,1c-2,1-6,1-8,0-3-1-1-2 4-2 3,0 5,0 5,1v-6c-1,0-2,0-3-1-5-1-4-2 3-1v-9h-2c-1,0-3-1-4-1-2-2-1-2 4-2h2v-12c-3-1-6-2-6-3h6v-9c-2,0-5,0-6-1-3-1-1-2 4-2h2v-7c-3,0-7,0-9-2-2-1-2-1 1-1 1,1 5,1 8,1v-10l-1-1c-3-2-2-3 1-2v1-19l-1,1c-2,2-7,1-9-1s-2-2 1-1h6 3v-4c-2-1-4-2-5-3-2-1-1-1 2,0h3v-10c-2,1-4,0-5,0-3-1-2-1 3-2h2v-12c-2-1-4-2-6-3h6v-9.2c-2,.2-5,0-6-.5-2-.9-1-2.3 2-2.3 2,0 3,.1 4,.3v-8c-5,.5-10-.5-10-2.5 0-.6 0-.7 1-.4s5,.6 9,.6v-10.1c-3-1.2-4-3.3-1-2.3 0,.1 1,.2 1,.3v-19.1c0,.2 0,.5-1,.9-1,.7-3,1.3-4,1.3-2,0-4-.6-5-1.3-1-1.2-1-1.4 5-1.4 4,0 5,.1 5,.5v-5.4-.1c-3-.7-5-1.8-6-2.4 0-.6 1-.7 2-.2 1,.2 2,.4 4,.5v-9.3c-2,.2-4-.2-6-1.4-2-1.3-1-1.4 4-1.5 1,0 1,0 2,.1v-12.4c0-.1-1-.2-1-.4-3-.7-5-1.7-5-2.1s2-.6 6-.5v-8.76c-2,.11-5-.2-6-.91-1-.51-1-1.08-1-1.28 0-.47 4-.19 7,.28v-5.03h-14zm-254,4.03c4.6-.02 8.1,.98 7.4,2.09-.8,1.42-6.8,1.02-9-.59-1.8-1.38-1.7-1.48 1.6-1.5zm87,.47c3,.07 9,.96 8,1.59 0,1.18-7,1.14-9-.06-1-.51-1-1.08-1-1.28s1-.27 2-.25zm89,.25c0,.01 1,.05 2,.09 3,.19 6,.69 6,1.13-1,1.31-5,1.71-9,.81-4-1.17-4-2.07 1-2.03zm-212,.28c6.2-.03 8.2,1.19 4,2.35-3.4,.89-5,.7-7.8-.88-2.4-1.35-2.2-1.44 3.8-1.47zm84.2,.38c1-.03 2-.02 3,0 6,.08 7,.83 4,2-2,1-5,.67-7-.75-2-.88-2-1.19 0-1.25zm88,.37c1-.03 2-.02 4,.06 3,.24 5,.67 4,1.25-2,.95-7,1.09-9,.25-2-.86-1-1.46 1-1.56zm92,.34c3-.1 5,.39 4,1.38-1,1.19-7,1.34-9,.25-2-1.12-2-1.22 3-1.53 1-.04 1-.08 2-.1zm-254,8.88c.4,0 .1,.4-.7,1.3-1.7,1.8-5.6,2.8-8.2,2-3-.8-2-2.3 1.4-2.3 1.8,0 4.4-.3 5.8-.7 .8-.2 1.4-.3 1.7-.3zm88.3,0s0,.4-1,1.4c-2,2.5-8,3.2-10,1.2-1-1.4-1-1.6 3-1.6 3,0 6-.3 7-.7 0-.2 1-.3 1-.3zm-61.6,.3c1.7,0 4.7,.2 9.1,.5 8.5,.8 9.5,.9 7.2,2-3.9,1.7-11.5,1.4-15.7-.5-3-1.3-3.5-1.9-.6-2zm91.6,.4c1,0 2,0 3,.1 12,.4 13,.6 10,1.9-4,1.8-9,2-14,.6-3-.7-5-1.7-5-2.1s2-.6 6-.5zm56,.1c1-.1 1,.9-1,2.2-2,1.1-7,1.4-8,.3-2-1.2-1-2.1 1-1.6 1,.3 3,0 5-.5 1-.3 2-.4 3-.4zm33,0h3c6,.2 10,.7 10,1.1 0,.5-2,1.4-4,2-6,1.3-8,1.3-12-.3-5-2-5-2.9 3-2.8zm55,.3c1,0 1,.4 0,1.3-3,1.8-10,2.2-10,.6-1-.6 0-1 2-1 1,0 4-.2 6-.6 1-.2 2-.3 2-.3zm-218,9.4c1.2,0 2.2,.1 2.2,.3s0,.7-1,1.2c-1.9,1.2-10,1.3-10,.1 0-.7 5.6-1.5 8.8-1.6zm-89.8,.5c3.43,0 4.83,.3 4.23,1-1.2,1.2-6.49,2.1-8.17,1.4-2.83-1.3-.93-2.4 3.94-2.4zm174,0c4,0 5,.3 4,1-1,1.2-6,2.1-8,1.4-3-1.3-1-2.4 4-2.4zm89,0c2-.1 4,.3 3,1-1,1.5-7,2.3-9,1.2-1-.7-1-1.1 1-1.5s3-.7 5-.7zm35,1.1c0-.1 1,.2 2,.8 1,.8 4,1 6,.7 3-.6 3-.6 2,.9-3,2.1-6,1.9-9-.7-1-1-1-1.6-1-1.7zm-256,.4c4.6,0 5.2,.2 3.7,1.3-.9,.6-2.9,1.2-4.4,1.2-1.4,0-3.1-.6-3.7-1.2-.8-1 .2-1.3 4.4-1.3zm87.4,0c5,0 6,.2 4,1.3-1,.6-3,1.2-5,1.2-1,0-3-.6-4-1.2-1-1 0-1.3 5-1.3zm82,.1c1-.1 1,.1 2,.6 2,.7 4,.8 6,0 4-1.3 4,0 0,1.6-1,.7-2,1.2-3,1.1-2-.1-5-1.9-5-2.8v-.5zm-136,3.4c3.9,0 6.1,.4 5.5,.9-1.8,1.7-6.9,2.1-9.4,.6-2.4-1.4-2.2-1.4 3.9-1.5zm87.1,0c6,0 8,1.1 4,2.4-2,1-6,.7-8-.9-1-1.3-1-1.4 4-1.5zm83,.1s1,.1 2,.3c2,.4 5,.6 6,.6 3,0 3,.3 2,1-2,1.5-7,1.2-10-.6-1-.9-1-1.3 0-1.3zm-215,1.6c.5-.1 1.1,0 1.8,.1 1.6,.2 2.7,.8 2.4,1.3-.6,1.1-3.8,1.2-4.7,.2-1.1-1-.9-1.6 .5-1.6zm261,.3s1,.1 1,.3c1,.4 3,.7 4,.7 0,0 1,.4 0,1 0,1.5-3,1.2-4-.7-1-.9-1-1.3-1-1.3zm-172,0c2,0 3,.4 3,1s-1,1-2,1c-2,0-3-.4-4-1 0-.6 1-1 3-1zm88,.3c2,0 3,.3 2,1.4-1,1.4-2,1.5-4,.6s-1-2 2-2zm-162,5.7l-2.4,2c-2.3,1.9-3.8,2.2-7.3,1.3-2.8-.7-2.1-2.1 .7-1.5 1.3,.2 3.9-.1 5.7-.7l3.3-1.1zm86.5,1.1s0,.4-1,1.3c-3,1.8-7,2.1-9,.6-1-.7 0-1 3-1 2,0 5-.3 6-.6 0-.2 1-.3 1-.3zm88,0s0,.4-1,1.3c-3,1.8-9,2.2-9,.6-1-.6 0-1 3-1 2,0 5-.3 6-.6 0-.2 1-.3 1-.3zm86,.6c1,0 1,.9-1,1.7-2,1-8,.7-9-.6 0-.8 1-.9 2-.6 2,.3 5,.2 6-.2 1-.2 2-.3 2-.3zm-234,1.6c.8,0 2.2,.2 4.2,.7 2.4,.7 6.7,.9 9.8,.6 5.1-.6 5.1-.6 3.1,.8-3.2,1.9-10.5,1.9-14.9,0-2.9-1.2-3.5-2-2.2-2.1zm87.1,.1c0-.1 1,.1 2,.3 1,.5 6,.7 10,.7 6-.1 8,.1 6,.9-3,2-9,2.4-13,1-3-.7-5-1.8-6-2.4 0-.3 0-.5 1-.5zm88,.3s1,.1 3,.5c2,.6 6,.8 10,.5 6-.5 7,.6 1,2.3-2,.5-4,1-5,.9-3,0-10-2.9-10-3.9 0-.2 0-.3 1-.3zm-177,7.1h1.9c5.2,.4 5.6,.5 3.8,1.8-2.2,1.6-5.3,1.7-7.7,.3-2.8-1.6-2.2-2.2 2-2.1zm89.2,.5c5,0 6,.2 4,1.4-1,.7-3,1.3-4,1.3s-3-.6-4-1.3c-2-1.2-1-1.4 4-1.4zm88,.2c5,0 6,.2 4,1.3-1,.6-3,1.2-5,1.2-1,0-3-.6-4-1.2-1-1 0-1.3 5-1.3zm-206,2c3,0 5.5,.3 5.5,.7 0,.5-.1,.8-.2,.8-.2,0-1.7,.4-3.3,.8-2.8,.8-7.5-.2-7.5-1.7 0-.3 2.5-.6 5.5-.6zm87.5,0c6,0 6,0 4,1.7-2,2-4,2.2-8,.6-3-1.7-2-2.3 4-2.3zm84,.2c1,0 2,.1 4,.1 5,.4 5,.5 4,1.8-3,1.7-7,1.8-9,.2-1-1.5-1-2.1 1-2.1zm91,.7c6-.1 6,.1 4,1.3-2,1.7-7,1.7-9,.1-1-1 0-1.3 5-1.4zm-212,2.6s0,.4-1,1.3c-1.4,1.9-8.5,2.4-9.5,.7-.4-.6 .7-1 2.7-1 1.8,0 4.4-.3 5.8-.7 1-.2 1-.3 2-.3zm-87.9,.4c1.3,0 1.3,.4 .6,1.1-2,1.9-6.01,2.6-8.82,1.4-3.18-1.3-2.67-1.5 4.32-2.2 1.9-.2 3.1-.3 3.9-.3zm174,0c2,0 2,.4 1,1.1-2,1.9-6,2.6-9,1.4-3-1.3-3-1.5 4-2.2 2-.2 4-.3 4-.3zm85,.4c5-.1 5,.8 1,2.2-2,1.1-5,1.2-7,.3-3-1.1-1-2.1 5-2.5h1zm-232,6.9c.6,0 1.8,.1 3.2,.5 2,.6 6.1,.8 9,.5 5.9-.6 6.1,.7 .4,2.3-4.5,1.2-3.8,1.2-8.7-.5-2.2-.8-4.1-1.5-4.3-1.5-.1,0-.2-.4-.2-.9 0-.2 .2-.3 .6-.4zm175,.8c1-.1 2,.1 4,.5 2,.5 6,.6 8,.3 4-.4 4-.3 3,.7-2,2-10,2.3-13,.4-3-1.3-3-1.9-2-1.9zm-80,0c7,0 9,.2 8,1.3-2,2-9,2.4-13,.8-2-.8-3-1.6-3-1.8s4-.3 8-.3zm168,.2c1,.1 2,.2 3,.5 2,.5 6,.7 8,.4 5-.6 5-.5 4,.9-3,1.7-10,1.9-14,.3-2-1.3-3-2.2-1-2.1zm-220,3.7c.2,0 .6,.1 1.2,.6 1,.8 3.1,1 5.7,.7 3.9-.5 4.1-.4 2.4,.9-2.4,1.7-6.8,1.8-8.4,.2-1.2-1.2-1.5-2.3-.9-2.4zm97.7,.8c1,.1 1,.3 1,.6-1,1.7-6,3-9,2.1-3-1.1-4-3.4-1-2.3 1,.4 3,.8 4,.8s3-.4 4-.8c1-.3 1-.4 1-.4zm88,.4v.3c0,.4-1,1.3-3,1.9-3,1.4-3,1.4-6,0-3-1.6-2-2.8 1-1.5 2,.8 4,.8 5-.1 1-.4 2-.6 3-.6zm-166,6.3l-2,1.5c-2.9,1.8-5.9,2-8,.6-1.1-.7-.6-1 2-1 1.9,0 5-.3 6-.6l2-.5zm-87.4,.2c.2,0-.2,.4-1.3,1.3-2.2,1.8-6.25,2.1-8.52,.6-1.1-.7-.4-1 2.66-1 2.26,0 4.96-.3 5.96-.6 .7-.2 1-.3 1.2-.3zm174,0s0,.4-1,1.3c-3,1.8-7,2.1-9,.6-1-.7 0-1 3-1 2,0 5-.3 6-.6 0-.2 1-.3 1-.3zm86,.4c1,0 2,.2 1,1-1,1.8-5,2.3-8,1.2s-2-1.4 4-2c1-.1 2-.1 3-.2zm-224,.7c.6,0 1,.2 1,.6 0,.6-1,1.3-2.2,1.7-3.9,1.1-5.2,1.3-7,.8-3.3-.8-1.9-2.3 2.1-2.3 2.2,0 4.6-.3 5.5-.6 .2-.1 .4-.1 .6-.2zm83,.9h2l4,.1-2,1.3c-4,1.6-7,1.8-9,.6-2-1.1 0-1.9 5-2zm92,0c1,0 1,.4 0,1.3-3,1.8-9,2.2-10,.6 0-.6 1-1 2-1s3-.3 6-.6c1-.2 2-.3 2-.3zm88,0c1,0 1,.4 0,1.3-3,1.8-10,2.2-10,.6-1-.6 0-1 2-1 1,0 4-.2 6-.6 1-.2 2-.3 2-.3zm-65,3c1,0 1,.1 1,.2 1,.4 5,.7 9,.7 7,.1 7,.2 5,1.5-4,2.4-13,1.5-15-1.6v-.8zm-87,.1c1,0 1,0 2,.2 0,.3 4,.6 8,.6 4,.1 6,.4 5,1-4,2.5-15,1.6-15-1.2v-.6zm-80,.3c7.7,0 9.8,.6 6.4,1.9-2.8,1.1-11,.7-12.7-.6-1.5-1.1-.4-1.3 6.3-1.3zm86,10.5c5,0 8,1 7,2.1 0,1-7,1.1-9,.2s-1-2.3 2-2.3zm-85.8,.2c5.6,0 7.5,1 4.2,2.2-2.6,1-5.9,.7-8-.8-1.7-1.3-1.4-1.4 3.8-1.4zm174,.6h2c4,.3 6,.7 5,1.2-3,1.5-6,1.8-8,.8-4-1.4-4-2.1 1-2zm-212,.2c6.2,0 8.2,1.2 4,2.4-3.4,.9-5,.7-7.8-.9-2.4-1.4-2.2-1.4 3.8-1.5zm87.2,0c6,0 8,1.1 4,2.4-2,1-6,.7-8-.9-1-1.3-1-1.4 4-1.5zm172,.5c3,.1 9,1 8,1.6 0,1.2-7,1.1-9-.1-1-.5-1-1-1-1.2s1-.3 2-.3zm-87,.2c1,0 2,.1 4,.1 3,.2 5,.8 4,1.3 0,1-8,1.2-9,.2-1-1.1-1-1.6 1-1.6zm-162,9.3c.4,0 .1,0-.7,1-2.3,3-6.2,3-8.5,2-1.9-2-1.8-2 1.5-2 1.9,0 4.6,0 6-1h1.7zm30.7,0h4.1c5.8,0 10.5,1 10.5,1 0,1-1.4,1-3.2,2-4.2,1-10.6,1-14.6,0-1.7-1-3.2-2-3.2-2 0-1 2.6-1 6.4-1zm55.6,1c1-1 2,0 2,0s-1,1-3,2c-5,1-5,1-7,0-2-2-2-2 4-2h4zm32,0c6,0 14,0 15,1l-2,1c-6,2-15,1-18-2h5zm56,0c1,0 1,1-1,2s-7,1-8,0c-2-1-1-2 1-1 1,0 3,0 5-1h3zm32,0h4c9,0 10,0 9,2-2,0-3,1-5,1h-3c-2,1-10-1-11-3h6zm54,0c2,0 2,1 1,2-2,1-6,1-9,0-2-1-1-2 5-2h3zm-215,9c1,0 1,1 0,1-2.6,2-8.5,3-9.5,1-.3-1 .4-1 1.8-1s4,0 5.8-1h1.9zm173,1c4,0 4,0 0,2-2,1-4,1-4,1-6-1-5-3 2-3h2zm-262,0c3.8,0 4.2,1 .6,2-2.72,1-4.18,1-6.17,0-2.66-1-1.03-2 3.75-2h1.82zm174,0c4,0 4,1 0,2-2,1-4,1-6,0s-1-2 4-2h2zm-52,1h1c1,1 4,1 6,1 3-1 4,0 1,1-2,1-5,1-7,0s-2-2-1-2zm174,0l2,1h5c2,0 4,1 3,1-2,2-6,2-8,0l-2-2zm-256,1c4.6,0 5.2,0 3.7,1-.9,0-2.9,1-4.4,1-1.4,0-3.1-1-3.7-1-.8-1 .2-1 4.4-1zm169,0h2c2,1 4,1 6,0 4-1 4,0 0,2-1,0-2,1-3,1-2,0-5-2-5-3zm-136,3c3.7,0 6,0 5.4,1-2.2,2-8.7,2-10.8,0-.6-1 1.6-1 5.4-1zm89,0c3,0 5,0 4,2-1,1-7,1-9,0s-2-1 3-2h2zm82,0h3c4,0 6,1 6,1-1,2-7,2-9,1s-2-2 0-2zm-129,2h2c2,0 3,1 2,1 0,1-3,1-4,0v-1zm-86.8,0h1.8c1.6,0 2.7,1 2.4,1-.6,1-3.8,1-4.7,0-1.1-1-.9-1 .5-1zm262,0h2c2,0 3,1 3,1 0,2-3,2-5,0-1,0-1-1 0-1zm-85,0c2,0 3,1 2,2s-2,1-4,0-1-2 2-2zm-162,6l-2.4,2c-2.3,2-3.8,2-7.3,1-2.8,0-2.1-2 .7-1 1.3,0 3.9,0 5.7-1l3.3-1zm85.5,1c2,0 1,1-2,2s-4,1-7,0c-1-2-1-2 1-1 2,0 4,0 6-1h2zm89,0l-1,1c-3,2-9,3-9,1-1-1 0-1 2-1s5,0 6-1h2zm87,0s0,1-1,1c-3,2-9,3-10,1 0-1 1-1 4-1 2,0 5,0 6-1h1zm-148,2l2,1h10c6,0 7,0 5,2-1,0-2,1-3,1h-3c-2,1-8-1-10-3-2-1-2-1-1-1zm-78,0c8.2,0 10,1 8.6,2-2,2-11.5,2-15.4,1-1.7-1-3.2-2-3.2-2s4.5-1 10-1zm166,1h3c2,1 6,1 10,1 6-1 8,0 2,2h-5c-2,1-5,0-8-1s-4-2-2-2zm-94,6l2,1h7c3,0 3,0 2,2-3,2-7,1-10-1-1-1-1-2-1-2zm-83.2,1h1.9c5.2,0 5.6,0 3.8,2-2.2,1-5.3,1-7.7,0-2.8-2-2.2-2 2-2zm177,0c5,0 6,1 4,2s-7,1-9,0c-1-1 0-2 5-2zm-206,2c6.2,0 7,1 2.3,3-1.7,1-3.2,1-3.2,1-.1,0-1.1-1-2.4-1-3.5-2-2.6-3 3.3-3zm87.5,0c5,0 6,1 5,2-2,1-5,2-8,1-4-2-3-3 3-3zm86,1h2c5,0 5,0 4,2-3,1-6,1-8,0-3-2-2-2 2-2zm87,0h2c6,0 6,0 4,2-3,1-6,1-8,0-3-2-2-2 2-2zm-211,3c1,0 1,1-1,2-3,2-9,1-9-1 0,0 .8-1 1.9,0 1,0 3.5,0 5.5-1h2.6zm175,0c2,0 1,2-2,3-4,1-4,1-7,0-1-2-1-2 2-2 2,0 5,0 6-1h1zm-262,0c1.3,0 1.3,1 .6,2-2,1-6.01,2-8.82,1-3.18-1-2.67-2 4.32-2 1.9,0 3.1-1 3.9-1zm174,0c2,0 2,1 1,2-2,1-6,2-9,1s-3-2 4-2c2,0 4-1 4-1zm-147,8h3.1c2.1,1 5.9,1 8.5,1 5.7-1 6.3,0 1,2-4.5,1-3.8,1-8.7-1-2.2,0-4.1-1-4.3-1-.1,0-.2,0-.2-1h.6zm263,0c1,0 3,1 6,2 1,0 4,0 6-1 4-1 5,0 1,2s-14,0-14-2c0,0 0-1 1-1zm-88,0c1,0 2,1 4,1 2,1 6,1 8,0 4,0 4,0 3,1-2,2-10,2-13,0-3-1-3-1-2-2zm-79,0c4,1 8,1 8,1s-2,1-3,2c-4,1-5,1-10,0-5-2-4-3 5-3zm34,5h3c2,2 4,2 6,1 3-1 4-1 2,1-3,1-7,1-9,0s-2-2-2-2zm-81.3,0c4.8,0 5.3,1 3.7,2-2.3,1-6.8,1-8.2,0-.8-1 .2-2 4.5-2zm179,0c1,0 1,1 0,1-2,2-5,3-8,2-3-2-3-3 0-2 2,1 4,1 6,0 1,0 2-1 2-1zm-165,6s0,1-1,1c-2,2-5.7,3-8.2,2-2.7,0-2.1-2 .7-1 1.3,0 3.9,0 5.5-1 2,0 2-1 3-1zm-87.4,1c.2,0-.2,1-1.3,1-2.2,2-6.25,2-8.52,1-1.1-1-.4-1 2.66-1 2.26,0 4.96,0 5.96-1h1.2zm174,0s0,1-1,1c-3,2-7,2-9,1-1-1 0-1 3-1 2,0 5,0 6-1h1zm88,0s0,1-1,1c-3,2-9,3-10,1 0-1 1-1 4-1 2,0 5,0 6-1h1zm-226,1c.6,0 1,0 1,1 0,0-1,1-2.2,2-3.9,1-5.2,1-7,0-3.3-1-1.9-2 2.1-2 2.2,0 4.6,0 5.5-1h.6zm87,1c1,0 1,0 0,1s-5,2-8,1c-2-1-2-1 3-2h5zm88,0c1,0 1,0 0,2-3,1-9,2-9,0-1-1 5-2 9-2zm86,0c3,0 4,1 1,2-4,1-7,1-9,0-1,0 1-1 4-1 2-1 3-1 4-1zm-150,3h2c1,1 5,1 8,1 5,0 6,0 5,1-2,2-11,1-14-1l-1-1zm87,0h1c1,1 5,1 9,1s6,0 5,1-9,2-12,1c-2-1-3-3-3-3zm-167,1c5.4-1 8.2,0 7.6,0-1.6,2-12.3,2-14.3,1-1.5-1-.5-1 6.7-1zm-2.4,9c4.6,0 8.1,1 7.4,2-.8,2-6.8,1-9,0-1.8-2-1.7-2 1.6-2zm174,0c4,0 9,1 8,2 0,2-6,1-9,0-1-2-1-2 1-2zm-84,0c6,0 8,1 4,2-1,1-6,1-8,0s-1-2 4-2zm-126,1c6.2,0 8.2,1 4,2-3.4,1-5,1-7.8,0-2.4-2-2.2-2 3.8-2zm175,0c6,0 6,0 5,2-3,1-6,1-9,0-2-2-2-2 4-2zm-91,0h3c6,0 7,1 4,2-2,1-5,1-7,0s-2-2 0-2zm178,0c6,0 7,1 4,2-2,1-7,1-8,0s0-2 4-2zm-252,10c.4,0 .1,0-.7,1-1.7,2-5.6,3-8.2,2-3,0-2-2 1.4-2 1.8,0 4.4,0 5.8-1h1.7zm88.3,0l-1,1c-2,3-7,3-9,2-2-2-2-2 2-2 3,0 6,0 7-1h1zm87,0l-1,1c-2,2-6,3-8,2-3,0-2-2 1-2 2,0 5,0 6-1h2zm88,0l-1,1c-2,3-7,3-10,2-1-2-1-2 3-2 3,0 6,0 7-1h1zm-237,0c1.7,0 4.7,0 9.1,1 8.5,1 9.5,1 7.2,2-3.9,1-11.5,1-15.7-1-3-1-3.5-2-.6-2zm95.6,0c6,0 11,1 11,1s-2,1-3,2c-2,0-6,1-8,1-5,0-10-2-10-3 0,0 5-1 10-1zm83,1c6,0 14,0 15,1l-2,1c-5,2-17,1-18-2h5zm-246,9c.8,0 .4,1-.8,1-2.1,2-9.05,3-10,1-.34-1 .41-1 1.69-1 1.27,0 4.13,0 6.33-1h2.8zm174,0c1,0 1,1 0,1-3,2-10,3-11,1 0-1 1-1 2-1s4,0 6-1h3zm-89.1,0c1.1,0 2.1,0 2.1,1 0,0 0,1-1,1-1.9,1-10,1-10,0s5.7-1 8.9-2zm175,0c1,0 2,0 2,1 0,0 0,1-1,1-2,1-10,1-10,0s6-1 9-2zm-223,2c4.6,0 5.2,1 3.7,2-.9,0-2.9,1-4.4,1-1.4,0-3.1-1-3.7-1-.8-1 .2-2 4.4-2zm87.4,0c5,0 6,1 4,2-1,0-3,1-5,1-1,0-3-1-4-1-1-1 0-2 5-2zm88,0c4,0 5,1 3,2-1,0-3,1-4,1-2,0-3-1-4-1-1-1 0-2 5-2zm87,0c5,0 6,1 4,2-1,0-3,1-5,1-1,0-3-1-4-1-1-1 0-2 5-2zm-231,4h2.1c3.4,0 5.7,1 5.2,1-1.4,1-6.7,2-9.1,1-3.4-1-2.7-2 1.8-2zm175,0h2c3,0 6,1 5,1-1,1-6,2-9,1s-2-2 2-2zm-86,0c6,0 6,0 5,2-2,0-3,1-5,1-1,0-2-1-4-1-1-2-1-2 4-2zm-132,2h1.8c1.6,0 2.7,1 2.4,1-.6,1-3.8,1-4.7,0-1.1-1-.9-1 .5-1zm175,0h2c2,0 3,1 2,1 0,1-3,1-4,0s-1-1 0-1zm-86,0c2,0 3,0 3,1s-1,1-2,1c-2,0-3,0-4-1 0-1 1-1 3-1zm175,0c2,0 3,0 3,1s-1,1-2,1c-2,0-3,0-3-1-1-1 0-1 2-1zm-248,6l-2.4,2c-2.3,2-3.8,2-7.3,1-2.8,0-2.1-2 .7-1 1.3,0 3.9,0 5.7-1l3.3-1zm174,0l-2,2c-2,2-4,2-7,1-3,0-2-2 0-1 2,0 4,0 6-1l3-1zm-93,1c5,0 5,0 3,2-1,1-5,1-8,0-2-1-1-2 5-2zm175,0c5,0 5,0 3,2-1,1-5,1-8,0-2-1-1-2 5-2zm-230,2c.7,0 2.1,0 4.1,1 2.3,1 6.7,1 9.8,0 5.2,0 5.2,0 3.2,1-3.2,2-10.5,2-14.9,0-2.8-1-3.4-2-2.2-2zm175,0c1,0 2,0 4,1s7,1 10,1c5-1 5-1 3,0-4,2-11,2-15,0-3-1-3-2-2-2zm-70,1c3-1 2,0-1,2-5,1-10,1-15-1-4-1-4-2 3-1h10 3zm-107,7h1.9c5.2,0 5.6,0 3.8,2-2.2,1-5.3,1-7.7,0-2.8-2-2.2-2 2-2zm175,0h2c5,0 5,0 4,2-3,1-6,1-8,0-3-2-2-2 2-2zm-85,0c5,0 5,0 3,2-1,1-5,1-8,0-2-1-1-2 5-2zm-118,3c6.2,0 7,0 2.3,2-1.7,1-3.2,1-3.2,1-.1,0-1.1-1-2.4-1-3.5-2-2.6-2 3.3-2zm87.5,0c5,0 6,0 5,1-3,2-7,2-9,0-2-1-2-1 4-1zm87,0h6c0,2-6,3-8,2-5-2-4-2 2-2zm88,0c5,0 6,0 3,2-2,1-4,1-7,0-3-2-2-2 4-2zm-213,3c1,0 1,0 0,1-1.4,2-8.5,3-9.5,1-.3-1 .4-1 1.8-1s4,0 5.8-1h1.9zm175,0c1,0 1,0 0,1-1,2-8,3-10,1 0-1 1-1 2-1 2,0 4,0 6-1h2zm-263,0c2.4,0 2.3,1 1.1,1-1.9,2-6.68,2-9.17,1-2.73-1-.96-2 4.88-2h3.19zm174,0c3,0 3,1 1,1-1,2-6,2-9,1-2-1-1-2 5-2h3zm-146,8h3.2c2,1 6.1,1 9,1 5.9-1 6.1,0 .4,2-4.5,1-3.8,1-8.7-1-2.2,0-4.1-1-4.3-1-.1,0-.2,0-.2-1h.6zm175,0h3c2,1 6,1 9,1 6-1 6,0 0,2-4,1-4,1-8-1-3,0-5-1-5-1v-1h1zm-80,1c7,0 9,0 8,1-2,2-9,2-13,1-2-1-3-2-3-2h8zm175,0c7,0 9,0 8,1-2,2-9,2-13,1-2-1-3-2-3-2h8zm-227,3c.2,0 .6,1 1.2,1 1,1 3.1,1 5.7,1 3.9-1 4.1-1 2.4,1-2.4,1-6.8,1-8.4,0-1.2-1-1.5-3-.9-3zm92.7,1c4,0 5,1 3,2-1,0-3,1-4,1-2,0-3-1-4-1-1-1 0-2 5-2zm88,0c4,0 5,1 3,2-1,0-3,1-4,1-2,0-3-1-4-1-1-1 0-2 5-2zm-249,7c1.6,0 1.1,1-1.7,2-3.5,1-4.71,1-6.98-1-1.85-1-1.82-1 .78,0 1.5,0 4.1,0 5.8-1h2.1zm174,0c2,0 1,1-2,2s-4,1-7-1c-1-1-1-1 1,0 2,0 4,0 6-1h2zm-86,0l-2,1c-2.9,2-5.9,2-8,1-1.1-1-.6-1 2-1 1.9,0 5,0 6-1h2zm176,0l-3,1c-3,2-6,2-8,1-1-1-1-1 2-1 2,0 5,0 6-1h3zm-227,1c.6,0 1,0 1,1 0,0-1,1-2.2,1-3.9,2-5.2,2-7,1-3.3-1-1.9-2 2.1-2 2.2,0 4.6,0 5.5-1h.6zm175,0c1,0 1,0 1,1 0,0-1,1-2,1-4,2-5,2-7,1-3-1-2-2 2-2 2,0 5,0 5-1h1zm-92,1h2 4l-2,2c-4,1-6,1-8,0s-2-1-1-1c1-1 3-1 5-1zm175,0h2 5l-4,2c-3,1-5,1-7,0s-2-1-1-1c1-1 3-1 5-1zm-139,3c4,0 8,1 8,1s-2,1-3,2c-4,1-6,1-10,0-5-2-3-3 5-3zm-88,0c7.7,1 9.8,1 6.4,2-2.8,1-11,1-12.7,0-1.5-1-.4-2 6.3-2zm175,0c8,1 10,1 6,2-2,1-11,1-12,0-2-1-1-2 6-2zm-87,11c6,0 8,1 4,2-1,1-6,1-8,0-3-1-1-2 4-2zm87,0c6,0 8,1 4,2-2,1-6,1-8,0-1-2-1-2 4-2zm-175,0c5.6,0 7.5,1 4.2,2-2.6,1-5.9,1-8,0-1.7-2-1.4-2 3.8-2zm-38.4,1c6.2,0 8.2,1 4,2-3.4,1-5,1-7.8,0-2.4-2-2.2-2 3.8-2zm87.2,0c6,0 8,1 4,2-2,1-6,1-8,0-1-2-1-2 4-2zm88,0c6,0 8,1 4,2s-5,1-8,0c-2-2-2-2 4-2zm87,0c6,0 8,1 4,2-2,1-6,1-8,0-1-2-1-2 4-2zm-252,10c.4,0 .1,0-.7,1-1.7,2-5.6,3-8.2,2-3,0-2-2 1.4-2 1.8,0 4.4,0 5.8-1h1.7zm175,0l-1,1c-2,2-6,3-8,2-3,0-2-2 1-2 2,0 5,0 6-1h2zm-57,0h4c5,0 10,1 10,1 0,1-1,1-3,2-4,1-10,1-14-1-2,0-3-1-3-1 0-1 3-1 6-1zm-87.6,0h4.1c5.8,0 10.5,1 10.5,1 0,1-1.7,1-3.8,2-5,1-10,1-14-1-1.7,0-3.2-1-3.2-1 0-1 2.6-1 6.4-1zm175,0h5c5,0 10,1 10,1 0,1-1,1-3,2-4,1-11,1-15-1-2,0-3-1-3-1 0-1 3-1 6-1zm-119,0c1,0 2,1 2,1s-1,1-3,1c-5,2-5,2-7,1-2-2-2-2 4-2 1,0 3,0 4-1zm176,0l1,1s-1,1-3,1c-2,1-4,2-4,2s-2-1-3-1c-2-1-2-1 3-2 3,0 5-1 6-1zm-303,10c.8,0 .4,1-.8,1-2.1,2-9.05,3-10,1-.34-1 .41-1 1.69-1 1.27,0 4.13,0 6.33-1h2.8zm85.9,0c1,0 1,1 0,1-2.6,2-8.5,3-9.5,1-.3-1 .2-1 1.2-1s3.6,0 5.8-1h2.5zm88,0c1,0 1,1 0,1-3,2-10,3-11,1 0-1 1-1 2-1s4,0 6-1h3zm87,0c1,0 1,1 0,1-3,2-9,3-10,1 0-1 1-1 2-1s3,0 6-1h2zm-142,2h1c1,1 4,1 6,1 3-1 3-1 2,1-1,1-6,1-8,0s-2-2-1-2zm175,0h1c1,1 4,1 6,1 3-1 3-1 2,1-1,1-6,1-8,0s-2-2-1-2zm-257,0c4.6,0 5.2,1 3.7,2-.9,0-2.9,1-4.4,1-1.4,0-3.1-1-3.7-1-.8-1 .2-2 4.4-2zm175,0c4,0 5,1 3,2-1,0-3,1-4,1-2,0-3-1-4-1-1-1 0-2 5-2zm-144,4h2.1c3.4,0 5.7,1 5.2,1-1.4,1-6.7,2-9.1,1-3.4-1-2.7-2 1.8-2zm90,0c3,0 5,0 4,1s-5,2-8,1-2-2 4-2zm87,0c4,0 6,0 5,1-2,2-8,2-10,0-1-1 1-1 5-1zm-133,2h2c2,0 3,1 2,1 0,1-3,1-4,0v-1zm175,0h2c2,0 3,1 2,1 0,1-3,1-4,0v-1zm-262,0h1.8c1.6,0 2.7,1 2.4,1-.6,1-3.8,1-4.7,0-1.1-1-.9-1 .5-1zm175,0h2c2,0 3,1 2,1 0,1-3,1-4,0s-1-1 0-1zm-160,6l-2.4,2c-2.3,2-3.8,2-7.3,1-2.8,0-2.1-2 .7-1 1.3,0 3.9,0 5.7-1l3.3-1zm174,0l-2,2c-2,2-4,2-7,1-3,0-2-2 0-1 2,0 4,0 6-1l3-1zm-89,1c2,0 1,1-2,2s-4,1-7-1c-1-1-1-1 1,0 2,0 4,0 6-1h2zm175,0c2,0 1,1-2,2s-4,1-7-1c-1-1-1-1 1,0 2,0 4,0 6-1h2zm-225,3h10c0,1-1.4,1-3.2,2-4.2,1-9.6,1-13.6,0-1.7-1-3.2-2-3.2-2h10zm87,0h11s-2,1-3,2c-5,1-11,1-15,0-2-1-3-2-3-2h10zm88,0h10c0,1-1,1-3,2-4,1-10,1-14,0-2-1-3-2-3-2h10zm-102,6c1,1 4,1 7,1 4,0 4,0 3,2-3,2-6,1-9-1-2-1-2-2-1-2zm-84.2,1h1.9c5.2,0 5.6,0 3.8,2-2.2,1-5.3,1-7.7,0-2.8-2-2.2-2 2-2zm175,0h2c5,0 5,0 4,2-3,1-6,1-8,0-3-2-2-2 2-2zm-116,2c5,0 6,1 5,2-2,1-8,1-10,0-1-1 0-2 5-2zm175,0c4,0 6,1 5,2s-5,2-8,1c-4-2-3-2 3-3zm-262,1c6.2,0 7,0 2.3,2-1.7,1-3.2,1-3.2,1-.1,0-1.1-1-2.4-1-3.5-2-2.6-2 3.3-2zm174,0c7,0 7,0 3,2-2,1-3,1-3,1s-2-1-3-1c-3-2-2-2 3-2zm-125,3c1,0 1,1-1,2-3,2-9,1-9-1 0,0 .8-1 1.9,0 1,0 3.5,0 5.5-1h2.6zm-87.9,0c2.4,0 2.3,1 1.1,1-1.9,2-6.68,2-9.17,1-2.73-1-.96-2 4.88-2h3.19zm174,0c3,0 3,1 1,1-1,2-6,2-9,1-2-1-1-2 5-2h3zm88,0c2,0 2,1 1,2-2,1-6,1-9,0-2-1-1-2 5-2h3zm-234,8h3.1c2.1,1 5.9,1 8.5,1 5.7-1 6.3,0 1,2-4.5,1-3.8,1-8.7-1-2.2,0-4.1-1-4.3-1-.1,0-.2,0-.2-1h.6zm175,0h3c2,1 6,1 8,1 4-1 5,0 4,1-2,2-7,2-11,0-3,0-5-1-5-1v-1h1zm-79,1h8s-2,1-3,2c-4,1-5,1-10,0-5-2-4-3 5-2zm175,0h8s-2,1-3,2c-4,1-5,1-10,0-5-2-4-3 5-2zm-228,3c.2,0 .6,1 1.2,1 1,1 3,1 5.7,1 4-1 4.2-1 2.4,1-2.4,1-6.8,1-8.4,0-1.2-1-1.5-3-.9-3zm87.7,1h1c1,1 4,1 6,1 3-1 3-1 2,1-3,1-6,1-8,0s-2-2-1-2zm93,0c4,0 5,1 3,2s-6,1-8,0c-1-1 0-2 5-2zm-161,6s0,1-1,1c-2,2-5.7,3-8.2,2-2.7,0-2.1-2 .7-1 1.3,0 3.9,0 5.5-1 2,0 2-1 3-1zm175,0s0,1-1,1c-2,2-6,3-8,2-3,0-2-2 0-1 2,0 4,0 6-1 2,0 2-1 3-1zm-263,1c1.6,0 1.1,1-1.7,2-3,1-3.2,1-6.17,0-3.02-1-2.88-2 .22-1 1.37,0 3.85,0 5.55-1h2.1zm174,0c2,0 1,1-2,2s-3,1-6,0-3-2 0-1c2,0 4,0 6-1h2zm38,1c1,0 1,0 1,1 0,0-1,1-2,1-4,2-5,2-7,1-3-1-2-2 2-2 2,0 5,0 5-1h1zm-176,1c2.5,0 3.1,0 2.3,1-1,1-6.3,2-8.6,1-4,0-2.3-2 3-2h3.3zm86.5,0h3c-1,2-6,3-9,2s-2-2 5-2h1zm175,0c2,0 3,0 3,1-1,1-10,1-10,0-1,0 1-1 4-1h3zm-141,3c7,0 8,1 6,2s-10,1-12,0-1-2 6-2zm-87.6,0c5.4,0 8.2,1 7.6,1-1.6,2-12.3,2-14.3,1-1.5-1-.5-1 6.7-2zm175,0c6,0 9,1 8,1-2,2-12,2-14,1s-1-1 6-2z"/>
</svg>
