<svg xmlns="http://www.w3.org/2000/svg" version="1.1" viewBox="0 0 500 500">
<circle cy="250" cx="250" r="245" fill="#fff"/>
<path fill="#2c2e6a" d="m250-0.00001339c-137.94 0-250 112.06-250 250-0.0033763 137.94 112.06 250 250 250s250-112.06 250-250-112.06-250-250-250zm0 22.509c70.465 0 133.38 31.934 175.09 82.138-13.506 28.452-38.997 48.575-57.928 73.212-12.268 13.371-15.712 32.582-12.954 50.083-0.0225 7.1355 3.2638 13.652 4.9633 20.45 2.7236 7.1355 2.8024 23.466 9.2513 21.969 5.5936-0.20259 3.1063-16.263 2.7011-23.545-0.28137-6.4714-4.862-18.098-4.1305-27.439 0.1238-12.166 6.5052-23.579 16.229-30.725 14.676-10.557 30.939-18.672 46.752-27.371 8.97-3.9504 15.959-11.446 19.774-20.337 17.692 32.368 27.743 69.52 27.743 109.06 0 125.77-101.72 227.49-227.49 227.49s-227.49-101.72-227.49-227.49c-0.0034-40.944 10.788-79.345 29.67-112.51 0.81484 1.9358 1.7186 3.8041 2.7022 5.5598 12.354 23.714 41.346 29.386 58.453 48.373 10.388 9.8478 8.5648 30.849 8.3284 38.457-0.0112 9.8591 0.43894 19.696 1.5869 29.487-0.619 7.113 6.6515 14.316 8.9024 3.5902 2.5661-11.975 3.3201-24.299 4.3893-36.488 2.6223-24.085-3.2301-50.466-21.148-67.731-7.2818-8.6886-19.133-10.219-27.855-16.747-8.8687-8.6211-12.586-21.316-13.382-33.381 0.08216-1.0129 0.04164-1.9921-0.09904-2.9262 41.71-50.799 105.01-83.171 175.96-83.171zm68.699 143.9c-0.23635-0.0113-0.48395 0.0675-0.65277 0.19133-0.21384 0.16882-0.36015 0.37141-0.48395 0.58524-0.25886 0.43894-0.45019 0.96791-0.63026 1.4969-0.19133 0.51771-0.37141 1.0242-0.52897 1.3393l-0.0113 0.0113c-4.0067 8.1934-10.872 14.541-17.535 20.787l-0.0338 0.0338c-2.1159 2.3747-5.1772 4.772-5.8074 8.4072-0.0113 0.0675-0.0113 0.13505 0 0.19133 0.16882 0.91162 0.65277 1.5982 1.2943 2.0371 0.64151 0.42768 1.4068 0.61901 2.1947 0.69779 1.5756 0.13506 3.2751-0.21384 4.4456-0.52897 0.0225 0 0.0563-0.0112 0.0788-0.0225 2.7124-1.2268 5.1996-2.7912 7.5744-4.4906-4.4794 4.243-9.2626 8.2159-13.945 12.29l-0.0338 0.0338c-1.6207 1.677-4.2318 3.3201-4.6369 6.2238-0.0112 0.0675 0 0.13505 0.0113 0.20258 0.16882 0.75406 0.5965 1.3618 1.1367 1.767 0.55148 0.41643 1.2042 0.66403 1.8683 0.82159 1.3506 0.32639 2.8249 0.30388 3.8491 0.3489h0.10129c3.1513-0.45019 6.2238-1.193 9.2513-2.0709-1.4744 1.7107-3.0388 3.3539-4.6707 4.907l-0.0225 0.0225c-3.1963 3.3089-7.5069 5.2897-11.356 8.0696-1.2943 0.56273-2.2059 1.7445-2.3747 2.9825-0.0788 0.63026 0.0675 1.2943 0.51771 1.8008 0.43893 0.49521 1.148 0.78783 2.0484 0.86661 3.005 0.48395 6.2351 1.2943 9.4764 0.52897 0.0113 0 0.0225-0.0113 0.0338-0.0113 1.5419-0.47269 3.0275-1.0804 4.4681-1.767-1.9358 1.9358-4.0404 3.6803-6.3476 5.1321l-0.0338 0.0338c-2.1159 1.5644-4.907 1.8007-7.5969 2.7461-0.97915 0.20258-1.9358 0.82159-2.476 1.6882-0.27011 0.42767-0.42767 0.94539-0.34889 1.4856 0.0788 0.54023 0.40517 1.0579 0.93414 1.4744 0.0225 0.0225 0.0563 0.0338 0.0788 0.0563 2.8137 1.5081 6.1563 1.6207 9.1613 1.0692h0.0338c0.9679-0.22509 1.9246-0.4952 2.8699-0.79908-2.915 2.3522-6.1 4.4456-8.97 6.9554l15.396 19.167c1.0354-0.45019 2.0596-0.92288 3.0613-1.4406l0.0225 3.7591c0.0113 1.5532 1.283 2.8137 2.8362 2.8024l7.8783-0.0338c1.5532-0.0113 2.8024-1.283 2.7912-2.8362l-0.0112-2.6448c4.7607 2.3972 9.769 4.3781 15.16 4.8958h0.045c1.4181 0.0113 3.0275-0.20258 4.4681-0.79908 1.4518-0.58525 2.7461-1.5644 3.4327-3.0613 0.0225-0.045 0.0338-0.10129 0.045-0.15757 0.1013-0.86661-0.11254-1.6319-0.50646-2.2622-0.40516-0.63026-0.9679-1.1255-1.5756-1.5531-1.2155-0.86661-2.6336-1.5194-3.4777-2.2172-0.0225-0.0113-0.045-0.0338-0.0788-0.045-1.7782-1.0129-3.5902-1.9583-5.346-2.9712 0.81034 0.32638 1.6207 0.64151 2.4423 0.93413 0.0563 0.0225 0.10129 0.0338 0.15756 0.0338 2.7461 0.20258 5.436-1.5869 6.6965-3.8941 0.0113-0.0113 0.0225-0.0338 0.0338-0.0675 0.65277-1.6769 0.15756-3.2638-0.68654-4.5806-0.8441-1.3055-2.0371-2.4198-2.9375-3.3764-0.0225-0.0112-0.0338-0.0225-0.045-0.0338-2.2622-1.9246-4.5469-3.8041-6.7753-5.7511 0.42768 0.10129 0.83285 0.22509 1.2605 0.32639h0.045c2.6111 0.32638 5.2784-0.51772 7.4056-1.902 0.045-0.0338 0.09-0.0788 0.1238-0.1238 0.65277-0.79909 0.86661-1.6657 0.68653-2.4535-0.16882-0.78783-0.66402-1.4406-1.2605-2.0033-1.1817-1.148-2.8587-2.0033-3.8491-2.5886-0.0113-0.0113-0.0338-0.0225-0.0563-0.0338-2.3635-1.0242-4.4568-2.6111-5.4698-4.9521-0.0113-0.0112-0.0225-0.0225-0.0225-0.0338-0.36015-0.66403-0.68653-1.3393-1.0129-2.0258 1.3731 0.56273 2.7461 1.0917 4.1642 1.5531 1.2943 0.41642 3.005 0.31513 4.3218-0.34889 0.65277-0.32639 1.2268-0.82159 1.4856-1.5194 0.2476-0.69779 0.13505-1.5419-0.37141-2.4085v-0.0113c-3.3089-5.5373-7.1692-10.703-11.131-15.768 1.9921 0.73155 4.0179 1.3956 6.0888 1.9133 1.4294 0.48395 2.9375 0.10129 3.9616-0.79908 1.0129-0.88912 1.5194-2.386 0.87786-3.8941-2.3635-6.4377-8.1822-10.388-12.144-15.295h-0.0113c-0.23635-0.29262-0.46145-0.58525-0.69779-0.87787 0.045 0.0113 0.09 0.0338 0.13505 0.0338 0.0113 0.0113 0.0225 0.0113 0.0225 0.0113 3.095 0.51772 6.4377 1.5644 9.8028 0.92288 0.10129-0.0225 0.19133-0.0675 0.27011-0.14631 0.78783-0.7203 1.0917-1.5982 0.94539-2.4085-0.15756-0.81033-0.67528-1.4856-1.283-2.1159-1.2268-1.238-2.9487-2.3072-3.7253-3.0388-5.5373-6.1338-10.129-13.123-15.048-19.842-0.36015-0.85536-0.63026-1.3843-1.2268-1.5869-0.0788-0.0338-0.15756-0.045-0.2476-0.045zm-244.63 18.32c-0.16094 0-0.31288 0.0788-0.41642 0.20258-4.5919 5.5148-9.3785 10.861-14.353 16.027l-0.01351 0.0113c-2.7349 3.0162-5.9537 5.7286-8.3712 9.1951-0.64152 0.78783-0.91613 1.5757-0.7957 2.2847 0.12155 0.7203 0.61901 1.2605 1.22 1.5982 1.1784 0.66403 2.8384 0.7203 4.1372-0.0225 4.198-1.4519 8.3577-3.005 12.528-4.5019-2.9892 3.05-6.1687 5.9312-9.4303 8.6999-0.0056 0.0112-0.01238 0.0112-0.01801 0.0225-2.5087 2.3297-5.6465 4.0067-8.2846 6.4827-0.73943 0.63026-1.5464 1.5419-1.9786 2.5998-0.43218 1.0579-0.4108 2.3747 0.5965 3.3314 0.03151 0.0338 0.0664 0.0563 0.10467 0.0788 2.3849 1.3843 5.2165 1.2042 7.6813 0.82159 0.0056-0.0112 0.01238-0.0112 0.01913-0.0112 3.4361-0.65277 6.7179-1.8008 9.894-3.1738-1.5149 1.2605-3.0624 2.4873-4.6268 3.6803l-0.0068 0.0113c-3.9943 3.1401-8.5772 5.5486-12.747 8.6436-0.01913 0.0225-0.03827 0.0338-0.05515 0.045-0.60888 0.5965-1.6105 1.3618-2.3297 2.296-0.36015 0.46144-0.65615 0.99041-0.76307 1.5869-0.10692 0.5965 0.0011 1.2493 0.38266 1.8683 0.02138 0.0338 0.04614 0.0675 0.07428 0.09 1.5408 1.5982 3.8885 2.6448 6.1856 2.3297 0.01688-0.0113 0.03264-0.0113 0.04839-0.0113 4.0055-0.92289 7.8906-2.2059 11.718-3.6353-4.2982 3.1288-8.7449 6.0663-13.31 8.7899-0.009 0-0.01913 0.0113-0.02814 0.0113-0.94764 0.65277-2.7439 1.4406-4.153 2.476-0.70342 0.52897-1.3292 1.1142-1.6905 1.8683-0.36015 0.74281-0.40404 1.6544 0.01801 2.5661 0.04164 0.09 0.10467 0.16882 0.18458 0.22509 2.4727 1.7445 5.7444 1.5982 8.4151 0.83285h0.01913c3.1828-1.0354 6.2542-2.3297 9.2525-3.7591-1.0039 1.0692-2.0202 2.1384-3.0466 3.1851-3.1243 2.9262-6.073 6.1-9.9255 7.6982-0.009 0.0113-0.01913 0.0113-0.02814 0.0225-0.79008 0.38266-2.0517 0.99041-2.9566 1.857-0.45244 0.43894-0.83285 0.9454-0.9544 1.5757-0.12042 0.63026 0.0709 1.3393 0.58524 1.9583 0.05402 0.0675 0.12155 0.1238 0.19808 0.15757 2.3837 1.103 5.0736 1.2943 7.5879 1.238h0.02251c5.3471-0.32639 10.258-2.5323 14.624-5.4698v3.5115c0 1.5531 1.2594 2.8137 2.8137 2.8137h5.3719c1.5543 0 2.8137-1.2605 2.8137-2.8137v-6.1338c4.2374 2.7349 8.8068 4.9521 13.804 5.9537h0.02251c3.1401 0.49521 6.674 0.36015 9.5215-1.4293 0.0563-0.0338 0.10129-0.0675 0.13505-0.1238 0.43894-0.52897 0.63027-1.1367 0.60776-1.7107-0.0338-0.57399-0.25886-1.103-0.56274-1.5644-0.59649-0.93414-1.5306-1.6657-2.2397-2.1722v-0.0113c-3.2076-2.3185-6.8879-3.7253-9.7015-6.2351 0-0.0113-0.01126-0.0225-0.02251-0.0225-1.2605-1.0129-2.521-2.0371-3.7591-3.095 1.8233 0.86661 3.7028 1.6207 5.6498 2.2172 0.01126 0 0.03376 0.0112 0.05627 0.0112 2.7236 0.55148 6.2013 0.75407 8.5873-1.3168 0.045-0.0338 0.0788-0.0788 0.10129-0.11255 0.4727-0.73155 0.58525-1.5081 0.42768-2.1947-0.15757-0.69779-0.54022-1.3055-1.0017-1.857-0.93413-1.103-2.1947-2.0258-2.8362-2.7461l-0.06753-0.0675c-3.4664-2.7124-7.0229-5.2784-9.8141-8.5873l-0.01126-0.0113c-0.5965-0.66402-1.193-1.3393-1.7782-2.0258 2.2734 1.2605 4.6144 2.4198 7.0567 3.3764l0.01126 0.0113c2.7236 1.0017 5.7624 0.55148 8.2609-0.67528 0.0113 0 0.0225-0.0113 0.0338-0.0113 0.67528-0.39391 1.1142-0.94539 1.2943-1.5531 0.18007-0.60775 0.11254-1.238-0.0675-1.8233-0.37141-1.1705-1.2268-2.2172-2.0596-2.8924-4.6819-4.3668-10.332-7.3493-15.183-11.232 2.9937 1.6657 6.1113 3.095 9.4314 4.0967 0.03376 0.0113 0.05627 0.0113 0.07878 0.0225 1.4969 0.21384 3.3651-0.25886 4.7607-1.2155 0.69778-0.48396 1.2943-1.103 1.5982-1.8683 0.31513-0.77657 0.30387-1.6882-0.1238-2.5886-0.0225-0.0338-0.045-0.0788-0.0675-0.1013-2.0821-2.5998-5.2447-3.8941-7.732-5.5936-0.01126-0.0112-0.03376-0.0225-0.05627-0.0225-4.0404-2.1834-7.6082-5.1884-10.467-8.7674 3.005 1.0467 6.01 2.1159 8.9925 3.2188 0.73155 0.33764 1.7557 0.86661 2.8137 1.0354 0.54022 0.0788 1.103 0.0788 1.6207-0.15757 0.52897-0.22509 0.9679-0.69779 1.238-1.3506 0.03376-0.09 0.04502-0.18007 0.03376-0.27011-0.33764-2.7461-1.9921-4.952-3.3426-7.0342-0.02251-0.0338-0.04502-0.0675-0.06753-0.09-6.9666-6.8428-14.001-13.607-20.982-20.416-0.10917-0.11254-0.25548-0.16882-0.40629-0.15756h-0.0023zm346.66 9.7578c-0.14631 0-0.28137 0.0675-0.38266 0.16882-4.6257 4.6932-9.4989 9.15-14.62 13.303v0.0113c-2.2509 1.902-5.0758 3.8266-6.2576 6.9104-0.0338 0.09-0.045 0.18007-0.0338 0.27011 0.21384 1.6432 1.4969 2.6111 2.8924 3.0725 1.3843 0.46144 2.9487 0.51771 4.1192 0.40517 0.045 0 0.09-0.0113 0.13506-0.0225 2.2622-0.76532 4.3218-1.9133 6.2576-3.2414-1.5194 1.5869-3.1176 3.095-4.7607 4.5356h-0.0113c-2.9037 2.5661-6.1225 4.7382-9.6228 6.3702l-0.0675 0.0338c-1.767 1.0917-4.3668 2.0596-5.2672 4.5469-0.0225 0.0675-0.0338 0.13505-0.0338 0.20258 0.0225 0.8441 0.39392 1.5419 0.9454 1.9921 0.55148 0.46144 1.238 0.70904 1.9583 0.85535 1.4293 0.30388 3.0275 0.21384 4.0292 0.20259h0.0788c3.5452-0.50646 7.0117-1.3731 10.411-2.4198-1.2042 1.3056-2.4648 2.5886-3.7253 3.8378-4.5356 4.4456-9.4202 8.5536-14.969 11.615-0.68654 0.38266-2.1384 1.1367-3.0838 2.0371-0.4727 0.46144-0.88912 0.97916-0.83285 1.6657 0.0338 0.3489 0.21384 0.67528 0.48395 0.92289 0.27011 0.25885 0.61901 0.43893 1.0692 0.60775 0.0225 0 0.0338 0.0112 0.045 0.0112 3.5227 0.9454 7.3268 1.7782 11.097 1.0242h0.0225c2.7574-0.63026 5.3347-1.6995 7.7432-3.0725-1.1255 1.0579-2.2734 2.0821-3.4552 3.0613-0.0113 0-0.0113 0.0113-0.0225 0.0113-4.1417 3.7253-9.4427 5.7736-14.597 8.0808-0.66402 0.28137-1.9921 0.76532-2.9375 1.4744-0.48395 0.36015-0.92288 0.78783-1.0129 1.4068-0.10129 0.61901 0.2476 1.2493 0.91163 1.7445 0.0338 0.0225 0.0675 0.045 0.11255 0.0563 3.1738 1.4068 6.7078 2.4423 10.321 2.1496h0.0113c3.2301-0.3489 6.3139-1.2605 9.2626-2.5098-1.5306 1.8908-3.2301 3.624-5.1659 5.1209-0.0113 0-0.0113 0.0113-0.0225 0.0113-3.7366 3.1288-8.6774 4.1867-13.382 5.7962-0.9679 0.27011-2.6561 0.91163-3.7703 1.8008-0.55148 0.43893-1.0467 1.0017-0.9679 1.7332 0.0338 0.3714 0.2476 0.70904 0.54022 0.97915 0.30388 0.27012 0.69779 0.48396 1.2155 0.68654 0.0338 0.0113 0.0675 0.0113 0.1013 0.0225 3.7816 0.69779 7.7094 1.0917 11.604 0.75406h0.0225c6.6178-0.78782 12.684-3.7478 18.007-7.6419v6.9216c0 1.5532 1.2493 2.8137 2.8137 2.8137h5.9087c1.5531 0 2.8024-1.2605 2.8137-2.8137v-7.2255c5.1659 3.1626 10.478 6.1113 16.162 8.3172 0.0338 0.0113 0.0675 0.0225 0.10129 0.0225 3.2751 0.63026 5.8074 1.0242 7.9571 0.97915 2.1496-0.0563 3.9279-0.55148 5.5823-1.6657l0.0113-0.0112c1.2155-0.86661 2.296-1.6657 2.7461-2.6561 0.22509-0.4952 0.21383-1.1367-0.16882-1.5982-0.36015-0.45019-0.9454-0.7203-1.7782-0.94539-6.4152-2.2172-12.583-5.1997-18.12-9.1275-0.27011-0.19133-0.52897-0.39391-0.79908-0.58524 2.1046 0.74281 4.2543 1.3506 6.4714 1.7557 0.0225 0.0113 0.0338 0.0113 0.045 0.0113 4.108 0.46144 8.6661-0.0675 12.211-2.4648 0.09-0.0675 0.16882-0.15757 0.21384-0.25886 0.34889-0.92288 0.31513-1.8008-0.0338-2.4985-0.34889-0.69779-0.94539-1.2268-1.6207-1.6432-1.3393-0.8441-3.05-1.3393-4.0967-1.767l-0.0113-0.0113c-2.9262-1.0917-5.7511-1.6094-8.3622-2.4198-2.5998-0.79908-4.9858-1.902-7.1467-4.1755l-0.0113-0.0113c-0.58524-0.58524-1.1255-1.2155-1.6432-1.857 2.7236 1.1592 5.5035 2.1834 8.3847 2.9487h0.0113c2.9037 0.67528 6.629 0.19133 8.5085-2.521 0.0225-0.0338 0.045-0.0563 0.0563-0.09 0.36015-0.83285 0.38266-1.6544 0.15757-2.3747-0.2251-0.73155-0.66403-1.3506-1.1817-1.9133-1.0354-1.1255-2.4198-2.0146-3.2639-2.7574-0.0225-0.0225-0.045-0.0338-0.0675-0.0563-4.0967-2.6786-8.441-4.8733-11.84-8.2497l-0.0112-0.0113c-1.9696-1.8345-3.5452-3.7591-4.9183-5.7736 2.341 1.3506 4.7495 2.6111 7.2368 3.714 0.0338 0.0112 0.0788 0.0225 0.11254 0.0338 2.6223 0.51772 4.1305 0.55148 5.3122 0.20259 1.1817-0.3489 1.9133-1.0242 3.005-1.767 1.3956-0.94539 1.7332-2.4648 1.3956-3.7928-0.3489-1.328-1.2605-2.521-2.3747-3.2526-2.4198-2.1271-5.3572-3.4214-8.1484-4.772-2.7912-1.3618-5.436-2.8024-7.3943-5.1434-0.36015-0.55148-0.57399-1.1592-0.7203-1.812 1.2605 0.49521 2.5548 0.91163 3.8829 1.2155 0.0113 0 0.0225 0.0112 0.0338 0.0112 2.4985 0.40517 5.7849 1.1705 8.2384-0.70904 0.045-0.045 0.09-0.09 0.1238-0.14631 0.45018-0.69779 0.59649-1.4519 0.51771-2.1496-0.0788-0.70905-0.36015-1.3506-0.73155-1.9583-0.73156-1.2042-1.8233-2.2509-2.5661-3.05-0.0112-0.0225-0.0338-0.045-0.0563-0.0563-5.5823-4.5356-11.333-8.8687-16.972-13.314-0.11255-0.09-0.23635-0.1238-0.37141-0.1238zm-272.69 61.394c-0.10129 0.0112-0.21384 0.045-0.29262 0.11254 0 0-8.4635 6.4152-6.9892 16.443 0.40516 2.7011 1.902 4.6144 3.8716 5.8749 1.9583 1.2605 4.3781 1.902 6.719 2.2397 4.6257 0.65277 8.9475 0.045 9.0713 0.0338h26.358c0.16882 0 0.33764-0.0788 0.43893-0.21384l15.621-19.302c0.30388-0.3714 0.0225-0.92288-0.45019-0.91163 0 0-22.487 0.5965-41.102 1.4856-6.3927 0.31513-9.5327-1.103-11.075-2.4985-0.77657-0.69779-1.1592-1.3956-1.3618-1.9133-0.20258-0.51772-0.20258-0.81034-0.20258-0.81034-0.0113-0.29262-0.2476-0.52897-0.54022-0.54022h-0.0675z"/>
<path fill="#a80c0c" d="m268.08 33.902-10.43 51.464 10.589 2.1454 8.1267-40.099 1.1211 41.974 10.589 2.1454 17.235-38.25-8.1288 40.097 10.589 2.1476 10.433-51.464-15.955-3.2335-17.337 39.112-1.0178-42.834zm-49.894 2.9544-11.769 2.1125-9.0851 54.984 10.848-1.9476 1.6024-11.046 19.355-3.4731 5.2735 9.8105 10.918-1.9608zm-3.9083 13.291 10.362 18.997-13.471 2.4158zm-58.116 8.0607c-0.39547-0.0074-0.7926-0.003-1.1914 0.01319-3.8286 0.15564-7.7969 1.3976-11.626 3.6248-12.827 7.46-15.69 20.879-7.1441 35.573 8.474 14.57 21.525 18.809 34.164 11.457 11.27-6.5547 15.399-16.789 9.9115-27.512l-9.0895 5.2867c2.8075 6.1165 0.65345 10.868-5.1372 14.235-7.2227 4.2008-14.678 1.1227-20.436-8.7773-5.8304-10.025-4.6698-18.199 2.6774-22.472 5.0434-2.9333 9.6835-2.5502 14.458 2.506l8.9048-5.1789c-4.0391-5.8533-9.5586-8.6432-15.491-8.7553zm193.88 0.10332-28.211 44.292 9.1137 5.8031 10.061-15.794 11.36 7.2364c8.1406 5.1857 17.041 2.7417 22.768-6.2494 5.6501-8.8697 3.7036-16.942-5.5307-22.823zm4.2754 13.4 8.5047 5.4163c4.8601 3.0959 5.7535 6.6544 2.851 11.211-2.8638 4.4956-6.4649 5.1908-11.324 2.0948l-8.51-5.418zm-104.05 41.759c-0.015 0.0131-0.0295 0.057-0.0528 0.14068-0.0282 0.10152-0.0526 0.21283-0.0528 0.24839-0.0004 0.10096-0.37165 1.1765-0.58031 1.6794-0.52862 1.2742-1.8812 3.4909-3.8358 6.2846-0.65832 0.94093-1.8788 2.7951-2.2839 3.4687-0.55516 0.92336-1.1023 1.8998-1.3365 2.385-0.2373 0.49175-0.52434 1.1226-0.58692 1.2904-0.0343 0.0919-0.10962 0.2863-0.16706 0.43084-0.42703 1.0764-0.81886 2.5296-0.92983 3.4511-0.015 0.12484-0.0403 0.32361-0.0549 0.44184-0.0414 0.33236-0.13096 0.3484-0.52536 0.0879-0.80329-0.53047-2.1332-1.1196-3.1236-1.3826-1.0817-0.28727-2.7271-0.37718-3.8293-0.20882-1.3728 0.20972-2.8399 0.77312-3.9391 1.5102-0.97774 0.65557-2.2188 1.9784-2.8444 3.0313-0.7877 1.3255-1.2569 2.6882-1.5014 4.37-0.0984 0.67752-0.18414 1.853-0.15386 2.1169 0.0142 0.12291 0.04 0.40747 0.0572 0.63087 0.0617 0.80238 0.3023 1.9238 0.51437 2.396 0.087 0.19377 0.27258 0.77811 0.27258 0.85948 0 0.0318 0.0294 0.0926 0.066 0.13409 0.0366 0.0415 0.21147 0.35515 0.38688 0.69682 0.44473 0.86609 1.156 1.9077 1.7805 2.607 0.69296 0.77603 1.8518 1.7746 2.9763 2.5653 0.85109 0.59844 1.9972 1.3013 2.1213 1.3013 0.0986 0 0.0974-0.0798-0.0154-0.732-0.70053-4.0548 0.7919-7.0741 3.6511-7.3836 0.89398-0.0968 2.1396 0.14683 2.9147 0.56933 0.95145 0.51857 1.9344 1.4766 2.5191 2.4576 0.57369 0.96246 1.0402 2.301 1.2551 3.605 0.12276 0.74467 0.13415 0.71127-0.3737 1.009-0.15411 0.0904-0.41216 0.30759-0.57372 0.48139-0.53514 0.57569-0.7407 1.1732-0.68363 1.9915 0.0572 0.82077 0.59412 1.5554 1.4442 1.974 0.49689 0.24462 0.51987 0.29007 0.32753 0.67044-0.15174 0.30006-0.75807 0.92439-1.0815 1.1123-0.47906 0.27835-0.68218 0.32634-1.3519 0.32973-0.70623 0.003-0.97151-0.0684-1.4574-0.40007-0.48751-0.33276-0.76424-0.69046-1.0397-1.3431-0.12421-0.29333-0.12745-0.33556-0.1297-1.22-0.0009-0.50374-0.0176-0.932-0.0374-0.9518-0.11804-0.11804-1.5252 0.85561-2.2509 1.5563-1.4838 1.4327-2.229 2.9729-2.229 4.6118 0 0.75746 0.0727 1.1507 0.32753 1.7696 0.25856 0.62794 0.58331 1.1246 1.0309 1.5761 1.4667 1.4793 3.8268 2.0854 5.9812 1.5344 1.0951-0.2801 1.8461-0.68474 2.8863-1.5542 0.24909-0.2082 0.44261-0.33542 0.49899-0.32754 0.0604 0.009 0.16695 0.15306 0.31214 0.41986 0.12156 0.22339 0.31607 0.57888 0.43084 0.78914 0.27501 0.5038 1.155 1.8208 1.5871 2.3762 0.92676 1.1914 2.0096 2.4119 2.6202 2.95l0.38249 0.33633 0.15607-0.0791c0.1967-0.10062 1.6526-1.5581 2.2136-2.2158 1.2032-1.4108 1.8013-2.2482 2.6268-3.6732 0.23396-0.40385 0.45327-0.74334 0.4858-0.75617 0.0326-0.0128 0.21365 0.12008 0.40447 0.29675 1.0156 0.94039 2.0844 1.5287 3.3346 1.8355 0.54982 0.13492 1.6651 0.20579 2.2311 0.14288 1.5354-0.17068 3.036-0.9267 3.8512-1.941 0.62889-0.78245 1.0165-1.7749 1.0705-2.7477 0.0883-1.5907-0.66272-3.2974-2.1432-4.8711-0.6291-0.66873-2.1113-1.7214-2.2378-1.5893-0.0224 0.0233-0.0503 0.4083-0.0616 0.8551-0.0236 0.92706-0.0997 1.2492-0.41326 1.7322-0.49438 0.76175-1.243 1.1986-2.1344 1.2442-0.49595 0.0253-0.8043-0.0425-1.3102-0.29016-0.5912-0.28941-1.3708-1.2293-1.3277-1.598 0.0124-0.10602 0.0556-0.14304 0.2462-0.21102 0.35855-0.12784 0.72854-0.37169 1.0419-0.68584 1.1356-1.1383 0.81399-3.0698-0.64846-3.8951-0.37782-0.2132-0.38052-0.21808-0.31434-0.65285 0.13107-0.86157 0.543-2.1949 0.92983-3.0115 0.79649-1.6814 2.227-3.0283 3.6864-3.4709 0.66235-0.20088 0.75543-0.22085 1.2749-0.26599 1.048-0.0911 2.0758 0.18259 2.8466 0.75618 0.96787 0.72018 1.5784 1.8005 1.7959 3.1808 0.19339 1.2264 0.13363 2.4675-0.18904 3.9831-0.0575 0.27021-0.0555 0.30339 0.0132 0.32973 0.18636 0.0715 2.1853-1.1442 3.5346-2.1499 0.91824-0.68442 1.8868-1.6332 2.5016-2.4488 0.61425-0.81499 0.7002-0.95241 1.3365-2.1499 0.57612-1.0842 0.97366-2.4352 1.1013-3.7413 0.0529-0.54158 0.0362-2.2706-0.0263-2.6379-0.0156-0.0919-0.0622-0.37608-0.10118-0.63088-0.26388-1.7321-0.97892-3.4556-1.9894-4.7876-1.1512-1.5176-2.202-2.3763-3.7655-3.0796-0.58579-0.26354-1.3835-0.52256-2.0378-0.66165-0.57859-0.12347-0.6881-0.13183-1.8817-0.13409-1.301-0.002-1.5411 0.0236-2.4114 0.24399-0.9566 0.24216-2.233 0.77974-3.0159 1.2705-0.43312 0.2716-0.4611 0.25505-0.52976-0.32093-0.1182-0.99181-0.17245-1.312-0.35611-2.0553-0.21273-0.8611-0.32013-1.1838-0.7144-2.174-0.5763-1.4475-1.2076-2.6974-2.086-4.1282-0.14359-0.23389-0.30619-0.50563-0.36269-0.60229-0.32283-0.552-0.82798-1.3479-1.475-2.3301-0.62546-0.94956-1.4132-2.1651-1.5321-2.3653-0.0192-0.0325-0.16578-0.27352-0.32752-0.53635-0.29832-0.48473-0.34192-0.56051-0.6045-1.0287-0.38592-0.68815-0.51434-0.93082-0.80454-1.53-0.17188-0.35482-0.33179-0.68603-0.3561-0.73859-0.15302-0.32993-0.56252-1.5716-0.67045-2.0311-0.034-0.14455-0.0887-0.30275-0.1209-0.35171-0.0266-0.0404-0.0422-0.0592-0.0572-0.0461zm-50.616 62.971c-1.4216 0.0478-2.443 1.3857-2.1146 2.7697l8.7795 39.504c-1.8343 0.29798-3.5791 0.66407-5.2339 1.0969l-6.3462-22.208c-0.26385-0.97671-1.1468-1.6575-2.1586-1.664-1.5156-0.0101-2.6075 1.4506-2.1696 2.9016l6.3725 22.304c-1.4868 0.53736-2.8972 1.1266-4.2249 1.7673l-10.65-24.4c-0.35876-0.85625-1.2064-1.4045-2.1344-1.3805-1.611 0.0418-2.6576 1.7133-1.9915 3.1808l10.819 24.783c-1.5198 0.95356-2.9162 1.9751-4.2007 3.0466l-23.335-37.481c-0.39563-0.65635-1.098-1.0663-1.864-1.0881-1.8078-0.0499-2.9334 1.9447-1.9564 3.4666l23.824 38.261c-0.61532 0.65635-1.204 1.32-1.7542 1.9959l-28.958-27.563c-0.43463-0.42553-1.023-0.65706-1.631-0.64187-2.0214 0.0493-2.958 2.5317-1.4728 3.904l29.403 27.985c-0.64499 1.0138-1.2287 2.0306-1.7586 3.0466l-22.911-14.28c-0.38131-0.24585-0.82801-0.37074-1.2816-0.35831-2.2478 0.0622-3.0254 3.0186-1.0991 4.1788l23.402 14.585c-0.35357 0.89453-0.66009 1.7689-0.94081 2.629l-23.19-9.6632c-0.27635-0.11942-0.57384-0.18221-0.87488-0.18464-2.4898-0.0215-3.1671 3.4171-0.85509 4.3414l23.716 9.8808c-1.146 5.1062-1.1035 8.7334-1.1035 8.7334l34.514-1.2793 31.428-39.128c-1.3425-0.22954-2.6498-0.42619-3.9391-0.6067l3.6446-26.416c0.20448-1.3429-0.81809-2.5598-2.1762-2.5895-1.1551-0.0256-2.142 0.8274-2.2839 1.974l-3.6578 26.495c-1.4027-0.14114-2.7829-0.26336-4.1172-0.34292l-1.0244-29.016c-0.027-1.2683-1.0961-2.2638-2.363-2.2004-1.2412 0.0617-2.1975 1.1175-2.1366 2.3586l1.0134 28.697c-2.771-0.029-5.386 0.0777-7.8519 0.30335l-8.8697-39.915c-0.22311-1.073-1.1865-1.8293-2.2817-1.7915zm50.201 28.185-62.182 77.376v1.0683l-39.705 49.435c-1.0093 1.1764 0.82299 2.6483 1.7542 1.4091l37.952-47.249v48.516h59.65l3.3457-51.758 1.7189 51.758h59.65v-48.868l38.233 47.602c0.93115 1.2394 2.7635-0.23254 1.7542-1.4091l-39.987-49.784v-0.7188zm-122.24 68.117-0.0593 0.61769c-0.0792 0.803-0.13146 1.1565-0.26597 1.8333-0.23849 1.1999-0.66179 2.488-1.2178 3.7062-0.41437 0.90786-0.58284 1.1909-1.5321 2.5697-0.50624 0.73529-1.0338 1.5142-1.1716 1.7322-1.4862 2.35-2.3627 5.3847-2.363 8.175-0.00025 1.9401 0.44063 3.9426 1.2662 5.7461 0.69259 1.5131 1.4565 2.5662 2.6379 3.6423 0.20155 0.18362 0.38128 0.33554 0.40007 0.33633 0.0185 0.00045 0.0415-0.0607 0.0505-0.13628 0.0798-0.61503 0.20978-1.322 0.32314-1.7673 0.41259-1.6203 1.059-3.0496 1.7893-3.9567 0.7509-0.93258 1.216-1.5414 1.4003-1.8333 0.92373-1.4629 1.6165-3.2957 1.9806-5.236 0.22042-1.1752 0.30588-2.1329 0.30555-3.4071-0.00022-0.99227-0.0368-1.4948-0.17585-2.3806-0.13469-0.85815-0.86907-3.9386-1.187-4.9811-0.3541-1.1611-1.0375-2.6658-1.8685-4.1149zm241.09 0.2374-0.31435 0.54516c-0.83092 1.4493-1.5143 2.956-1.8685 4.1172-0.31794 1.0425-1.0501 4.1229-1.1848 4.9811-0.13902 0.88585-0.1778 1.3884-0.17804 2.3806-0.00033 1.2743 0.0873 2.2298 0.30774 3.405 0.36401 1.9404 1.0568 3.7731 1.9806 5.236 0.1843 0.29183 0.64935 0.9007 1.4002 1.8333 0.73036 0.90713 1.3767 2.3364 1.7893 3.9567 0.11336 0.44533 0.24113 1.1522 0.32093 1.7673 0.009 0.0756 0.0343 0.13674 0.0528 0.13629 0.0188-0.00079 0.19852-0.15051 0.40007-0.33413 1.1813-1.0762 1.9453-2.1315 2.6379-3.6446 0.82552-1.8034 1.2664-3.806 1.2662-5.7461-0.00033-2.7904-0.87684-5.8229-2.363-8.1728-0.13787-0.21798-0.66539-0.99907-1.1716-1.7344-0.94927-1.3788-1.1178-1.6619-1.5321-2.5697-0.55601-1.2182-0.9793-2.5063-1.2178-3.7062-0.13452-0.67672-0.18676-1.0303-0.26598-1.8333zm-236.4 8.2322c-0.0466 0-0.0519 0.0179-0.0374 0.1187 0.0537 0.37362 0.10568 1.0494 0.13409 1.7454 0.0465 1.135-0.0271 3.8418-0.12969 4.7392-0.11086 0.97015-0.38191 2.1365-0.67484 2.9016-0.31549 0.824-0.68467 1.3922-1.6289 2.5147-0.81043 0.96346-1.1604 1.5052-1.631 2.5257-0.4844 1.0502-1.1265 2.9586-1.3519 4.0205-0.0755 0.35575-0.2242 1.2585-0.2242 1.3563 0 0.069 0.0272 0.0486 0.2242-0.15828 0.23271-0.2443 0.6033-0.5595 0.83752-0.7122 0.51935-0.33858 0.9725-0.49602 1.6684-0.57593 1.207-0.13866 2.3996-0.78618 3.3501-1.8222 1.0825-1.1802 1.7474-2.8758 1.8992-4.8404 0.0744-0.96324-0.0308-2.7032-0.27258-4.5238-0.30474-2.2956-0.91967-4.5766-1.8026-6.6758-0.20835-0.49539-0.27912-0.61329-0.36049-0.61329zm231.72 0.2374c-0.0814 0-0.15214 0.1201-0.36049 0.61549-0.88283 2.0993-1.4978 4.3781-1.8026 6.6737-0.24171 1.8207-0.34697 3.5606-0.27257 4.5238 0.15177 1.9646 0.81673 3.6602 1.8992 4.8404 0.95036 1.0361 2.1409 1.6858 3.3478 1.8245 0.69591 0.0799 1.1512 0.23516 1.6706 0.57373 0.23422 0.15271 0.6026 0.46791 0.83531 0.71221 0.19702 0.20684 0.22641 0.22726 0.22641 0.15826 0-0.0978-0.14869-0.99832-0.22422-1.354-0.22542-1.0618-0.86748-2.9703-1.3519-4.0205-0.47073-1.0205-0.82062-1.5644-1.631-2.5279-0.94417-1.1225-1.3133-1.6907-1.6289-2.5148-0.29293-0.76509-0.56401-1.9314-0.67484-2.9016-0.10253-0.89751-0.17613-3.6042-0.1297-4.7392 0.0284-0.69596 0.0804-1.3696 0.13409-1.7431 0.0145-0.10084 0.009-0.12091-0.0374-0.12091zm-244.08 3.8072c-0.0123 0.0008-0.0258 0.0112-0.0461 0.0374-0.0262 0.034-0.0461 0.11956-0.0461 0.19564-0.00011 0.34685-0.12297 1.0139-0.28137 1.53-0.15905 0.51819-0.31052 0.82742-0.7232 1.4772-0.45537 0.71699-0.6032 0.99361-0.80014 1.5035-0.58648 1.5186-0.72536 3.3245-0.38029 4.9635 0.33149 1.5745 1.066 2.882 2.1278 3.7897 0.84212 0.71977 2.6516 1.6685 4.1216 2.1608 0.45046 0.15094 0.52924 0.14348 0.49019-0.0461-0.0125-0.0609-0.13833-0.15613-0.51877-0.39788-0.83366-0.52974-1.3948-1.0616-2.0487-1.9387-0.57017-0.76484-0.96829-1.5009-1.3146-2.4312-0.4013-1.0782-0.59876-2.097-0.67484-3.4753-0.0574-1.0402 0.0132-1.8101 0.31215-3.4292 0.10231-0.55376 0.15439-1.3214 0.12749-1.886-0.0316-0.66479-0.21897-1.9104-0.30334-2.0201-0.0182-0.0241-0.0295-0.034-0.0418-0.033zm256.44 0.2352v0.002c-0.0123-0.0008-0.0235 0.009-0.0418 0.033-0.0844 0.10973-0.27173 1.3553-0.30335 2.0201-0.0269 0.5646 0.0252 1.3323 0.12749 1.886 0.299 1.6191 0.36951 2.3889 0.31214 3.4292-0.0761 1.3784-0.27353 2.397-0.67484 3.4753-0.34623 0.93025-0.74434 1.6664-1.3146 2.4312-0.65395 0.87725-1.215 1.4091-2.0487 1.9388-0.38042 0.24175-0.50624 0.33699-0.51878 0.39787-0.039 0.18969 0.0397 0.19715 0.4902 0.0462 1.47-0.49232 3.2795-1.441 4.1216-2.1608 1.0619-0.90762 1.7941-2.2151 2.1257-3.7897 0.34507-1.6389 0.20838-3.4427-0.37807-4.9613-0.19695-0.50995-0.34478-0.78878-0.80014-1.5058-0.41269-0.64978-0.56416-0.95901-0.72321-1.4772-0.1584-0.51604-0.28126-1.1831-0.28136-1.53-0.00002-0.0761-0.0199-0.16167-0.0462-0.19563-0.0204-0.0266-0.0339-0.0387-0.0461-0.0396zm-234.11 6.55c-1.0228-0.0335-2.0184 0.3323-2.7763 1.02-4.9126 4.3333-9.661 8.0598-14.666 11.605-3.5876-3.6604-7.5709-7.4216-12.009-10.982-0.7164-0.59141-1.6188-0.91063-2.5477-0.90127-3.7305 0.0359-5.326 4.755-2.3828 7.0473 2.2613 1.8144 4.3939 3.7046 6.4406 5.6119-3.2768 0.17909-6.7582 0.47022-10.674 0.93203-5.3385 0.51586-4.3913 8.5614 0.92104 7.8234 2.3638-0.27875 4.5232-0.48285 6.5967-0.65067-2.3645 1.4287-4.7992 2.874-7.4145 4.3787-4.6707 2.5877-0.65297 9.567 3.9304 6.8275 5.8731-3.3793 11.107-6.5528 16.027-9.7907 3.1384 3.4187 5.9615 6.6659 8.4564 9.4412 3.512 3.9178 9.3831-1.3629 5.8582-5.269-1.5036-1.6726-3.1688-3.5732-4.9876-5.6186 3.5577 0.23706 7.3508 0.54492 11.758 0.89685 5.3454 0.55068 5.9936-7.545 0.62868-7.8519-3.2859-0.26238-6.168-0.48902-9.0104-0.69682 2.7619-2.1642 5.5027-4.4375 8.2872-6.8935 2.7293-2.3392 1.157-6.8118-2.4356-6.9286zm214.21 0.26818c-3.3458-0.07-5.2496 3.7999-3.1522 6.4077 1.63 2.0856 3.2141 3.8732 4.7503 5.4779-2.7437 0.0832-5.5005 0.007-8.3905-0.45282-5.2824-0.95912-6.5568 7.052-1.2376 7.7793 4.5343 0.72094 8.6594 0.68389 12.514 0.45062-2.8823 1.9896-5.9104 3.8866-9.1906 5.623-4.7886 2.4113-0.99944 9.5673 3.6864 6.9617 5.4616-2.891 10.268-6.1424 14.695-9.5269 2.6227 2.3786 4.7326 4.7666 6.6407 8.5157 2.3527 4.7722 9.4954 1.1359 7.021-3.5743-1.8037-3.5439-3.906-6.2506-6.1351-8.5729 3.2066 0.33595 6.488 1.1323 10.14 2.8005 4.8163 2.2877 8.1558-5.0238 3.2731-7.1661-2.847-1.3004-5.5832-2.1614-8.2233-2.7346 0.967-0.86985 1.9657-1.7531 2.9147-2.6093 2.7011-2.3696 1.0798-6.8221-2.5125-6.9001-1.0233-0.0223-2.015 0.35457-2.7653 1.0507-2.7889 2.5159-5.5869 5.0344-8.4673 7.5046-1.0912 0.024-2.1698 0.065-3.2226 0.13189-0.0195 0.001-0.0377 0.003-0.0572 0.005-2.8937-2.503-5.9143-5.3751-9.2279-9.6149-0.72698-0.95747-1.8514-1.5306-3.0533-1.5563zm55.164 14.288-4.0865 8.5224 28.187 13.519-36.063 2.9082-4.1963 8.751 41.43 19.867 4.0886-8.5245-28.642-13.734 36.626-2.917 4.0886-8.5245zm-324.35 0.87268-33.992 33.527 4.1018 7.454 35.035-10.721-27.71 24.029 4.1018 7.454 46.391-11-4.8316-8.7795-33.515 10.604 26.617-23.138-4.4975-8.1707-33.582 10.351 26.714-22.832zm298.22 45.757v0.002l-6.6055 8.1135 25.332 41.665 6.0868-7.4782-5.236-8.2432 10.861-13.345 9.096 3.5017 6.1264-7.5266zm-272.44 9.1906c-5.7344 0.27759-11.458 2.9108-16.148 7.5353-9.7829 9.6475-10.855 22.833-1.3849 32.436 9.382 9.5137 22.669 8.714 32.228-0.71222 9.8726-9.736 10.947-23.098 1.5212-32.657-4.7353-4.8017-10.482-6.8809-16.216-6.6033zm277.43 1.8597 17.71 6.6935-7.5595 9.2874zm-275.14 6.8891v0.002c3.032 0.0174 5.8961 1.1855 8.2388 3.5611 5.4433 5.5198 4.4076 13.446-2.4136 20.173-6.6865 6.5939-14.58 7.2074-19.892 1.8222-5.3548-5.4299-4.5865-13.27 2.2795-20.041 3.7107-3.6594 7.8883-5.5399 11.787-5.5174zm253.77 2.6181-11.481 8.43 15.132 34.241-28.342-24.543-11.38 8.3575 27.194 37.035 7.6211-5.5965-21.188-28.858 27.842 23.971 7.6211-5.5944-14.633-33.669 21.186 28.856 7.6211-5.5965zm-223 12.262-23.916 39.228 8.0717 4.9217 9.483-15.554 9.2544 5.6428c3.498 2.1324 4.1532 4.4506 2.152 7.7332l-2.6334 4.0776c-2.2309 3.6593-2.7385 4.9758-2.8642 7.4826l8.6652 5.28 0.88587-1.453c-0.81125-1.4541-0.80362-2.5556 0.2462-4.2777 6.8382-11.701 6.9502-12.369 3.2577-17.572 5.4626 0.96809 9.6054-0.86202 12.525-5.6515 3.7072-6.081 2.8556-12.8-4.0864-17.032zm3.9721 11.646 9.7401 5.9394c4.4127 2.6902 4.72 5.0903 2.6532 8.4806-2.1324 3.498-4.313 4.5317-8.8872 1.7431l-9.7401-5.9373zm180.33 3.3127-30.738 12.589 17.414 42.517 31.785-13.017-2.9851-7.2913-23.039 9.4368-4.515-11.024 20.355-8.3377-2.9851-7.2892-20.355 8.3354-3.9414-9.6236 21.988-9.0037zm-149.42 5.4668-14.451 43.614 8.9752 2.9742 4.836-14.598 6.0318-3.1808 7.9179 24.002 10.709 3.5478-11.039-31.209 23.635-13.019-10.591-3.5083-23.393 13.497 6.3418-19.144zm98.384 10.773c-1.1859 0.008-2.403 0.10479-3.6467 0.29676-13.33 2.0569-20.197 13.767-18.188 26.785 2.0954 13.579 12.158 22.166 25.487 20.109 13.205-2.0378 20.334-13.279 18.287-26.548-1.9164-12.418-10.477-20.72-21.94-20.643zm-46.008 1.5563v0.002c-11.631-0.0404-19.489 7.9514-20.773 21.836-1.3581 14.685 5.7864 24.334 18.526 25.512 11.359 1.0505 19.5-4.1455 21.034-14.574l-9.1642-0.84849c-1.1046 5.7842-5.0511 8.0795-10.888 7.5397-7.28-0.67327-11.03-6.6551-10.107-16.633 0.93445-10.104 5.9133-15.34 13.319-14.655 5.0834 0.47011 8.1928 3.0999 9.0279 9.1269l8.9752 0.83091c0.15921-10.619-7.2821-17.067-17.574-18.019-0.80802-0.0747-1.6009-0.11602-2.3762-0.11871zm45.067 6.5616c6.9576-0.33754 12.158 5.0317 13.528 13.907 1.4322 9.2811-2.6898 16.038-10.164 17.192-7.5369 1.1631-13.441-4.0457-14.912-13.575-1.4129-9.1565 2.5988-16.22 10.136-17.383 0.47884-0.0739 0.94959-0.11819 1.4135-0.14068z"/>
</svg>
