<svg xmlns="http://www.w3.org/2000/svg" viewBox="0 0 500 500" version="1.1">
<circle stroke="#800000" stroke-width="22.509" cy="250" cx="250" r="238.75"/>
<path fill="#800000" d="m250 112.62-193.5 137.38 193.5 137.38 193.5-137.38z"/>
<path fill="#fff" d="m399.6 333.61 5.0274-12.241 35.499-3.4853-29.15-11.972 4.2674-10.39 42.501 17.456-5.0274 12.241-35.499 3.4853 29.15 11.972-4.2674 10.39-42.501-17.456m23.19 32.057-10.972 14.927 5.013 7.3132-7.0536 9.5961-26.941-40.924 8.366-11.381 47.1 13.5-7.0536 9.5961-8.4578-2.6268m-16.091 7.4981 7.4546-10.142-18.447-5.7681 10.992 15.91m-71.41 26.339 11.838-9.3401 23.445 12.823-6.9673-25.823 11.814-9.321 28.459 36.071-8.7943 6.9384-20.815-26.383 7.0334 26.006-5.8951 4.651-23.656-12.892 20.815 26.383-8.8185 6.9574-28.459-36.071m-33.166 13.221 29.437-12.482 3.4961 8.2447-18.529 7.8571 3.3399 7.8764 17.424-7.3886 3.4961 8.2447-17.424 7.3886 4.1088 9.6896 19.153-8.1214 3.4961 8.2447-30.061 12.747-17.937-42.3m-24.228 12.999c-3.5655 0.5705-6.1201 2.3297-7.6638 5.2777s-1.9331 6.8125-1.1682 11.594c0.76167 4.7608 2.3357 8.3007 4.7222 10.62 2.3864 2.3192 5.3624 3.1936 8.9279 2.6231 3.5857-0.57368 6.1505-2.3345 7.6942-5.2826 1.5437-2.948 1.9347-6.8024 1.1731-11.563-0.76497-4.781-2.3406-8.3311-4.727-10.65-2.3864-2.3192-5.3725-3.1919-8.9583-2.6183m-1.3564-8.4782c7.293-1.1668 13.34 0.006 18.14 3.5178 4.8004 3.5121 7.7889 8.945 8.9654 16.299 1.1733 7.3336 0.0275 13.418-3.4376 18.252-3.4651 4.8345-8.8441 7.8351-16.137 9.0019-7.2728 1.1636-13.32-0.009-18.14-3.5178-4.8004-3.512-7.7873-8.9348-8.9606-16.268-1.1766-7.3538-0.0323-13.448 3.4327-18.282 3.4853-4.8376 8.8643-7.8383 16.137-9.0019m-27.621 47.23c-2.2715 0.91829-4.6087 1.5522-7.0116 1.9016-2.403 0.34941-4.8811 0.40321-7.4342 0.16139-7.6184-0.7216-13.453-3.4174-17.503-8.0875-4.0483-4.6905-5.7271-10.682-5.0364-17.973 0.69257-7.312 3.4664-12.881 8.3213-16.708 4.8569-3.847 11.095-5.4097 18.713-4.6882 2.5531 0.24188 4.9769 0.75997 7.2716 1.5543 2.2946 0.79442 4.4713 1.8558 6.53 3.1842l-0.89669 9.4669c-2.0442-1.698-4.0956-2.9948-6.1539-3.8905-2.0584-0.8956-4.262-1.4546-6.6109-1.6772-4.2075-0.39849-7.644 0.63614-10.309 3.1039-2.6655 2.4678-4.2226 6.071-4.6714 10.809-0.44691 4.7181 0.40702 8.5393 2.5618 11.464 2.1547 2.9244 5.3358 4.5858 9.5434 4.9843 2.3488 0.22248 4.6182 0.0871 6.8082-0.40614 2.1899-0.49324 4.4482-1.3819 6.7749-2.6659l-0.89668 9.4669m-70.096-58.979 11.211 3.8315-5.4238 15.871 21.586-10.347 13.017 4.4485-27.974 13.433 15.271 30.781-14.036-4.7968-11.446-23.034-5.8517 17.123-11.211-3.8315 14.858-43.477m-31.044 5.2861c2.1068 1.313 3.857 1.8599 5.2508 1.6406 1.4111-0.20839 2.6755-1.2093 3.7932-3.0027 1.1068-1.776 1.4375-3.3346 0.99222-4.6758-0.42799-1.3304-1.6954-2.6521-3.8021-3.9651l-4.231-2.6369-6.2341 10.003 4.231 2.6369m-8.5607 4.3103-9.1965 14.756-10.055-6.2666 24.302-38.993 15.357 9.5709c5.1363 3.2012 8.3601 6.4069 9.6712 9.6173 1.3284 3.2212 0.83161 6.6949-1.4905 10.421-1.606 2.5769-3.5513 4.3018-5.8358 5.1746-2.2671 0.88365-4.8985 0.93594-7.894 0.15687 1.1802 1.1707 1.9628 2.6496 2.3478 4.4367 0.41325 1.7806 0.47715 4.1411 0.19171 7.0817l-1.4429 14.476-10.708-6.6736 1.2854-12.652c0.25769-2.5469 0.11277-4.4866-0.43475-5.819-0.53017-1.3215-1.6136-2.4923-3.2502-3.5124l-2.8468-1.7742m-17.407-41.676c-2.5066-2.5991-5.4106-3.6891-8.7118-3.2701-3.3013 0.41903-6.6944 2.3091-10.18 5.6702-3.4704 3.3469-5.4747 6.6622-6.013 9.9462-0.53832 3.2839 0.44584 6.2254 2.9524 8.8244 2.5208 2.6138 5.4319 3.7112 8.7331 3.2922 3.3012-0.41903 6.687-2.302 10.157-5.6488 3.4851-3.3611 5.4968-6.6836 6.0351-9.9675 0.53825-3.2839-0.45302-6.2328-2.9738-8.8466m6.1802-5.9603c5.1271 5.3163 7.6223 10.948 7.4856 16.894-0.13679 5.9464-2.8854 11.505-8.246 16.674-5.3458 5.1556-10.992 7.694-16.94 7.6153-5.9475-0.0787-11.485-2.7762-16.612-8.0925-5.1129-5.3015-7.6081-10.933-7.4856-16.894 0.13672-5.9464 2.878-11.497 8.2238-16.653 5.3606-5.1698 11.015-7.7154 16.962-7.6367 5.9616 0.0935 11.499 2.791 16.612 8.0925m-45.233-72.067 4.9898 10.201-26.505 21.804 33.456-7.595 5.0168 10.256-26.532 21.749 33.483-7.5397 4.9492 10.118-46.033 10.458-6.004-12.274 27.711-22.84-35 7.9394-6.004-12.274 36.472-30.003m309.4-115.43c-0.61055-0.53802-1.6948-1.7578-2.6216-2.9492-0.43208-0.55547-1.312-1.8738-1.587-2.3776-0.11477-0.21026-0.30811-0.56506-0.42967-0.78845-0.14518-0.2668-0.25257-0.41064-0.31296-0.41917-0.0564-0.008-0.24903 0.11831-0.49811 0.32651-1.0401 0.86936-1.7916 1.2739-2.8867 1.554-2.1544 0.55104-4.514-0.0538-5.9806-1.5331-0.44762-0.45148-0.77267-0.94833-1.0312-1.5763-0.25482-0.6189-0.32748-1.0113-0.32748-1.7687 0-1.6388 0.74496-3.181 2.2287-4.6137 0.72568-0.70069 2.133-1.6725 2.251-1.5545 0.0198 0.0198 0.0367 0.44806 0.0376 0.9518 0.002 0.88443 0.006 0.92631 0.12983 1.2196 0.27548 0.65262 0.55173 1.0094 1.0392 1.3422 0.48589 0.33163 0.75122 0.40468 1.4574 0.40126 0.66969-0.003 0.87278-0.053 1.3518-0.33136 0.32346-0.1879 0.92968-0.81044 1.0814-1.1105 0.19234-0.38037 0.16939-0.42748-0.3275-0.67212-0.85007-0.41856-1.3876-1.1528-1.4448-1.9736-0.0571-0.81841 0.14797-1.4164 0.6831-1.9921 0.16156-0.1738 0.41982-0.38991 0.57393-0.48023 0.50785-0.29769 0.49592-0.26538 0.37315-1.01-0.21496-1.304-0.68044-2.6418-1.2541-3.6042-0.58469-0.98095-1.5669-1.9397-2.5183-2.4583-0.77516-0.42249-2.0209-0.66558-2.9149-0.5688-2.8592 0.30954-4.3527 3.329-3.6522 7.3838 0.1127 0.65224 0.11441 0.73245 0.0158 0.73245-0.12405 0-1.2706-0.70366-2.1217-1.3021-1.1245-0.79065-2.2823-1.7887-2.9752-2.5647-0.62452-0.69939-1.3367-1.742-1.7814-2.6081-0.17542-0.34166-0.34889-0.65516-0.38545-0.69666-0.0366-0.0414-0.0665-0.10151-0.0665-0.13335 0-0.0814-0.1852-0.66664-0.27223-0.86041-0.21208-0.47223-0.45277-1.5928-0.51441-2.3952-0.0172-0.2234-0.0428-0.50672-0.057-0.62963-0.0303-0.26388 0.055-1.4405 0.15345-2.118 0.24444-1.6818 0.71206-3.0444 1.4998-4.3699 0.62572-1.053 1.8672-2.3758 2.845-3.0314 1.0992-0.73701 2.5677-1.2994 3.9405-1.5091 1.1021-0.16836 2.7462-0.0788 3.8278 0.20849 0.99045 0.26308 2.3205 0.8515 3.1238 1.382 0.39439 0.26043 0.48504 0.24547 0.52648-0.0869 0.0146-0.11821 0.0392-0.31707 0.0541-0.4419 0.11097-0.92154 0.50265-2.3761 0.92967-3.4525 0.0574-0.14454 0.13235-0.33808 0.16664-0.43006 0.0626-0.16774 0.34936-0.79845 0.58667-1.2902 0.23418-0.48527 0.78139-1.4618 1.3365-2.3851 0.40503-0.67367 1.626-2.5276 2.2843-3.4686 1.9546-2.7937 3.3072-5.0095 3.8358-6.2837 0.20866-0.50298 0.58105-1.5786 0.58146-1.6796 0.00016-0.0356 0.0233-0.14764 0.0515-0.24912 0.0465-0.16745 0.0567-0.17629 0.10974-0.0956 0.0322 0.049 0.0863 0.20722 0.12027 0.35176 0.10793 0.45952 0.51831 1.701 0.67133 2.0309 0.0243 0.0526 0.18498 0.38586 0.35686 0.74067 0.2902 0.59911 0.41726 0.84098 0.80318 1.5291 0.26258 0.46825 0.30638 0.54265 0.6047 1.0274 0.16173 0.26282 0.30987 0.50445 0.32917 0.53694 0.11885 0.20022 0.90612 1.4162 1.5316 2.3658 0.647 0.98222 1.1506 1.7789 1.4734 2.3308 0.0565 0.0967 0.22029 0.36714 0.36387 0.60103 0.87842 1.4308 1.5104 2.6811 2.0867 4.1286 0.39425 0.99021 0.50013 1.3131 0.71287 2.1742 0.18365 0.74336 0.23915 1.0624 0.35736 2.0542 0.0686 0.57598 0.0961 0.5926 0.52924 0.32101 0.78281-0.49082 2.0583-1.0283 3.0149-1.2705 0.87033-0.22034 1.1122-0.24464 2.4131-0.24262 1.1935 0.002 1.3016 0.009 1.8802 0.13247 0.65417 0.13909 1.4524 0.39828 2.0382 0.66182 1.5635 0.70337 2.6136 1.5625 3.7649 3.0801 1.0104 1.332 1.7271 3.0552 1.991 4.7873 0.0388 0.25479 0.0834 0.5385 0.099 0.63049 0.0626 0.3672 0.0809 2.097 0.028 2.6386-0.12761 1.3061-0.52519 2.6565-1.1013 3.7407-0.63629 1.1974-0.72204 1.3354-1.3363 2.1503-0.61466 0.81557-1.5849 1.7649-2.5031 2.4494-1.3493 1.0057-3.3472 2.2211-3.5336 2.1496-0.0687-0.0263-0.0699-0.0609-0.0124-0.33109 0.32267-1.5156 0.3811-2.7547 0.18771-3.9812-0.21762-1.3802-0.82792-2.4616-1.7958-3.1818-0.77087-0.57359-1.7988-0.84631-2.8468-0.75531-0.51952 0.0451-0.61195 0.0644-1.2743 0.26525-1.4594 0.44264-2.8903 1.7899-3.6868 3.4712-0.38682 0.81658-0.79794 2.1488-0.92901 3.0103-0.0662 0.43477-0.0637 0.43997 0.31413 0.65316 1.4624 0.82535 1.7841 2.7577 0.64851 3.896-0.3134 0.31413-0.68428 0.5581-1.0428 0.68594-0.1906 0.068-0.23428 0.10534-0.24669 0.21141-0.0431 0.36876 0.73799 1.3068 1.3292 1.5962 0.5058 0.24761 0.8131 0.31581 1.309 0.29047 0.89148-0.0456 1.641-0.48219 2.1354-1.2439 0.31349-0.48305 0.39025-0.80415 0.41384-1.7312 0.0112-0.4468 0.0389-0.83143 0.0613-0.85476 0.12655-0.13208 1.6087 0.9205 2.2378 1.5892 1.4805 1.5738 2.2306 3.2787 2.1422 4.8694-0.054 0.97285-0.44049 1.9661-1.0694 2.7486-0.81524 1.0143-2.3163 1.771-3.8517 1.9416-0.56605 0.0629-1.6819-0.009-2.2317-0.14392-1.2503-0.30674-2.3179-0.89433-3.3335-1.8347-0.19081-0.17667-0.37358-0.31077-0.40617-0.29796-0.0325 0.0128-0.25066 0.3537-0.48462 0.75755-0.82553 1.425-1.4245 2.2622-2.6277 3.673-0.56093 0.6577-2.0174 2.1156-2.2141 2.2162l-0.15422 0.0789-0.38255-0.33709zm-285.87 0c-0.61055-0.53802-1.6948-1.7578-2.6216-2.9492-0.43208-0.55547-1.312-1.8738-1.587-2.3776-0.11476-0.21026-0.30811-0.56506-0.42967-0.78845-0.14518-0.2668-0.25257-0.41064-0.31295-0.41917-0.0564-0.008-0.24903 0.11831-0.49812 0.32651-1.0401 0.86936-1.7916 1.2739-2.8867 1.554-2.1544 0.55104-4.514-0.0538-5.9806-1.5331-0.44763-0.45148-0.77267-0.94833-1.0312-1.5763-0.25483-0.6189-0.32749-1.0113-0.32749-1.7687 0-1.6388 0.74496-3.181 2.2287-4.6137 0.72568-0.70069 2.133-1.6725 2.251-1.5545 0.01981 0.0198 0.03669 0.44806 0.03759 0.9518 0.0023 0.88443 0.0056 0.92631 0.12983 1.2196 0.27548 0.65262 0.55173 1.0094 1.0392 1.3422 0.48588 0.33163 0.75122 0.40468 1.4574 0.40126 0.66969-0.003 0.87278-0.053 1.3518-0.33136 0.32346-0.1879 0.92969-0.81044 1.0814-1.1105 0.19234-0.38037 0.16939-0.42748-0.3275-0.67212-0.85007-0.41856-1.3876-1.1528-1.4448-1.9736-0.05706-0.81841 0.14796-1.4164 0.6831-1.9921 0.16156-0.1738 0.41982-0.38991 0.57393-0.48023 0.50785-0.29769 0.49592-0.26538 0.37316-1.01-0.21497-1.304-0.68044-2.6418-1.2541-3.6042-0.5847-0.98095-1.5669-1.9397-2.5183-2.4583-0.77516-0.42249-2.0209-0.66558-2.9149-0.5688-2.8592 0.30954-4.3527 3.329-3.6522 7.3838 0.11269 0.65224 0.1144 0.73245 0.01576 0.73245-0.12405 0-1.2706-0.70366-2.1217-1.3021-1.1245-0.79065-2.2823-1.7887-2.9752-2.5647-0.62453-0.69939-1.3367-1.742-1.7814-2.6081-0.17541-0.34166-0.34889-0.65516-0.38545-0.69666-0.03658-0.0414-0.06651-0.10151-0.06651-0.13335 0-0.0814-0.18519-0.66664-0.27223-0.86041-0.21208-0.47223-0.45277-1.5928-0.51441-2.3952-0.01722-0.2234-0.04277-0.50672-0.05695-0.62963-0.03027-0.26388 0.05504-1.4405 0.15344-2.118 0.24445-1.6818 0.71206-3.0444 1.4998-4.3699 0.62572-1.053 1.8672-2.3758 2.845-3.0314 1.0992-0.73701 2.5677-1.2994 3.9405-1.5091 1.1021-0.16836 2.7462-0.0788 3.8278 0.20849 0.99045 0.26308 2.3205 0.8515 3.1238 1.382 0.39439 0.26043 0.48504 0.24547 0.52648-0.0869 0.01463-0.11821 0.03917-0.31707 0.05414-0.4419 0.11097-0.92154 0.50265-2.3761 0.92967-3.4525 0.0574-0.14454 0.13234-0.33808 0.16664-0.43006 0.06257-0.16774 0.34936-0.79845 0.58667-1.2902 0.23418-0.48527 0.78139-1.4618 1.3366-2.3851 0.40502-0.67367 1.626-2.5276 2.2843-3.4686 1.9546-2.7937 3.3072-5.0095 3.8358-6.2837 0.20866-0.50298 0.58106-1.5786 0.58146-1.6796 0.00016-0.0356 0.0233-0.14764 0.0516-0.24912 0.0465-0.16745 0.0567-0.17629 0.10973-0.0956 0.0322 0.049 0.0863 0.20722 0.12028 0.35176 0.10793 0.45952 0.5183 1.701 0.67132 2.0309 0.0243 0.0526 0.18498 0.38586 0.35686 0.74067 0.2902 0.59911 0.41726 0.84098 0.80318 1.5291 0.26258 0.46825 0.30638 0.54265 0.6047 1.0274 0.16174 0.26282 0.30987 0.50445 0.32917 0.53694 0.11885 0.20022 0.90612 1.4162 1.5316 2.3658 0.647 0.98222 1.1506 1.7789 1.4734 2.3308 0.0565 0.0967 0.22029 0.36714 0.36387 0.60103 0.87842 1.4308 1.5104 2.6811 2.0867 4.1286 0.39425 0.99021 0.50013 1.3131 0.71287 2.1742 0.18365 0.74336 0.23916 1.0624 0.35736 2.0542 0.0687 0.57598 0.0961 0.5926 0.52924 0.32101 0.78281-0.49082 2.0583-1.0283 3.0149-1.2705 0.87034-0.22034 1.1122-0.24464 2.4131-0.24262 1.1935 0.002 1.3016 0.009 1.8802 0.13247 0.65417 0.13909 1.4524 0.39828 2.0382 0.66182 1.5635 0.70337 2.6136 1.5625 3.7649 3.0801 1.0104 1.332 1.7271 3.0552 1.991 4.7873 0.0388 0.25479 0.0834 0.5385 0.099 0.63049 0.0626 0.3672 0.0809 2.097 0.028 2.6386-0.12761 1.3061-0.52519 2.6565-1.1013 3.7407-0.63629 1.1974-0.72204 1.3354-1.3363 2.1503-0.61466 0.81557-1.5849 1.7649-2.5031 2.4494-1.3493 1.0057-3.3472 2.2211-3.5336 2.1496-0.0687-0.0263-0.0699-0.0609-0.0124-0.33109 0.32267-1.5156 0.3811-2.7547 0.18771-3.9812-0.21761-1.3802-0.82792-2.4616-1.7958-3.1818-0.77087-0.57359-1.7988-0.84631-2.8468-0.75531-0.51952 0.0451-0.61194 0.0644-1.2743 0.26525-1.4594 0.44264-2.8903 1.7899-3.6868 3.4712-0.38682 0.81658-0.79793 2.1488-0.92901 3.0103-0.0662 0.43477-0.0637 0.43997 0.31413 0.65316 1.4624 0.82535 1.7841 2.7577 0.64851 3.896-0.31339 0.31413-0.68428 0.5581-1.0428 0.68594-0.19061 0.068-0.23429 0.10534-0.24669 0.21141-0.0431 0.36876 0.73798 1.3068 1.3292 1.5962 0.50581 0.24761 0.8131 0.31581 1.309 0.29047 0.89148-0.0456 1.641-0.48219 2.1354-1.2439 0.31349-0.48305 0.39025-0.80415 0.41384-1.7312 0.0113-0.4468 0.0389-0.83143 0.0613-0.85476 0.12654-0.13208 1.6087 0.9205 2.2378 1.5892 1.4805 1.5738 2.2306 3.2787 2.1422 4.8694-0.054 0.97285-0.44049 1.9661-1.0694 2.7486-0.81524 1.0143-2.3163 1.771-3.8516 1.9416-0.56606 0.0629-1.6819-0.009-2.2317-0.14392-1.2503-0.30674-2.3179-0.89433-3.3335-1.8347-0.19081-0.17667-0.37359-0.31077-0.40618-0.29796-0.0325 0.0128-0.25065 0.3537-0.48461 0.75755-0.82554 1.425-1.4245 2.2622-2.6277 3.673-0.56093 0.6577-2.0174 2.1156-2.2141 2.2162l-0.15422 0.0789-0.38255-0.33709zm268.86-86.401c5.65-8.8696 3.7036-16.942-5.5305-22.824l-19.562-12.461-28.211 44.287 9.1126 5.8048 10.062-15.795 11.36 7.2366c8.1406 5.1856 17.041 2.7424 22.769-6.2487m-9.4609-5.258c-2.8637 4.4955-6.4659 5.19-11.326 2.0941l-8.5051-5.4178 8.475-13.304 8.5051 5.4178c4.86 3.0959 5.7534 6.654 2.851 11.21m-57.906 7.185 10.432-51.463-15.954-3.2341-17.336 39.113-1.0186-42.833-15.813-3.2054-10.432 51.463 10.589 2.1465 8.1281-40.097 1.1197 41.972 10.589 2.1465 17.235-38.251-8.1281 40.097 10.589 2.1465m-62.441-10.189-27.143-48.476-11.769 2.1124-9.0852 54.979 10.847-1.947 1.6033-11.045 19.355-3.4741 5.2737 9.8109 10.918-1.9597m-20.689-16.191-13.47 2.4179 3.1083-21.414 10.362 18.996m-44.363 12.22-9.0905 5.2872c2.8075 6.1165 0.65487 10.868-5.1357 14.236-7.2226 4.2008-14.68 1.1218-20.438-8.7782-5.8304-10.024-4.6688-18.199 2.6783-22.473 5.0434-2.9333 9.6833-2.5488 14.457 2.5073l8.9037-5.1785c-6.8933-9.9896-18.096-11.056-28.308-5.1175-12.826 7.46-15.69 20.875-7.1437 35.569 8.4739 14.57 21.524 18.812 34.163 11.461 11.27-6.5546 15.4-16.789 9.9124-27.513m69.75 28.402-197.5 140.23 197.5 140.23 197.5-140.23zm0 14.022 177.75 126.21l-177.75 126.2-177.75-126.2zm0.22574 47.201c-27.345-0.0443-53.98 14.117-68.633 39.506-21.812 37.771-8.8436 86.088 28.934 107.91 37.778 21.81 86.07 8.8436 107.88-28.934l-10.962-6.345c-5.2915 9.1623-12.699 16.961-21.569 22.693l16.926-95.961c4.0036 5.2562 7.228 11.143 9.5364 17.473l11.896-4.3488c-6.36-17.45-18.66-32.11-34.75-41.39-12.4-7.16-25.92-10.58-39.27-10.6zm-0.23 12.67c15.914 0 30.517 5.6102 41.945 14.965l-15.923 90.262-25.891-71.147-25.876 71.147-15.95-90.461c11.4-9.21 25.9-14.76 41.7-14.76zm-52.562 25.876 17.014 96.485c-18.511-11.783-30.811-32.444-30.811-56.001 0-15.233 5.161-29.282 13.797-40.485zm52.692 45.161 21.18 58.154c-6.6925 2.2751-13.85 3.51-21.31 3.51-7.3741 0-14.454-1.2106-21.084-3.4326z"/>
</svg>
