<?xml version="1.0" encoding="UTF-8" standalone="no"?>
<svg
   xmlns:dc="http://purl.org/dc/elements/1.1/"
   xmlns:cc="http://creativecommons.org/ns#"
   xmlns:rdf="http://www.w3.org/1999/02/22-rdf-syntax-ns#"
   xmlns:svg="http://www.w3.org/2000/svg"
   xmlns="http://www.w3.org/2000/svg"
   version="1.1"
   id="svg2"
   height="445"
   width="445">
  <defs
     id="defs4">
    <path
       id="path3004-0-6"
       d="m 192.92529,595.52848 c 38.2995,98.92632 149.543,148.07407 248.46932,109.77458 C 540.32094,667.00355 589.46869,555.76005 551.1692,456.83373 512.86969,357.9074 401.62619,308.75965 302.69986,347.05914 203.77354,385.35865 154.62579,496.60215 192.92529,595.52848 Z"
       style="color:#000000;display:inline;overflow:visible;visibility:visible;fill:none;stroke:#000000;stroke-width:0.99999994;stroke-linecap:butt;stroke-linejoin:miter;stroke-miterlimit:4;stroke-dashoffset:0;stroke-opacity:1;marker:none;enable-background:accumulate" />
    <path
       id="path3004-0-9"
       d="m 192.92529,595.52848 c 38.2995,98.92632 149.543,148.07407 248.46932,109.77458 C 540.32094,667.00355 589.46869,555.76005 551.1692,456.83373 512.86969,357.9074 401.62619,308.75965 302.69986,347.05914 203.77354,385.35865 154.62579,496.60215 192.92529,595.52848 Z"
       style="color:#000000;display:inline;overflow:visible;visibility:visible;fill:none;stroke:none;stroke-width:0.99999994;marker:none;enable-background:accumulate" />
  </defs>
  <metadata
     id="metadata7">
    <rdf:RDF>
      <cc:Work
         rdf:about="">
        <dc:format>image/svg+xml</dc:format>
        <dc:type
           rdf:resource="http://purl.org/dc/dcmitype/StillImage" />
        <dc:title></dc:title>
      </cc:Work>
    </rdf:RDF>
  </metadata>
  <g
     transform="translate(0,-607.36218)"
     style="display:inline"
     id="layer1">
    <circle
       r="212.13203"
       cy="829.86218"
       cx="222.5"
       id="path3004"
       style="color:#000000;display:inline;overflow:visible;visibility:visible;fill:#000000;fill-opacity:1;stroke:#800000;stroke-width:20;stroke-linecap:butt;stroke-linejoin:miter;stroke-miterlimit:4;stroke-dasharray:none;stroke-dashoffset:0;stroke-opacity:1;marker:none;enable-background:accumulate" />
    <circle
       r="153.44218"
       cy="829.86218"
       cx="222.5"
       id="path3950"
       style="color:#000000;display:inline;overflow:visible;visibility:visible;fill:#800000;fill-opacity:1;fill-rule:nonzero;stroke:none;stroke-width:5;marker:none;enable-background:accumulate" />
    <path
       id="path3842"
       d="m 106.42577,908.78772 232.14846,0"
       style="fill:none;stroke:#ffffff;stroke-width:8.59122372;stroke-linecap:round;stroke-linejoin:miter;stroke-miterlimit:4;stroke-dasharray:none;stroke-opacity:1" />
    <path
       id="path3844"
       d="m 118.41403,854.54742 0,52.93853"
       style="fill:none;stroke:#ffffff;stroke-width:8.59122372;stroke-linecap:round;stroke-linejoin:miter;stroke-miterlimit:4;stroke-dasharray:none;stroke-opacity:1" />
    <path
       id="path3864"
       d="m 187.8416,695.94881 33.19505,45.12792"
       style="fill:none;stroke:#ffffff;stroke-width:8.59122372;stroke-linecap:round;stroke-linejoin:miter;stroke-miterlimit:4;stroke-dasharray:none;stroke-opacity:1" />
    <path
       id="path3884"
       d="m 119.89552,871.53207 c 0,0 63.63769,-60.1663 83.78424,-152.15146"
       style="fill:none;stroke:#ffffff;stroke-width:6.13658857;stroke-linecap:butt;stroke-linejoin:miter;stroke-miterlimit:4;stroke-dasharray:none;stroke-opacity:1" />
    <path
       id="path3844-7"
       d="m 326.58597,854.54742 0,52.93853"
       style="fill:none;stroke:#ffffff;stroke-width:8.59122372;stroke-linecap:round;stroke-linejoin:miter;stroke-miterlimit:4;stroke-dasharray:none;stroke-opacity:1" />
    <path
       id="path3864-0"
       d="m 257.1584,695.94881 -33.19505,45.12792"
       style="fill:none;stroke:#ffffff;stroke-width:8.59122372;stroke-linecap:round;stroke-linejoin:miter;stroke-miterlimit:4;stroke-dasharray:none;stroke-opacity:1" />
    <path
       id="path3884-8"
       d="m 325.10448,871.53207 c 0,0 -63.63769,-60.1663 -83.78425,-152.15146"
       style="fill:none;stroke:#ffffff;stroke-width:6.13658857;stroke-linecap:butt;stroke-linejoin:miter;stroke-miterlimit:4;stroke-dasharray:none;stroke-opacity:1" />
    <path
       id="path3072"
       d="m 228.63659,846.53094 -30.37367,60.68492 -80.27663,-0.16383 c 0,0 17.27825,-15.58677 24.95053,-24.29965 10.40961,-11.82146 19.86947,-24.52392 28.42192,-37.75125 6.76608,-10.4645 12.82535,-21.42851 18.00778,-32.76113 3.97785,-8.69851 6.98813,-17.81832 9.98021,-26.90319 3.34371,-10.15254 5.74228,-20.59514 8.89541,-30.80848 1.70683,-5.52861 5.42403,-16.48852 5.42403,-16.48852 l 14.97042,0"
       style="fill:#ffffff;fill-opacity:1;stroke:#ffffff;stroke-width:1.22731769px;stroke-linecap:butt;stroke-linejoin:miter;stroke-opacity:1" />
    <path
       id="path3072-5"
       d="m 216.36341,846.53094 30.37367,60.68492 80.27663,-0.16383 c 0,0 -17.27825,-15.58677 -24.95053,-24.29965 -10.40961,-11.82146 -19.86947,-24.52392 -28.42192,-37.75125 -6.76608,-10.4645 -12.82535,-21.42851 -18.00778,-32.76113 -3.97785,-8.69851 -6.98813,-17.81832 -9.98021,-26.90319 -3.34371,-10.15254 -5.74228,-20.59514 -8.89541,-30.80848 -1.70683,-5.52861 -5.42403,-16.48852 -5.42403,-16.48852 l -14.97042,0"
       style="display:inline;fill:#ffffff;fill-opacity:1;stroke:#ffffff;stroke-width:1.22731769px;stroke-linecap:butt;stroke-linejoin:miter;stroke-opacity:1" />
    <circle
       r="162.98499"
       cy="-787.55493"
       cx="-343.41623"
       transform="matrix(-0.98888435,-0.1486867,0.1486867,-0.98888435,0,0)"
       id="path3950-9"
       style="color:#000000;display:inline;overflow:visible;visibility:visible;opacity:0.05714285;fill:none;fill-opacity:1;fill-rule:nonzero;stroke:none;stroke-width:5;marker:none;enable-background:accumulate" />
    <path
       d="m 64.900887,790.3496 c 0.867001,-3.72544 0.155052,-7.21771 -2.055359,-10.22707 l -4.827846,2.48025 c 1.163777,1.74932 1.918753,3.86552 1.378153,6.18845 -0.979201,4.20756 -5.030244,6.12934 -10.903298,4.76254 -5.741567,-1.3362 -8.479838,-5.25384 -7.572037,-9.1546 0.479401,-2.05995 1.800633,-3.36956 3.452096,-4.50991 l -3.324302,-4.37744 c -2.421094,1.46946 -4.867845,4.04182 -5.724646,7.72343 -1.683001,7.23175 2.380821,14.78446 11.847832,16.98766 9.598497,2.2338 16.046405,-2.64156 17.729407,-9.87331 z"
       style="font-style:normal;font-variant:normal;font-weight:bold;font-stretch:normal;font-size:45px;line-height:125%;font-family:'Source Sans Pro';-inkscape-font-specification:'Source Sans Pro Bold';letter-spacing:3.5px;word-spacing:0px;fill:#ffffff;fill-opacity:1;stroke:none"
       id="path4164" />
    <path
       d="m 60.573753,762.95794 -2.189628,-1.73607 c -2.360146,-1.90825 -5.19224,-3.97244 -7.75334,-5.86986 l 0.07171,-0.1651 c 3.111446,0.51743 6.61229,1.15494 9.61784,1.57731 l 2.745393,0.45655 -2.491976,5.73717 z m 14.891066,-3.78586 2.79675,-6.43884 -30.568317,-3.26896 -3.173235,7.3056 23.253739,20.10899 2.689183,-6.19118 -5.680445,-4.42981 3.567648,-8.21364 7.114677,1.12784 z"
       style="font-style:normal;font-variant:normal;font-weight:bold;font-stretch:normal;font-size:45px;line-height:125%;font-family:'Source Sans Pro';-inkscape-font-specification:'Source Sans Pro Bold';letter-spacing:3.5px;word-spacing:0px;fill:#ffffff;fill-opacity:1;stroke:none"
       id="path4166" />
    <path
       d="m 81.532079,746.83327 3.43525,-4.84589 -8.77399,-6.2199 c -2.34952,-1.66557 -6.149384,-3.69738 -8.644366,-5.07996 l 0.104099,-0.14684 7.043527,2.12483 11.5614,3.066 2.108,-2.97361 -6.72081,-9.89429 -4.31094,-5.97952 0.1041,-0.14685 c 2.13064,1.89654 5.30591,4.80942 7.65543,6.47499 l 8.77399,6.2199 3.48731,-4.91931 -23.93574,-16.96808 -4.16395,5.8738 7.96572,11.32841 c 1.05671,1.46619 2.31231,2.96305 3.44244,4.48128 l -0.1041,0.14684 c -1.80677,-0.56374 -3.66094,-1.21624 -5.39429,-1.72793 l -13.378852,-3.69247 -4.189972,5.91051 23.935744,16.96809 z"
       style="font-style:normal;font-variant:normal;font-weight:bold;font-stretch:normal;font-size:45px;line-height:125%;font-family:'Source Sans Pro';-inkscape-font-specification:'Source Sans Pro Bold';letter-spacing:3.5px;word-spacing:0px;fill:#ffffff;fill-opacity:1;stroke:none"
       id="path4168" />
    <path
       d="m 104.57484,716.90025 4.86084,-4.4867 -6.74531,-7.30779 2.67842,-2.47226 c 4.56324,-4.21201 6.35659,-10.0316 1.68676,-15.09084 -4.82244,-5.22458 -10.245331,-3.40354 -14.973911,0.96108 l -7.40699,6.83687 19.900191,21.55964 z m -5.455521,-15.66332 -6.01278,-6.51419 2.24855,-2.07548 c 2.64535,-2.44174 4.863341,-2.95802 6.938821,-0.70947 2.07548,2.24855 1.88465,4.62931 -0.79377,7.10157 l -2.380821,2.19757 z"
       style="font-style:normal;font-variant:normal;font-weight:bold;font-stretch:normal;font-size:45px;line-height:125%;font-family:'Source Sans Pro';-inkscape-font-specification:'Source Sans Pro Bold';letter-spacing:3.5px;word-spacing:0px;fill:#ffffff;fill-opacity:1;stroke:none"
       id="path4170" />
    <path
       d="m 140.09854,688.70695 7.35871,-3.59519 -3.38074,-13.173 c -0.54293,-2.23892 -1.26643,-4.53987 -1.89115,-6.63866 l 0.16173,-0.079 c 1.23121,1.80249 2.60162,3.78738 4.03407,5.59171 l 8.43481,10.70378 7.48001,-3.65446 -8.18931,-28.65343 -5.70098,2.78529 4.20544,13.22083 c 0.95962,2.88676 1.95874,5.85439 2.97761,8.86245 l -0.16173,0.079 c -1.90839,-2.57347 -3.81678,-5.14695 -5.64615,-7.55869 l -8.85519,-10.94915 -5.05406,2.46923 3.19464,13.71468 c 0.81763,3.00621 1.65502,6.05285 2.49241,9.09949 l -0.16173,0.079 c -1.68647,-2.63182 -3.45381,-5.22412 -5.12053,-7.8155 l -7.84437,-11.44299 -6.10531,2.98283 17.77182,23.97177 z"
       style="font-style:normal;font-variant:normal;font-weight:bold;font-stretch:normal;font-size:45px;line-height:125%;font-family:'Source Sans Pro';-inkscape-font-specification:'Source Sans Pro Bold';letter-spacing:3.5px;word-spacing:0px;fill:#ffffff;fill-opacity:1;stroke:none"
       id="path4172" />
    <path
       d="m 186.14899,671.49184 c 7.71875,-1.77406 11.6913,-8.59729 9.54428,-17.93873 -2.13695,-9.29758 -8.63957,-13.48235 -16.35831,-11.70828 -7.71875,1.77407 -11.75178,8.33416 -9.60476,17.6756 2.14703,9.34144 8.70004,13.74548 16.41879,11.97141 z m -1.28015,-5.56977 c -3.90323,0.89711 -7.19583,-2.17851 -8.5163,-7.92371 -1.31039,-5.70135 0.35934,-9.68663 4.26257,-10.58375 3.90323,-0.89711 7.14543,1.95922 8.45582,7.66057 1.32047,5.7452 -0.29886,9.94977 -4.20209,10.84689 z"
       style="font-style:normal;font-variant:normal;font-weight:bold;font-stretch:normal;font-size:45px;line-height:125%;font-family:'Source Sans Pro';-inkscape-font-specification:'Source Sans Pro Bold';letter-spacing:3.5px;word-spacing:0px;fill:#ffffff;fill-opacity:1;stroke:none"
       id="path4174" />
    <path
       d="m 214.09018,642.92362 3.419,-0.0825 c 3.46399,-0.0836 5.37733,0.86048 5.44683,3.73964 0.0695,2.87916 -1.78411,4.40934 -5.2481,4.49296 l -3.419,0.0825 -0.19873,-8.2326 z m 17.27112,23.6651 -6.94149,-11.58086 c 3.11542,-1.47061 5.11857,-4.26477 5.01432,-8.58351 -0.16833,-6.97297 -5.30397,-9.00962 -11.51216,-8.85976 l -10.57192,0.2552 0.70804,29.33145 6.61308,-0.15963 -0.25521,-10.57192 3.64394,-0.088 5.87857,10.43617 7.42283,-0.17918 z"
       style="font-style:normal;font-variant:normal;font-weight:bold;font-stretch:normal;font-size:45px;line-height:125%;font-family:'Source Sans Pro';-inkscape-font-specification:'Source Sans Pro Bold';letter-spacing:3.5px;word-spacing:0px;fill:#ffffff;fill-opacity:1;stroke:none"
       id="path4176" />
    <path
       d="m 239.16307,667.44156 6.52879,1.06449 1.26724,-7.77237 4.09957,-3.89101 5.07037,13.36511 7.15058,1.16587 -7.50972,-19.09736 10.63223,-10.12096 -7.19499,-1.17311 -10.54969,10.45358 -0.17765,-0.029 1.93346,-11.85841 -6.52879,-1.06449 -4.7214,28.95762 z"
       style="font-style:normal;font-variant:normal;font-weight:bold;font-stretch:normal;font-size:45px;line-height:125%;font-family:'Source Sans Pro';-inkscape-font-specification:'Source Sans Pro Bold';letter-spacing:3.5px;word-spacing:0px;fill:#ffffff;fill-opacity:1;stroke:none"
       id="path4178" />
    <path
       d="m 279.83601,677.79718 c 3.60818,1.26953 7.15739,0.94407 10.39059,-0.9237 l -1.93696,-5.0703 c -1.86618,0.96533 -4.0523,1.48416 -6.30211,0.69258 -4.07511,-1.43382 -5.54198,-5.67086 -3.54061,-11.35905 1.95657,-5.56083 6.15037,-7.85388 9.92834,-6.52461 1.99511,0.70198 3.15225,2.1586 4.105,3.92495 l 4.71498,-2.82524 c -1.19566,-2.56737 -3.48477,-5.28096 -7.0505,-6.53555 -7.0041,-2.46438 -14.95621,0.74841 -18.18231,9.91742 -3.2709,9.29636 0.86948,16.23912 7.87358,18.7035 z"
       style="font-style:normal;font-variant:normal;font-weight:bold;font-stretch:normal;font-size:45px;line-height:125%;font-family:'Source Sans Pro';-inkscape-font-specification:'Source Sans Pro Bold';letter-spacing:3.5px;word-spacing:0px;fill:#ffffff;fill-opacity:1;stroke:none"
       id="path4180" />
    <path
       d="m 304.70579,689.70275 c 6.83076,4.00839 14.40329,1.77355 19.25434,-6.49322 4.82828,-8.22795 2.97226,-15.73471 -3.85849,-19.7431 -6.83076,-4.00838 -14.26664,-2.00641 -19.11769,6.26035 -4.85106,8.26677 -3.10891,15.96759 3.72184,19.97597 z m 2.89242,-4.92901 c -3.45419,-2.02697 -3.7373,-6.52369 -0.75378,-11.60794 2.96074,-5.04545 6.9106,-6.79732 10.36479,-4.77035 3.45419,2.02696 3.85117,6.32963 0.89043,11.37507 -2.98351,5.08426 -7.04725,7.03019 -10.50144,5.00322 z"
       style="font-style:normal;font-variant:normal;font-weight:bold;font-stretch:normal;font-size:45px;line-height:125%;font-family:'Source Sans Pro';-inkscape-font-specification:'Source Sans Pro Bold';letter-spacing:3.5px;word-spacing:0px;fill:#ffffff;fill-opacity:1;stroke:none"
       id="path4182" />
    <path
       d="m 323.56095,701.64872 14.10593,12.44343 3.69135,-4.18454 -9.14523,-8.06739 4.46535,-5.06193 7.49166,6.60871 3.66159,-4.15079 -7.49167,-6.60871 3.89974,-4.42076 8.80776,7.76971 3.69136,-4.18454 -13.76847,-12.14574 -19.40937,22.00255 z"
       style="font-style:normal;font-variant:normal;font-weight:bold;font-stretch:normal;font-size:45px;line-height:125%;font-family:'Source Sans Pro';-inkscape-font-specification:'Source Sans Pro Bold';letter-spacing:3.5px;word-spacing:0px;fill:#ffffff;fill-opacity:1;stroke:none"
       id="path4184" />
    <path
       d="m 344.36346,720.77203 3.5777,4.74168 8.58533,-6.47782 c 2.299,-1.73464 5.38633,-4.74057 7.45969,-6.69957 l 0.10841,0.14369 -4.15849,6.06903 -6.42389,10.0896 2.19541,2.90967 11.46521,-3.40813 7.00439,-2.29723 0.10842,0.14368 c -2.45281,1.45609 -6.19063,3.5999 -8.48963,5.33454 l -8.58533,6.47783 3.63192,4.81353 23.42106,-17.67172 -4.33662,-5.7475 -13.20904,4.16017 c -1.71738,0.56296 -3.52424,1.30618 -5.31346,1.92335 l -0.10842,-0.14369 c 1.08453,-1.55113 2.268,-3.12056 3.28068,-4.61749 l 7.57144,-11.63191 -4.36372,-5.78343 -23.42106,17.67172 z"
       style="font-style:normal;font-variant:normal;font-weight:bold;font-stretch:normal;font-size:45px;line-height:125%;font-family:'Source Sans Pro';-inkscape-font-specification:'Source Sans Pro Bold';letter-spacing:3.5px;word-spacing:0px;fill:#ffffff;fill-opacity:1;stroke:none"
       id="path4186" />
    <path
       d="m 379.51525,752.18321 2.74866,-0.50328 c 2.99053,-0.51811 6.40932,-1.2885 9.52411,-1.96491 l 0.0769,0.16273 c -2.4393,1.99965 -5.2255,4.21312 -7.52352,6.19575 l -2.15233,1.7644 -2.67386,-5.65469 z m -6.96351,13.6962 3.00088,6.34627 22.59991,-20.8411 -3.40484,-7.20058 -30.44837,4.24318 2.88546,6.10218 7.07504,-1.3544 3.82805,8.09556 -5.53613,4.60889 z"
       style="font-style:normal;font-variant:normal;font-weight:bold;font-stretch:normal;font-size:45px;line-height:125%;font-family:'Source Sans Pro';-inkscape-font-specification:'Source Sans Pro Bold';letter-spacing:3.5px;word-spacing:0px;fill:#ffffff;fill-opacity:1;stroke:none"
       id="path4188" />
    <path
       d="m 377.68162,778.60976 1.55315,6.10555 10.07416,-2.56269 c 3.35805,-0.85424 7.01909,-2.34274 10.09252,-3.40317 l 0.0444,0.17445 -5.48276,4.36644 -12.28763,11.0194 1.67518,6.58528 28.43442,-7.23324 -1.55315,-6.10555 -10.03054,2.5516 c -3.35806,0.85424 -7.23715,2.39821 -10.17975,3.42536 l -0.0444,-0.17445 5.56998,-4.38863 12.24402,-11.00831 -1.67518,-6.58527 -28.43442,7.23323 z"
       style="font-style:normal;font-variant:normal;font-weight:bold;font-stretch:normal;font-size:45px;line-height:125%;font-family:'Source Sans Pro';-inkscape-font-specification:'Source Sans Pro Bold';letter-spacing:3.5px;word-spacing:0px;fill:#ffffff;fill-opacity:1;stroke:none"
       id="path4190" />
    <circle
       r="191.97266"
       cy="850.59686"
       cx="-121.08876"
       transform="matrix(-0.99274282,0.12025676,0.12025676,0.99274282,0,0)"
       id="path3950-9-0"
       style="color:#000000;display:inline;overflow:visible;visibility:visible;opacity:0.05714285;fill:none;fill-opacity:1;fill-rule:nonzero;stroke:none;stroke-width:5;marker:none;enable-background:accumulate" />
    <path
       d="m 32.104543,856.43025 2.063285,10.69276 c 1.202163,6.23007 4.763982,10.67575 10.640578,9.5418 3.844088,-0.74176 5.574325,-3.41297 5.762755,-6.47411 l 0.176739,-0.0341 c 1.335576,2.17128 4.392057,3.04807 6.954783,2.55356 5.523116,-1.06575 6.262731,-6.02063 5.111724,-11.98559 l -1.901292,-9.85324 -28.808572,5.55893 z m 18.529624,3.16153 6.495185,-1.25332 0.596818,3.09295 c 0.588292,3.04876 0.03014,4.66886 -2.223296,5.10368 -2.076691,0.40072 -3.666544,-0.71323 -4.280414,-3.89455 l -0.588293,-3.04876 z m -12.239224,2.3617 7.423067,-1.43237 0.707656,3.66735 c 0.690604,3.57898 0.01539,5.54248 -2.503151,6.02846 -2.651096,0.51156 -4.237839,-1.0613 -4.919917,-4.59609 l -0.707655,-3.66735 z"
       style="font-style:normal;font-variant:normal;font-weight:bold;font-stretch:normal;font-size:45px;line-height:125%;font-family:'Source Sans Pro';-inkscape-font-specification:'Source Sans Pro Bold';letter-spacing:3.8499999px;word-spacing:0px;fill:#ffffff;fill-opacity:1;stroke:none"
       id="path4193" />
    <path
       d="m 42.46686,898.17532 c 2.786831,7.4135 10.078579,10.44137 19.050598,7.06867 8.929897,-3.35687 12.210811,-10.35914 9.423979,-17.77264 -2.786832,-7.4135 -9.825847,-10.53638 -18.797866,-7.16368 -8.972019,3.3727 -12.463542,10.45415 -9.676711,17.86765 z m 5.349514,-2.01096 c -1.40925,-3.74887 1.200169,-7.42195 6.718172,-9.49624 5.47588,-2.05846 9.648127,-0.93469 11.057377,2.81418 1.40925,3.74888 -0.989559,7.34279 -6.465439,9.40124 -5.518003,2.07429 -9.90086,1.0297 -11.31011,-2.71918 z"
       style="font-style:normal;font-variant:normal;font-weight:bold;font-stretch:normal;font-size:45px;line-height:125%;font-family:'Source Sans Pro';-inkscape-font-specification:'Source Sans Pro Bold';letter-spacing:3.8499999px;word-spacing:0px;fill:#ffffff;fill-opacity:1;stroke:none"
       id="path4195" />
    <path
       d="m 54.188024,922.35649 3.287884,5.74004 9.059109,-5.18904 20.806322,-1.70152 -3.44445,-6.01337 -7.17681,1.05115 c -2.31594,0.3931 -4.475695,0.69674 -6.853054,1.07315 l -0.08947,-0.15619 c 1.549796,-1.82119 2.926724,-3.4915 4.437474,-5.29032 l 4.55992,-5.61976 -3.53392,-6.16957 -11.993899,17.08639 -9.05911,5.18904 z"
       style="font-style:normal;font-variant:normal;font-weight:bold;font-stretch:normal;font-size:45px;line-height:125%;font-family:'Source Sans Pro';-inkscape-font-specification:'Source Sans Pro Bold';letter-spacing:3.8499999px;word-spacing:0px;fill:#ffffff;fill-opacity:1;stroke:none"
       id="path4197" />
    <path
       d="m 79.393559,958.6562 c 4.70328,5.21148 10.55696,5.38407 14.16491,2.12795 3.07344,-2.77373 3.33654,-6.04199 2.02377,-9.64591 l -1.3967,-3.83126 c -0.92,-2.56422 -1.74872,-4.42281 -0.41245,-5.62878 1.23606,-1.11552 2.93579,-0.70978 4.4734,0.99397 1.56776,1.73716 2.139001,3.64627 2.332991,6.0777 l 5.36804,-0.29837 c 0.18243,-3.55914 -1.19716,-7.10277 -3.45835,-9.60828 -4.100301,-4.54335 -9.867621,-5.15757 -13.475571,-1.90145 -3.17366,2.86418 -3.11489,6.69058 -1.99688,9.74287 l 1.36004,3.92496 c 0.91674,2.62778 1.59797,4.25578 0.22829,5.4919 -1.30287,1.17582 -3.00911,0.89719 -4.84822,-1.14063 -1.62806,-1.80397 -2.50162,-4.65257 -2.58236,-7.42866 l -5.90663,0.23889 c -0.0814,4.07411 1.56303,8.04551 4.12572,10.8851 z"
       style="font-style:normal;font-variant:normal;font-weight:bold;font-stretch:normal;font-size:45px;line-height:125%;font-family:'Source Sans Pro';-inkscape-font-specification:'Source Sans Pro Bold';letter-spacing:3.8499999px;word-spacing:0px;fill:#ffffff;fill-opacity:1;stroke:none"
       id="path4199" />
    <path
       d="m 102.87282,980.73383 c 2.95452,2.42929 6.40031,3.33999 10.07783,2.69349 l -0.0819,-5.42707 c -2.084,0.26725 -4.31554,0.005 -6.15777,-1.50934 -3.33687,-2.74367 -3.2627,-7.22682 0.56701,-11.88454 3.74396,-4.55343 8.46966,-5.27022 11.56322,-2.72661 1.63367,1.34325 2.22148,3.10824 2.51113,5.09415 l 5.39772,-1.03812 c -0.24331,-2.82167 -1.46373,-6.15546 -4.38349,-8.55617 -5.73524,-4.71568 -14.30685,-4.42296 -20.4801,3.08499 -6.258991,7.61223 -4.748931,15.55354 0.98631,20.26922 z"
       style="font-style:normal;font-variant:normal;font-weight:bold;font-stretch:normal;font-size:45px;line-height:125%;font-family:'Source Sans Pro';-inkscape-font-specification:'Source Sans Pro Bold';letter-spacing:3.8499999px;word-spacing:0px;fill:#ffffff;fill-opacity:1;stroke:none"
       id="path4201" />
    <path
       d="m 126.13699,996.53417 c 6.85346,3.96943 14.41314,1.69158 19.21709,-6.60266 4.78139,-8.2553 2.88269,-15.75137 -3.97077,-19.72083 -6.85345,-3.96945 -14.27781,-1.92521 -19.08176,6.36902 -4.80394,8.29424 -3.01801,15.98502 3.83544,19.95447 z m 2.86433,-4.94539 c -3.46567,-2.00728 -3.77435,-6.50231 -0.81982,-11.60346 2.93199,-5.06221 6.87182,-6.83653 10.33749,-4.82925 3.46567,2.00728 3.88712,6.30762 0.95514,11.36983 -2.95454,5.10115 -7.00715,7.07016 -10.47281,5.06288 z"
       style="font-style:normal;font-variant:normal;font-weight:bold;font-stretch:normal;font-size:45px;line-height:125%;font-family:'Source Sans Pro';-inkscape-font-specification:'Source Sans Pro Bold';letter-spacing:3.8499999px;word-spacing:0px;fill:#ffffff;fill-opacity:1;stroke:none"
       id="path4203" />
    <path
       d="m 157.23183,1011.0174 c 7.10936,2.5711 12.32953,-0.087 15.68116,-9.3546 l 5.3565,-14.81111 -6.0091,-2.1732 -5.58606,15.44591 c -1.95895,5.4167 -4.40967,6.6359 -7.49886,5.5186 -3.08918,-1.1172 -4.1085,-3.5913 -2.14955,-9.00796 l 5.58605,-15.44592 -6.263,-2.26504 -5.35649,14.81116 c -3.35164,9.26756 -0.91232,14.69576 6.23935,17.28216 z"
       style="font-style:normal;font-variant:normal;font-weight:bold;font-stretch:normal;font-size:45px;line-height:125%;font-family:'Source Sans Pro';-inkscape-font-specification:'Source Sans Pro Bold';letter-spacing:3.8499999px;word-spacing:0px;fill:#ffffff;fill-opacity:1;stroke:none"
       id="path4205" />
    <path
       d="m 184.23362,1018.0561 6.54526,1.2309 4.39142,-23.35067 7.91622,1.48876 1.03132,-5.48387 -22.37771,-4.20844 -1.03132,5.48387 7.91623,1.48876 -4.39142,23.35069 z"
       style="font-style:normal;font-variant:normal;font-weight:bold;font-stretch:normal;font-size:45px;line-height:125%;font-family:'Source Sans Pro';-inkscape-font-specification:'Source Sans Pro Bold';letter-spacing:3.8499999px;word-spacing:0px;fill:#ffffff;fill-opacity:1;stroke:none"
       id="path4207" />
    <path
       d="m 214.96001,1022.2557 c 7.01507,0.263 11.22068,-3.8123 11.40274,-8.6689 0.15508,-4.1371 -2.004,-6.6047 -5.50257,-8.1769 l -3.72003,-1.6705 c -2.47946,-1.1287 -4.3895,-1.8307 -4.32208,-3.6295 0.0624,-1.66379 1.53845,-2.59915 3.83184,-2.51318 2.33835,0.0876 4.10506,1.00948 5.98308,2.56588 l 3.5294,-4.0556 c -2.42384,-2.61263 -5.92577,-4.09485 -9.2984,-4.22127 -6.11571,-0.22925 -10.57764,3.47621 -10.7597,8.33277 -0.16014,4.272 2.62345,6.8981 5.59082,8.2252 l 3.76163,1.7622 c 2.52274,1.1753 4.16466,1.8222 4.09555,3.666 -0.0657,1.7537 -1.45525,2.7824 -4.19833,2.6796 -2.42829,-0.091 -5.0792,-1.4513 -7.12529,-3.3293 l -3.9476,4.4002 c 2.86341,2.8993 6.85662,4.49 10.67894,4.6333 z"
       style="font-style:normal;font-variant:normal;font-weight:bold;font-stretch:normal;font-size:45px;line-height:125%;font-family:'Source Sans Pro';-inkscape-font-specification:'Source Sans Pro Bold';letter-spacing:3.8499999px;word-spacing:0px;fill:#ffffff;fill-opacity:1;stroke:none"
       id="path4209" />
    <path
       d="m 253.28502,1014.6394 c 5.03521,-0.8352 7.86091,-5.0666 6.85017,-11.1603 -1.006,-6.06518 -5.02277,-9.01467 -10.05797,-8.1795 -5.03521,0.83517 -7.88938,4.8949 -6.87864,10.9887 1.01074,6.0937 5.05124,9.1862 10.08644,8.3511 z m -0.60265,-3.6334 c -2.54621,0.4223 -4.54218,-1.6865 -5.16381,-5.4343 -0.61689,-3.7192 0.61509,-6.21641 3.16131,-6.63874 2.54621,-0.42233 4.51845,1.54344 5.13534,5.26264 0.62163,3.7478 -0.58663,6.3881 -3.13284,6.8104 z"
       style="font-style:normal;font-variant:normal;font-weight:bold;font-stretch:normal;font-size:29px;line-height:125%;font-family:'Source Sans Pro';-inkscape-font-specification:'Source Sans Pro Bold';letter-spacing:3.8499999px;word-spacing:0px;fill:#ffffff;fill-opacity:1;stroke:none"
       id="path4211" />
    <path
       d="m 268.35598,1011.2251 4.10276,-1.1578 -1.99267,-7.0612 6.30765,-1.78 -0.97664,-3.46083 -6.30766,1.78002 -1.1893,-4.21441 7.36823,-2.07931 -0.97664,-3.46083 -11.471,3.2371 5.13527,18.19726 z"
       style="font-style:normal;font-variant:normal;font-weight:bold;font-stretch:normal;font-size:29px;line-height:125%;font-family:'Source Sans Pro';-inkscape-font-specification:'Source Sans Pro Bold';letter-spacing:3.8499999px;word-spacing:0px;fill:#ffffff;fill-opacity:1;stroke:none"
       id="path4213" />
    <path
       d="m 301.00828,991.73263 -0.58003,-2.73349 c -0.60161,-2.97486 -1.46739,-6.37074 -2.23072,-9.46538 l 0.16051,-0.0815 c 2.06715,2.38238 4.35773,5.10553 6.40391,7.34716 l 1.82395,2.10209 -5.57762,2.83109 z m 13.88575,6.57742 6.25978,-3.17734 -21.46553,-22.0077 -7.10245,3.60506 5.09379,30.31763 6.01902,-3.0551 -1.5519,-7.03435 7.98524,-4.05315 4.76205,5.40495 z"
       style="font-style:normal;font-variant:normal;font-weight:bold;font-stretch:normal;font-size:45px;line-height:125%;font-family:'Source Sans Pro';-inkscape-font-specification:'Source Sans Pro Bold';letter-spacing:3.8499999px;word-spacing:0px;fill:#ffffff;fill-opacity:1;stroke:none"
       id="path4215" />
    <path
       d="m 327.17358,991.41918 4.73997,-3.57998 -6.48195,-8.58222 c -1.73575,-2.29817 -4.74316,-5.38405 -6.70315,-7.45646 l 0.14364,-0.10849 6.07103,4.15558 10.09268,6.41904 2.90861,-2.19681 -3.41363,-11.46357 -2.3006,-7.00329 0.14363,-0.10848 c 1.45727,2.4521 3.60287,6.1889 5.33862,8.48706 l 6.48195,8.58222 4.81178,-3.63423 -17.68296,-23.41257 -5.74542,4.33938 4.16651,13.20704 c 0.56379,1.71711 1.30788,3.52361 1.92591,5.31254 l -0.14364,0.10848 c -1.55166,-1.08378 -3.12165,-2.26649 -4.61907,-3.27846 l -11.63555,-7.56585 -5.78132,4.3665 17.68296,23.41257 z"
       style="font-style:normal;font-variant:normal;font-weight:bold;font-stretch:normal;font-size:45px;line-height:125%;font-family:'Source Sans Pro';-inkscape-font-specification:'Source Sans Pro Bold';letter-spacing:3.8499999px;word-spacing:0px;fill:#ffffff;fill-opacity:1;stroke:none"
       id="path4217" />
    <path
       d="m 356.75544,967.3804 12.83079,-13.75453 -4.08029,-3.80626 -8.31852,8.91741 -4.93584,-4.60436 6.81444,-7.30503 -4.04738,-3.77557 -6.81444,7.30504 -4.31063,-4.02114 8.01157,-8.58835 -4.08029,-3.80626 -12.52383,13.42547 21.45442,20.01358 z"
       style="font-style:normal;font-variant:normal;font-weight:bold;font-stretch:normal;font-size:45px;line-height:125%;font-family:'Source Sans Pro';-inkscape-font-specification:'Source Sans Pro Bold';letter-spacing:3.8499999px;word-spacing:0px;fill:#ffffff;fill-opacity:1;stroke:none"
       id="path4219" />
    <path
       d="m 359.47566,927.02959 1.91783,-2.83166 c 1.94305,-2.86893 3.8226,-3.87864 6.20716,-2.26363 2.38457,1.61501 2.55426,4.01261 0.6112,6.88154 l -1.91783,2.83167 -6.81836,-4.61792 z m 29.29547,-0.32254 -13.45926,-1.07191 c 0.6114,-3.39039 -0.5006,-6.6436 -4.07745,-9.06611 -5.77511,-3.91135 -10.41504,-0.91237 -13.8974,4.22935 l -5.93011,8.75582 24.29274,16.45291 3.70947,-5.47705 -8.75582,-5.93011 2.044,-3.01796 11.91014,1.27276 4.16369,-6.1477 z"
       style="font-style:normal;font-variant:normal;font-weight:bold;font-stretch:normal;font-size:45px;line-height:125%;font-family:'Source Sans Pro';-inkscape-font-specification:'Source Sans Pro Bold';letter-spacing:3.8499999px;word-spacing:0px;fill:#ffffff;fill-opacity:1;stroke:none"
       id="path4221" />
    <path
       d="m 392.38055,919.37 2.98779,-5.90181 -26.17673,-13.25195 -2.98779,5.90181 26.17673,13.25195 z"
       style="font-style:normal;font-variant:normal;font-weight:bold;font-stretch:normal;font-size:45px;line-height:125%;font-family:'Source Sans Pro';-inkscape-font-specification:'Source Sans Pro Bold';letter-spacing:3.8499999px;word-spacing:0px;fill:#ffffff;fill-opacity:1;stroke:none"
       id="path4223" />
    <path
       d="m 404.64125,892.38706 c 1.2935,-3.59965 0.99166,-7.15095 -0.85456,-10.3965 l -5.08307,1.90319 c 0.95289,1.87256 1.45717,4.06209 0.65064,6.30658 -1.4609,4.06549 -5.7076,5.50414 -11.38234,3.46498 -5.5477,-1.99351 -7.8128,-6.20247 -6.45844,-9.97152 0.71523,-1.9904 2.17953,-3.13782 3.95217,-4.0788 l -2.79381,-4.73367 c -2.57528,1.17856 -5.30403,3.44957 -6.58231,7.00688 -2.51091,6.98755 0.64892,14.96086 9.79627,18.24787 9.27439,3.33266 16.24454,-0.76145 18.75545,-7.74901 z"
       style="font-style:normal;font-variant:normal;font-weight:bold;font-stretch:normal;font-size:45px;line-height:125%;font-family:'Source Sans Pro';-inkscape-font-specification:'Source Sans Pro Bold';letter-spacing:3.8499999px;word-spacing:0px;fill:#ffffff;fill-opacity:1;stroke:none"
       id="path4225" />
    <path
       d="m 398.56464,866.83303 -2.51705,-1.21363 c -2.72118,-1.34422 -5.937,-2.73708 -8.85186,-4.02666 l 0.0338,-0.17681 c 3.14917,-0.1775 6.7046,-0.32325 9.72961,-0.57028 l 2.77869,-0.15662 -1.17315,6.144 z m 13.69834,-6.95931 1.31663,-6.89543 -30.54109,3.51424 -1.49387,7.82365 27.09758,14.51995 1.266,-6.63021 -6.51363,-3.07626 1.67955,-8.79608 7.18883,-0.45986 z"
       style="font-style:normal;font-variant:normal;font-weight:bold;font-stretch:normal;font-size:45px;line-height:125%;font-family:'Source Sans Pro';-inkscape-font-specification:'Source Sans Pro Bold';letter-spacing:3.8499999px;word-spacing:0px;fill:#ffffff;fill-opacity:1;stroke:none"
       id="path4227" />
    <path
       id="path4390"
       d="m 399.07538,842.08896 c -0.32938,-0.29025 -0.91434,-0.9483 -1.41429,-1.59104 -0.2331,-0.29966 -0.70781,-1.01085 -0.85617,-1.28264 -0.0619,-0.11342 -0.16622,-0.30483 -0.2318,-0.42535 -0.0784,-0.14393 -0.13626,-0.22152 -0.16883,-0.22613 -0.0304,-0.004 -0.13435,0.0638 -0.26872,0.17615 -0.56112,0.46899 -0.96651,0.68722 -1.55729,0.83833 -1.16225,0.29727 -2.4352,-0.0291 -3.22643,-0.82709 -0.24148,-0.24356 -0.41683,-0.5116 -0.55632,-0.85036 -0.13747,-0.33388 -0.17666,-0.54555 -0.17666,-0.95418 0,-0.88412 0.40188,-1.71606 1.20235,-2.48897 0.39148,-0.37801 1.1507,-0.9023 1.21438,-0.83863 0.0107,0.0107 0.0198,0.24172 0.0203,0.51348 8.7e-4,0.47713 0.003,0.49973 0.0701,0.65796 0.14862,0.35208 0.29765,0.54455 0.56065,0.72407 0.26212,0.17891 0.40527,0.21831 0.78627,0.21646 0.36127,-0.002 0.47084,-0.0286 0.72928,-0.17875 0.1745,-0.10137 0.50154,-0.43722 0.5834,-0.59909 0.10376,-0.20521 0.0914,-0.23062 -0.17667,-0.3626 -0.4586,-0.2258 -0.74859,-0.6219 -0.77947,-1.06468 -0.0308,-0.44151 0.0798,-0.76411 0.36852,-1.07469 0.0872,-0.0937 0.22649,-0.21035 0.30962,-0.25907 0.27397,-0.16059 0.26754,-0.14317 0.20131,-0.5449 -0.11597,-0.70346 -0.36708,-1.42518 -0.67657,-1.9444 -0.31543,-0.5292 -0.84529,-1.04644 -1.35857,-1.32619 -0.41818,-0.22794 -1.09025,-0.35908 -1.57252,-0.30686 -1.5425,0.16699 -2.34821,1.79589 -1.97029,3.98338 0.0608,0.35187 0.0618,0.39514 0.009,0.39514 -0.0669,0 -0.68549,-0.37962 -1.14463,-0.70246 -0.60662,-0.42653 -1.23124,-0.96495 -1.60507,-1.3836 -0.33692,-0.3773 -0.7211,-0.93977 -0.96102,-1.407 -0.0946,-0.18431 -0.18821,-0.35344 -0.20793,-0.37582 -0.0197,-0.0223 -0.0359,-0.0548 -0.0359,-0.072 0,-0.0439 -0.0999,-0.35964 -0.14686,-0.46417 -0.11441,-0.25476 -0.24425,-0.8593 -0.27751,-1.29216 -0.009,-0.12052 -0.0231,-0.27336 -0.0307,-0.33967 -0.0164,-0.14236 0.0297,-0.77711 0.0828,-1.14262 0.13187,-0.90731 0.38414,-1.64237 0.80908,-2.35744 0.33757,-0.56806 1.00733,-1.2817 1.53479,-1.63536 0.59301,-0.3976 1.38521,-0.701 2.12583,-0.81413 0.59453,-0.0908 1.48148,-0.0425 2.06502,0.11248 0.53432,0.14192 1.25188,0.45935 1.68523,0.74553 0.21276,0.1405 0.26166,0.13243 0.28402,-0.0469 0.008,-0.0637 0.0211,-0.17105 0.0292,-0.2384 0.0599,-0.49714 0.27117,-1.28182 0.50154,-1.86252 0.031,-0.078 0.0714,-0.1824 0.0899,-0.23202 0.0337,-0.0905 0.18847,-0.43074 0.3165,-0.69602 0.12633,-0.26181 0.42154,-0.7886 0.72103,-1.28673 0.2185,-0.36343 0.8772,-1.3636 1.23234,-1.87121 1.05445,-1.50712 1.78414,-2.70249 2.06932,-3.38993 0.11256,-0.27134 0.31346,-0.85163 0.31368,-0.90607 8e-5,-0.0192 0.0125,-0.0797 0.0279,-0.1344 0.0251,-0.0903 0.0306,-0.0951 0.0592,-0.0516 0.0174,0.0264 0.0465,0.11179 0.0649,0.18977 0.0582,0.2479 0.27961,0.91762 0.36215,1.09561 0.0131,0.0284 0.0998,0.20816 0.19253,0.39957 0.15655,0.32321 0.2251,0.45369 0.4333,0.82493 0.14165,0.2526 0.16528,0.29274 0.32622,0.55424 0.0873,0.14179 0.16716,0.27214 0.17757,0.28967 0.0641,0.10801 0.48883,0.76404 0.82625,1.2763 0.34904,0.52989 0.62071,0.95966 0.79487,1.25744 0.0304,0.0522 0.11884,0.19806 0.19631,0.32424 0.47389,0.77186 0.81482,1.44641 1.12572,2.22728 0.2127,0.53419 0.26982,0.7084 0.38458,1.17294 0.0991,0.40103 0.12902,0.57314 0.19279,1.1082 0.037,0.31072 0.0519,0.31969 0.28551,0.17317 0.42232,-0.26479 1.11043,-0.55476 1.62648,-0.6854 0.46953,-0.11886 0.59998,-0.13198 1.30183,-0.13089 0.64388,8.7e-4 0.70218,0.005 1.01432,0.0715 0.3529,0.0751 0.78354,0.21485 1.09956,0.35703 0.84346,0.37945 1.40998,0.84294 2.03107,1.66165 0.5451,0.71856 0.93173,1.6482 1.07409,2.58265 0.0209,0.13746 0.045,0.29051 0.0534,0.34013 0.0337,0.19811 0.0437,1.13132 0.0151,1.42349 -0.0688,0.70462 -0.28333,1.43313 -0.59414,2.01801 -0.34326,0.64597 -0.38952,0.72039 -0.72089,1.16006 -0.33159,0.43998 -0.855,0.95214 -1.35036,1.32136 -0.72794,0.54256 -1.80576,1.19825 -1.90629,1.15967 -0.037,-0.0142 -0.0377,-0.0329 -0.007,-0.17861 0.17407,-0.81766 0.20559,-1.48611 0.10126,-2.14775 -0.1174,-0.74461 -0.44664,-1.32797 -0.96878,-1.71648 -0.41587,-0.30944 -0.97039,-0.45657 -1.53577,-0.40747 -0.28027,0.0244 -0.33013,0.0348 -0.68745,0.14309 -0.78732,0.23879 -1.55924,0.96559 -1.98892,1.87266 -0.20869,0.44053 -0.43047,1.15922 -0.50119,1.62401 -0.0357,0.23455 -0.0343,0.23735 0.16947,0.35237 0.78893,0.44525 0.96247,1.48771 0.34986,2.10179 -0.16907,0.16947 -0.36915,0.30108 -0.56258,0.37005 -0.10283,0.0367 -0.12639,0.0568 -0.13309,0.11405 -0.0233,0.19894 0.39813,0.70496 0.71706,0.8611 0.27287,0.13358 0.43865,0.17036 0.7062,0.1567 0.48093,-0.0246 0.88528,-0.26014 1.15199,-0.67108 0.16913,-0.26059 0.21053,-0.43382 0.22325,-0.93394 0.006,-0.24103 0.021,-0.44854 0.0331,-0.46112 0.0682,-0.0713 0.86787,0.49658 1.20725,0.85734 0.7987,0.84902 1.20333,1.76879 1.15566,2.62691 -0.0291,0.52483 -0.23764,1.06069 -0.5769,1.48279 -0.43981,0.54718 -1.24959,0.9554 -2.07789,1.04748 -0.30537,0.0339 -0.90733,-0.005 -1.20395,-0.0777 -0.6745,-0.16548 -1.25044,-0.48248 -1.79834,-0.98979 -0.10293,-0.0953 -0.20154,-0.16765 -0.21912,-0.16074 -0.0176,0.007 -0.13522,0.19082 -0.26144,0.40868 -0.44535,0.76872 -0.7685,1.22042 -1.4176,1.98151 -0.30261,0.35481 -1.08836,1.14129 -1.19448,1.19557 l -0.0832,0.0426 -0.20637,-0.18186 z"
       style="fill:#ffffff;fill-opacity:1" />
    <path
       id="path4390-8"
       d="m 45.075384,842.08896 c -0.32938,-0.29025 -0.91434,-0.9483 -1.41429,-1.59104 -0.2331,-0.29966 -0.70781,-1.01085 -0.85617,-1.28264 -0.0619,-0.11342 -0.16622,-0.30483 -0.2318,-0.42535 -0.0784,-0.14393 -0.13626,-0.22152 -0.16883,-0.22613 -0.0304,-0.004 -0.13435,0.0638 -0.26872,0.17615 -0.56112,0.46899 -0.96651,0.68722 -1.55729,0.83833 -1.16225,0.29727 -2.4352,-0.0291 -3.22643,-0.82709 -0.24148,-0.24356 -0.41683,-0.5116 -0.55632,-0.85036 -0.13747,-0.33388 -0.17666,-0.54555 -0.17666,-0.95418 0,-0.88412 0.40188,-1.71606 1.20235,-2.48897 0.39148,-0.37801 1.1507,-0.9023 1.21438,-0.83863 0.0107,0.0107 0.0198,0.24172 0.0203,0.51348 8.7e-4,0.47713 0.003,0.49973 0.0701,0.65796 0.14862,0.35208 0.29765,0.54455 0.56065,0.72407 0.26212,0.17891 0.40527,0.21831 0.78627,0.21646 0.36127,-0.002 0.47084,-0.0286 0.72928,-0.17875 0.1745,-0.10137 0.50154,-0.43722 0.5834,-0.59909 0.10376,-0.20521 0.0914,-0.23062 -0.17667,-0.3626 -0.4586,-0.2258 -0.74859,-0.6219 -0.77947,-1.06468 -0.0308,-0.44151 0.0798,-0.76411 0.36852,-1.07469 0.0872,-0.0937 0.22649,-0.21035 0.30962,-0.25907 0.27397,-0.16059 0.26754,-0.14317 0.20131,-0.5449 -0.11597,-0.70346 -0.36708,-1.42518 -0.67657,-1.9444 -0.31543,-0.5292 -0.84529,-1.04644 -1.35857,-1.32619 -0.41818,-0.22794 -1.09025,-0.35908 -1.57252,-0.30686 -1.5425,0.16699 -2.34821,1.79589 -1.97029,3.98338 0.0608,0.35187 0.0618,0.39514 0.009,0.39514 -0.0669,0 -0.68549,-0.37962 -1.14463,-0.70246 -0.60662,-0.42653 -1.23124,-0.96495 -1.60507,-1.3836 -0.33692,-0.3773 -0.7211,-0.93977 -0.96102,-1.407 -0.0946,-0.18431 -0.18821,-0.35344 -0.20793,-0.37582 -0.0197,-0.0223 -0.0359,-0.0548 -0.0359,-0.072 0,-0.0439 -0.0999,-0.35964 -0.14686,-0.46417 -0.11441,-0.25476 -0.24425,-0.8593 -0.27751,-1.29216 -0.009,-0.12052 -0.0231,-0.27336 -0.0307,-0.33967 -0.0164,-0.14236 0.0297,-0.77711 0.0828,-1.14262 0.13187,-0.90731 0.38414,-1.64237 0.80908,-2.35744 0.33757,-0.56806 1.00733,-1.2817 1.53479,-1.63536 0.59301,-0.3976 1.38521,-0.701 2.12583,-0.81413 0.59453,-0.0908 1.48148,-0.0425 2.06502,0.11248 0.53432,0.14192 1.25188,0.45935 1.68523,0.74553 0.21276,0.1405 0.26166,0.13243 0.28402,-0.0469 0.008,-0.0637 0.0211,-0.17105 0.0292,-0.2384 0.0599,-0.49714 0.27117,-1.28182 0.50154,-1.86252 0.031,-0.078 0.0714,-0.1824 0.0899,-0.23202 0.0337,-0.0905 0.18847,-0.43074 0.3165,-0.69602 0.12633,-0.26181 0.42154,-0.7886 0.72103,-1.28673 0.2185,-0.36343 0.8772,-1.3636 1.23234,-1.87121 1.05445,-1.50712 1.78414,-2.70249 2.06932,-3.38993 0.11256,-0.27134 0.31346,-0.85163 0.31368,-0.90607 8e-5,-0.0192 0.0125,-0.0797 0.0279,-0.1344 0.0251,-0.0903 0.0306,-0.0951 0.0592,-0.0516 0.0174,0.0264 0.0465,0.11179 0.0649,0.18977 0.0582,0.2479 0.27961,0.91762 0.36215,1.09561 0.0131,0.0284 0.0998,0.20816 0.19253,0.39957 0.15655,0.32321 0.2251,0.45369 0.4333,0.82493 0.14165,0.2526 0.16528,0.29274 0.32622,0.55424 0.0873,0.14179 0.16716,0.27214 0.17757,0.28967 0.0641,0.10801 0.48883,0.76404 0.82625,1.2763 0.34904,0.52989 0.62071,0.95966 0.79487,1.25744 0.0304,0.0522 0.11884,0.19806 0.19631,0.32424 0.47389,0.77186 0.81482,1.44641 1.12572,2.22728 0.2127,0.53419 0.26982,0.7084 0.38458,1.17294 0.0991,0.40103 0.12902,0.57314 0.19279,1.1082 0.037,0.31072 0.0519,0.31969 0.28551,0.17317 0.42232,-0.26479 1.11043,-0.55476 1.62648,-0.6854 0.46953,-0.11886 0.59998,-0.13198 1.30183,-0.13089 0.64388,8.7e-4 0.70218,0.005 1.01432,0.0715 0.3529,0.0751 0.78354,0.21485 1.09956,0.35703 0.84346,0.37945 1.40998,0.84294 2.03107,1.66165 0.5451,0.71856 0.93173,1.6482 1.07409,2.58265 0.0209,0.13746 0.045,0.29051 0.0534,0.34013 0.0337,0.19811 0.0437,1.13132 0.0151,1.42349 -0.0688,0.70462 -0.28333,1.43313 -0.59414,2.01801 -0.34326,0.64597 -0.38952,0.72039 -0.72089,1.16006 -0.33159,0.43998 -0.855,0.95214 -1.35036,1.32136 -0.72794,0.54256 -1.80576,1.19825 -1.90629,1.15967 -0.037,-0.0142 -0.0377,-0.0329 -0.007,-0.17861 0.17407,-0.81766 0.20559,-1.48611 0.10126,-2.14775 -0.1174,-0.74461 -0.44664,-1.32797 -0.96878,-1.71648 -0.41587,-0.30944 -0.97039,-0.45657 -1.53577,-0.40747 -0.28027,0.0244 -0.33013,0.0348 -0.68745,0.14309 -0.78732,0.23879 -1.55924,0.96559 -1.98892,1.87266 -0.20869,0.44053 -0.43047,1.15922 -0.50119,1.62401 -0.0357,0.23455 -0.0343,0.23735 0.16947,0.35237 0.78893,0.44525 0.96247,1.48771 0.34986,2.10179 -0.16907,0.16947 -0.36915,0.30108 -0.56258,0.37005 -0.10283,0.0367 -0.12639,0.0568 -0.13309,0.11405 -0.0233,0.19894 0.39813,0.70496 0.71706,0.8611 0.27287,0.13358 0.43865,0.17036 0.7062,0.1567 0.48093,-0.0246 0.88528,-0.26014 1.15199,-0.67108 0.16913,-0.26059 0.21053,-0.43382 0.22325,-0.93394 0.006,-0.24103 0.021,-0.44854 0.0331,-0.46112 0.0682,-0.0713 0.86787,0.49658 1.20725,0.85734 0.7987,0.84902 1.20333,1.76879 1.15566,2.62691 -0.0291,0.52483 -0.23764,1.06069 -0.5769,1.48279 -0.43981,0.54718 -1.24959,0.9554 -2.07789,1.04748 -0.30537,0.0339 -0.90733,-0.005 -1.20395,-0.0777 -0.6745,-0.16548 -1.25044,-0.48248 -1.79834,-0.98979 -0.10293,-0.0953 -0.20154,-0.16765 -0.21912,-0.16074 -0.0176,0.007 -0.13522,0.19082 -0.26144,0.40868 -0.44535,0.76872 -0.7685,1.22042 -1.4176,1.98151 -0.30261,0.35481 -1.08836,1.14129 -1.19448,1.19557 l -0.0832,0.0426 -0.20637,-0.18186 z"
       style="display:inline;fill:#ffffff;fill-opacity:1" />
  </g>
</svg>
