<svg xmlns="http://www.w3.org/2000/svg" viewBox="0 0 500 500" version="1.1">
<circle fill="#0d3b02" cx="250" cy="250" r="250"/>
<path d="m250 22.8845c-125.565 0-227.116 101.55-227.116 227.116 0.0005 125.565 101.551 227.116 227.116 227.116s227.116-101.551 227.116-227.116-101.551-227.116-227.116-227.116zm0 54.7094a172.407 172.407 0 0 1 172.406 172.406 172.407 172.407 0 0 1 -172.406 172.406 172.407 172.407 0 0 1 -172.406 -172.406 172.407 172.407 0 0 1 172.406 -172.406z"/>
<path fill="#fff" d="m246.149 33.9339c-0.4255-0.0094-0.85661-0.0083-1.29258 0.0022l-11.879 0.285288 0.79661 32.9573 7.43066-0.179951-0.28748-11.8789 4.09497-0.09875 6.60332 11.7275 8.34138-0.201896-7.79934-13.0113c3.50047-1.65237 5.75047-4.79241 5.63334-9.64493-0.17732-7.34512-5.25966-9.81519-11.6419-9.95655zm27.8792 1.03362-5.30636 32.5382 7.33629 1.19602 1.42424-8.7342 4.6063-4.37149 5.69699 15.0171 8.03415 1.31013-8.43795-21.458 11.947-11.372-8.08462-1.31891-11.8526 11.7473-0.19969-0.03292 2.17257-13.3251zm-69.3469 3.34226c-1.03448 0.0418-2.09797 0.185348-3.18207 0.434515-8.67275 1.99334-13.2028 9.36443-10.7905 19.8604 2.4124 10.496 9.77441 15.4436 18.4472 13.4502 8.67275-1.99333 13.137-9.65849 10.7246-20.1545-2.10093-9.14088-7.9579-13.8832-15.1993-13.5907zm39.7121 1.55372c3.89212-0.09393 6.04023 0.967499 6.11832 4.20251 0.0781 3.23501-2.00456 4.95345-5.89668 5.0474l-3.84042 0.09436-0.22384-9.25211zm-39.8482 4.95743c3.65545 0.0266 6.6054 3.1838 7.8937 8.78906 1.48367 6.45528-0.33476 11.1804-4.72042 12.1884-4.38565 1.00799-8.08443-2.4479-9.56811-8.90318-1.47235-6.40601 0.40279-10.8841 4.78844-11.8921 0.54821-0.125998 1.08419-0.185945 1.60639-0.182145zm116.964 1.27941c-6.53663-0.297276-12.9871 3.6554-15.9322 12.026-3.67517 10.4453 0.97635 18.2458 8.84612 21.0147 4.05414 1.42644 8.04205 1.06061 11.6749-1.03801l-2.17697-5.69698c-2.09683 1.08464-4.55165 1.66628-7.07953 0.776861-4.57877-1.61103-6.22739-6.36992-3.97866-12.7611 2.19839-6.24812 6.90984-8.82546 11.1548-7.3319 2.2417 0.788742 3.54238 2.42633 4.61289 4.41099l5.29757-3.17547c-1.34344-2.88468-3.91578-5.93322-7.92222-7.34287-1.47559-0.519181-2.98813-0.813595-4.49657-0.882197zm-148.354 0.91731-6.40581 3.12939 4.72481 14.8569c1.07823 3.24355 2.19966 6.57671 3.34445 9.95655l-0.17995 0.08998c-2.14426-2.89154-4.28889-5.78298-6.34436-8.4928l-9.94997-12.3025-5.67942 2.77388 3.59024 15.4099c0.91869 3.37776 1.85932 6.80109 2.8002 10.2243l-0.18214 0.08779c-1.89491-2.9571-3.87912-5.86862-5.75184-8.78028l-8.8154-12.8577-6.86008 3.35104 19.968 26.9356 8.26896-4.04012-3.79872-14.8021c-0.61004-2.51564-1.42236-5.10099-2.1243-7.45918l0.18215-0.08779c1.38338 2.02527 2.92219 4.25558 4.53169 6.28292l9.47814 12.026 8.40502-4.10595zm179.224 13.786c-5.32808-0.1754-10.4469 2.88382-14.1942 9.26966-5.45064 9.28851-3.49443 17.9396 4.18057 22.4434 7.67501 4.50381 16.1852 1.99391 21.6358-7.29459 5.42504-9.24489 3.33862-17.6806-4.33638-22.1844-2.39844-1.40744-4.86395-2.1543-7.28581-2.23402zm1.04679 6.85349c1.01382 0.04716 2.01866 0.350131 2.98893 0.919504 3.88111 2.27748 4.32738 7.11186 1.00071 12.7809-3.35226 5.71265-7.91883 7.89986-11.7999 5.62237-3.88112-2.27749-4.19936-7.3316-0.84709-13.0442 2.495-4.25178 5.61591-6.42 8.65739-6.27853zm31.9347 13.56-21.8092 24.7235 15.8488 13.9813 4.14764-4.70286-10.2748-9.06338 5.01667-5.6882 8.41819 7.42627 4.11473-4.66337-8.41819-7.42626 4.38246-4.9684 9.89512 8.732 4.14764-4.70286zm-272.45 5.29099c-3.22332 0.04969-6.45885 1.90263-9.44741 4.66116l-8.32383 7.68302 22.36 24.2231 5.46217-5.04082-7.57989-8.2097 3.01089-2.77827c5.12724-4.7326 7.14088-11.2725 1.89388-16.9571-2.37059-2.56826-4.86877-3.62011-7.3758-3.58146zm-1.15212 6.91055c1.10834-0.0049 2.15742 0.505452 3.17767 1.61078 2.332 2.52646 2.11848 5.20147-0.89098 7.97929l-2.67512 2.46884-6.75474-7.31874 2.5259-2.33278c1.67192-1.54324 3.19225-2.40106 4.61727-2.40739zm177.317 1.23552a4.82701 4.82701 0 0 0 -4.02255 2.02116l-35.053 47.6587-35.053-47.6587a4.82701 4.82701 0 0 0 -4.1674 -2.01677 4.82701 4.82701 0 0 0 -3.60999 7.73789l17.938 24.3855c-18.9401 84.1876-70.3888 144.05-87.2323 161.881v-10.9265a4.82701 4.82701 0 0 0 -4.89817 -4.89599 4.82701 4.82701 0 0 0 -4.75334 4.89599v56.1183h-8.64422a4.82701 4.82701 0 1 0 0 9.6515h260.841a4.82701 4.82701 0 1 0 0 -9.6515h-8.64422v-56.1183a4.82701 4.82701 0 0 0 -4.89818 -4.89599 4.82701 4.82701 0 0 0 -4.75333 4.89599v10.927c-16.844-17.831-68.292-77.693-87.233-161.881l17.938-24.3855a4.82701 4.82701 0 0 0 -3.75483 -7.74228zm124.166 12.917-26.3167 19.856 4.02037 5.3283 9.64711-7.27923c2.58315-1.94903 6.05127-5.32609 8.38089-7.52721l0.1207 0.1602-4.67214 6.82057-7.21778 11.3369 2.46664 3.26765 12.8818-3.82945 7.87174-2.58075 0.12071 0.16239c-2.75596 1.63606-6.95426 4.04421-9.53739 5.99324l-9.64713 7.27924 4.07962 5.4073 26.3167-19.856-4.87184-6.45628-14.8416 4.67434c-1.92964 0.63254-3.96094 1.46596-5.97129 2.15941l-0.1207-0.16021c1.21856-1.74284 2.54675-3.5059 3.68459-5.18784l8.50817-13.0706zm-330.747 4.99254-4.67872 6.60112 8.94926 12.7282c1.18732 1.6474 2.59913 3.32835 3.86894 5.03422l-0.118503 0.16679c-2.03008-0.63342-4.11149-1.36721-6.05908-1.94215l-15.0325-4.14984-4.70944 6.64282 26.8939 19.0638 3.86016-5.44461-9.8578-6.98736c-2.63991-1.87142-6.9096-4.15449-9.71296-5.70795l0.11631-0.16679 7.91564 2.38764 12.9894 3.44541 2.36789-3.34007-7.55135-11.1174-4.84331-6.71963 0.116311-0.16458c2.39398 2.13094 5.96262 5.40341 8.60253 7.27484l9.8578 6.98955 3.91942-5.528zm147.983 21.5173 9.03046 12.2762-0.0856 0.25018s-4.17552 12.3076-6.10078 18.5437c-3.55284 11.508-6.24797 23.2384-9.99166 34.6054-3.36179 10.2074-6.73707 20.4296-11.1855 30.1571-5.80837 12.7014-12.6002 24.992-20.1852 36.7231-9.59291 14.8365-20.202 29.0803-31.8732 42.3345-5.68338 6.45421-15.8156 16.0126-22.2108 21.9342v-32.347c7.60871-7.46109 69.5372-70.4189 92.6023-164.477zm39.0449 0c23.0651 94.0583 84.9936 157.016 92.6023 164.477v32.3473c-6.39516-5.9217-16.5274-15.48-22.2108-21.9342-11.6712-13.2542-22.2803-27.498-31.8732-42.3345-7.58502-11.7311-14.3768-24.0218-20.1852-36.7231-4.44842-9.7275-7.8237-19.9497-11.1855-30.1571-3.74368-11.367-6.43882-23.0974-9.99166-34.6054-1.92526-6.23614-6.10078-18.5437-6.10078-18.5437l-0.0856-0.25018zm174.015 19.652-34.2126 4.7665 3.2435 6.85789 7.94856-1.523 4.30126 9.09629-6.22147 5.17908 3.37298 7.13 25.3928-23.4178zm-389.949 5.93179-3.5661 8.20971 26.128 22.5948 3.02186-6.95664-6.38167-4.97718 4.0072-9.23016 7.99465 1.26844 3.14256-7.23535zm386.622 0.2831 0.0878 0.18214c-2.74079 2.24681-5.87125 4.73336-8.4533 6.96103l-2.41837 1.98384-3.0043-6.35533 3.0877-0.56399c3.36014-0.58215 7.20073-1.44768 10.7005-2.20769zm-383.24 6.14686c3.49601 0.58138 7.42881 1.29859 10.8058 1.77317l3.0855 0.51352-2.80021 6.44531-2.46006-1.95092c-2.65185-2.14412-5.83461-4.46262-8.71226-6.59456zm399.339 18.1904-31.9478 8.12852 1.74465 6.86008 11.3193-2.87922c3.77309-0.95982 7.888-2.63356 11.3413-3.82505l0.0483 0.1975-6.16003 4.90475-13.8057 12.3815 1.8829 7.39992 31.9479-8.1285-1.74466-6.86008-11.2711 2.86823c-3.7731 0.95982-8.13156 2.69509-11.4379 3.8492l-0.0505-0.19751 6.25879-4.93109 13.7575-12.3683zm-410.187 4.648c-2.72033 1.65108-5.46945 4.54051-6.43214 8.67715-1.89101 8.12556 2.67488 16.6124 13.312 19.088 10.7848 2.50989 18.0287-2.96775 19.9197-11.0933 0.974159-4.18589 0.17497-8.11141-2.30864-11.4927l-5.42486 2.78703c1.30761 1.96553 2.15675 4.34442 1.54933 6.95445-1.10023 4.7276-5.65308 6.88598-12.252 5.35025-6.4512-1.50135-9.52816-5.90286-8.50816-10.2857 0.538653-2.31455 2.02434-3.78587 3.87992-5.06716zm5.16591 39.4005c-0.0091 0.008-0.01662 0.0348-0.03072 0.0856-0.0173 0.0615-0.03283 0.12984-0.03292 0.15141-0.000248 0.0611-0.224652 0.71339-0.351124 1.01826-0.320427 0.77241-1.14142 2.11631-2.32619 3.8097-0.399034 0.57035-1.13924 1.694-1.38474 2.10235-0.336506 0.55969-0.667835 1.15202-0.809779 1.44619-0.143854 0.29807-0.317647 0.67957-0.355512 0.78125-0.02079 0.0557-0.06611 0.17351-0.100944 0.26115-0.258843 0.65247-0.496689 1.53279-0.563992 2.09138-0.0091 0.0757-0.02393 0.19616-0.03292 0.26774-0.02512 0.20149-0.07915 0.21052-0.318205 0.0527-0.48691-0.32155-1.29351-0.67665-1.89387-0.83611-0.655663-0.17414-1.6516-0.2293-2.31961-0.12728-0.832158 0.12711-1.72353 0.46837-2.38984 0.91511-0.592652 0.39737-1.34341 1.19855-1.7227 1.83682-0.477461 0.80345-0.762558 1.62934-0.910727 2.64879-0.05966 0.41068-0.110596 1.12384-0.09217 1.2838 0.0085 0.0745 0.025 0.24642 0.03511 0.38184 0.03737 0.48636 0.183072 1.16653 0.311621 1.45277 0.05276 0.11745 0.16459 0.47078 0.16459 0.5201 0 0.0193 0.01737 0.0562 0.03951 0.0812 0.02216 0.0252 0.128522 0.21645 0.234814 0.42354 0.269573 0.52498 0.701143 1.15612 1.0797 1.58006 0.420033 0.47039 1.1223 1.07447 1.8039 1.55371 0.515888 0.36275 1.21082 0.79004 1.28599 0.79004 0.05933 0 0.05734-0.048-0.01101-0.44329-0.424629-2.45786 0.481128-4.28921 2.21427-4.47684 0.541877-0.0587 1.29673 0.0884 1.76659 0.34454 0.576719 0.31433 1.17297 0.89548 1.52739 1.49008 0.347741 0.5834 0.629001 1.39535 0.759304 2.18576 0.07442 0.45138 0.0818 0.43183-0.226036 0.61227-0.0934 0.0547-0.25095 0.18658-0.348928 0.29186-0.324404 0.34897-0.447177 0.71091-0.412571 1.20699 0.0347 0.4975 0.360334 0.94231 0.875615 1.19602 0.301202 0.14829 0.314091 0.17761 0.197507 0.40818-0.09198 0.18188-0.4579 0.55762-0.653968 0.67152-0.290382 0.16871-0.41483 0.19965-0.820751 0.2019-0.42809 0.002-0.587681-0.0426-0.882198-0.2436-0.295506-0.20171-0.462839-0.41857-0.629828-0.81417-0.07539-0.17778-0.07802-0.20345-0.079-0.73955-0.000562-0.30535-0.01211-0.56294-0.02414-0.57496-0.07155-0.0716-0.925127 0.51672-1.36499 0.94145-0.899405 0.86843-1.34963 1.80242-1.34963 2.79582 0 0.45913 0.04304 0.69797 0.197507 1.07312 0.156731 0.38063 0.354113 0.68095 0.625438 0.95462 0.889024 0.89662 2.31945 1.26449 3.62535 0.93048 0.663798-0.16979 1.11856-0.4167 1.74904-0.94365 0.150977-0.12624 0.268686-0.202 0.302844-0.19751 0.03659 0.006 0.10064 0.0928 0.188729 0.25457 0.07368 0.13541 0.191597 0.35097 0.261148 0.47841 0.166697 0.30538 0.69929 1.10291 0.9612 1.43961 0.561742 0.72218 1.22094 1.4624 1.59103 1.78853l0.230425 0.20409 0.09436-0.0483c0.119236-0.061 1.00304-0.94438 1.34305-1.34304 0.729326-0.85516 1.09064-1.36152 1.59103-2.22525 0.14182-0.24479 0.274291-0.45298 0.294066-0.46084 0.01975-0.008 0.130135 0.0751 0.245787 0.18214 0.615618 0.57001 1.26329 0.92669 2.02116 1.11262 0.333281 0.0817 1.01091 0.12367 1.35402 0.0856 0.930673-0.10348 1.83861-0.56145 2.33278-1.17626 0.381191-0.47427 0.616882-1.07594 0.649578-1.66564 0.05356-0.96418-0.401741-1.99769-1.29916-2.95164-0.381326-0.40535-1.27958-1.04351-1.35622-0.96339-0.01359 0.0142-0.03056 0.24709-0.0373 0.51791-0.01429 0.56193-0.06015 0.75618-0.250175 1.04897-0.299674 0.46173-0.754398 0.72728-1.29477 0.75492-0.300618 0.0154-0.487821-0.0255-0.794417-0.17556-0.358348-0.17544-0.831569-0.74426-0.805389-0.96778 0.0075-0.0644 0.03368-0.0882 0.149226-0.12949 0.217338-0.0775 0.442057-0.22435 0.632023-0.41476 0.688326-0.68998 0.493619-1.86102-0.392819-2.3613-0.228955-0.12924-0.228842-0.13367-0.188729-0.39721 0.07946-0.52223 0.327314-1.32867 0.561797-1.82365 0.482787-1.01918 1.3494-1.83625 2.23402-2.10455 0.401483-0.12167 0.457561-0.13279 0.772472-0.1602 0.635257-0.0552 1.25982 0.10876 1.72709 0.45646 0.586674 0.43653 0.956573 1.09235 1.08848 1.92899 0.117225 0.74341 0.08147 1.49526-0.114116 2.41398-0.03449 0.16372-0.0328 0.18374 0.0088 0.19969 0.112955 0.0434 1.32394-0.69392 2.14185-1.30354 0.556584-0.41485 1.14384-0.98914 1.51642-1.4835 0.372326-0.49401 0.424093-0.57773 0.809778-1.30354 0.349225-0.65717 0.589832-1.47524 0.667135-2.26695 0.03213-0.32828 0.0203-1.37721-0.01756-1.5998-0.0094-0.0557-0.03576-0.2274-0.05925-0.38185-0.159955-1.04994-0.594516-2.09599-1.20699-2.90336-0.697854-0.9199-1.3346-1.43899-2.2823-1.86533-0.355078-0.15976-0.838999-0.31723-1.23552-0.40161-0.350719-0.0747-0.415496-0.0802-1.13896-0.0812-0.788595-0.001-0.936184 0.0135-1.46375 0.14704-0.579831 0.14678-1.35133 0.47276-1.82584 0.77028-0.262483 0.16463-0.278828 0.156-0.320401-0.19313-0.07165-0.60119-0.10591-0.79588-0.217257-1.24648-0.128944-0.52195-0.193333-0.7165-0.432321-1.31672-0.349326-0.87738-0.731585-1.63668-1.26404-2.50395-0.08705-0.14178-0.187489-0.30563-0.221646-0.36428-0.195686-0.33459-0.500991-0.8179-0.893171-1.41328-0.379124-0.57558-0.856261-1.31167-0.928283-1.43303-0.0117-0.0197-0.101607-0.16547-0.199701-0.32478-0.180832-0.29382-0.207328-0.33943-0.366486-0.62325-0.233932-0.41712-0.311285-0.56293-0.487184-0.92609-0.104191-0.21507-0.200344-0.41797-0.215063-0.44988-0.09274-0.19999-0.342789-0.95258-0.408181-1.23112-0.02067-0.0876-0.05287-0.1832-0.07242-0.21287-0.01607-0.0244-0.02602-0.0364-0.03511-0.0285zm397.753 0c-0.009 0.008-0.0166 0.0348-0.0307 0.0856-0.0173 0.0615-0.0328 0.12984-0.0329 0.15141-0.00025 0.0611-0.22465 0.71339-0.35112 1.01826-0.32043 0.77241-1.14142 2.11631-2.32619 3.8097-0.39904 0.57035-1.13924 1.694-1.38475 2.10235-0.3365 0.55969-0.66783 1.15202-0.80977 1.44619-0.14385 0.29807-0.31765 0.67957-0.35552 0.78125-0.0208 0.0557-0.0661 0.17351-0.1009 0.26115-0.25884 0.65247-0.49669 1.53279-0.564 2.09138-0.009 0.0757-0.0239 0.19616-0.0329 0.26774-0.0252 0.20149-0.0791 0.21052-0.31821 0.0527-0.48691-0.32155-1.29351-0.67665-1.89387-0.83611-0.65566-0.17414-1.6516-0.2293-2.31961-0.12728-0.83216 0.12711-1.72353 0.46837-2.38984 0.91511-0.59265 0.39737-1.3434 1.19855-1.72269 1.83682-0.47746 0.80345-0.76256 1.62934-0.91073 2.64879-0.0597 0.41068-0.11056 1.12384-0.0921 1.2838 0.009 0.0745 0.0249 0.24642 0.0351 0.38184 0.0374 0.48636 0.18307 1.16653 0.31162 1.45277 0.0528 0.11745 0.16459 0.47078 0.16459 0.5201 0 0.0193 0.0174 0.0562 0.0395 0.0812 0.0221 0.0252 0.12853 0.21645 0.23482 0.42354 0.26958 0.52498 0.70114 1.15612 1.0797 1.58006 0.42003 0.47039 1.1223 1.07447 1.8039 1.55371 0.51589 0.36275 1.21083 0.79004 1.28599 0.79004 0.0593 0 0.0573-0.048-0.0112-0.44329-0.42463-2.45786 0.48112-4.28921 2.21427-4.47684 0.54188-0.0587 1.29673 0.0884 1.7666 0.34454 0.57672 0.31433 1.17296 0.89548 1.52738 1.49008 0.34774 0.5834 0.629 1.39535 0.7593 2.18576 0.0744 0.45138 0.0818 0.43183-0.22603 0.61227-0.0934 0.0547-0.25095 0.18658-0.34892 0.29186-0.32441 0.34897-0.44718 0.71091-0.41258 1.20699 0.0347 0.4975 0.36034 0.94231 0.87562 1.19602 0.30119 0.14829 0.31409 0.17761 0.19751 0.40818-0.092 0.18188-0.4579 0.55762-0.65398 0.67152-0.29038 0.16871-0.41482 0.19965-0.82074 0.2019-0.42809 0.002-0.58769-0.0426-0.8822-0.2436-0.29551-0.20171-0.46285-0.41857-0.62984-0.81417-0.0754-0.17778-0.078-0.20345-0.079-0.73955-0.00057-0.30535-0.0121-0.56294-0.0242-0.57496-0.0716-0.0716-0.92514 0.51672-1.365 0.94145-0.89941 0.86843-1.34963 1.80242-1.34963 2.79582 0 0.45913 0.043 0.69797 0.1975 1.07312 0.15674 0.38063 0.35412 0.68095 0.62544 0.95462 0.88903 0.89662 2.31946 1.26449 3.62535 0.93048 0.6638-0.16979 1.11857-0.4167 1.74905-0.94365 0.15097-0.12624 0.26868-0.202 0.30284-0.19751 0.0366 0.006 0.10067 0.0928 0.18873 0.25457 0.0737 0.13541 0.19159 0.35097 0.26115 0.47841 0.16669 0.30538 0.69929 1.10291 0.9612 1.43961 0.56174 0.72218 1.22093 1.4624 1.59102 1.78853l0.23043 0.20409 0.0944-0.0483c0.11924-0.061 1.00304-0.94438 1.34306-1.34304 0.72932-0.85516 1.09062-1.36152 1.59102-2.22525 0.14182-0.24479 0.27429-0.45298 0.29407-0.46084 0.0198-0.008 0.13013 0.0751 0.24578 0.18214 0.61562 0.57001 1.26329 0.92669 2.02116 1.11262 0.33328 0.0817 1.01091 0.12367 1.35402 0.0856 0.93068-0.10348 1.83861-0.56145 2.33278-1.17626 0.38119-0.47427 0.61687-1.07594 0.64957-1.66564 0.0536-0.96418-0.40174-1.99769-1.29916-2.95164-0.38132-0.40535-1.27958-1.04351-1.35621-0.96339-0.0136 0.0142-0.0306 0.24709-0.0373 0.51791-0.0143 0.56193-0.0601 0.75618-0.25018 1.04897-0.29968 0.46173-0.7544 0.72728-1.29477 0.75492-0.30062 0.0154-0.48782-0.0255-0.79441-0.17556-0.35835-0.17544-0.83158-0.74426-0.8054-0.96778 0.008-0.0644 0.0337-0.0882 0.14923-0.12949 0.21733-0.0775 0.44205-0.22435 0.63202-0.41476 0.68833-0.68998 0.49362-1.86102-0.39282-2.3613-0.22896-0.12924-0.22883-0.13367-0.18872-0.39721 0.0794-0.52223 0.32732-1.32867 0.5618-1.82365 0.48279-1.01918 1.34939-1.83625 2.23402-2.10455 0.40148-0.12167 0.45756-0.13279 0.77247-0.1602 0.63526-0.0552 1.25982 0.10876 1.72709 0.45646 0.58668 0.43653 0.95658 1.09235 1.08849 1.92899 0.11722 0.74341 0.0815 1.49526-0.11413 2.41398-0.0345 0.16372-0.0328 0.18374 0.009 0.19969 0.11296 0.0434 1.32394-0.69392 2.14185-1.30354 0.55659-0.41485 1.14385-0.98914 1.51642-1.4835 0.37233-0.49401 0.42409-0.57773 0.80978-1.30354 0.34922-0.65717 0.58983-1.47524 0.66713-2.26695 0.0321-0.32828 0.0203-1.37721-0.0175-1.5998-0.009-0.0557-0.0357-0.2274-0.0592-0.38185-0.15996-1.04994-0.59452-2.09599-1.20699-2.90336-0.69785-0.9199-1.3346-1.43899-2.2823-1.86533-0.35508-0.15976-0.839-0.31723-1.23552-0.40161-0.35072-0.0747-0.41549-0.0802-1.13895-0.0812-0.7886-0.001-0.93618 0.0135-1.46375 0.14704-0.57983 0.14678-1.35132 0.47276-1.82584 0.77028-0.26248 0.16463-0.27883 0.156-0.3204-0.19313-0.0717-0.60119-0.10596-0.79588-0.21726-1.24648-0.12895-0.52195-0.19334-0.7165-0.43233-1.31672-0.34932-0.87738-0.73158-1.63668-1.26404-2.50395-0.0871-0.14178-0.18749-0.30563-0.22164-0.36428-0.19569-0.33459-0.50099-0.8179-0.89317-1.41328-0.37913-0.57558-0.85627-1.31167-0.92828-1.43303-0.0117-0.0197-0.10158-0.16547-0.19971-0.32478-0.18083-0.29382-0.20733-0.33943-0.36648-0.62325-0.23394-0.41712-0.3113-0.56293-0.48718-0.92609-0.10416-0.21507-0.20035-0.41797-0.21507-0.44988-0.0927-0.19999-0.34279-0.95258-0.40818-1.23112-0.0207-0.0876-0.0529-0.1832-0.0725-0.21287-0.0161-0.0244-0.0261-0.0364-0.0351-0.0285zm-380.598 45.273-32.3692 6.24561 2.31742 12.015c1.35074 7.00008 5.35284 11.9943 11.9558 10.7202 4.3192-0.83343 6.26212-3.83534 6.47384-7.27484l0.199702-0.0373c1.50065 2.43964 4.93523 3.42387 7.8147 2.86824 6.20575-1.19747 7.03633-6.76339 5.74306-13.4656zm396.254 2.36569-34.3158 3.95014-1.6788 8.78906 30.4468 16.3163 1.42205-7.45041-7.31873-3.45637 1.88729-9.88413 8.07803-0.51571zm-400.507 6.02396 0.671523 3.47393c0.661004 3.42558 0.03239 5.24793-2.49956 5.73649-2.33336 0.45024-4.11846-0.80136-4.8082-4.37588l-0.660551-3.42565zm185.809 2.049 24.93 49.809h-49.8596zm-198.519 0.40159 0.794418 4.12132c0.77596 4.02132 0.01864 6.22845-2.81118 6.77449-2.97876 0.57479-4.76162-1.19423-5.528-5.16591l-0.796613-4.11911zm397.663 0.18873-1.31891 6.90397-2.82873-1.3628c-3.05751-1.51036-6.67046-3.07613-9.94558-4.5251l0.0396-0.19751c3.53839-0.19943 7.53202-0.36324 10.9309-0.64079zm-19.1757 15.9476c-2.89358 1.32422-5.95928 3.87477-7.39555 7.87175-2.82125 7.85118 0.72981 16.8102 11.0077 20.5034 10.4207 3.74456 18.2506-0.85449 21.0718-8.70568 1.45337-4.04455 1.1154-8.03475-0.959-11.6814l-5.71235 2.13746c1.07068 2.104 1.637 4.56421 0.73079 7.08611-1.64146 4.56796-6.41137 6.18427-12.7875 3.89308-6.23337-2.2399-8.77904-6.96815-7.25729-11.203 0.80363-2.2364 2.44779-3.52708 4.43952-4.58436zm-364.266 4.583c-2.20802 0.0738-4.59222 0.56464-7.11245 1.51202-10.0809 3.78955-14.0051 11.7457-10.8739 20.0755 3.13127 8.32978 11.3245 11.7315 21.4054 7.94198 10.0336-3.77176 13.7198-11.6382 10.5886-19.968-2.34845-6.24734-7.38356-9.78294-14.0076-9.56154zm0.862448 7.51844c3.49048-0.0957 6.04579 1.40756 7.13439 4.30345 1.58343 4.21222-1.1112 8.24937-7.26387 10.5622-6.2 2.33066-11.1251 1.15745-12.7085-3.05477-1.58343-4.21222 1.34915-8.33911 7.54916-10.6698 1.92271-0.72277 3.70221-1.09762 5.2888-1.14114zm17.9753 16.2109-13.4744 19.1977-10.1804 5.83085 3.69558 6.4497 10.1782-5.83085 23.3782-1.91143-3.87114-6.75693-8.06268 1.18065c-2.60218 0.44169-5.02939 0.78406-7.70058 1.20699l-0.100944-0.17556c1.74134-2.04628 3.28848-3.92382 4.98596-5.94497l5.12421-6.31364zm330.282 0.15143-3.35763 6.63184 29.4132 14.8898 3.35762-6.63184zm-3.41249 16.3667c-3.91137-0.0448-7.21605 2.78729-9.90607 6.75913l-6.66477 9.83805 27.2955 18.4866 4.1674-6.15344-9.83805-6.66257 2.29768-3.39054 13.3822 1.42864 4.67872-6.90617-15.1224-1.20479c0.68696-3.80942-0.56324-7.46505-4.58216-10.187-2.02779-1.37338-3.93007-1.98763-5.70796-2.00799zm-0.73956 7.17169c0.74595 0.0173 1.52843 0.29758 2.3657 0.86466 2.67929 1.81461 2.86791 4.50778 0.6847 7.73129l-2.15284 3.18206-7.66107-5.18785 2.15283-3.18206c1.50095-2.21616 2.96961-3.44619 4.61068-3.4081zm-19.856 14.3566-14.0713 15.083 24.1068 22.4873 14.4158-15.4538-4.58436-4.27712-9.34647 10.0202-5.54556-5.17469 7.65669-8.20752-4.54705-4.24201-7.65669 8.20752-4.84331-4.51633 8.99974-9.6515zm-284.445 1.07092c-2.34234-0.0697-4.57957 0.69924-6.35314 2.29986-3.56591 3.21818-3.49899 7.51674-2.2428 10.9463l1.52739 4.41099c1.03004 2.95256 1.79572 4.78209 0.256759 6.17099-1.4639 1.32115-3.38258 1.00809-5.449-1.28159-1.82928-2.02694-2.81044-5.22877-2.90116-8.34797l-6.63624 0.26773c-0.09146 4.57765 1.7576 9.04172 4.63703 12.2323 5.28458 5.85559 11.8608 6.04839 15.9147 2.38984 3.4533-3.11656 3.74854-6.7894 2.27352-10.8388l-1.56908-4.30346c-1.03371-2.88115-1.96447-4.96959-0.46305-6.32461 1.38883-1.25339 3.29781-0.79731 5.02546 1.11701 1.76153 1.95187 2.40449 4.09522 2.62246 6.82716l6.03055-0.33357c0.20497-3.99904-1.34585-7.98187-3.88651-10.797-2.59148-2.8715-5.77528-4.34558-8.78687-4.43513zm265.904 18.6754-6.4541 4.87623 4.68092 14.8394c0.63347 1.92933 1.46938 3.95906 2.1638 5.9691l-0.1602 0.1229c-1.74344-1.21774-3.50755-2.54757-5.19005-3.68461l-13.075-8.50159-6.49579 4.90696 19.8692 26.3057 5.3261-4.02256-7.28361-9.64273c-1.95028-2.58221-5.32936-6.05014-7.5316-8.37869l0.16239-0.12069 6.82058 4.66994 11.3391 7.2112 3.26983-2.46884-3.83602-12.8796-2.58515-7.86956 0.1602-0.1207c1.63739 2.75517 4.04954 6.953 5.99982 9.5352l7.28362 9.64273 5.40511-4.084zm-244.577 3.07233c-4.56012 0.0563-9.31379 2.23558-13.2154 6.98077-7.03258 8.55307-5.33586 17.4762 1.10824 22.7748 3.31968 2.72954 7.19168 3.75266 11.3237 3.02625l-0.0921-6.09638c-2.34157 0.30028-4.8494 0.006-6.91932-1.69636-3.7493-3.08277-3.66664-8.12028 0.6364-13.3537 4.2067-5.11622 9.51787-5.92154 12.9938-3.06355 1.83558 1.50927 2.4945 3.49195 2.81995 5.72331l6.06566-1.16529c-0.27338-3.17042-1.64387-6.91678-4.9245-9.6142-2.81929-2.31811-6.2496-3.55942-9.79635-3.51563zm23.8654 15.7391c-5.32899-0.14508-10.4328 2.94161-14.1437 9.34867-5.39769 9.31937-3.39046 17.9614 4.31004 22.4214 7.70052 4.46002 16.1942 1.89969 21.5919-7.41968 5.37235-9.27562 3.23905-17.698-4.46147-22.1581-2.40641-1.39378-4.87452-2.12639-7.29679-2.19234zm185.167 5.46875-7.97928 4.0489 5.72331 34.0656 6.76352-3.43223-1.74465-7.90468 8.9734-4.55363 5.35025 6.07225 7.03345-3.5683zm-184.083 1.37816c1.01408 0.0414 2.02201 0.33811 2.99552 0.90195 3.89401 2.25537 4.36748 7.08863 1.07312 12.7765-3.3197 5.73163-7.87303 7.94357-11.767 5.6882-3.89401-2.25537-4.24139-7.30602-0.9217-13.0376 2.47078-4.26591 5.57785-6.45317 8.62009-6.32901zm23.0293 5.13738-6.01957 16.6411c-3.76589 10.413-1.02409 16.5111 7.01149 19.4171 7.98804 2.88888 13.8518-0.0965 17.6176-10.5096l6.01957-16.6411-6.75254-2.44249-6.27633 17.3543c-2.20107 6.08618-4.95378 7.45711-8.42478 6.20172-3.47099-1.25528-4.61724-4.035-2.41617-10.1211l6.27634-17.3565zm159.559 0.59252c2.32264 2.67683 4.89677 5.73711 7.19585 8.2558l2.04968 2.3613-6.26756 3.18206-0.65177-3.07233c-0.67597-3.34254-1.64847-7.15753-2.50614-10.6346zm-131.031 9.30477-1.1587 6.16004 8.8944 1.67441-4.93328 26.2355 7.35384 1.38474 4.93328-26.2377 8.89441 1.67223 1.15871-6.16223zm104.44 2.31083-12.8884 3.63853 5.76941 20.4464 4.61068-1.30135-2.2384-7.9332 7.08611-2.0014-1.09726-3.8887-7.08612 2.00141-1.33646-4.73578 8.27774-2.33717zm-64.9754 2.35473c-6.87159-0.25758-11.8851 3.90503-12.0896 9.36184-0.17993 4.8 2.94878 7.7522 6.28291 9.24332l4.22665 1.97946c2.83454 1.32056 4.67956 2.04744 4.60191 4.11913-0.0738 1.97045-1.6361 3.12638-4.71821 3.01087-2.72842-0.10224-5.70664-1.63154-8.00562-3.74165l-4.43514 4.94426c3.21732 3.25764 7.70491 5.04439 11.9996 5.2054 7.88211 0.29551 12.6071-4.28243 12.8116-9.73929 0.17425-4.64843-2.25318-7.42194-6.18415-9.18846l-4.17839-1.87632c-2.7859-1.26821-4.93222-2.0563-4.85647-4.07742 0.0701-1.86943 1.72881-2.92096 4.30565-2.82435 2.62736 0.0984 4.61169 1.13483 6.72182 2.8836l3.96551-4.55803c-2.72342-2.93553-6.65865-4.60031-10.4481-4.74236zm39.3829 3.68241c-0.66705-0.0142-1.35565 0.0363-2.06285 0.15362-5.65754 0.93839-8.86476 5.49941-7.7291 12.3464 1.13566 6.84685 5.67499 10.3221 11.3325 9.38377 5.65754-0.93842 8.83185-5.69264 7.69619-12.5395-0.98905-5.96295-4.56734-9.24543-9.23676-9.34428zm-0.85805 4.17837c2.60331-0.13303 4.59071 2.0536 5.24051 5.97129 0.69847 4.21101-0.6591 7.17781-3.52001 7.65231-2.86091 0.47449-5.10166-1.89635-5.80012-6.10736-0.69313-4.17888 0.68982-6.98466 3.55074-7.45918 0.17881-0.0297 0.35533-0.0482 0.52888-0.0571z"/>
</svg>
