<?xml version="1.0" encoding="UTF-8" standalone="no"?>
<svg
   xmlns:dc="http://purl.org/dc/elements/1.1/"
   xmlns:cc="http://creativecommons.org/ns#"
   xmlns:rdf="http://www.w3.org/1999/02/22-rdf-syntax-ns#"
   xmlns:svg="http://www.w3.org/2000/svg"
   xmlns="http://www.w3.org/2000/svg"
   version="1.1"
   id="svg2"
   viewBox="0 0 1100 1100"
   height="1100"
   width="1100">
  <defs
     id="defs4" />
  <metadata
     id="metadata7">
    <rdf:RDF>
      <cc:Work
         rdf:about="">
        <dc:format>image/svg+xml</dc:format>
        <dc:type
           rdf:resource="http://purl.org/dc/dcmitype/StillImage" />
        <dc:title></dc:title>
      </cc:Work>
    </rdf:RDF>
  </metadata>
  <g
     transform="translate(0,47.63784)"
     id="layer1">
    <path
       id="path843"
       d="M 1050,502.36215 A 500,500 0 0 1 550,1002.3622 500,500 0 0 1 50,502.36215 500,500 0 0 1 550,2.3621521 500,500 0 0 1 1050,502.36215 Z"
       style="color:#000000;clip-rule:nonzero;display:inline;overflow:visible;visibility:visible;opacity:1;isolation:auto;mix-blend-mode:normal;color-interpolation:sRGB;color-interpolation-filters:linearRGB;solid-color:#000000;solid-opacity:1;fill:#000067;fill-opacity:1;fill-rule:nonzero;stroke:none;stroke-width:1.49103463;stroke-linecap:round;stroke-linejoin:round;stroke-miterlimit:4;stroke-dasharray:none;stroke-dashoffset:0;stroke-opacity:1;paint-order:normal;color-rendering:auto;image-rendering:auto;shape-rendering:auto;text-rendering:auto;enable-background:accumulate" />
    <path
       id="path894"
       d="m -264.55353,-299.45065 a 417.5,417.5 0 0 1 -417.5,417.5 417.5,417.5 0 0 1 -417.49997,-417.5 417.5,417.5 0 0 1 417.49997,-417.5 417.5,417.5 0 0 1 417.5,417.5 z"
       style="color:#000000;clip-rule:nonzero;display:inline;overflow:visible;visibility:visible;opacity:1;isolation:auto;mix-blend-mode:normal;color-interpolation:sRGB;color-interpolation-filters:linearRGB;solid-color:#000000;solid-opacity:1;fill:none;fill-opacity:1;fill-rule:nonzero;stroke:#ffffff;stroke-width:110;stroke-linecap:round;stroke-linejoin:round;stroke-miterlimit:4;stroke-dasharray:none;stroke-dashoffset:0;stroke-opacity:1;paint-order:normal;color-rendering:auto;image-rendering:auto;shape-rendering:auto;text-rendering:auto;enable-background:accumulate"
       transform="rotate(-161.2954)" />
    <path
       d="m 155.45337,364.09038 q -7.18216,-2.98037 -11.84843,-7.51516 -4.75493,-4.57158 -7.11097,-9.91464 -2.31925,-5.43172 -2.29813,-11.24345 0.0579,-5.9004 2.37599,-11.48653 2.24448,-5.40879 6.35281,-8.7969 4.05646,-3.51357 8.28543,-5.18861 l 5.08848,10.53049 q -2.95925,1.37044 -5.06861,3.19749 -2.07256,1.73839 -3.32359,4.75313 -1.25102,3.01473 -1.02483,6.22672 0.17431,3.08652 1.75889,6.03069 1.58457,2.94417 4.56432,5.53186 3.01654,2.49902 7.36131,4.30196 8.95554,3.71627 15.50317,1.96402 6.45895,-1.78904 9.10817,-8.17319 1.47179,-3.54675 1.15694,-6.79553 -0.31486,-3.24878 -1.73717,-6.33349 l 10.87189,-3.90744 q 2.74751,5.40157 2.92544,10.98409 0.21472,5.49385 -2.02976,10.90264 -2.31807,5.58613 -6.24062,9.77889 -4.01121,4.15597 -9.28068,6.33467 -5.26947,2.17871 -11.65001,2.02549 -6.4692,-0.19002 -13.74004,-3.2072 z"
       style="font-style:normal;font-variant:normal;font-weight:bold;font-stretch:normal;font-size:96px;line-height:1;font-family:'Source Sans Pro';-inkscape-font-specification:'Source Sans Pro Bold';letter-spacing:10px;word-spacing:10px;fill:#800000;fill-opacity:1;stroke:none;stroke-width:1px;stroke-linecap:butt;stroke-linejoin:miter;stroke-opacity:1"
       id="path1092" />
    <path
       d="m 201.76355,281.3102 -5.66311,-1.78334 q -4.7127,-1.31318 -9.86625,-3.0093 -5.15356,-1.69611 -9.97975,-3.1915 l -0.20073,0.32736 q 3.65348,3.59156 7.50229,7.41551 3.81715,3.69192 7.12474,7.29661 l 4.10746,4.32038 z m 10.91703,3.31578 -9.98629,16.2861 10.67786,11.05185 -7.52735,12.27595 -43.12227,-49.41419 8.88228,-14.48562 63.59666,16.0236 -7.82844,12.76699 z"
       style="font-style:normal;font-variant:normal;font-weight:bold;font-stretch:normal;font-size:96px;line-height:1;font-family:'Source Sans Pro';-inkscape-font-specification:'Source Sans Pro Bold';letter-spacing:10px;word-spacing:10px;fill:#800000;fill-opacity:1;stroke:none;stroke-width:1px;stroke-linecap:butt;stroke-linejoin:miter;stroke-opacity:1"
       id="path1094" />
    <path
       d="m 195.16176,225.55115 9.95746,-11.18614 27.96731,10.8862 10.66385,4.48007 0.25532,-0.28683 -5.68512,-10.07313 -14.24389,-26.30299 9.89362,-11.11443 46.75231,41.61707 -8.74469,9.82372 -17.13773,-15.25534 q -1.72094,-1.53191 -3.67276,-3.52639 -1.95181,-1.99448 -3.8398,-4.06066 -1.95969,-2.13001 -3.77596,-4.13237 -1.88799,-2.06618 -3.41744,-3.81322 l -0.25532,0.28683 7.38079,13.51043 11.75863,23.31955 -3.76596,4.23065 -24.5246,-8.97835 -14.14676,-5.90959 -0.25532,0.28682 q 1.91244,1.3168 4.1834,2.95275 2.19926,1.57211 4.4781,3.3436 2.27096,1.63595 4.47809,3.3436 2.20714,1.70765 3.92808,3.23957 l 17.13773,15.25533 -8.61703,9.68031 z"
       style="font-style:normal;font-variant:normal;font-weight:bold;font-stretch:normal;font-size:96px;line-height:1;font-family:'Source Sans Pro';-inkscape-font-specification:'Source Sans Pro Bold';letter-spacing:10px;word-spacing:10px;fill:#800000;fill-opacity:1;stroke:none;stroke-width:1px;stroke-linecap:butt;stroke-linejoin:miter;stroke-opacity:1"
       id="path1096" />
    <path
       d="m 256.74751,161.54334 18.01724,-14.05027 q 4.01224,-3.12884 8.14395,-5.01171 4.14837,-2.01761 8.19813,-2.13222 4.06643,-0.24935 8.00091,1.67376 3.87544,1.84742 7.35849,6.31387 3.36499,4.31506 4.25469,8.7343 0.9654,4.36021 -0.0902,8.4704 -1.05566,4.11019 -3.77053,7.80992 -2.71487,3.69973 -6.65141,6.76954 l -6.88895,5.37216 13.04668,16.7303 -11.12829,8.67811 z m 35.87283,10.25169 q 9.08432,-7.08417 2.94471,-14.95725 -3.01078,-3.86084 -6.59729,-3.62052 -3.51081,0.18129 -7.97727,3.66434 l -6.20762,4.84085 11.62985,14.91343 z"
       style="font-style:normal;font-variant:normal;font-weight:bold;font-stretch:normal;font-size:96px;line-height:1;font-family:'Source Sans Pro';-inkscape-font-specification:'Source Sans Pro Bold';letter-spacing:10px;word-spacing:10px;fill:#800000;fill-opacity:1;stroke:none;stroke-width:1px;stroke-linecap:butt;stroke-linejoin:miter;stroke-opacity:1"
       id="path1098" />
    <path
       d="m 348.70622,99.146791 13.46518,-5.368679 14.85683,25.597958 q 2.3483,4.33452 4.82133,8.72266 2.43748,4.29897 4.82133,8.72266 l 0.3567,-0.14221 q -0.95708,-4.99256 -1.96779,-9.8604 -0.95708,-4.99256 -1.87861,-9.89594 l -4.60187,-29.686693 11.14668,-4.44427 17.08616,24.709103 q 2.66944,4.10313 5.32081,8.42017 2.705,4.1923 5.48111,8.56295 l 0.35669,-0.14222 q -1.26016,-4.97507 -2.53838,-9.73624 -1.18905,-4.79672 -2.37809,-9.59345 l -6.83122,-28.797832 12.57346,-5.013137 12.83719,62.265359 -16.49709,6.57752 -16.23113,-24.11987 q -2.06444,-3.10415 -4.03971,-6.24387 -1.92166,-3.26444 -3.64747,-6.29691 l -0.3567,0.14222 q 0.74491,3.42357 1.50731,7.15021 0.81602,3.60192 1.45369,7.27494 l 5.08445,28.56414 -16.22957,6.47086 z"
       style="font-style:normal;font-variant:normal;font-weight:bold;font-stretch:normal;font-size:96px;line-height:1;font-family:'Source Sans Pro';-inkscape-font-specification:'Source Sans Pro Bold';letter-spacing:10px;word-spacing:10px;fill:#800000;fill-opacity:1;stroke:none;stroke-width:1px;stroke-linecap:butt;stroke-linejoin:miter;stroke-opacity:1"
       id="path1100" />
    <path
       d="m 479.73641,123.47323 q -6.22975,1.15544 -11.82387,-0.0527 -5.51724,-1.32 -9.96875,-4.79041 -4.45152,-3.47041 -7.63103,-9.03184 -3.08512,-5.57895 -4.48566,-13.130163 -1.40054,-7.551217 -0.50376,-13.771053 0.97366,-6.331732 3.9196,-10.978885 2.92842,-4.741542 7.64035,-7.763491 4.7888,-3.133846 11.01856,-4.289292 6.22975,-1.155445 11.72948,0.07017 5.57661,1.113714 10.01062,4.48973 4.43401,3.376016 7.51913,8.954959 3.162,5.467045 4.54503,12.923872 1.40054,7.551218 0.42688,13.88295 -0.87927,6.314223 -3.79019,11.150153 -2.91092,4.83593 -7.68222,8.06417 -4.69442,3.11634 -10.92417,4.27179 z m -2.22336,-11.98756 q 6.32415,-1.17295 9.00748,-7.23596 2.66583,-6.157396 0.93266,-15.502028 -1.71566,-9.250242 -6.35975,-13.758941 -4.64409,-4.508699 -10.96823,-3.335747 -6.32415,1.172952 -9.0425,7.047178 -2.71834,5.874225 -1.00268,15.124467 1.73316,9.344631 6.42977,14.136501 4.67911,4.69748 11.00325,3.52453 z"
       style="font-style:normal;font-variant:normal;font-weight:bold;font-stretch:normal;font-size:96px;line-height:1;font-family:'Source Sans Pro';-inkscape-font-specification:'Source Sans Pro Bold';letter-spacing:10px;word-spacing:10px;fill:#800000;fill-opacity:1;stroke:none;stroke-width:1px;stroke-linecap:butt;stroke-linejoin:miter;stroke-opacity:1"
       id="path1102" />
    <path
       d="m 537.71416,82.172935 7.29562,-0.07406 q 5.56771,-0.05652 8.42418,-2.38963 2.95148,-2.430084 2.90471,-7.037846 -0.0468,-4.607763 -3.04113,-6.401462 -2.89837,-1.794673 -8.46608,-1.738157 l -7.29562,0.07406 z m 20.11797,33.589525 -12.22837,-22.437031 -7.7756,0.07893 0.22899,22.558831 -14.11127,0.14324 -0.63532,-62.588769 22.55883,-0.228989 q 4.99175,-0.05067 9.32127,0.865431 4.42552,0.915128 7.71273,3.185879 3.28625,2.174755 5.24415,5.899074 1.9579,3.724319 2.01442,9.292032 0.0702,6.911644 -2.95589,11.454593 -2.93102,4.44598 -7.99634,6.70551 l 14.46159,24.910489 z"
       style="font-style:normal;font-variant:normal;font-weight:bold;font-stretch:normal;font-size:96px;line-height:1;font-family:'Source Sans Pro';-inkscape-font-specification:'Source Sans Pro Bold';letter-spacing:10px;word-spacing:10px;fill:#800000;fill-opacity:1;stroke:none;stroke-width:1px;stroke-linecap:butt;stroke-linejoin:miter;stroke-opacity:1"
       id="path1104" />
    <path
       d="m 597.46858,55.30309 13.94948,2.13559 -3.87893,25.336798 0.37957,0.05811 22.28844,-22.5184 15.37289,2.353507 -22.47143,21.810557 16.41549,40.583578 -15.278,-2.33898 -11.09305,-28.405877 -8.66476,8.385327 -2.54236,16.60651 -13.94948,-2.13559 z"
       style="font-style:normal;font-variant:normal;font-weight:bold;font-stretch:normal;font-size:96px;line-height:1;font-family:'Source Sans Pro';-inkscape-font-specification:'Source Sans Pro Bold';letter-spacing:10px;word-spacing:10px;fill:#800000;fill-opacity:1;stroke:none;stroke-width:1px;stroke-linecap:butt;stroke-linejoin:miter;stroke-opacity:1"
       id="path1106" />
    <path
       d="m 654.96682,97.778727 q 2.34173,-7.415017 6.45166,-12.459495 4.13884,-5.136023 9.25572,-7.949702 5.20841,-2.784769 10.99978,-3.271293 5.88291,-0.457614 11.65015,1.363733 5.58415,1.763525 9.31811,5.560257 3.85441,3.734098 5.8924,7.800613 l -10.04586,5.98872 q -1.62364,-2.828255 -3.62794,-4.769986 -1.91275,-1.912821 -5.02523,-2.89577 -3.11247,-0.982949 -6.29243,-0.477106 -3.0595,0.443211 -5.85404,2.278857 -2.79453,1.835647 -5.11209,5.030007 -2.22602,3.22327 -3.64263,7.708898 -2.91993,9.24588 -0.60254,15.61546 2.3463,6.27803 8.93743,8.35956 3.66174,1.15641 6.8706,0.55903 3.20887,-0.59739 6.15758,-2.28367 l 4.842,10.48909 q -5.14097,3.20877 -10.68662,3.87356 -5.4541,0.69371 -11.03825,-1.06981 -5.76724,-1.82135 -10.28655,-5.36274 -4.49041,-3.63292 -7.121,-8.69198 -2.63059,-5.05905 -3.0352,-11.42859 -0.37569,-6.46108 1.99495,-13.967643 z"
       style="font-style:normal;font-variant:normal;font-weight:bold;font-stretch:normal;font-size:96px;line-height:1;font-family:'Source Sans Pro';-inkscape-font-specification:'Source Sans Pro Bold';letter-spacing:10px;word-spacing:10px;fill:#800000;fill-opacity:1;stroke:none;stroke-width:1px;stroke-linecap:butt;stroke-linejoin:miter;stroke-opacity:1"
       id="path1108" />
    <path
       d="m 724.90787,158.99403 q -5.64591,-2.87552 -9.34876,-7.2393 -3.57373,-4.40576 -4.99294,-9.86887 -1.4192,-5.46311 -0.55636,-11.81089 0.94839,-6.30422 4.43387,-13.14774 3.48548,-6.84353 7.98315,-11.23232 4.62678,-4.43077 9.79287,-6.324451 5.20967,-1.979225 10.78755,-1.508497 5.707,0.428753 11.35291,3.304268 5.64591,2.87552 9.26322,7.19574 3.74641,4.27823 5.20919,9.6558 1.46277,5.37756 0.51438,11.68178 -0.81927,6.26224 -4.26118,13.02022 -3.48548,6.84352 -8.11226,11.27429 -4.54124,4.47434 -9.79448,6.53911 -5.25323,2.06477 -11.00379,1.72156 -5.62146,-0.38519 -11.26737,-3.2607 z m 5.5332,-10.8641 q 5.73145,2.91909 11.55107,-0.25775 5.86319,-3.26239 10.17647,-11.73125 4.26971,-8.38332 3.32976,-14.78742 -0.93995,-6.40409 -6.6714,-9.32318 -5.73146,-2.91909 -11.46394,0.0867 -5.73249,3.00575 -10.0022,11.38907 -4.31328,8.46886 -3.50403,15.12959 0.85282,6.57518 6.58427,9.49427 z"
       style="font-style:normal;font-variant:normal;font-weight:bold;font-stretch:normal;font-size:96px;line-height:1;font-family:'Source Sans Pro';-inkscape-font-specification:'Source Sans Pro Bold';letter-spacing:10px;word-spacing:10px;fill:#800000;fill-opacity:1;stroke:none;stroke-width:1px;stroke-linecap:butt;stroke-linejoin:miter;stroke-opacity:1"
       id="path1110" />
    <path
       d="m 801.77654,130.00185 31.49245,23.28857 -7.07789,9.57124 -20.14591,-14.89783 -7.47746,10.11154 17.1356,12.67172 -7.02082,9.49405 -17.1356,-12.67172 -8.56197,11.57811 20.91778,15.46863 -7.07789,9.57124 -32.26433,-23.85936 z"
       style="font-style:normal;font-variant:normal;font-weight:bold;font-stretch:normal;font-size:96px;line-height:1;font-family:'Source Sans Pro';-inkscape-font-specification:'Source Sans Pro Bold';letter-spacing:10px;word-spacing:10px;fill:#800000;fill-opacity:1;stroke:none;stroke-width:1px;stroke-linecap:butt;stroke-linejoin:miter;stroke-opacity:1"
       id="path1112" />
    <path
       d="m 855.60371,171.99724 10.31153,10.86062 -13.19361,26.95567 -5.35871,10.25051 0.2644,0.27847 10.51448,-4.82019 27.40501,-11.98753 10.24543,10.79099 -45.39178,43.09692 -9.05564,-9.53785 16.63901,-15.79779 q 1.67086,-1.58639 3.82202,-3.36404 2.15116,-1.77765 4.36842,-3.48568 2.28688,-1.77413 4.43452,-3.41606 2.21725,-1.70803 4.08642,-3.08556 l -0.2644,-0.27848 -14.08189,6.22159 -24.22364,9.76126 -3.89988,-4.10753 11.00373,-23.68512 7.07534,-13.60124 -0.2644,-0.27848 q -1.47257,1.79525 -3.29323,3.92099 -1.75104,2.05965 -3.70742,4.18187 -1.82066,2.12575 -3.70742,4.18188 -1.88676,2.05612 -3.55763,3.64251 l -16.63901,15.7978 -8.92344,-9.39861 z"
       style="font-style:normal;font-variant:normal;font-weight:bold;font-stretch:normal;font-size:96px;line-height:1;font-family:'Source Sans Pro';-inkscape-font-specification:'Source Sans Pro Bold';letter-spacing:10px;word-spacing:10px;fill:#800000;fill-opacity:1;stroke:none;stroke-width:1px;stroke-linecap:butt;stroke-linejoin:miter;stroke-opacity:1"
       id="path1114" />
    <path
       d="m 898.02257,280.97347 4.01967,-4.36961 q 3.19036,-3.70884 6.91464,-7.65418 3.72428,-3.94533 7.1278,-7.67954 l -0.21112,-0.32076 q -4.8032,1.78226 -9.89974,3.64267 -4.96358,1.88782 -9.63177,3.35137 l -5.65583,1.88374 z m -7.63838,8.47532 -10.50312,-15.95767 -14.54053,4.97325 -7.91692,-12.02839 63.05044,-18.05362 9.34197,14.19351 -41.5164,50.77085 -8.23361,-12.50953 z"
       style="font-style:normal;font-variant:normal;font-weight:bold;font-stretch:normal;font-size:96px;line-height:1;font-family:'Source Sans Pro';-inkscape-font-specification:'Source Sans Pro Bold';letter-spacing:10px;word-spacing:10px;fill:#800000;fill-opacity:1;stroke:none;stroke-width:1px;stroke-linecap:butt;stroke-linejoin:miter;stroke-opacity:1"
       id="path1116" />
    <path
       d="m 950.88892,298.47227 5.85864,13.25935 -21.85471,27.4986 -10.16155,11.2069 0.1552,0.35124 q 4.37214,-2.45659 9.7204,-5.5544 5.38707,-3.00999 10.48006,-5.26033 l 20.19636,-8.92375 5.43185,12.29344 -57.25229,25.2969 -5.85864,-13.25935 21.94252,-27.5374 9.98593,-11.1293 -0.1552,-0.35124 q -4.54776,2.53419 -9.7592,5.46658 -5.17265,3.02021 -10.26564,5.27055 l -20.28417,8.96255 -5.43185,-12.29344 z"
       style="font-style:normal;font-variant:normal;font-weight:bold;font-stretch:normal;font-size:96px;line-height:1;font-family:'Source Sans Pro';-inkscape-font-specification:'Source Sans Pro Bold';letter-spacing:10px;word-spacing:10px;fill:#800000;fill-opacity:1;stroke:none;stroke-width:1px;stroke-linecap:butt;stroke-linejoin:miter;stroke-opacity:1"
       id="path1118" />
    <path
       id="path894-1"
       d="m 67.088928,657.32782 a 417.5,417.5 0 0 1 -417.499998,417.49998 417.5,417.5 0 0 1 -417.5,-417.49998 417.5,417.5 0 0 1 417.5,-417.5 417.5,417.5 0 0 1 417.499998,417.5 z"
       style="color:#000000;clip-rule:nonzero;display:inline;overflow:visible;visibility:visible;opacity:1;isolation:auto;mix-blend-mode:normal;color-interpolation:sRGB;color-interpolation-filters:linearRGB;solid-color:#000000;solid-opacity:1;fill:none;fill-opacity:1;fill-rule:nonzero;stroke:none;stroke-width:110;stroke-linecap:round;stroke-linejoin:round;stroke-miterlimit:4;stroke-dasharray:none;stroke-dashoffset:0;stroke-opacity:1;paint-order:normal;color-rendering:auto;image-rendering:auto;shape-rendering:auto;text-rendering:auto;enable-background:accumulate"
       transform="matrix(-0.94246371,0.33430848,0.33430848,0.94246371,0,0)" />
    <path
       d="m 187.50252,636.49011 8.54232,19.62986 q 1.95363,4.48934 2.8966,8.58092 1.06929,4.14129 0.6226,7.68596 -0.40839,3.63268 -2.44769,6.40465 -2.00099,2.86 -6.13822,4.6604 -1.93658,0.84274 -4.1413,1.0693 -2.16642,0.31458 -4.3369,-0.10194 -2.17048,-0.41652 -4.29531,-1.69047 -2.12483,-1.27396 -3.81359,-3.47055 l -0.3521,0.15323 q 1.5371,6.65982 -0.37914,11.15808 -1.87795,4.58628 -7.68768,7.1145 -4.40131,1.91532 -8.33638,1.53382 -3.89677,-0.29346 -7.35012,-2.45503 -3.32702,-2.11184 -6.14543,-5.70137 -2.73039,-3.62784 -4.76063,-8.29323 l -9.27014,-21.30235 z m -14.87672,29.08826 q 2.06854,4.75341 4.83645,6.06161 2.89423,1.35791 6.15121,-0.0594 3.25697,-1.41734 3.70773,-4.2309 0.45076,-2.81356 -1.54118,-7.39092 l -2.68144,-6.16184 -13.11591,5.70766 z m -23.67093,11.76662 q 4.63507,10.65118 12.46941,7.24191 3.78513,-1.64718 4.30843,-5.01578 0.61134,-3.40692 -1.72535,-8.77652 l -3.17943,-7.30618 -15.05249,6.5504 z"
       style="font-style:normal;font-variant:normal;font-weight:bold;font-stretch:normal;font-size:96px;line-height:445.00002861%;font-family:'Source Sans Pro';-inkscape-font-specification:'Source Sans Pro Bold';letter-spacing:0.55000001px;word-spacing:0px;fill:#800000;fill-opacity:1;stroke:none;stroke-width:1px;stroke-linecap:butt;stroke-linejoin:miter;stroke-opacity:1"
       id="path1121" />
    <path
       d="m 169.00087,741.16945 q -3.35363,-5.37569 -4.27498,-11.02412 -0.78909,-5.61779 0.81301,-11.03009 1.6021,-5.4123 5.61556,-10.4054 4.06427,-4.91164 10.58026,-8.97665 6.51598,-4.06502 12.63294,-5.50496 6.24921,-1.4093 11.6518,-0.36689 5.48404,0.9916 10.01982,4.27202 4.66804,3.31104 8.02167,8.68673 3.35364,5.37569 4.22418,10.94267 1.0028,5.59762 -0.51785,10.95911 -1.52065,5.36149 -5.58492,10.27313 -3.93201,4.94228 -10.36655,8.95648 -6.51599,4.06501 -12.7652,5.47432 -6.19841,1.49075 -11.76389,0.54996 -5.56549,-0.94079 -10.31498,-4.20102 -4.61723,-3.2296 -7.97087,-8.60529 z m 10.34413,-6.45321 q 3.40445,5.45714 10.02878,5.73736 6.70579,0.22941 14.76932,-4.80104 7.98208,-4.97964 10.48013,-10.95088 2.49804,-5.97124 -0.9064,-11.42838 -3.40445,-5.45714 -9.86589,-5.83898 -6.46143,-0.38185 -14.44351,4.59779 -8.06354,5.03045 -10.80593,11.15413 -2.66095,6.07286 0.7435,11.53 z"
       style="font-style:normal;font-variant:normal;font-weight:bold;font-stretch:normal;font-size:96px;line-height:445.00002861%;font-family:'Source Sans Pro';-inkscape-font-specification:'Source Sans Pro Bold';letter-spacing:0.55000001px;word-spacing:0px;fill:#800000;fill-opacity:1;stroke:none;stroke-width:1px;stroke-linecap:butt;stroke-linejoin:miter;stroke-opacity:1"
       id="path1123" />
    <path
       d="m 218.32448,770.15296 18.82311,-40.36157 9.72314,11.64169 -7.48299,13.50435 q -1.86467,3.30848 -3.70506,6.34652 -1.70517,3.05018 -3.64353,6.4202 l 0.24616,0.29472 q 3.66144,-1.30693 6.96662,-2.44139 3.4404,-1.12232 7.02816,-2.36771 l 14.68302,-4.88361 9.47698,11.34696 -43.06941,11.33104 -17.09412,14.277 -9.04621,-10.83119 z"
       style="font-style:normal;font-variant:normal;font-weight:bold;font-stretch:normal;font-size:96px;line-height:445.00002861%;font-family:'Source Sans Pro';-inkscape-font-specification:'Source Sans Pro Bold';letter-spacing:0.55000001px;word-spacing:0px;fill:#800000;fill-opacity:1;stroke:none;stroke-width:1px;stroke-linecap:butt;stroke-linejoin:miter;stroke-opacity:1"
       id="path1125" />
    <path
       d="m 260.72542,822.13903 q 0.71494,4.36725 2.62411,8.35962 1.9826,4.05422 4.99326,6.58957 3.37781,2.84455 6.04453,2.95666 2.74015,0.17395 4.53345,-1.95554 0.92757,-1.10146 1.09377,-2.34207 0.23964,-1.17876 -0.22026,-2.5701 -0.32463,-1.40293 -1.21352,-3.03003 -0.75361,-1.63869 -1.73912,-3.59816 l -4.01545,-7.89973 q -1.21739,-2.28026 -1.99032,-4.93926 -0.6995,-2.59716 -0.79608,-5.31413 0.0387,-2.72856 0.9624,-5.46484 0.98556,-2.8097 3.21173,-5.45321 2.47351,-2.93723 5.88616,-4.45606 3.47449,-1.59226 7.35863,-1.58449 3.94598,-0.0657 7.95764,1.43008 4.08509,1.55757 7.83005,4.7113 4.18555,3.52477 6.86381,8.54133 2.75169,5.0784 3.23858,10.75968 l -11.25823,2.19121 q -0.80383,-3.81458 -2.34972,-6.74799 -1.48405,-3.00684 -4.34785,-5.41852 -2.79037,-2.34984 -5.46868,-2.59722 -2.54305,-0.25898 -4.27451,1.79708 -0.92757,1.10146 -1.09377,2.34207 -0.0309,1.22901 0.36712,2.69378 0.53333,1.45317 1.36038,3.1537 0.88889,1.6271 1.87439,3.58657 l 4.06569,7.69103 q 2.92174,5.47262 2.82119,10.6592 -0.0271,5.24841 -4.29393,10.31513 -2.53536,3.01066 -6.07168,4.67636 -3.40106,1.6541 -7.4823,1.73134 -3.94598,0.0657 -8.37504,-1.53057 -4.36722,-1.66965 -8.6262,-5.25625 -4.69957,-3.95762 -7.97686,-9.60416 -3.14203,-5.65812 -3.90718,-12.20126 z"
       style="font-style:normal;font-variant:normal;font-weight:bold;font-stretch:normal;font-size:96px;line-height:445.00002861%;font-family:'Source Sans Pro';-inkscape-font-specification:'Source Sans Pro Bold';letter-spacing:0.55000001px;word-spacing:0px;fill:#800000;fill-opacity:1;stroke:none;stroke-width:1px;stroke-linecap:butt;stroke-linejoin:miter;stroke-opacity:1"
       id="path1127" />
    <path
       d="m 305.70098,841.73232 q 4.2086,-6.53864 9.50005,-10.3253 5.34342,-3.86739 11.01998,-5.23701 5.75728,-1.31767 11.47286,-0.26467 5.7963,1.10495 10.88192,4.37831 4.92416,3.16944 7.52873,7.8142 2.73725,4.616 3.63457,9.07523 l -11.26682,3.13729 q -0.82307,-3.1556 -2.24644,-5.55592 -1.34265,-2.34836 -4.08726,-4.11494 -2.74462,-1.76657 -5.94571,-2.11445 -3.06841,-0.37664 -6.2472,0.65983 -3.1788,1.03647 -6.25457,3.50925 -2.99505,2.52474 -5.54099,6.48022 -5.24776,8.15313 -4.68627,14.90787 0.61344,6.67401 6.42557,10.41499 3.22896,2.07832 6.48201,2.34547 3.25304,0.26716 6.54133,-0.58468 l 1.91438,11.39304 q -5.80367,1.74447 -11.32903,0.92808 -5.44464,-0.76444 -10.36881,-3.93388 -5.08561,-3.27335 -8.51504,-7.87821 -3.37747,-4.68557 -4.58564,-10.25822 -1.20817,-5.57264 0.0759,-11.82452 1.33598,-6.33261 5.59653,-12.95198 z"
       style="font-style:normal;font-variant:normal;font-weight:bold;font-stretch:normal;font-size:96px;line-height:445.00002861%;font-family:'Source Sans Pro';-inkscape-font-specification:'Source Sans Pro Bold';letter-spacing:0.55000001px;word-spacing:0px;fill:#800000;fill-opacity:1;stroke:none;stroke-width:1px;stroke-linecap:butt;stroke-linejoin:miter;stroke-opacity:1"
       id="path1129" />
    <path
       d="m 362.83387,911.20917 q -5.76088,-2.63763 -9.64245,-6.84324 -3.75431,-4.25292 -5.40005,-9.65211 -1.64574,-5.39919 -1.0483,-11.77743 0.68473,-6.33827 3.88186,-13.32117 3.19712,-6.98289 7.50791,-11.55538 4.43803,-4.61982 9.52068,-6.72724 5.12262,-2.1947 10.71528,-1.95694 5.71991,0.19045 11.4808,2.82808 5.76088,2.63763 9.55516,6.80327 3.92153,4.11832 5.60723,9.43022 1.68571,5.31191 1.00098,11.65018 -0.55748,6.29095 -3.71464,13.18656 -3.19713,6.98289 -7.63516,11.60271 -4.35075,4.65978 -9.51333,6.94177 -5.16258,2.28199 -10.92246,2.17883 -5.63262,-0.15048 -11.39351,-2.78811 z m 5.07544,-11.08534 q 5.84817,2.67759 11.53029,-0.73912 5.72207,-3.50399 9.67852,-12.14532 3.91648,-8.55404 2.71034,-14.91338 -1.20613,-6.35934 -7.0543,-9.03693 -5.84817,-2.6776 -11.45036,0.56454 -5.60218,3.24214 -9.51866,11.79618 -3.95645,8.64133 -2.87021,15.26253 1.12621,6.53391 6.97438,9.2115 z"
       style="font-style:normal;font-variant:normal;font-weight:bold;font-stretch:normal;font-size:96px;line-height:445.00002861%;font-family:'Source Sans Pro';-inkscape-font-specification:'Source Sans Pro Bold';letter-spacing:0.55000001px;word-spacing:0px;fill:#800000;fill-opacity:1;stroke:none;stroke-width:1px;stroke-linecap:butt;stroke-linejoin:miter;stroke-opacity:1"
       id="path1131" />
    <path
       d="m 421.96816,867.26299 13.68145,3.83214 -9.45088,33.74141 q -2.48571,8.87445 -0.78881,13.13814 1.6969,4.2637 6.78122,5.6878 5.08432,1.42411 8.84151,-1.31191 3.7572,-2.73602 6.24291,-11.61047 l 9.45087,-33.74141 13.12679,3.67678 -9.06248,32.35477 q -4.24642,15.16052 -12.28956,20.38476 -7.95071,5.25014 -19.59843,1.98764 -11.74016,-3.28838 -15.99183,-11.95637 -4.25166,-8.66798 -0.005,-23.8285 z"
       style="font-style:normal;font-variant:normal;font-weight:bold;font-stretch:normal;font-size:96px;line-height:445.00002861%;font-family:'Source Sans Pro';-inkscape-font-specification:'Source Sans Pro Bold';letter-spacing:0.55000001px;word-spacing:0px;fill:#800000;fill-opacity:1;stroke:none;stroke-width:1px;stroke-linecap:butt;stroke-linejoin:miter;stroke-opacity:1"
       id="path1133" />
    <path
       d="m 490.84868,895.79713 -17.02919,-2.30146 1.59431,-11.79675 48.13837,6.50579 -1.59431,11.79675 -17.02918,-2.30146 -6.78865,50.23135 -14.08,-1.90288 z"
       style="font-style:normal;font-variant:normal;font-weight:bold;font-stretch:normal;font-size:96px;line-height:445.00002861%;font-family:'Source Sans Pro';-inkscape-font-specification:'Source Sans Pro Bold';letter-spacing:0.55000001px;word-spacing:0px;fill:#800000;fill-opacity:1;stroke:none;stroke-width:1px;stroke-linecap:butt;stroke-linejoin:miter;stroke-opacity:1"
       id="path1135" />
    <path
       d="m 531.2734,933.15865 q 3.33691,2.90672 7.35423,4.76283 4.11332,1.85688 8.04919,1.88828 4.41586,0.0352 6.54081,-1.57986 2.22095,-1.61434 2.24317,-4.39825 0.0115,-1.43995 -0.65207,-2.50128 -0.56755,-1.06056 -1.80939,-1.83849 -1.14507,-0.87317 -2.86765,-1.55893 -1.62582,-0.781 -3.63486,-1.66106 l -8.13217,-3.52099 q -2.39226,-0.97912 -4.68394,-2.53345 -2.19567,-1.55357 -4.00353,-3.58406 -1.71109,-2.12572 -2.74561,-4.82206 -1.03376,-2.79233 -1.00618,-6.24822 0.0306,-3.83988 1.68939,-7.18675 1.65952,-3.44287 4.65534,-5.91505 2.99658,-2.56817 7.03995,-3.97596 4.13935,-1.40702 9.0352,-1.36795 5.47182,0.0437 10.7348,2.19771 5.35898,2.15483 9.35869,6.21887 l -7.27101,8.87027 q -3.05275,-2.42443 -6.1147,-3.6969 -3.06118,-1.36847 -6.80506,-1.39834 -3.64788,-0.0291 -5.86806,1.48923 -2.12343,1.4231 -2.14487,4.11101 -0.0115,1.43996 0.65206,2.50129 0.76032,0.96609 2.00139,1.84002 1.33783,0.7787 3.05964,1.56046 1.72259,0.68577 3.73163,1.56583 l 8.0377,3.32823 q 5.74143,2.34988 8.97316,6.4078 3.32773,4.05868 3.27488,10.68246 -0.0314,3.93588 -1.69169,7.47475 -1.56353,3.44363 -4.65688,6.10704 -2.99658,2.56817 -7.42546,4.16488 -4.42812,1.50072 -9.99594,1.4563 -6.1438,-0.049 -12.26999,-2.30597 -6.02943,-2.35218 -10.79328,-6.90233 z"
       style="font-style:normal;font-variant:normal;font-weight:bold;font-stretch:normal;font-size:96px;line-height:445.00002861%;font-family:'Source Sans Pro';-inkscape-font-specification:'Source Sans Pro Bold';letter-spacing:0.55000001px;word-spacing:0px;fill:#800000;fill-opacity:1;stroke:none;stroke-width:1px;stroke-linecap:butt;stroke-linejoin:miter;stroke-opacity:1"
       id="path1137" />
    <path
       d="m 619.61297,936.08095 q -4.17065,0.66925 -7.87941,-0.22644 -3.65571,-0.96903 -6.56635,-3.354 -2.91064,-2.38496 -4.93968,-6.14295 -1.96586,-3.76813 -2.77707,-8.82345 -0.81121,-5.05533 -0.11288,-9.18615 0.75139,-4.20416 2.78997,-7.25367 2.02845,-3.1127 5.21771,-5.05049 3.24232,-2.01111 7.41296,-2.68036 4.17065,-0.66925 7.81621,0.23659 3.69863,0.8325 6.59912,3.15427 2.9005,2.32178 4.86636,6.0899 2.0189,3.6948 2.81997,8.68693 0.81122,5.05533 0.0598,9.25949 -0.68819,4.19401 -2.7065,7.36991 -2.0183,3.17589 -5.25048,5.2502 -3.17912,2.00097 -7.34976,2.67022 z m -1.2878,-8.02533 q 4.23383,-0.67939 6.12032,-4.67678 1.87634,-4.06057 0.87246,-10.31654 -0.99373,-6.19278 -4.01591,-9.27285 -3.02218,-3.08007 -7.25602,-2.40068 -4.23384,0.67939 -6.1406,4.55039 -1.90676,3.87101 -0.91303,10.06378 1.00388,6.25597 4.05648,9.52562 3.04246,3.20645 7.2763,2.52706 z"
       style="font-style:normal;font-variant:normal;font-weight:bold;font-stretch:normal;font-size:64px;line-height:445.00002861%;font-family:'Source Sans Pro';-inkscape-font-specification:'Source Sans Pro Bold';letter-spacing:0.55000001px;word-spacing:0px;fill:#800000;fill-opacity:1;stroke:none;stroke-width:1px;stroke-linecap:butt;stroke-linejoin:miter;stroke-opacity:1"
       id="path1139" />
    <path
       d="m 637.84972,889.46868 25.46676,-6.58369 1.98631,7.6834 -16.3582,4.22894 2.41882,9.3564 14.00362,-3.62023 1.98631,7.6834 -14.00361,3.62023 4.05273,15.67661 -9.10855,2.35475 z"
       style="font-style:normal;font-variant:normal;font-weight:bold;font-stretch:normal;font-size:64px;line-height:445.00002861%;font-family:'Source Sans Pro';-inkscape-font-specification:'Source Sans Pro Bold';letter-spacing:0.55000001px;word-spacing:0px;fill:#800000;fill-opacity:1;stroke:none;stroke-width:1px;stroke-linecap:butt;stroke-linejoin:miter;stroke-opacity:1"
       id="path1141" />
    <path
       d="m 724.15868,887.4397 -3.61438,-4.71035 q -3.10586,-3.77989 -6.353,-8.12638 -3.24714,-4.3465 -6.34138,-8.34074 l -0.35225,0.1529 q 0.93092,5.03791 1.88845,10.37823 1.00737,5.21404 1.64749,10.06421 l 0.88446,5.89531 z m 7.03765,8.9804 -17.52432,7.60663 2.40228,15.17857 -13.20929,5.73364 -6.95759,-65.21414 15.58697,-6.76569 42.88686,49.61863 -13.73767,5.96299 z"
       style="font-style:normal;font-variant:normal;font-weight:bold;font-stretch:normal;font-size:96px;line-height:445.00002861%;font-family:'Source Sans Pro';-inkscape-font-specification:'Source Sans Pro Bold';letter-spacing:0.55000001px;word-spacing:0px;fill:#800000;fill-opacity:1;stroke:none;stroke-width:1px;stroke-linecap:butt;stroke-linejoin:miter;stroke-opacity:1"
       id="path1143" />
    <path
       d="m 731.72365,844.05498 12.65456,-8.00893 23.88436,18.17187 9.01631,7.24533 0.32448,-0.20536 -2.68904,-11.24978 -6.44379,-29.20981 12.57343,-7.95759 33.47319,52.88955 -11.11329,7.03348 -12.27008,-19.38743 q -1.23214,-1.94685 -2.55874,-4.40198 -1.3266,-2.45513 -2.57208,-4.9616 -1.29682,-2.58758 -2.49097,-5.01293 -1.24548,-2.50647 -2.23426,-4.60734 l -0.32448,0.20536 3.3718,15.02128 4.87694,25.65701 -4.78602,3.02902 -21.10072,-15.38917 -11.97041,-9.57932 -0.32448,0.20536 q 1.4755,1.79284 3.2077,3.99127 1.68085,2.11731 3.38327,4.4482 1.73219,2.19843 3.38327,4.4482 1.65108,2.24977 2.88322,4.19663 l 12.27008,19.38742 -10.95106,6.9308 z"
       style="font-style:normal;font-variant:normal;font-weight:bold;font-stretch:normal;font-size:96px;line-height:445.00002861%;font-family:'Source Sans Pro';-inkscape-font-specification:'Source Sans Pro Bold';letter-spacing:0.55000001px;word-spacing:0px;fill:#800000;fill-opacity:1;stroke:none;stroke-width:1px;stroke-linecap:butt;stroke-linejoin:miter;stroke-opacity:1"
       id="path1145" />
    <path
       d="m 789.07004,805.89109 29.54383,-25.71565 7.81554,8.97901 -18.89936,16.45045 8.25674,9.48589 16.07532,-13.99234 7.75251,8.90659 -16.07532,13.99234 9.45429,10.8617 19.62347,-17.08074 7.81554,8.97901 -30.26794,26.34593 z"
       style="font-style:normal;font-variant:normal;font-weight:bold;font-stretch:normal;font-size:96px;line-height:445.00002861%;font-family:'Source Sans Pro';-inkscape-font-specification:'Source Sans Pro Bold';letter-spacing:0.55000001px;word-spacing:0px;fill:#800000;fill-opacity:1;stroke:none;stroke-width:1px;stroke-linecap:butt;stroke-linejoin:miter;stroke-opacity:1"
       id="path1147" />
    <path
       d="m 856.64935,781.67192 4.80782,-5.48784 q 3.66913,-4.18809 3.83396,-7.87261 0.15587,-3.81998 -3.31014,-6.85651 -3.466,-3.03652 -6.79905,-2.00001 -3.26979,0.9643 -6.93892,5.15239 l -4.80782,5.48784 z m 38.44912,7.39288 -24.8766,-5.84025 -5.12413,5.84889 16.96899,14.8663 -9.29934,10.61465 -47.07993,-41.24608 14.8663,-16.96899 q 3.28956,-3.75484 6.85839,-6.37162 3.63208,-2.68898 7.51595,-3.6258 3.81167,-1.00009 7.89302,0.0229 4.08134,1.023 8.26944,4.69213 5.19901,4.55479 6.56846,9.83872 1.3605,5.14846 -0.33153,10.43051 l 28.20902,5.82423 z"
       style="font-style:normal;font-variant:normal;font-weight:bold;font-stretch:normal;font-size:96px;line-height:445.00002861%;font-family:'Source Sans Pro';-inkscape-font-specification:'Source Sans Pro Bold';letter-spacing:0.55000001px;word-spacing:0px;fill:#800000;fill-opacity:1;stroke:none;stroke-width:1px;stroke-linecap:butt;stroke-linejoin:miter;stroke-opacity:1"
       id="path1149" />
    <path
       d="m 861.64022,730.08211 8.11654,-11.54429 51.20321,35.99986 -8.11653,11.54428 z"
       style="font-style:normal;font-variant:normal;font-weight:bold;font-stretch:normal;font-size:96px;line-height:445.00002861%;font-family:'Source Sans Pro';-inkscape-font-specification:'Source Sans Pro Bold';letter-spacing:0.55000001px;word-spacing:0px;fill:#800000;fill-opacity:1;stroke:none;stroke-width:1px;stroke-linecap:butt;stroke-linejoin:miter;stroke-opacity:1"
       id="path1151" />
    <path
       d="m 902.97194,726.73923 q -6.78667,-3.79569 -10.89369,-8.84255 -4.19079,-5.09371 -5.90924,-10.67458 -1.67159,-5.66466 -0.97449,-11.43447 0.74396,-5.85359 3.69616,-11.13212 2.85849,-5.11095 7.33308,-7.99809 4.43768,-3.0178 8.83279,-4.18948 l 3.82884,11.05096 q -3.09858,1.01686 -5.40617,2.58612 -2.26073,1.48546 -3.85399,4.33419 -1.59325,2.84873 -1.74227,6.06521 -0.18595,3.08585 1.04535,6.19437 1.2313,3.10852 3.88977,6.0253 2.70533,2.83298 6.81085,5.12914 8.46239,4.7329 15.1694,3.75428 6.62323,-1.02548 9.99718,-7.05807 1.87442,-3.35144 1.93965,-6.61479 0.0652,-3.26335 -0.98855,-6.49259 l 11.25265,-2.61609 q 2.10045,5.68452 1.62772,11.24983 -0.42588,5.48153 -3.28436,10.59248 -2.9522,5.27852 -7.33589,8.98647 -4.46748,3.66109 -9.95463,5.21197 -5.48715,1.55088 -11.80653,0.6564 -6.40318,-0.94134 -13.27363,-4.78389 z"
       style="font-style:normal;font-variant:normal;font-weight:bold;font-stretch:normal;font-size:96px;line-height:445.00002861%;font-family:'Source Sans Pro';-inkscape-font-specification:'Source Sans Pro Bold';letter-spacing:0.55000001px;word-spacing:0px;fill:#800000;fill-opacity:1;stroke:none;stroke-width:1px;stroke-linecap:butt;stroke-linejoin:miter;stroke-opacity:1"
       id="path1153" />
    <path
       d="m 945.42488,651.54354 -5.8864,-0.77555 q -4.86891,-0.4771 -10.23834,-1.25499 -5.36943,-0.77789 -10.38169,-1.41479 l -0.141,0.35718 q 4.22032,2.9045 8.67326,6.00405 4.3989,2.975 8.28083,5.95234 l 4.79367,3.54368 z m 11.32633,1.37486 -7.01463,17.76957 12.43065,9.03543 -5.28742,13.39415 -51.02902,-41.19866 6.23914,-15.8051 65.41079,4.76658 -5.49891,13.92991 z"
       style="font-style:normal;font-variant:normal;font-weight:bold;font-stretch:normal;font-size:96px;line-height:445.00002861%;font-family:'Source Sans Pro';-inkscape-font-specification:'Source Sans Pro Bold';letter-spacing:0.55000001px;word-spacing:0px;fill:#800000;fill-opacity:1;stroke:none;stroke-width:1px;stroke-linecap:butt;stroke-linejoin:miter;stroke-opacity:1"
       id="path1155" />
    <path
       d="M 550.00001,182.86637 99.999995,502.37227 550.00001,821.85807 1000,502.37227 Z"
       style="display:inline;fill:#800000;fill-opacity:1;fill-rule:nonzero;stroke:#000067;stroke-width:50;stroke-miterlimit:4;stroke-dasharray:none;stroke-opacity:1"
       id="path7153-4-0" />
    <path
       id="path4200"
       d="m 543.39462,435.72256 a 72.179291,72.179291 0 0 1 -72.17929,72.1793 72.179291,72.179291 0 0 1 -72.17929,-72.1793 72.179291,72.179291 0 0 1 72.17929,-72.17929 72.179291,72.179291 0 0 1 72.17929,72.17929 z"
       style="color:#000000;clip-rule:nonzero;display:inline;overflow:visible;visibility:visible;opacity:1;isolation:auto;mix-blend-mode:normal;color-interpolation:sRGB;color-interpolation-filters:linearRGB;solid-color:#000000;solid-opacity:1;fill:#ffffff;fill-opacity:1;fill-rule:evenodd;stroke:none;stroke-width:25;stroke-linecap:butt;stroke-linejoin:round;stroke-miterlimit:4;stroke-dasharray:none;stroke-dashoffset:0;stroke-opacity:1;marker:none;color-rendering:auto;image-rendering:auto;shape-rendering:auto;text-rendering:auto;enable-background:accumulate" />
    <path
       d="m 560.46377,434.79754 c 0,-53.59039 -39.73709,-93.69204 -92.96292,-93.69204 -52.4967,0 -90.77556,40.46621 -90.77556,95.51484 0,51.76759 37.9143,92.59836 85.67172,92.59836 11.30137,0 21.63058,-2.18736 33.66108,-7.65577 l -53.83191,93.69204 30.98764,0 55.16863,-99.16044 c 30.62255,-56.28526 32.08132,-54.68407 32.08132,-81.29699 z m -26.97747,1.45824 c 0,38.64341 -28.43572,68.53737 -65.25633,68.53737 -37.54972,0 -64.5272,-29.16484 -64.5272,-69.26649 0,-40.83077 26.97748,-69.99561 63.79808,-69.99561 37.91429,0 65.98545,29.89396 65.98545,70.72473 z"
       style="font-style:normal;font-variant:normal;font-weight:normal;font-stretch:normal;font-size:375px;line-height:125%;font-family:'TeX Gyre Adventor';-inkscape-font-specification:'TeX Gyre Adventor';letter-spacing:0px;word-spacing:0px;fill:#ffffff;fill-opacity:1;stroke:none;stroke-width:1px;stroke-linecap:butt;stroke-linejoin:miter;stroke-opacity:1"
       id="path4174" />
    <path
       d="m 690.95035,550.60507 c 0,-44.47637 -29.89396,-77.04377 -72.91209,-77.04377 -16.40522,0 -26.85658,2.47728 -34.02565,6.92664 l 28.9218,-54.92711 110.3403,0 -0.0444,-43.86877 -117.70861,0 -75.70706,140.4773 19.32171,8.02033 c 19.68626,-19.68627 40.46621,-29.89396 61.24616,-29.89396 30.98764,0 52.4967,22.23819 52.4967,54.31951 0,45.2055 -36.45604,84.21347 -79.10962,84.21347 -29.52939,0 -52.4967,-18.95715 -52.4967,-64.52721 l -26.24836,0 0,15.31154 c 0,44.47638 35.36237,74.00578 76.19314,74.00578 55.77775,0 109.7327,-53.22583 109.7327,-113.01375 z"
       style="font-style:italic;font-variant:normal;font-weight:normal;font-stretch:normal;font-size:375px;line-height:125%;font-family:'TeX Gyre Adventor';-inkscape-font-specification:'TeX Gyre Adventor Italic';letter-spacing:0px;word-spacing:0px;fill:#ffffff;fill-opacity:1;stroke:none;stroke-width:1px;stroke-linecap:butt;stroke-linejoin:miter;stroke-opacity:1"
       id="path4177" />
    <path
       d="m 468.61024,365.59459 c -23.62064,-0.0382 -46.62771,12.19457 -59.28482,34.12529 -18.84145,32.62654 -7.63905,74.3622 24.99322,93.20939 32.63227,18.83955 74.34682,7.63905 93.18645,-24.99322 l -9.46859,-5.48076 c -4.57075,7.91432 -10.96919,14.65106 -18.63118,19.6023 l 14.62049,-82.89018 c 3.45828,4.54023 6.24352,9.62528 8.23747,15.09266 l 10.27532,-3.75643 c -5.48085,-15.06972 -16.10791,-27.73456 -30.00379,-35.75404 -10.7092,-6.18426 -22.3877,-9.13398 -33.92457,-9.15501 z m -0.19498,10.93861 c 13.74677,0 26.35998,4.84608 36.23187,12.92674 l -13.75442,77.96761 -22.36474,-61.45649 -22.35129,61.45649 -13.77736,-78.13967 c 9.84313,-7.96021 22.37224,-12.75468 36.01594,-12.75468 z m -45.40226,22.35129 14.69695,83.34323 c -15.98924,-10.17775 -26.61432,-28.02513 -26.61432,-48.37299 0,-13.15805 4.45802,-25.29335 11.91737,-34.97024 z m 45.51497,39.00961 18.29471,50.23305 c -5.78089,1.9652 -11.96325,3.03192 -18.40742,3.03192 -6.3697,0 -12.48523,-1.04569 -18.2126,-2.96501 z"
       style="display:inline;fill:#800000;fill-opacity:1;fill-rule:nonzero;stroke:none"
       id="path7153" />
    <g
       transform="translate(0,-6)"
       id="flowRoot4210"
       style="font-style:normal;font-variant:normal;font-weight:900;font-stretch:normal;font-size:11.66593456px;line-height:0.01%;font-family:'Source Sans Pro';-inkscape-font-specification:'Source Sans Pro Heavy';letter-spacing:0px;word-spacing:0px;fill:#800000;fill-opacity:1;stroke:none;stroke-width:1px;stroke-linecap:butt;stroke-linejoin:miter;stroke-opacity:1">
      <path
         id="path4304"
         style="font-style:normal;font-variant:normal;font-weight:900;font-stretch:normal;font-size:48.60806274px;line-height:1.25;font-family:'Source Sans Pro';-inkscape-font-specification:'Source Sans Pro Heavy';letter-spacing:4.86080599px;fill:#800000;fill-opacity:1"
         d="m 663.41976,424.94483 8.36059,0 0,-24.59567 8.36058,0 0,-6.99957 -25.08176,0 0,6.99957 8.36059,0 0,24.59567 z" />
      <path
         id="path4306"
         style="font-style:normal;font-variant:normal;font-weight:900;font-stretch:normal;font-size:48.60806274px;line-height:1.25;font-family:'Source Sans Pro';-inkscape-font-specification:'Source Sans Pro Heavy';letter-spacing:4.86080599px;fill:#800000;fill-opacity:1"
         d="m 689.69014,424.94483 8.36058,0 0,-12.54088 9.42997,0 0,12.54088 8.36059,0 0,-31.59524 -8.36059,0 0,11.76316 -9.42997,0 0,-11.76316 -8.36058,0 0,31.59524 z" />
    </g>
    <path
       d="M 550.00004,182.8663 99.999995,502.37224 550.00004,821.85802 1000,502.37224 Z m 0,31.94907 L 954.99091,502.37224 550.00004,789.90892 145.00909,502.37224 Z"
       style="display:inline;fill:#ffffff;fill-opacity:1;fill-rule:nonzero;stroke:none"
       id="path7153-4" />
    <g
       id="flowRoot4224"
       style="font-style:normal;font-variant:normal;font-weight:normal;font-stretch:normal;line-height:0.01%;font-family:serif;-inkscape-font-specification:Serif;letter-spacing:0px;word-spacing:0px;fill:#ffffff;fill-opacity:1;stroke:none;stroke-width:1px;stroke-linecap:butt;stroke-linejoin:miter;stroke-opacity:1"
       transform="matrix(0.79236157,-0.56325893,0.56325893,0.79236157,546.4844,-197.91374)">
      <path
         id="path4280"
         style="font-style:normal;font-variant:normal;font-weight:600;font-stretch:normal;font-size:80px;line-height:1.25;font-family:'Source Sans Pro';-inkscape-font-specification:'Source Sans Pro Semi-Bold';letter-spacing:10px;fill:#ffffff;fill-opacity:1"
         d="m -556.22609,802.11701 1.84,-6.4 c 1.68,-5.52 3.2,-11.44 4.64,-17.28 l 0.32,0 c 1.52,5.76 3.04,11.76 4.72,17.28 l 1.84,6.4 -13.36,0 z m 19.52,21.44 9.76,0 -17.04,-52.32 -10.88,0 -17.04,52.32 9.44,0 4.08,-14.16 17.6,0 4.08,14.16 z" />
      <path
         id="path4282"
         style="font-size:60px;letter-spacing:10px;fill:#ffffff;fill-opacity:1"
         d="m -512.07859,823.55701 6.66,0 0,-17.16 c 0,-4.38 -0.6,-9.12 -0.9,-13.26 l 0.24,0 4.02,8.34 12.24,22.08 7.14,0 0,-39.24 -6.66,0 0,17.04 c 0,4.38 0.6,9.36 0.9,13.38 l -0.24,0 -4.02,-8.34 -12.24,-22.08 -7.14,0 0,39.24 z" />
      <path
         id="path4284"
         style="font-size:60px;letter-spacing:10px;fill:#ffffff;fill-opacity:1"
         d="m -462.70359,823.55701 6.66,0 0,-17.16 c 0,-4.38 -0.6,-9.12 -0.9,-13.26 l 0.24,0 4.02,8.34 12.24,22.08 7.14,0 0,-39.24 -6.66,0 0,17.04 c 0,4.38 0.6,9.36 0.9,13.38 l -0.24,0 -4.02,-8.34 -12.24,-22.08 -7.14,0 0,39.24 z" />
      <path
         id="path4286"
         style="font-size:60px;letter-spacing:10px;fill:#ffffff;fill-opacity:1"
         d="m -413.32859,823.55701 6.96,0 0,-39.24 -6.96,0 0,39.24 z" />
      <path
         id="path4288"
         style="font-size:60px;letter-spacing:10px;fill:#ffffff;fill-opacity:1"
         d="m -379.43359,823.55701 8.22,0 12.18,-39.24 -7.14,0 -5.46,19.74 c -1.2,4.44 -2.1,8.28 -3.42,12.78 l -0.24,0 c -1.32,-4.5 -2.22,-8.34 -3.48,-12.78 l -5.52,-19.74 -7.38,0 12.24,39.24 z" />
      <path
         id="path4290"
         style="font-size:60px;letter-spacing:10px;fill:#ffffff;fill-opacity:1"
         d="m -344.34422,823.55701 24.24,0 0,-5.88 -17.28,0 0,-11.58 14.1,0 0,-5.88 -14.1,0 0,-10.02 16.68,0 0,-5.88 -23.64,0 0,39.24 z" />
      <path
         id="path4292"
         style="font-size:60px;letter-spacing:10px;fill:#ffffff;fill-opacity:1"
         d="m -295.15766,789.89701 5.58,0 c 5.34,0 8.28,1.56 8.28,6.06 0,4.44 -2.94,6.72 -8.28,6.72 l -5.58,0 0,-12.78 z m 22.26,33.66 -9.36,-16.38 c 4.68,-1.62 7.8,-5.22 7.8,-11.22 0,-8.76 -6.24,-11.64 -14.4,-11.64 l -13.26,0 0,39.24 6.96,0 0,-15.36 6,0 8.46,15.36 7.8,0 z" />
      <path
         id="path4294"
         style="font-size:60px;letter-spacing:10px;fill:#ffffff;fill-opacity:1"
         d="m -245.97016,824.27701 c 8.82,0 14.1,-5.28 14.1,-11.64 0,-5.7 -3.3,-8.64 -7.92,-10.62 l -5.34,-2.22 c -3.24,-1.32 -6.24,-2.46 -6.24,-5.52 0,-2.88 2.46,-4.62 6.18,-4.62 3.36,0 6,1.26 8.52,3.36 l 3.54,-4.44 c -3.06,-3.06 -7.5,-4.98 -12.06,-4.98 -7.68,0 -13.2,4.8 -13.2,11.04 0,5.76 4.08,8.82 7.92,10.44 l 5.4,2.34 c 3.54,1.5 6.06,2.52 6.06,5.76 0,3.06 -2.4,5.04 -6.84,5.04 -3.6,0 -7.38,-1.8 -10.2,-4.44 l -4.08,4.74 c 3.72,3.66 8.88,5.76 14.16,5.76 z" />
      <path
         id="path4296"
         style="font-size:60px;letter-spacing:10px;fill:#ffffff;fill-opacity:1"
         d="m -208.07484,807.47701 1.38,-4.8 c 1.26,-4.14 2.4,-8.58 3.48,-12.96 l 0.24,0 c 1.14,4.32 2.28,8.82 3.54,12.96 l 1.38,4.8 -10.02,0 z m 14.64,16.08 7.32,0 -12.78,-39.24 -8.16,0 -12.78,39.24 7.08,0 3.06,-10.62 13.2,0 3.06,10.62 z" />
      <path
         id="path4298"
         style="font-size:60px;letter-spacing:10px;fill:#ffffff;fill-opacity:1"
         d="m -164.25922,789.89701 5.58,0 c 5.34,0 8.28,1.56 8.28,6.06 0,4.44 -2.94,6.72 -8.28,6.72 l -5.58,0 0,-12.78 z m 22.26,33.66 -9.36,-16.38 c 4.68,-1.62 7.8,-5.22 7.8,-11.22 0,-8.76 -6.24,-11.64 -14.4,-11.64 l -13.26,0 0,39.24 6.96,0 0,-15.36 6,0 8.46,15.36 7.8,0 z" />
      <path
         id="path4300"
         style="font-size:60px;letter-spacing:10px;fill:#ffffff;fill-opacity:1"
         d="m -119.64016,823.55701 6.96,0 0,-14.58 11.82,-24.66 -7.26,0 -4.26,10.02 c -1.14,2.94 -2.34,5.64 -3.6,8.64 l -0.24,0 c -1.26,-3 -2.34,-5.7 -3.48,-8.64 l -4.26,-10.02 -7.44,0 11.76,24.66 0,14.58 z" />
    </g>
    <path
       id="path8"
       d="m 550.36036,238.45458 c -0.0196,0.0175 -0.0364,0.0761 -0.0672,0.18727 -0.0378,0.13454 -0.0717,0.28406 -0.0719,0.33126 -5.4e-4,0.13366 -0.49149,1.56075 -0.7682,2.22774 -0.70102,1.68988 -2.49719,4.63006 -5.08923,8.33485 -0.873,1.24781 -2.49242,3.70612 -3.02953,4.59951 -0.73619,1.22449 -1.46107,2.52039 -1.77164,3.16397 -0.31471,0.65212 -0.69493,1.48676 -0.77778,1.70922 -0.0455,0.12186 -0.14461,0.3796 -0.22083,0.57134 -0.5663,1.42747 -1.08665,3.35343 -1.2339,4.57551 -0.0196,0.16562 -0.0523,0.42917 -0.0719,0.58576 -0.0548,0.44082 -0.17305,0.46057 -0.69617,0.1153 -1.06527,-0.70348 -2.82994,-1.48037 -4.14341,-1.82924 -1.43446,-0.38098 -3.61337,-0.50166 -5.07484,-0.27846 -1.8206,0.27808 -3.77073,1.0247 -5.22848,2.00207 -1.2966,0.86937 -2.93911,2.62219 -3.76892,4.01859 -1.04458,1.75778 -1.66833,3.56466 -1.99246,5.79501 -0.13062,0.89848 -0.24198,2.45874 -0.20173,2.80869 0.0175,0.163 0.0547,0.53913 0.0768,0.83539 0.0819,1.06407 0.40053,2.55214 0.68177,3.17837 0.11551,0.25696 0.36009,1.02997 0.36009,1.13788 0,0.0422 0.0381,0.12295 0.0864,0.17764 0.0485,0.0551 0.28117,0.47355 0.51371,0.92662 0.58976,1.14855 1.53396,2.52936 2.36217,3.45686 0.91895,1.02911 2.45536,2.35071 3.94657,3.39919 1.12866,0.79362 2.64902,1.72845 2.81348,1.72845 0.12973,0 0.12536,-0.10501 -0.0241,-0.96983 -0.929,-5.3773 1.05262,-9.38392 4.84437,-9.79441 1.18553,-0.12842 2.83699,0.1934 3.86494,0.75377 1.26175,0.6877 2.56622,1.95914 3.34162,3.26 0.76078,1.27636 1.37612,3.05274 1.66119,4.782 0.16278,0.98753 0.17897,0.94476 -0.49451,1.33953 -0.20434,0.11966 -0.54903,0.4082 -0.76338,0.63853 -0.70972,0.76347 -0.97834,1.55532 -0.90262,2.64064 0.0759,1.08842 0.78833,2.06158 1.91565,2.61665 0.65899,0.32443 0.68717,0.38858 0.43212,0.89302 -0.20128,0.39792 -1.00179,1.21996 -1.43076,1.46914 -0.63529,0.36911 -0.90755,0.4368 -1.79563,0.44172 -0.93657,0.005 -1.28572,-0.0932 -1.93007,-0.53295 -0.6465,-0.4413 -1.01258,-0.91574 -1.37792,-1.78124 -0.16496,-0.38894 -0.17065,-0.4451 -0.17283,-1.61798 -0.002,-0.66804 -0.0264,-1.2316 -0.0528,-1.2579 -0.15665,-0.15664 -2.02399,1.13048 -2.98632,2.0597 -1.96772,1.89996 -2.95271,3.94334 -2.95271,6.11669 0,1.00448 0.0941,1.52702 0.43208,2.34776 0.34289,0.83275 0.77475,1.48979 1.36835,2.08852 1.94501,1.96162 5.07448,2.76645 7.93152,2.0357 1.45226,-0.37146 2.44719,-0.91165 3.82655,-2.06451 0.33031,-0.27619 0.58783,-0.44194 0.66254,-0.43211 0.0801,0.0131 0.22019,0.20302 0.41291,0.55695 0.16124,0.29624 0.41919,0.76784 0.57134,1.04666 0.36472,0.6681 1.52991,2.41294 2.10292,3.14957 1.22897,1.57999 2.67117,3.19944 3.48084,3.91294 l 0.50414,0.44651 0.20652,-0.10567 c 0.26086,-0.13345 2.19445,-2.06611 2.93832,-2.9383 1.59561,-1.87091 2.3861,-2.97873 3.48085,-4.86839 0.31028,-0.53556 0.6001,-0.99103 0.64335,-1.00822 0.0434,-0.0175 0.28472,0.1643 0.53773,0.39848 1.34685,1.24707 2.76383,2.02741 4.4219,2.43419 0.72914,0.17874 2.21165,0.27056 2.96232,0.18727 2.03611,-0.2264 4.0225,-1.22834 5.10364,-2.57342 0.83396,-1.03761 1.34961,-2.35393 1.42114,-3.64408 0.11728,-2.10943 -0.87892,-4.37053 -2.84229,-6.45759 -0.83427,-0.88682 -2.79946,-2.28298 -2.96713,-2.10769 -0.0298,0.0311 -0.067,0.54057 -0.0816,1.13307 -0.0313,1.2294 -0.1315,1.65437 -0.54736,2.29493 -0.6556,1.01018 -1.65046,1.59114 -2.83268,1.65162 -0.6577,0.0336 -1.06725,-0.0558 -1.73801,-0.38409 -0.784,-0.38382 -1.8193,-1.6283 -1.76203,-2.11731 0.0154,-0.1409 0.0737,-0.19297 0.32646,-0.2833 0.4755,-0.16955 0.96714,-0.49082 1.38276,-0.90741 1.5059,-1.50953 1.07992,-4.07153 -0.85942,-5.16604 -0.50091,-0.28275 -0.50067,-0.29245 -0.4129,-0.86902 0.17392,-1.14253 0.71609,-2.90686 1.22908,-3.98977 1.05625,-2.22975 2.95222,-4.01734 4.88759,-4.60433 0.87838,-0.26618 1.00107,-0.29051 1.69002,-0.35048 1.3898,-0.12077 2.75624,0.23795 3.77852,0.99864 1.28353,0.95504 2.09278,2.38984 2.38138,4.22024 0.25645,1.62643 0.1783,3.27133 -0.24967,5.28129 -0.0754,0.35819 -0.0717,0.402 0.0196,0.43689 0.24713,0.095 2.8965,-1.51817 4.68593,-2.85189 1.21768,-0.9076 2.50249,-2.16403 3.31762,-3.2456 0.81458,-1.08079 0.92782,-1.26394 1.77163,-2.85187 0.76403,-1.43776 1.29043,-3.22753 1.45954,-4.95963 0.0702,-0.71821 0.0444,-3.01305 -0.0385,-3.50004 -0.0196,-0.12185 -0.0784,-0.49749 -0.12951,-0.83541 -0.34994,-2.29705 -1.30067,-4.58559 -2.64064,-6.35195 -1.52676,-2.01256 -2.91985,-3.14822 -4.99322,-4.08097 -0.77681,-0.34952 -1.83555,-0.69403 -2.70306,-0.87864 -0.76731,-0.16343 -0.90901,-0.17545 -2.49182,-0.17764 -1.72527,-0.002 -2.04817,0.0295 -3.20238,0.32169 -1.26856,0.32112 -2.95644,1.0343 -3.99458,1.68522 -0.57424,0.36017 -0.60999,0.34129 -0.70096,-0.42254 -0.15687,-1.31528 -0.23171,-1.74122 -0.47529,-2.72704 -0.28212,-1.14192 -0.423,-1.56756 -0.94586,-2.88072 -0.76424,-1.91953 -1.60054,-3.58072 -2.76547,-5.47813 -0.19055,-0.31018 -0.41016,-0.66866 -0.48489,-0.79696 -0.42813,-0.73202 -1.09607,-1.7894 -1.95408,-3.09198 -0.82945,-1.25925 -1.87333,-2.86967 -2.03091,-3.13517 -0.0256,-0.0431 -0.22228,-0.36202 -0.43689,-0.71056 -0.39563,-0.64282 -0.45359,-0.7426 -0.80179,-1.36354 -0.5118,-0.91258 -0.68104,-1.23158 -1.06588,-2.0261 -0.22794,-0.47053 -0.4383,-0.91444 -0.4705,-0.98425 -0.20281,-0.43754 -0.74996,-2.08405 -0.89302,-2.69344 -0.0453,-0.19165 -0.11573,-0.4008 -0.15839,-0.46571 -0.0352,-0.0534 -0.0569,-0.0796 -0.0768,-0.0623 z"
       style="fill:#ffffff;fill-opacity:1" />
    <g
       id="flowRoot4224-9"
       style="font-style:normal;font-variant:normal;font-weight:normal;font-stretch:normal;line-height:0.01%;font-family:serif;-inkscape-font-specification:Serif;letter-spacing:0px;word-spacing:0px;fill:#ffffff;fill-opacity:1;stroke:none;stroke-width:1px;stroke-linecap:butt;stroke-linejoin:miter;stroke-opacity:1"
       transform="matrix(0.79163588,0.5642784,-0.5642784,0.79163588,1126.264,244.81676)">
      <path
         id="path4261"
         style="font-style:normal;font-variant:normal;font-weight:600;font-stretch:normal;font-size:50px;line-height:1.25;font-family:'Source Sans Pro';-inkscape-font-specification:'Source Sans Pro Semi-Bold';letter-spacing:10px;fill:#ffffff;fill-opacity:1"
         d="m -568.04609,794.2014 19.15,0 0,-4.7 -6.25,0 0,-27.1 -4.3,0 c -2,1.2 -4.2,2 -7.35,2.6 l 0,3.6 5.85,0 0,20.9 -7.1,0 0,4.7 z" />
      <path
         id="path4263"
         style="font-style:normal;font-variant:normal;font-weight:600;font-stretch:normal;font-size:50px;line-height:1.25;font-family:'Source Sans Pro';-inkscape-font-specification:'Source Sans Pro Semi-Bold';letter-spacing:10px;fill:#ffffff;fill-opacity:1"
         d="m -523.8625,777.9014 c -3.2,0 -5.05,-1.95 -5.05,-5.7 0,-3.85 2.15,-6 4.75,-6 3.1,0 5.4,2.4 6,8 -1.75,2.65 -3.9,3.7 -5.7,3.7 z m -9.85,13.3 c 1.9,2 4.7,3.6 8.5,3.6 6.55,0 12.5,-5.15 12.5,-17.5 0,-10.7 -5.3,-15.5 -11.5,-15.5 -5.45,0 -10,4.05 -10,10.4 0,6.65 3.8,9.85 9.25,9.85 2.3,0 5.1,-1.4 6.95,-3.7 -0.25,8.8 -3.5,11.75 -7.5,11.75 -1.95,0 -3.9,-1 -5.1,-2.4 l -3.1,3.5 z" />
      <path
         id="path4265"
         style="font-style:normal;font-variant:normal;font-weight:600;font-stretch:normal;font-size:50px;line-height:1.25;font-family:'Source Sans Pro';-inkscape-font-specification:'Source Sans Pro Semi-Bold';letter-spacing:10px;fill:#ffffff;fill-opacity:1"
         d="m -498.47891,794.2014 21.5,0 0,-4.9 -7.8,0 c -1.55,0 -3.65,0.2 -5.3,0.35 6.3,-6.65 11.55,-12.45 11.55,-18.1 0,-5.9 -3.95,-9.75 -10.05,-9.75 -4.35,0 -7.25,1.8 -10.15,4.9 l 3.2,3.2 c 1.7,-1.9 3.75,-3.55 6.2,-3.55 3.4,0 5.25,2.15 5.25,5.5 0,4.85 -5.55,10.45 -14.4,19 l 0,3.35 z" />
      <path
         id="path4267"
         style="font-style:normal;font-variant:normal;font-weight:600;font-stretch:normal;font-size:50px;line-height:1.25;font-family:'Source Sans Pro';-inkscape-font-specification:'Source Sans Pro Semi-Bold';letter-spacing:10px;fill:#ffffff;fill-opacity:1"
         d="m -458.09531,781.5514 5.8,-8.85 c 0.9,-1.7 1.8,-3.3 2.6,-4.95 l 0.2,0 c -0.1,1.85 -0.25,4.75 -0.25,6.6 l 0,7.2 -8.35,0 z m 17.75,0 -4,0 0,-19.15 -6.85,0 -12.6,19.7 0,3.9 14.05,0 0,8.2 5.4,0 0,-8.2 4,0 0,-4.45 z" />
      <path
         id="path4269"
         style="font-style:normal;font-variant:normal;font-weight:600;font-stretch:normal;font-size:50px;line-height:1.25;font-family:'Source Sans Pro';-inkscape-font-specification:'Source Sans Pro Semi-Bold';letter-spacing:10px;fill:#ffffff;fill-opacity:1"
         d="m -426.91172,783.5014 19.8,0 0,-3.8 -19.8,0 0,3.8 z" />
      <path
         id="path4271"
         style="font-style:normal;font-variant:normal;font-weight:600;font-stretch:normal;font-size:50px;line-height:1.25;font-family:'Source Sans Pro';-inkscape-font-specification:'Source Sans Pro Semi-Bold';letter-spacing:10px;fill:#ffffff;fill-opacity:1"
         d="m -393.08828,794.2014 21.5,0 0,-4.9 -7.8,0 c -1.55,0 -3.65,0.2 -5.3,0.35 6.3,-6.65 11.55,-12.45 11.55,-18.1 0,-5.9 -3.95,-9.75 -10.05,-9.75 -4.35,0 -7.25,1.8 -10.15,4.9 l 3.2,3.2 c 1.7,-1.9 3.75,-3.55 6.2,-3.55 3.4,0 5.25,2.15 5.25,5.5 0,4.85 -5.55,10.45 -14.4,19 l 0,3.35 z" />
      <path
         id="path4273"
         style="font-style:normal;font-variant:normal;font-weight:600;font-stretch:normal;font-size:50px;line-height:1.25;font-family:'Source Sans Pro';-inkscape-font-specification:'Source Sans Pro Semi-Bold';letter-spacing:10px;fill:#ffffff;fill-opacity:1"
         d="m -346.50469,794.8014 c 6.6,0 10.8,-5.9 10.8,-16.65 0,-10.7 -4.2,-16.35 -10.8,-16.35 -6.6,0 -10.8,5.6 -10.8,16.35 0,10.75 4.2,16.65 10.8,16.65 z m 0,-4.5 c -3.05,0 -5.3,-3.15 -5.3,-12.15 0,-9 2.25,-11.85 5.3,-11.85 3.1,0 5.3,2.85 5.3,11.85 0,9 -2.2,12.15 -5.3,12.15 z" />
      <path
         id="path4275"
         style="font-style:normal;font-variant:normal;font-weight:600;font-stretch:normal;font-size:50px;line-height:1.25;font-family:'Source Sans Pro';-inkscape-font-specification:'Source Sans Pro Semi-Bold';letter-spacing:10px;fill:#ffffff;fill-opacity:1"
         d="m -319.92109,794.2014 19.15,0 0,-4.7 -6.25,0 0,-27.1 -4.3,0 c -2,1.2 -4.2,2 -7.35,2.6 l 0,3.6 5.85,0 0,20.9 -7.1,0 0,4.7 z" />
      <path
         id="path4277"
         style="font-style:normal;font-variant:normal;font-weight:600;font-stretch:normal;font-size:50px;line-height:1.25;font-family:'Source Sans Pro';-inkscape-font-specification:'Source Sans Pro Semi-Bold';letter-spacing:10px;fill:#ffffff;fill-opacity:1"
         d="m -275.7375,777.9014 c -3.2,0 -5.05,-1.95 -5.05,-5.7 0,-3.85 2.15,-6 4.75,-6 3.1,0 5.4,2.4 6,8 -1.75,2.65 -3.9,3.7 -5.7,3.7 z m -9.85,13.3 c 1.9,2 4.7,3.6 8.5,3.6 6.55,0 12.5,-5.15 12.5,-17.5 0,-10.7 -5.3,-15.5 -11.5,-15.5 -5.45,0 -10,4.05 -10,10.4 0,6.65 3.8,9.85 9.25,9.85 2.3,0 5.1,-1.4 6.95,-3.7 -0.25,8.8 -3.5,11.75 -7.5,11.75 -1.95,0 -3.9,-1 -5.1,-2.4 l -3.1,3.5 z" />
    </g>
  </g>
</svg>
