<?xml version="1.0" encoding="UTF-8" standalone="no"?>
<svg
   xmlns:dc="http://purl.org/dc/elements/1.1/"
   xmlns:cc="http://creativecommons.org/ns#"
   xmlns:rdf="http://www.w3.org/1999/02/22-rdf-syntax-ns#"
   xmlns:svg="http://www.w3.org/2000/svg"
   xmlns="http://www.w3.org/2000/svg"
   xmlns:sodipodi="http://sodipodi.sourceforge.net/DTD/sodipodi-0.dtd"
   xmlns:inkscape="http://www.inkscape.org/namespaces/inkscape"
   version="1.1"
   id="svg2"
   viewBox="0 0 1100 1100"
   height="1100"
   width="1100"
   inkscape:version="0.91 r"
   sodipodi:docname="2019-logo.svg">
  <sodipodi:namedview
     pagecolor="#ffffff"
     bordercolor="#666666"
     borderopacity="1"
     objecttolerance="10"
     gridtolerance="10"
     guidetolerance="10"
     inkscape:pageopacity="0"
     inkscape:pageshadow="2"
     inkscape:window-width="1280"
     inkscape:window-height="748"
     id="namedview29"
     showgrid="false"
     inkscape:zoom="0.21454545"
     inkscape:cx="550"
     inkscape:cy="550"
     inkscape:window-x="0"
     inkscape:window-y="0"
     inkscape:window-maximized="1"
     inkscape:current-layer="svg2" />
  <defs
     id="defs4" />
  <metadata
     id="metadata7">
    <rdf:RDF>
      <cc:Work
         rdf:about="">
        <dc:format>image/svg+xml</dc:format>
        <dc:type
           rdf:resource="http://purl.org/dc/dcmitype/StillImage" />
        <dc:title />
      </cc:Work>
    </rdf:RDF>
  </metadata>
  <path
     style="color:#000000;clip-rule:nonzero;display:inline;overflow:visible;visibility:visible;opacity:1;isolation:auto;mix-blend-mode:normal;color-interpolation:sRGB;color-interpolation-filters:linearRGB;solid-color:#000000;solid-opacity:1;fill:#000000;fill-opacity:1;fill-rule:evenodd;stroke:none;stroke-width:25;stroke-linecap:butt;stroke-linejoin:round;stroke-miterlimit:4;stroke-dasharray:none;stroke-dashoffset:0;stroke-opacity:1;marker:none;color-rendering:auto;image-rendering:auto;shape-rendering:auto;text-rendering:auto;enable-background:accumulate"
     d="m 543.20551,415.16101 a 74.246216,74.246216 0 0 1 -74.24622,74.24622 74.246216,74.246216 0 0 1 -74.24622,-74.24622 74.246216,74.246216 0 0 1 74.24622,-74.24622 74.246216,74.246216 0 0 1 74.24622,74.24622 z"
     id="path4200" />
  <path
     inkscape:connector-curvature="0"
     id="path4174"
     style="font-style:normal;font-variant:normal;font-weight:normal;font-stretch:normal;font-size:375px;line-height:125%;font-family:'TeX Gyre Adventor';-inkscape-font-specification:'TeX Gyre Adventor';letter-spacing:0px;word-spacing:0px;fill:#000000;fill-opacity:1;stroke:none;stroke-width:1px;stroke-linecap:butt;stroke-linejoin:miter;stroke-opacity:1"
     d="m 560.76345,414.20949 c 0,-55.125 -40.875,-96.375 -95.625,-96.375 -54,0 -93.375,41.625 -93.375,98.25 0,53.25 39,95.25 88.125,95.25 11.625,0 22.25,-2.25 34.625,-7.875 l -55.37344,96.375 31.875,0 56.74844,-102 c 31.49946,-57.89704 33,-56.25 33,-83.625 z m -27.75,1.5 c 0,39.75 -29.25,70.5 -67.125,70.5 -38.625,0 -66.375,-30 -66.375,-71.25 0,-42 27.75,-72 65.625,-72 39,0 67.875,30.75 67.875,72.75 z" />
  <path
     inkscape:connector-curvature="0"
     id="path4177"
     style="font-style:italic;font-variant:normal;font-weight:normal;font-stretch:normal;font-size:375px;line-height:125%;font-family:'TeX Gyre Adventor';-inkscape-font-specification:'TeX Gyre Adventor Italic';letter-spacing:0px;word-spacing:0px;fill:#000000;fill-opacity:1;stroke:none;stroke-width:1px;stroke-linecap:butt;stroke-linejoin:miter;stroke-opacity:1"
     d="m 694.98664,533.33328 c 0,-45.75 -30.75,-79.25 -75,-79.25 -16.875,0 -27.62564,2.54822 -35,7.125 l 29.75,-56.5 113.5,0 -0.0457,-45.125 -121.07931,0 -77.875,144.5 19.875,8.25 c 20.25,-20.25 41.625,-30.75 63,-30.75 31.875,0 54,22.875 54,55.875 0,46.5 -37.5,86.625 -81.375,86.625 -30.375,0 -54,-19.5 -54,-66.375 l -27,0 0,15.75 c 0,45.75 36.375,76.125 78.375,76.125 57.375,0 112.875,-54.75 112.875,-116.25 z" />
  <path
     inkscape:connector-curvature="0"
     id="path7153"
     style="display:inline;fill:#ffffff;fill-opacity:1;fill-rule:nonzero;stroke:none"
     d="m 466.27961,343.02485 c -24.29704,-0.0393 -47.96294,12.54377 -60.9825,35.1025 -19.381,33.56083 -7.8578,76.49163 25.70892,95.87853 33.56673,19.37903 76.47582,7.8578 95.85494,-25.70893 l -9.73974,-5.63771 c -4.70163,8.14096 -11.2833,15.07061 -19.1647,20.16363 l 15.03916,-85.26381 c 3.55732,4.67024 6.42231,9.9009 8.47336,15.52485 l 10.56957,-3.864 c -5.6378,-15.50126 -16.56918,-28.52877 -30.86298,-36.77789 -11.01587,-6.36135 -23.02879,-9.39554 -34.89603,-9.41717 z m -0.20057,11.25184 c 14.14042,0 27.11483,4.98486 37.26941,13.29691 l -14.14829,80.20029 -23.00518,-63.21636 -22.99134,63.21636 -14.17189,-80.37727 c 10.125,-8.18816 23.01289,-13.11993 37.04729,-13.11993 z m -46.70239,22.99134 15.11781,85.72985 c -16.44711,-10.4692 -27.37645,-28.82766 -27.37645,-49.7582 0,-13.53484 4.58568,-26.01765 12.25864,-35.97165 z m 46.81833,40.12669 18.8186,51.67152 c -5.94644,2.02148 -12.30583,3.11874 -18.93454,3.11874 -6.5521,0 -12.84275,-1.07563 -18.73413,-3.04991 z" />
  <g
     transform="translate(187.14703,-179.09702)"
     style="font-style:normal;font-variant:normal;font-weight:900;font-stretch:normal;font-size:24px;line-height:125%;font-family:'Source Sans Pro';-inkscape-font-specification:'Source Sans Pro Heavy';letter-spacing:0px;word-spacing:0px;fill:#ffffff;fill-opacity:1;stroke:none;stroke-width:1px;stroke-linecap:butt;stroke-linejoin:miter;stroke-opacity:1"
     id="flowRoot4210">
    <path
       d="m 479.5207,578.02953 8.6,0 0,-25.3 8.6,0 0,-7.2 -25.8,0 0,7.2 8.6,0 0,25.3 z"
       style="font-style:normal;font-variant:normal;font-weight:900;font-stretch:normal;font-size:50px;font-family:'Source Sans Pro';-inkscape-font-specification:'Source Sans Pro Heavy';letter-spacing:5px;fill:#ffffff"
       id="path4182" />
    <path
       d="m 506.54336,578.02953 8.6,0 0,-12.9 9.7,0 0,12.9 8.6,0 0,-32.5 -8.6,0 0,12.1 -9.7,0 0,-12.1 -8.6,0 0,32.5 z"
       style="font-style:normal;font-variant:normal;font-weight:900;font-stretch:normal;font-size:50px;font-family:'Source Sans Pro';-inkscape-font-specification:'Source Sans Pro Heavy';letter-spacing:5px;fill:#ffffff"
       id="path4184" />
  </g>
  <path
     inkscape:connector-curvature="0"
     id="path7153-4"
     style="display:inline;fill:#000000;fill-opacity:1;fill-rule:nonzero;stroke:none"
     d="M 550.00008,155.06396 87.11386,483.71925 550.00008,812.35381 1012.8862,483.71925 Z m 0,32.86396 L 966.58825,483.71925 550.00008,779.48982 133.41183,483.71925 Z" />
  <g
     transform="matrix(0.8150516,-0.57938839,0.57938839,0.8150516,546.38377,-236.62009)"
     style="font-style:normal;font-variant:normal;font-weight:normal;font-stretch:normal;font-size:24px;line-height:125%;font-family:Serif;-inkscape-font-specification:Serif;letter-spacing:0px;word-spacing:0px;fill:#000000;fill-opacity:1;stroke:none;stroke-width:1px;stroke-linecap:butt;stroke-linejoin:miter;stroke-opacity:1"
     id="flowRoot4224">
    <path
       d="m -556.22609,802.11701 1.84,-6.4 c 1.68,-5.52 3.2,-11.44 4.64,-17.28 l 0.32,0 c 1.52,5.76 3.04,11.76 4.72,17.28 l 1.84,6.4 -13.36,0 z m 19.52,21.44 9.76,0 -17.04,-52.32 -10.88,0 -17.04,52.32 9.44,0 4.08,-14.16 17.6,0 4.08,14.16 z"
       style="font-style:normal;font-variant:normal;font-weight:600;font-stretch:normal;font-size:80px;font-family:'Source Sans Pro';-inkscape-font-specification:'Source Sans Pro Semi-Bold';letter-spacing:10px"
       id="path4187" />
    <path
       d="m -512.07859,823.55701 6.66,0 0,-17.16 c 0,-4.38 -0.6,-9.12 -0.9,-13.26 l 0.24,0 4.02,8.34 12.24,22.08 7.14,0 0,-39.24 -6.66,0 0,17.04 c 0,4.38 0.6,9.36 0.9,13.38 l -0.24,0 -4.02,-8.34 -12.24,-22.08 -7.14,0 0,39.24 z"
       style="font-size:60px;letter-spacing:10px"
       id="path4189" />
    <path
       d="m -462.70359,823.55701 6.66,0 0,-17.16 c 0,-4.38 -0.6,-9.12 -0.9,-13.26 l 0.24,0 4.02,8.34 12.24,22.08 7.14,0 0,-39.24 -6.66,0 0,17.04 c 0,4.38 0.6,9.36 0.9,13.38 l -0.24,0 -4.02,-8.34 -12.24,-22.08 -7.14,0 0,39.24 z"
       style="font-size:60px;letter-spacing:10px"
       id="path4191" />
    <path
       d="m -413.32859,823.55701 6.96,0 0,-39.24 -6.96,0 0,39.24 z"
       style="font-size:60px;letter-spacing:10px"
       id="path4193" />
    <path
       d="m -379.43359,823.55701 8.22,0 12.18,-39.24 -7.14,0 -5.46,19.74 c -1.2,4.44 -2.1,8.28 -3.42,12.78 l -0.24,0 c -1.32,-4.5 -2.22,-8.34 -3.48,-12.78 l -5.52,-19.74 -7.38,0 12.24,39.24 z"
       style="font-size:60px;letter-spacing:10px"
       id="path4195" />
    <path
       d="m -344.34422,823.55701 24.24,0 0,-5.88 -17.28,0 0,-11.58 14.1,0 0,-5.88 -14.1,0 0,-10.02 16.68,0 0,-5.88 -23.64,0 0,39.24 z"
       style="font-size:60px;letter-spacing:10px"
       id="path4197" />
    <path
       d="m -295.15766,789.89701 5.58,0 c 5.34,0 8.28,1.56 8.28,6.06 0,4.44 -2.94,6.72 -8.28,6.72 l -5.58,0 0,-12.78 z m 22.26,33.66 -9.36,-16.38 c 4.68,-1.62 7.8,-5.22 7.8,-11.22 0,-8.76 -6.24,-11.64 -14.4,-11.64 l -13.26,0 0,39.24 6.96,0 0,-15.36 6,0 8.46,15.36 7.8,0 z"
       style="font-size:60px;letter-spacing:10px"
       id="path4199" />
    <path
       d="m -245.97016,824.27701 c 8.82,0 14.1,-5.28 14.1,-11.64 0,-5.7 -3.3,-8.64 -7.92,-10.62 l -5.34,-2.22 c -3.24,-1.32 -6.24,-2.46 -6.24,-5.52 0,-2.88 2.46,-4.62 6.18,-4.62 3.36,0 6,1.26 8.52,3.36 l 3.54,-4.44 c -3.06,-3.06 -7.5,-4.98 -12.06,-4.98 -7.68,0 -13.2,4.8 -13.2,11.04 0,5.76 4.08,8.82 7.92,10.44 l 5.4,2.34 c 3.54,1.5 6.06,2.52 6.06,5.76 0,3.06 -2.4,5.04 -6.84,5.04 -3.6,0 -7.38,-1.8 -10.2,-4.44 l -4.08,4.74 c 3.72,3.66 8.88,5.76 14.16,5.76 z"
       style="font-size:60px;letter-spacing:10px"
       id="path4201" />
    <path
       d="m -208.07484,807.47701 1.38,-4.8 c 1.26,-4.14 2.4,-8.58 3.48,-12.96 l 0.24,0 c 1.14,4.32 2.28,8.82 3.54,12.96 l 1.38,4.8 -10.02,0 z m 14.64,16.08 7.32,0 -12.78,-39.24 -8.16,0 -12.78,39.24 7.08,0 3.06,-10.62 13.2,0 3.06,10.62 z"
       style="font-size:60px;letter-spacing:10px"
       id="path4203" />
    <path
       d="m -164.25922,789.89701 5.58,0 c 5.34,0 8.28,1.56 8.28,6.06 0,4.44 -2.94,6.72 -8.28,6.72 l -5.58,0 0,-12.78 z m 22.26,33.66 -9.36,-16.38 c 4.68,-1.62 7.8,-5.22 7.8,-11.22 0,-8.76 -6.24,-11.64 -14.4,-11.64 l -13.26,0 0,39.24 6.96,0 0,-15.36 6,0 8.46,15.36 7.8,0 z"
       style="font-size:60px;letter-spacing:10px"
       id="path4205" />
    <path
       d="m -119.64016,823.55701 6.96,0 0,-14.58 11.82,-24.66 -7.26,0 -4.26,10.02 c -1.14,2.94 -2.34,5.64 -3.6,8.64 l -0.24,0 c -1.26,-3 -2.34,-5.7 -3.48,-8.64 l -4.26,-10.02 -7.44,0 11.76,24.66 0,14.58 z"
       style="font-size:60px;letter-spacing:10px"
       id="path4207" />
  </g>
  <path
     inkscape:connector-curvature="0"
     style="fill:#000000"
     d="m 550.37072,212.24406 c -0.0202,0.018 -0.0374,0.0783 -0.0691,0.19263 -0.0389,0.1384 -0.0738,0.2922 -0.074,0.34075 -5.6e-4,0.13749 -0.50557,1.60544 -0.7902,2.29153 -0.72109,1.73827 -2.5687,4.76265 -5.23497,8.57353 -0.89799,1.28354 -2.56379,3.81225 -3.11628,4.73122 -0.75727,1.25956 -1.50291,2.59256 -1.82237,3.25457 -0.32372,0.6708 -0.71483,1.52934 -0.80005,1.75817 -0.0468,0.12535 -0.14875,0.39047 -0.22716,0.5877 -0.58251,1.46835 -1.11777,3.44946 -1.26923,4.70653 -0.0202,0.17037 -0.0538,0.44146 -0.074,0.60254 -0.0564,0.45344 -0.17801,0.47376 -0.71611,0.1186 -1.09577,-0.72363 -2.91098,-1.52276 -4.26206,-1.88162 -1.47553,-0.39189 -3.71684,-0.51603 -5.22016,-0.28644 -1.87273,0.28605 -3.87871,1.05405 -5.3782,2.05941 -1.33373,0.89426 -3.02328,2.69727 -3.87685,4.13366 -1.07449,1.80812 -1.7161,3.66674 -2.04952,5.96096 -0.13436,0.92421 -0.2489,2.52914 -0.2075,2.88912 0.018,0.16766 0.0563,0.55456 0.079,0.85931 0.0842,1.09454 0.412,2.62522 0.70129,3.26938 0.11882,0.26432 0.3704,1.05947 0.3704,1.17047 0,0.0434 0.0392,0.12647 0.0889,0.18273 0.0499,0.0567 0.28922,0.48711 0.52842,0.95315 0.60665,1.18144 1.57788,2.60179 2.42981,3.55585 0.94526,1.05858 2.52567,2.41803 4.05958,3.49653 1.16098,0.81635 2.72488,1.77795 2.89405,1.77795 0.13345,0 0.12895,-0.10802 -0.0248,-0.99761 -0.9556,-5.53128 1.08276,-9.65263 4.98309,-10.07488 1.21948,-0.1321 2.91823,0.19894 3.97562,0.77536 1.29788,0.70739 2.63971,2.01524 3.43731,3.35335 0.78257,1.31291 1.41553,3.14016 1.70876,4.91894 0.16744,1.0158 0.18409,0.97181 -0.50867,1.37788 -0.21019,0.12309 -0.56475,0.41989 -0.78524,0.65682 -0.73005,0.78533 -1.00636,1.59986 -0.92847,2.71626 0.0781,1.11959 0.81091,2.12061 1.97051,2.69158 0.67786,0.33372 0.70685,0.3997 0.44449,0.91859 -0.20704,0.40931 -1.03048,1.25489 -1.47173,1.51121 -0.65348,0.37968 -0.93354,0.44931 -1.84705,0.45437 -0.96339,0.005 -1.32254,-0.0959 -1.98534,-0.54821 -0.66501,-0.45394 -1.04157,-0.94197 -1.41738,-1.83225 -0.16968,-0.40008 -0.17553,-0.45785 -0.17778,-1.66431 -0.002,-0.68717 -0.0272,-1.26687 -0.0543,-1.29392 -0.16113,-0.16113 -2.08195,1.16285 -3.07183,2.11868 -2.02407,1.95436 -3.03727,4.05626 -3.03727,6.29184 0,1.03325 0.0968,1.57075 0.44446,2.415 0.35271,0.85659 0.79693,1.53245 1.40753,2.14832 2.00071,2.0178 5.21979,2.84567 8.15865,2.094 1.49384,-0.3821 2.51726,-0.93776 3.93612,-2.12363 0.33977,-0.2841 0.60467,-0.4546 0.68152,-0.44449 0.0824,0.0135 0.22649,0.20884 0.42473,0.5729 0.16586,0.30473 0.43119,0.78983 0.5877,1.07663 0.37516,0.68724 1.57372,2.48204 2.16314,3.23977 1.26416,1.62523 2.74766,3.29105 3.58052,4.02499 l 0.51857,0.45929 0.21244,-0.10869 c 0.26833,-0.13728 2.25729,-2.12528 3.02246,-3.02244 1.6413,-1.92449 2.45443,-3.06403 3.58053,-5.00781 0.31916,-0.55089 0.61728,-1.01941 0.66177,-1.03709 0.0446,-0.018 0.29287,0.16901 0.55313,0.40989 1.38542,1.28278 2.84297,2.08547 4.54852,2.5039 0.75002,0.18386 2.27499,0.27831 3.04715,0.19263 2.09442,-0.23288 4.13769,-1.26351 5.24979,-2.64711 0.85784,-1.06732 1.38826,-2.42134 1.46184,-3.74843 0.12063,-2.16984 -0.90409,-4.49569 -2.92369,-6.64251 -0.85816,-0.91222 -2.87962,-2.34836 -3.05209,-2.16805 -0.0306,0.032 -0.0689,0.55605 -0.0839,1.16552 -0.0322,1.2646 -0.13526,1.70174 -0.56303,2.36065 -0.67438,1.0391 -1.69773,1.6367 -2.9138,1.69891 -0.67653,0.0346 -1.09781,-0.0574 -1.78778,-0.39509 -0.80645,-0.39481 -1.8714,-1.67492 -1.81249,-2.17794 0.0158,-0.14493 0.0758,-0.19849 0.33581,-0.29141 0.48912,-0.17441 0.99484,-0.50488 1.42236,-0.93339 1.54902,-1.55276 1.11084,-4.18813 -0.88403,-5.31398 -0.51526,-0.29085 -0.51501,-0.30082 -0.42472,-0.8939 0.1789,-1.17525 0.73659,-2.9901 1.26427,-4.10403 1.0865,-2.2936 3.03676,-4.13238 5.02755,-4.73617 0.90353,-0.27381 1.02974,-0.29883 1.73842,-0.36052 1.4296,-0.12423 2.83516,0.24476 3.88672,1.02724 1.32028,0.98238 2.15271,2.45827 2.44957,4.34109 0.2638,1.673 0.18341,3.365 -0.25682,5.43252 -0.0776,0.36845 -0.0738,0.41351 0.0202,0.4494 0.25421,0.0977 2.97945,-1.56164 4.82012,-2.93355 1.25255,-0.93359 2.57415,-2.226 3.41262,-3.33854 0.83791,-1.11174 0.95439,-1.30014 1.82237,-2.93354 0.7859,-1.47893 1.32738,-3.31995 1.50133,-5.10165 0.0722,-0.73878 0.0457,-3.09934 -0.0396,-3.60027 -0.0202,-0.12534 -0.0806,-0.51174 -0.13322,-0.85933 -0.35996,-2.36283 -1.33792,-4.71691 -2.71626,-6.53385 -1.57048,-2.07019 -3.00346,-3.23837 -5.1362,-4.19783 -0.79906,-0.35953 -1.88812,-0.71391 -2.78047,-0.9038 -0.78928,-0.16811 -0.93504,-0.18048 -2.56317,-0.18273 -1.77468,-0.002 -2.10682,0.0304 -3.29409,0.3309 -1.30488,0.33032 -3.0411,1.06392 -4.10896,1.73348 -0.59069,0.37048 -0.62746,0.35106 -0.72104,-0.43464 -0.16136,-1.35294 -0.23834,-1.79108 -0.4889,-2.80513 -0.2902,-1.17462 -0.43511,-1.61245 -0.97294,-2.96321 -0.78613,-1.9745 -1.64638,-3.68326 -2.84466,-5.635 -0.19601,-0.31907 -0.42191,-0.68781 -0.49878,-0.81979 -0.44039,-0.75298 -1.12746,-1.84064 -2.01004,-3.18052 -0.8532,-1.29531 -1.92697,-2.95184 -2.08906,-3.22495 -0.0263,-0.0443 -0.22865,-0.37238 -0.44941,-0.7309 -0.40695,-0.66123 -0.46657,-0.76387 -0.82475,-1.40259 -0.52645,-0.93871 -0.70054,-1.26685 -1.0964,-2.08412 -0.23447,-0.484 -0.45085,-0.94062 -0.48397,-1.01243 -0.20862,-0.45007 -0.77144,-2.14373 -0.91859,-2.77057 -0.0466,-0.19714 -0.11905,-0.41228 -0.16293,-0.47905 -0.0362,-0.0549 -0.0585,-0.0819 -0.079,-0.0641 z"
     id="path8" />
  <g
     transform="matrix(0.81430513,0.58043705,-0.58043705,0.81430513,1142.7659,218.78843)"
     style="font-style:normal;font-variant:normal;font-weight:normal;font-stretch:normal;font-size:24px;line-height:125%;font-family:Serif;-inkscape-font-specification:Serif;letter-spacing:0px;word-spacing:0px;fill:#000000;fill-opacity:1;stroke:none;stroke-width:1px;stroke-linecap:butt;stroke-linejoin:miter;stroke-opacity:1"
     id="flowRoot4224-9">
    <path
       d="m -568.04609,794.2014 19.15,0 0,-4.7 -6.25,0 0,-27.1 -4.3,0 c -2,1.2 -4.2,2 -7.35,2.6 l 0,3.6 5.85,0 0,20.9 -7.1,0 0,4.7 z"
       style="font-style:normal;font-variant:normal;font-weight:600;font-stretch:normal;font-size:50px;font-family:'Source Sans Pro';-inkscape-font-specification:'Source Sans Pro Semi-Bold';letter-spacing:10px"
       id="path4210" />
    <path
       d="m -523.8625,777.9014 c -3.2,0 -5.05,-1.95 -5.05,-5.7 0,-3.85 2.15,-6 4.75,-6 3.1,0 5.4,2.4 6,8 -1.75,2.65 -3.9,3.7 -5.7,3.7 z m -9.85,13.3 c 1.9,2 4.7,3.6 8.5,3.6 6.55,0 12.5,-5.15 12.5,-17.5 0,-10.7 -5.3,-15.5 -11.5,-15.5 -5.45,0 -10,4.05 -10,10.4 0,6.65 3.8,9.85 9.25,9.85 2.3,0 5.1,-1.4 6.95,-3.7 -0.25,8.8 -3.5,11.75 -7.5,11.75 -1.95,0 -3.9,-1 -5.1,-2.4 l -3.1,3.5 z"
       style="font-style:normal;font-variant:normal;font-weight:600;font-stretch:normal;font-size:50px;font-family:'Source Sans Pro';-inkscape-font-specification:'Source Sans Pro Semi-Bold';letter-spacing:10px"
       id="path4212" />
    <path
       d="m -498.47891,794.2014 21.5,0 0,-4.9 -7.8,0 c -1.55,0 -3.65,0.2 -5.3,0.35 6.3,-6.65 11.55,-12.45 11.55,-18.1 0,-5.9 -3.95,-9.75 -10.05,-9.75 -4.35,0 -7.25,1.8 -10.15,4.9 l 3.2,3.2 c 1.7,-1.9 3.75,-3.55 6.2,-3.55 3.4,0 5.25,2.15 5.25,5.5 0,4.85 -5.55,10.45 -14.4,19 l 0,3.35 z"
       style="font-style:normal;font-variant:normal;font-weight:600;font-stretch:normal;font-size:50px;font-family:'Source Sans Pro';-inkscape-font-specification:'Source Sans Pro Semi-Bold';letter-spacing:10px"
       id="path4214" />
    <path
       d="m -458.09531,781.5514 5.8,-8.85 c 0.9,-1.7 1.8,-3.3 2.6,-4.95 l 0.2,0 c -0.1,1.85 -0.25,4.75 -0.25,6.6 l 0,7.2 -8.35,0 z m 17.75,0 -4,0 0,-19.15 -6.85,0 -12.6,19.7 0,3.9 14.05,0 0,8.2 5.4,0 0,-8.2 4,0 0,-4.45 z"
       style="font-style:normal;font-variant:normal;font-weight:600;font-stretch:normal;font-size:50px;font-family:'Source Sans Pro';-inkscape-font-specification:'Source Sans Pro Semi-Bold';letter-spacing:10px"
       id="path4216" />
    <path
       d="m -426.91172,783.5014 19.8,0 0,-3.8 -19.8,0 0,3.8 z"
       style="font-style:normal;font-variant:normal;font-weight:600;font-stretch:normal;font-size:50px;font-family:'Source Sans Pro';-inkscape-font-specification:'Source Sans Pro Semi-Bold';letter-spacing:10px"
       id="path4218" />
    <path
       d="m -393.08828,794.2014 21.5,0 0,-4.9 -7.8,0 c -1.55,0 -3.65,0.2 -5.3,0.35 6.3,-6.65 11.55,-12.45 11.55,-18.1 0,-5.9 -3.95,-9.75 -10.05,-9.75 -4.35,0 -7.25,1.8 -10.15,4.9 l 3.2,3.2 c 1.7,-1.9 3.75,-3.55 6.2,-3.55 3.4,0 5.25,2.15 5.25,5.5 0,4.85 -5.55,10.45 -14.4,19 l 0,3.35 z"
       style="font-style:normal;font-variant:normal;font-weight:600;font-stretch:normal;font-size:50px;font-family:'Source Sans Pro';-inkscape-font-specification:'Source Sans Pro Semi-Bold';letter-spacing:10px"
       id="path4220" />
    <path
       d="m -346.50469,794.8014 c 6.6,0 10.8,-5.9 10.8,-16.65 0,-10.7 -4.2,-16.35 -10.8,-16.35 -6.6,0 -10.8,5.6 -10.8,16.35 0,10.75 4.2,16.65 10.8,16.65 z m 0,-4.5 c -3.05,0 -5.3,-3.15 -5.3,-12.15 0,-9 2.25,-11.85 5.3,-11.85 3.1,0 5.3,2.85 5.3,11.85 0,9 -2.2,12.15 -5.3,12.15 z"
       style="font-style:normal;font-variant:normal;font-weight:600;font-stretch:normal;font-size:50px;font-family:'Source Sans Pro';-inkscape-font-specification:'Source Sans Pro Semi-Bold';letter-spacing:10px"
       id="path4222" />
    <path
       d="m -319.92109,794.2014 19.15,0 0,-4.7 -6.25,0 0,-27.1 -4.3,0 c -2,1.2 -4.2,2 -7.35,2.6 l 0,3.6 5.85,0 0,20.9 -7.1,0 0,4.7 z"
       style="font-style:normal;font-variant:normal;font-weight:600;font-stretch:normal;font-size:50px;font-family:'Source Sans Pro';-inkscape-font-specification:'Source Sans Pro Semi-Bold';letter-spacing:10px"
       id="path4224" />
    <path
       d="m -275.7375,777.9014 c -3.2,0 -5.05,-1.95 -5.05,-5.7 0,-3.85 2.15,-6 4.75,-6 3.1,0 5.4,2.4 6,8 -1.75,2.65 -3.9,3.7 -5.7,3.7 z m -9.85,13.3 c 1.9,2 4.7,3.6 8.5,3.6 6.55,0 12.5,-5.15 12.5,-17.5 0,-10.7 -5.3,-15.5 -11.5,-15.5 -5.45,0 -10,4.05 -10,10.4 0,6.65 3.8,9.85 9.25,9.85 2.3,0 5.1,-1.4 6.95,-3.7 -0.25,8.8 -3.5,11.75 -7.5,11.75 -1.95,0 -3.9,-1 -5.1,-2.4 l -3.1,3.5 z"
       style="font-style:normal;font-variant:normal;font-weight:600;font-stretch:normal;font-size:50px;font-family:'Source Sans Pro';-inkscape-font-specification:'Source Sans Pro Semi-Bold';letter-spacing:10px"
       id="path4226" />
  </g>
  <g
     transform="translate(46.732422,139.70889)"
     style="font-style:normal;font-variant:normal;font-weight:normal;font-stretch:normal;font-size:24px;line-height:125%;font-family:Serif;-inkscape-font-specification:Serif;letter-spacing:0px;word-spacing:0px;fill:#000000;fill-opacity:1;stroke:none;stroke-width:1px;stroke-linecap:butt;stroke-linejoin:miter;stroke-opacity:1"
     id="flowRoot4356">
    <path
       d="m 16.900391,783.72715 c 10.625,0 19.625,-4.125 26.375,-12 l -9.75,-11.5 c -4,4.25 -9.25,7.625 -15.875,7.625 -12.0000004,0 -19.7500004,-9.75 -19.7500004,-26.5 0,-16.375 8.875,-26.25 20.0000004,-26.25 5.875,0 10.25,2.75 14.375,6.5 l 9.75,-11.75 c -5.5,-5.625 -14,-10.625 -24.5,-10.625 -20.6250004,0 -38.5,15.75 -38.5,42.75 0,27.375 17.2499996,41.75 37.875,41.75 z"
       style="font-style:normal;font-variant:normal;font-weight:bold;font-stretch:normal;font-size:125px;font-family:'Source Sans Pro';-inkscape-font-specification:'Source Sans Pro Bold'"
       id="path4229" />
    <path
       d="m 69.779297,783.72715 c 7,0 12.75,-3.25 18,-7.875 l 0.5,0 1.25,6.375 15.000003,0 0,-35.5 c 0,-19 -8.750003,-28 -24.625003,-28 -9.75,0 -18.625,3.375 -26.5,8.125 l 6.625,12.125 c 6,-3.5 11.125,-5.625 16.375,-5.625 6.75,0 9.375,3.5 9.75,9 -24.5,2.5 -34.875,9.625 -34.875,22.625 0,10.5 7.125,18.75 18.5,18.75 z m 6.25,-14.25 c -4.375,0 -7.125,-1.875 -7.125,-5.875 0,-4.75 4.25,-8.5 17.25,-10.25 l 0,10.875 c -3.25,3.25 -6,5.25 -10.125,5.25 z"
       style="font-style:normal;font-variant:normal;font-weight:bold;font-stretch:normal;font-size:125px;font-family:'Source Sans Pro';-inkscape-font-specification:'Source Sans Pro Bold'"
       id="path4231" />
    <path
       d="m 120.07227,782.22715 18.375,0 0,-41.875 c 3.875,-4 7.5,-6 10.5,-6 5.25,0 7.625,2.75 7.625,11.75 l 0,36.125 18.375,0 0,-41.875 c 4,-4 7.5,-6 10.625,-6 5.25,0 7.625,2.75 7.625,11.75 l 0,36.125 18.375,0 0,-38.5 c 0,-15.5 -6,-25 -19.375,-25 -8.25,0 -14,4.75 -19.5,10.375 -3.125,-6.625 -8.375,-10.375 -17.125,-10.375 -8.125,0 -13.625,4.375 -18.75,9.5 l -0.5,0 -1.25,-8 -15,0 0,62 z"
       style="font-style:normal;font-variant:normal;font-weight:bold;font-stretch:normal;font-size:125px;font-family:'Source Sans Pro';-inkscape-font-specification:'Source Sans Pro Bold'"
       id="path4233" />
    <path
       d="m 227.25,805.22715 18.375,0 0,-18.125 -0.625,-9.875 c 4.375,4.125 9.375,6.5 14.75,6.5 13.375,0 26.125,-12.25 26.125,-33.5 0,-19.125 -9.25,-31.5 -24.25,-31.5 -6.5,0 -12.75,3.25 -17.625,7.625 l -0.5,0 -1.25,-6.125 -15,0 0,85 z m 28.25,-36.5 c -3.125,0 -6.625,-1 -9.875,-4 l 0,-25.375 c 3.625,-3.875 6.875,-5.625 10.625,-5.625 7.375,0 10.75,5.625 10.75,16.75 0,12.75 -5.125,18.25 -11.5,18.25 z"
       style="font-style:normal;font-variant:normal;font-weight:bold;font-stretch:normal;font-size:125px;font-family:'Source Sans Pro';-inkscape-font-specification:'Source Sans Pro Bold'"
       id="path4235" />
    <path
       d="m 332.43555,782.22715 22.75,0 7.625,-37 c 1.375,-6.25 2.375,-12.875 3.375,-18.875 l 0.5,0 c 0.875,6 1.875,12.625 3.25,18.875 l 8,37 23.125,0 14.5,-81.5 -17.625,0 -5.625,38.125 c -1.125,8.375 -2.25,17 -3.375,25.75 l -0.5,0 c -1.625,-8.75 -3.25,-17.5 -4.875,-25.75 l -8.75,-38.125 -15.625,0 -8.75,38.125 c -1.625,8.5 -3.25,17.125 -4.875,25.75 l -0.5,0 c -1,-8.625 -2.25,-17.25 -3.25,-25.75 l -5.625,-38.125 -18.875,0 15.125,81.5 z"
       style="font-style:normal;font-variant:normal;font-weight:bold;font-stretch:normal;font-size:125px;font-family:'Source Sans Pro';-inkscape-font-specification:'Source Sans Pro Bold'"
       id="path4237" />
    <path
       d="m 451.87305,783.72715 c 15.625,0 30.125,-11.875 30.125,-32.5 0,-20.625 -14.5,-32.5 -30.125,-32.5 -15.75,0 -30.25,11.875 -30.25,32.5 0,20.625 14.5,32.5 30.25,32.5 z m 0,-14.875 c -7.625,0 -11.375,-6.875 -11.375,-17.625 0,-10.75 3.75,-17.625 11.375,-17.625 7.5,0 11.375,6.875 11.375,17.625 0,10.75 -3.875,17.625 -11.375,17.625 z"
       style="font-style:normal;font-variant:normal;font-weight:bold;font-stretch:normal;font-size:125px;font-family:'Source Sans Pro';-inkscape-font-specification:'Source Sans Pro Bold'"
       id="path4239" />
    <path
       d="m 494.58398,782.22715 18.375,0 0,-36 c 3.25,-8.375 9,-11.375 13.625,-11.375 2.625,0 4.5,0.375 6.75,1 l 3,-15.875 c -1.75,-0.75 -3.875,-1.25 -7.375,-1.25 -6.375,0 -13.125,4 -17.625,12.375 l -0.5,0 -1.25,-10.875 -15,0 0,62 z"
       style="font-style:normal;font-variant:normal;font-weight:bold;font-stretch:normal;font-size:125px;font-family:'Source Sans Pro';-inkscape-font-specification:'Source Sans Pro Bold'"
       id="path4241" />
    <path
       d="m 544.38867,782.22715 17.875,0 0,-15.25 7.875,-8.875 14,24.125 19.875,0 -23.375,-36.5 21.75,-25.5 -20,0 -19.625,24.625 -0.5,0 0,-50.25 -17.875,0 0,87.625 z"
       style="font-style:normal;font-variant:normal;font-weight:bold;font-stretch:normal;font-size:125px;font-family:'Source Sans Pro';-inkscape-font-specification:'Source Sans Pro Bold'"
       id="path4243" />
    <path
       d="m 636.57422,783.72715 c 6.75,0 14.375,-2 20.5,-7.375 l -7.25,-12 c -3.25,2.5 -7.125,4.5 -11.125,4.5 -8,0 -13.875,-6.875 -13.875,-17.625 0,-10.75 5.625,-17.625 14.5,-17.625 2.875,0 5.375,1.125 8.375,3.625 l 8.625,-11.875 c -4.625,-3.875 -10.5,-6.625 -18.125,-6.625 -17.125,0 -32.25,11.875 -32.25,32.5 0,20.625 13.375,32.5 30.625,32.5 z"
       style="font-style:normal;font-variant:normal;font-weight:bold;font-stretch:normal;font-size:125px;font-family:'Source Sans Pro';-inkscape-font-specification:'Source Sans Pro Bold'"
       id="path4245" />
    <path
       d="m 691.13086,783.72715 c 15.625,0 30.125,-11.875 30.125,-32.5 0,-20.625 -14.5,-32.5 -30.125,-32.5 -15.75,0 -30.25,11.875 -30.25,32.5 0,20.625 14.5,32.5 30.25,32.5 z m 0,-14.875 c -7.625,0 -11.375,-6.875 -11.375,-17.625 0,-10.75 3.75,-17.625 11.375,-17.625 7.5,0 11.375,6.875 11.375,17.625 0,10.75 -3.875,17.625 -11.375,17.625 z"
       style="font-style:normal;font-variant:normal;font-weight:bold;font-stretch:normal;font-size:125px;font-family:'Source Sans Pro';-inkscape-font-specification:'Source Sans Pro Bold'"
       id="path4247" />
    <path
       d="m 761.5918,783.72715 c 7.375,0 15.625,-2.625 22,-7 l -6.125,-11.125 c -4.5,2.75 -8.75,4.125 -13.375,4.125 -8.25,0 -14.5,-4.125 -16.125,-13.125 l 37.125,0 c 0.375,-1.5 0.75,-4.875 0.75,-8.125 0,-16.875 -8.75,-29.75 -26.375,-29.75 -14.875,0 -29.25,12.375 -29.25,32.5 0,20.5 13.625,32.5 31.375,32.5 z m -13.75,-39.25 c 1.25,-7.875 6.25,-11.75 12,-11.75 7.375,0 10.375,4.875 10.375,11.75 l -22.375,0 z"
       style="font-style:normal;font-variant:normal;font-weight:bold;font-stretch:normal;font-size:125px;font-family:'Source Sans Pro';-inkscape-font-specification:'Source Sans Pro Bold'"
       id="path4249" />
    <path
       d="m 798.53906,782.22715 18.375,0 0,-41.875 c 3.875,-4 7.5,-6 10.5,-6 5.25,0 7.625,2.75 7.625,11.75 l 0,36.125 18.375,0 0,-41.875 c 4,-4 7.5,-6 10.625,-6 5.25,0 7.625,2.75 7.625,11.75 l 0,36.125 18.375,0 0,-38.5 c 0,-15.5 -6,-25 -19.375,-25 -8.25,0 -14,4.75 -19.5,10.375 -3.125,-6.625 -8.375,-10.375 -17.125,-10.375 -8.125,0 -13.625,4.375 -18.75,9.5 l -0.5,0 -1.25,-8 -15,0 0,62 z"
       style="font-style:normal;font-variant:normal;font-weight:bold;font-stretch:normal;font-size:125px;font-family:'Source Sans Pro';-inkscape-font-specification:'Source Sans Pro Bold'"
       id="path4251" />
    <path
       d="m 921.3418,783.72715 c 7,0 12.75,-3.25 18,-7.875 l 0.5,0 1.25,6.375 15,0 0,-35.5 c 0,-19 -8.75,-28 -24.625,-28 -9.75,0 -18.625,3.375 -26.5,8.125 l 6.625,12.125 c 6,-3.5 11.125,-5.625 16.375,-5.625 6.75,0 9.375,3.5 9.75,9 -24.5,2.5 -34.875,9.625 -34.875,22.625 0,10.5 7.125,18.75 18.5,18.75 z m 6.25,-14.25 c -4.375,0 -7.125,-1.875 -7.125,-5.875 0,-4.75 4.25,-8.5 17.25,-10.25 l 0,10.875 c -3.25,3.25 -6,5.25 -10.125,5.25 z"
       style="font-style:normal;font-variant:normal;font-weight:bold;font-stretch:normal;font-size:125px;font-family:'Source Sans Pro';-inkscape-font-specification:'Source Sans Pro Bold'"
       id="path4253" />
    <path
       d="m 971.63477,782.22715 18.375,0 0,-41.875 c 4,-3.875 6.875,-6 11.50003,-6 5.25,0 7.625,2.75 7.625,11.75 l 0,36.125 18.375,0 0,-38.5 c 0,-15.5 -5.75,-25 -19.25,-25 -8.37503,0 -14.62503,4.375 -19.87503,9.375 l -0.5,0 -1.25,-7.875 -15,0 0,62 z"
       style="font-style:normal;font-variant:normal;font-weight:bold;font-stretch:normal;font-size:125px;font-family:'Source Sans Pro';-inkscape-font-specification:'Source Sans Pro Bold'"
       id="path4255" />
  </g>
</svg>
