<?xml version="1.0" encoding="UTF-8" standalone="no"?>
<svg
   xmlns:dc="http://purl.org/dc/elements/1.1/"
   xmlns:cc="http://creativecommons.org/ns#"
   xmlns:rdf="http://www.w3.org/1999/02/22-rdf-syntax-ns#"
   xmlns:svg="http://www.w3.org/2000/svg"
   xmlns="http://www.w3.org/2000/svg"
   id="svg18"
   version="1.1"
   viewBox="0 0 76.2 76.2"
   height="3in"
   width="3in">
  <metadata
     id="metadata24">
    <rdf:RDF>
      <cc:Work
         rdf:about="">
        <dc:format>image/svg+xml</dc:format>
        <dc:type
           rdf:resource="http://purl.org/dc/dcmitype/StillImage" />
        <dc:title></dc:title>
      </cc:Work>
    </rdf:RDF>
  </metadata>
  <defs
     id="defs22" />
  <path
     id="path2"
     fill="maroon"
     overflow="visible"
     color="#000"
     style="isolation:auto;mix-blend-mode:normal;solid-color:#000;solid-opacity:1;fill:#243e2c;fill-opacity:1"
     d="M76.2 38.1a38.1 38.1 0 01-38.1 38.1A38.1 38.1 0 010 38.1 38.1 38.1 0 0138.1 0a38.1 38.1 0 0138.1 38.1z" />
  <path
     id="path4"
     fill="navy"
     overflow="visible"
     color="#000"
     style="isolation:auto;mix-blend-mode:normal;solid-color:#000;solid-opacity:1;fill:#499f68;fill-opacity:1"
     d="M17.34 53.064a25.591 25.591 0 015.796-35.724 25.591 25.591 0 0135.724 5.796 25.591 25.591 0 01-5.796 35.724 25.591 25.591 0 01-35.724-5.796z" />
  <path
     id="path6"
     fill-rule="evenodd"
     fill="#fff"
     clip-rule="evenodd"
     d="M21.812 56.898s.267.024.412-.04c.119-.032.322-.185.468-.278.116-.062.231-.214.406-.277 0 0 .235-.065.474-.041-.636-.518-1.24-1.037-1.788-1.616v.03c-.208-.055-.472.012-.472.012-.177.034-.322.156-.438.247a3.303 3.303 0 01-.469.22c-.147.034-.445-.018-.445-.018a34.136 34.136 0 001.821 1.762zM24.405 58.87s.267-.037.413-.1c.116-.062.29-.214.406-.335.116-.092.2-.242.377-.335 0 0 .234-.095.47-.1a23.38 23.38 0 01-1.988-1.341v.03c-.207-.025-.441.04-.441.04-.206.065-.32.216-.408.307-.145.092-.348.245-.466.278-.147.063-.413.04-.413.04.635.546 1.328 1.031 2.02 1.516h.03zM27.228 60.486s.264-.067.412-.13c.086-.09.259-.272.344-.393.116-.121.171-.271.346-.393 0 0 .204-.124.44-.16a18.312 18.312 0 01-2.159-1.069h.03c-.236.035-.47.13-.47.13-.175.093-.26.242-.346.364-.117.091-.29.273-.406.335-.147.063-.412.099-.412.099.692.427 1.442.851 2.192 1.218zM30.247 61.71s.265-.065.38-.187c.088-.09.23-.272.316-.421.056-.12.11-.3.285-.422 0 0 .174-.153.409-.218a18.45 18.45 0 01-2.27-.8v.03a1.37 1.37 0 00-.41.157c-.174.124-.229.302-.315.423-.114.12-.258.302-.374.395-.116.091-.381.127-.381.127.748.366 1.526.671 2.332.947zM49.27 60.402s.112-.24.138-.389a3.681 3.681 0 00-.073-.53c-.033-.148-.125-.293-.13-.5 0 0 .053-.238.136-.447-.7.401-1.401.746-2.134 1.06-.113.18-.197.42-.197.42-.053.238-.02.325-.016.503.032.146-.02.415-.046.533-.026.149-.138.447-.138.447.764-.285 1.7-.694 2.461-1.068zM52.07 58.792s.111-.27.107-.447c-.033-.117-.097-.352-.161-.499-.062-.116-.154-.262-.16-.47 0 0-.006-.265.077-.474-.668.49-1.338.921-2.008 1.323h.029c-.114.21-.137.447-.137.447.006.206.098.352.132.5.033.146.097.381.101.53a2.045 2.045 0 01-.138.387c.73-.373 1.46-.806 2.159-1.297zM54.653 56.774s.052-.268.048-.416c-.032-.117-.157-.35-.22-.497-.062-.116-.213-.231-.248-.438 0 0-.006-.236.018-.474a29.447 29.447 0 01-1.796 1.585v-.03c-.054.238-.048.475-.048.475.005.206.128.351.19.468.062.146.158.38.161.5.004.146-.08.415-.08.415.7-.462 1.338-1.01 1.975-1.559zM56.962 54.466s.023-.267-.042-.412c-.032-.118-.184-.322-.278-.467-.061-.117-.212-.201-.276-.407 0 0-.065-.236-.042-.472a23.1 23.1 0 01-1.583 1.784c-.024.209.012.474.012.474.035.206.156.322.248.438.063.146.186.35.22.467.032.148-.02.445-.02.445a25.66 25.66 0 001.761-1.82v-.03zM58.937 51.872s-.007-.266-.099-.412c-.032-.116-.214-.29-.307-.406-.12-.115-.271-.2-.364-.375 0 0-.095-.235-.1-.471-.398.69-.855 1.352-1.342 1.986h.03a1.58 1.58 0 00.041.472c.063.177.215.29.306.407.092.115.245.319.307.435.034.148.04.414.04.414a25.566 25.566 0 001.489-2.02l-.001-.03zM60.552 49.05s-.066-.265-.13-.41a4.671 4.671 0 00-.392-.346c-.092-.086-.27-.171-.394-.345 0 0-.124-.204-.159-.44a18.164 18.164 0 01-1.07 2.157l.028-.03c.006.236.1.47.1.47.095.176.274.26.365.347.122.114.274.289.336.406.093.145.1.41.1.41.455-.692.85-1.441 1.217-2.19v-.03zM61.867 46.058s-.096-.264-.187-.38c-.062-.116-.273-.26-.394-.345-.12-.086-.27-.141-.393-.316 0 0-.153-.202-.188-.438-.277.776-.614 1.495-.95 2.213.034.206.159.44.159.44.093.175.272.229.363.345.12.086.303.259.365.376.091.116.13.41.13.41.394-.749.76-1.498 1.096-2.275v-.03zM62.615 42.903s-.124-.263-.217-.38c-.119-.056-.329-.17-.48-.254-.119-.056-.297-.08-.449-.196 0 0-.183-.203-.276-.407a26.783 26.783 0 01-.474 2.35c.064.205.247.408.247.408.122.144.3.17.42.255.151.085.362.199.452.284.093.117.188.38.188.38.247-.775.432-1.608.619-2.441zM63.036 39.666s-.153-.232-.274-.317a1.49 1.49 0 00-.508-.195c-.12-.056-.297-.051-.478-.166 0 0-.18-.143-.304-.347-.04.8-.079 1.6-.177 2.401v-.03c.093.205.275.378.275.378.182.144.36.14.479.195.15.056.36.17.48.254.12.086.246.349.246.349.127-.831.225-1.662.292-2.522zM63.043 36.412s-.183-.232-.333-.287a2.455 2.455 0 00-.506-.136c-.149-.025-.326.008-.506-.076 0 0-.21-.142-.362-.316.079.797.128 1.595.148 2.393v-.03c.124.204.335.347.335.347.15.115.327.11.477.136.149.025.387.109.507.164.12.086.275.319.275.319.037-.83.016-1.658-.035-2.514zM62.606 33.168s-.211-.172-.36-.227c-.12-.056-.386-.05-.536-.075-.148.004-.324.067-.503-.017 0 0-.239-.083-.391-.257a23.2 23.2 0 01.444 2.356v-.03c.151.175.361.287.361.287.21.114.387.08.507.076.178.026.416.078.534.135.121.056.334.258.334.258a23.874 23.874 0 00-.39-2.476zM61.728 30.024s-.211-.142-.36-.197c-.15-.026-.386.01-.533.013-.147.033-.323.097-.503.042 0 0-.238-.053-.449-.196.316.761.572 1.525.768 2.289v-.03c.181.144.42.226.42.226.18.085.356.02.504.017.148-.004.386.02.504.047.15.055.392.227.392.227a25.398 25.398 0 00-.714-2.439zM60.498 27.008s-.27-.112-.418-.137a1.82 1.82 0 00-.53.101c-.118.033-.294.126-.502.102 0 0-.237-.053-.447-.136.403.7.746 1.43 1.061 2.162v-.03c.18.114.419.167.419.167.208.055.382-.039.501-.042.177-.034.413-.07.532-.043.148.026.39.197.39.197a22.847 22.847 0 00-1.006-2.312zM58.858 24.205s-.27-.112-.417-.078a1.726 1.726 0 00-.529.132c-.117.062-.262.154-.469.16 0 0-.236.005-.475-.078.49.67.922 1.34 1.323 2.012.209.084.446.107.446.107.208.025.354-.097.501-.13.146-.034.382-.1.53-.103.149.026.389.138.389.138a18.164 18.164 0 00-1.3-2.16zM56.87 21.626s-.297-.052-.445-.019c-.117.003-.352.128-.469.19-.145.092-.26.213-.467.248 0 0-.235.035-.474-.018a22.31 22.31 0 011.586 1.795h-.03c.237.053.474.047.474.047.208-.005.352-.127.47-.189.145-.063.38-.128.498-.16.178-.005.446.077.446.077a24.461 24.461 0 00-1.59-1.971zM54.534 19.322s-.268-.023-.414.04c-.118.032-.321.185-.467.277-.116.062-.2.212-.407.276 0 0-.235.065-.473.042.635.515 1.24 1.032 1.787 1.609v-.03c.238.053.474-.012.474-.012.205-.034.32-.156.438-.247.145-.063.349-.187.467-.219.176-.034.445.018.445.018a34.668 34.668 0 00-1.82-1.755h-.03zM51.968 17.34s-.295.038-.442.101c-.117.062-.29.215-.406.335-.115.092-.2.242-.376.335 0 0-.234.095-.471.101.691.426 1.353.854 1.988 1.34l-.001-.029c.237.023.472-.042.472-.042.176-.064.29-.214.407-.306.116-.092.319-.245.437-.277.147-.063.413-.04.413-.04a20.968 20.968 0 00-2.02-1.517zM49.116 15.726s-.264.066-.381.128a2.372 2.372 0 00-.375.395c-.086.12-.17.27-.346.393 0 0-.204.123-.44.16.748.305 1.468.671 2.16 1.069h-.03c.236-.036.47-.13.47-.13.176-.093.26-.243.345-.364.117-.091.29-.274.406-.335.147-.063.412-.1.412-.1h.03c-.72-.426-1.47-.85-2.221-1.216h-.03zM46.127 14.5s-.295.067-.38.187c-.118.092-.26.274-.345.423-.056.12-.11.299-.256.42 0 0-.203.154-.41.218.777.218 1.524.495 2.241.802v-.03c.206-.035.44-.158.44-.158.144-.123.228-.302.315-.423a2.19 2.19 0 01.345-.393c.116-.092.41-.129.41-.129a23.084 23.084 0 00-2.361-.946zM42.97 13.662s-.265.126-.35.246c-.087.091-.2.301-.255.45-.056.12-.082.298-.226.45 0 0-.173.182-.378.276.773.128 1.576.285 2.351.502l-.03-.028c.205-.065.409-.218.409-.218.144-.151.199-.33.256-.45.085-.12.197-.33.314-.422.086-.12.38-.217.38-.217-.806-.246-1.64-.432-2.473-.618l.001.03zM39.733 13.241s-.233.154-.318.275c-.086.12-.14.358-.195.507-.057.12-.052.298-.166.478 0 0-.143.182-.347.305.83.038 1.6.078 2.402.176h-.03c.206-.093.379-.275.379-.275.143-.152.138-.329.195-.478.055-.15.167-.36.254-.48.086-.091.348-.246.348-.246a23.878 23.878 0 00-2.493-.262zM36.478 13.265s-.232.183-.288.303c-.055.12-.11.358-.135.506-.026.148.008.325-.076.505 0 0-.143.21-.317.363a21.75 21.75 0 012.395-.12v-.03c.174-.122.317-.333.317-.333.113-.151.109-.328.135-.476.056-.15.109-.388.194-.508.087-.12.29-.274.29-.274h.03a24.326 24.326 0 00-2.546.034l.001.03zM33.234 13.701s-.172.183-.228.332c-.026.119-.05.386-.045.534-.026.148.038.324-.046.504 0 0-.083.239-.257.39.795-.167 1.59-.336 2.356-.443.174-.153.288-.363.288-.363.083-.18.05-.356.075-.505a1.541 1.541 0 01.106-.535c.056-.12.257-.332.257-.332-.826.11-1.652.22-2.476.388zM30.09 14.55s-.143.211-.169.36c-.025.149-.02.385-.016.533.034.147.098.323.043.501 0 0-.053.268-.196.45.762-.315 1.525-.542 2.289-.769l-.03.001c.145-.18.257-.39.257-.39.054-.21-.01-.385-.012-.504a2.688 2.688 0 01.045-.534c.056-.149.229-.36.229-.36-.825.169-1.619.395-2.412.682zM27.105 15.81s-.143.24-.14.387c-.026.12.04.384.073.531.033.148.127.293.103.5 0 0-.025.238-.138.448.7-.402 1.432-.747 2.164-1.06h-.03c.113-.18.197-.42.197-.42.024-.207-.038-.353-.071-.5a1.527 1.527 0 01-.014-.532c-.003-.148.167-.39.167-.39a22.78 22.78 0 00-2.312 1.006zM24.275 17.42s-.082.268-.078.445c.003.118.098.353.132.5.061.116.184.262.19.468 0 0-.024.268-.078.476.64-.49 1.31-.92 2.011-1.323h-.029c.085-.209.108-.446.108-.446.024-.208-.068-.353-.102-.5-.063-.147-.127-.381-.102-.53-.004-.149.11-.387.11-.387a17.85 17.85 0 00-2.162 1.297zM21.69 19.438s-.053.267-.02.415c.033.117.127.352.22.497.063.117.183.232.217.438 0 0 .037.236-.017.474a18.628 18.628 0 011.825-1.585l-.028.031c.083-.239.047-.475.047-.475-.006-.207-.127-.351-.16-.47a5.168 5.168 0 01-.19-.497c-.003-.148.078-.416.078-.416-.669.46-1.337.98-1.973 1.559v.029zM19.413 21.744s-.023.267.01.414c.033.117.187.32.278.466.093.116.214.202.278.407 0 0 .065.235.042.473a23.304 23.304 0 011.615-1.787l-.03.001c.054-.209.018-.474.018-.474-.066-.205-.186-.32-.249-.438-.093-.145-.216-.349-.248-.466-.033-.148.018-.444.018-.444a25.328 25.328 0 00-1.733 1.818v.03zM17.437 24.338s.007.267.07.413c.062.117.214.29.336.406.09.116.241.2.334.376 0 0 .096.234.102.47a32.32 32.32 0 011.34-1.986 2.637 2.637 0 00-.07-.471c-.064-.176-.215-.291-.306-.407-.093-.116-.245-.32-.278-.437-.064-.146-.04-.413-.04-.413a21.073 21.073 0 00-1.519 2.021zM15.792 27.161s.066.265.158.381c.062.117.244.29.364.376.122.085.271.17.394.345 0 0 .124.204.159.44a36.49 36.49 0 011.07-2.158v.03c-.034-.236-.129-.47-.129-.47-.093-.175-.244-.26-.334-.347-.123-.116-.303-.288-.366-.405-.063-.146-.1-.412-.1-.412a26.202 26.202 0 00-1.217 2.19v.03zM14.566 30.151s.096.294.187.41c.092.086.303.229.423.314.12.057.3.111.42.256 0 0 .155.203.22.438.247-.775.493-1.55.8-2.268h-.03a1.728 1.728 0 00-.159-.44c-.121-.144-.301-.228-.392-.315-.15-.085-.331-.229-.393-.345-.093-.116-.16-.41-.16-.41a32.58 32.58 0 00-.916 2.36zM13.729 33.309s.124.263.245.348c.09.087.3.2.452.285.15.055.326.05.478.195 0 0 .153.174.246.378.13-.772.287-1.575.504-2.35l-.03.03c-.063-.205-.217-.408-.217-.408a1.183 1.183 0 00-.45-.255c-.121-.086-.33-.2-.423-.315-.12-.085-.216-.349-.216-.349a29.435 29.435 0 00-.59 2.44zM13.307 36.544s.154.233.304.318c.091.087.33.17.479.196.15.055.327.05.479.165 0 0 .21.142.333.347.01-.799.079-1.6.176-2.402l-.028.03c-.094-.204-.276-.377-.276-.377-.152-.144-.33-.14-.478-.194-.12-.057-.36-.17-.452-.255-.12-.086-.245-.35-.245-.35a17.7 17.7 0 00-.292 2.522zM13.333 39.8s.183.231.303.287c.12.056.387.109.536.135.118.026.295-.007.474.076 0 0 .24.143.362.317a21.791 21.791 0 01-.119-2.394c-.151-.174-.333-.317-.333-.317-.18-.114-.357-.11-.506-.135-.15-.055-.387-.109-.478-.196-.15-.055-.302-.287-.302-.287a23.84 23.84 0 00.034 2.514zM13.768 43.043s.211.172.361.227c.12.056.356.05.505.076.148-.004.325-.067.503.017 0 0 .24.083.421.256a23.76 23.76 0 01-.474-2.355c-.15-.144-.362-.287-.362-.287-.18-.084-.357-.05-.506-.076a1.392 1.392 0 01-.505-.105c-.15-.055-.332-.258-.332-.258.08.826.19 1.652.358 2.476zM14.616 46.187s.24.142.39.168c.119.026.356.02.533.016.117-.032.294-.096.502-.042 0 0 .238.053.42.196a34.145 34.145 0 01-.768-2.289v.03c-.151-.144-.391-.256-.391-.256-.209-.054-.355.009-.504.012a2.695 2.695 0 01-.533-.045c-.15-.055-.361-.228-.361-.228.198.824.425 1.617.682 2.409zM15.875 49.174s.24.142.39.138c.148.026.383-.04.53-.074.147-.033.293-.124.501-.1 0 0 .238.023.447.137-.403-.7-.746-1.431-1.032-2.164l.001.03a1.964 1.964 0 00-.447-.166c-.21-.054-.355.038-.503.042-.147.033-.413.04-.531.043-.15-.026-.39-.198-.39-.198a22.79 22.79 0 001.005 2.313zM17.516 52.002s.268.082.416.078c.118-.003.352-.097.5-.13.146-.063.292-.185.468-.19 0 0 .268.023.476.077a20.687 20.687 0 01-1.323-1.979c-.209-.083-.446-.106-.446-.106-.208-.024-.354.068-.501.13-.147.033-.381.1-.501.072-.148.004-.417-.107-.417-.107.403.729.836 1.458 1.297 2.156h.03zM19.504 54.585s.267.052.415.02c.117-.033.352-.128.497-.221.118-.062.233-.182.438-.218 0 0 .266-.036.474.019a23.353 23.353 0 01-1.555-1.826v.03c-.207-.054-.474-.047-.474-.047-.208.005-.322.126-.469.19-.146.033-.38.127-.499.16-.148.003-.416-.078-.416-.078a32.25 32.25 0 001.56 1.972h.029zM27.73 68.639c-.408.277-.64.49-.64.49l1.31 1.446.512-.812zM28.42 67.853c1.13-.975 2.107.242 2.107.242l-.837.85zM48.705 68.494c.392.286.634.487.634.487l-1.294 1.482-.525-.816zM48.006 67.738c-1.15-.98-2.096.26-2.096.26l.821.841zM45.784 65.313c-1.529-.76-2.298.413-2.298.413.928.42 1.693 1.436 1.693 1.436l.247.378-.03-.028s1.15-1.301 2.028-.525c-.366-.464-.702-.87-.885-1.072a6.615 6.615 0 00-.755-.602zM46.337 64.943c.861-1.057.446-2.29.282-2.877l-1.783.874c.031.088.31.584-.177 1.188 0 0 1.764.695 1.678.815zM35.805 66.156c-.177.036-.325.04-.503.044a2.294 2.294 0 01-.892-.156c-.217.775-1.967.642-1.967.642a4.518 4.518 0 002.367 1.123v-.03s.97-.231.964-1.651zM42.83 65.476c0 .03 1.183-1.154 1.962-.819l-.182-.144a4.14 4.14 0 00-2.388-.797c-.74.02-2.035.259-2.32.74 0 0 1.13.207 1.858.9.06.057.356-.01 1.07.12zM31.886 66.819a4.07 4.07 0 00-.55.456l-.347.335h.029s-1.158-1.304-2.026-.511c.345-.453.658-.904.86-1.088.173-.211.405-.425.754-.61l-.116.061c.147-.062.264-.095.381-.157 0 0 .265 1.117 1.015 1.514zM40.969 65.581c-1.057-.83-2.097-.952-2.871-1.17l-1.512 1.105 1.85.574c.566.133.69.397 1.412.822 0 0 1.603-.987 1.12-1.33zM44.172 67.04c-.578.606-1.581.69-1.581.69-.68.048-1.333-.025-2.144-.478 0 0 1.308-.949 1.238-1.392.326.051 1.277.205 1.51.021 0 0 .345.79.977 1.159zM36.304 66.055l.03-.03.772.158c1.4.32 1.642.52 1.642.52s-1.53 1.518-2.93 1.198c0 0 1.016-.794.515-1.875zM46.077 61.666s.054-.179.08-.328c.027-.118.082-.298.049-.445-.004-.147-.126-.264-.072-.442 0 0 .137-.447.281-.629-.763.286-1.847.727-2.547 1.13-.175.093-.32.186-.32.186-.085.18-.11.327-.107.476.004.148-.02.385-.016.532.009.356-.304.837-.304.837.824-.17 1.877-.669 2.547-1.1zM41.598 61.246c.695-.609 1.28-.831 1.757-.725 1.61-.721 1.875-.787 1.875-.787-.64-.723-1.295-.825-2.418-.767-.502.042-2.025.642-2.254.974z" />
  <path
     id="path8"
     fill-rule="evenodd"
     fill="#fff"
     clip-rule="evenodd"
     d="M41.6 61.246s-1.3-.973-.926-1.427zM33.344 65.982c.176-.064.35-.217.408-.277h.03a2.606 2.606 0 01-1.059-2.044c-1.128-.12-1.397-1.385-1.397-1.385a3.63 3.63 0 00-.231 1.395c.022.858.279 1.68.74 2.349h.03s.862.155 1.48-.038zM31.634 61.587s.3 1.324 1.189 1.36c.164-.566.886-1.235 1.352-1.572l.172-.212c-.176-1.09.312-1.724.312-1.724l-.5.132a4.504 4.504 0 00-2.525 2.016zM35.667 59.562c.142-.21.411-.129.588-.163.973-.142 2.35.473 2.632 1.088l-.436.335c-.346.335-.878.408-.878.408l-.238-.083c-.299-.11-.774-.158-1.129-.149-.325.008-.712-.07-1.004.055-.395-.375.465-1.491.465-1.491zM40.103 63.03c-.146.063.81.364 2.282.12v-.03s.202-.212.259-.331c.026-.12.136-.419.133-.566.025-.149.054-.238.049-.445 0 0-.005-.178.079-.358-.175.094-1.056.412-1.056.412-.234.065-.412.099-.412.099a3.362 3.362 0 00-.317.303c-.088.063-.26.214-.434.396-.088.062-.525.34-.583.4zM36.738 63.292s-.119.003.013-.65c.026-.18.081-.3.137-.448.056-.12.11-.298.254-.48 0 0-.204.123 0 0l-.295.037a20.78 20.78 0 01-2.02-.244c-.206.005 0 0 0 0-.234.064-.583.31-.668.46-.056.12-.174.181-.26.273-.085.091-.286.362-.286.362.807.335 2.327.741 3.125.69zM41.105 61.584s-1.088-.86-.927-1.515c-1.157 1.095-1.616 1.639-2.592 1.663-.266.036-.06.002-.06.002-.114.151-.168.36-.224.509-.026.149-.08.298-.077.446-.019.414.013.532.013.532 1.097.03 1.008.063 2.007-.229 0 0 .675-.253 1.31-.92a8.11 8.11 0 00.55-.487zM37.176 64.198c-1.225-.411-2.884-.518-3.763-.141l.218.409.641.812.71-.078s.532-.013.95.184c.001 0 1.095-1.211 1.244-1.186zM48.346 68.325l-.153-.174-1.158 1.065.153.173zM28.02 68.425l1.151 1.035.144-.18-1.151-1.037z" />
  <path
     id="path10"
     fill="#fff"
     word-spacing="0"
     letter-spacing="0"
     font-family="Lato"
     font-weight="400"
     style="line-height:100%;-inkscape-font-specification:Lato"
     d="M11.032 49.298q-.04-.074-.008-.163l.197-.565q.695.158 1.274.606.576.443 1.017 1.276.382.72.446 1.44.06.723-.168 1.377-.233.657-.743 1.22-.51.564-1.267.965-.758.402-1.515.498-.758.096-1.44-.094-.684-.194-1.251-.666-.572-.47-.959-1.199-.379-.715-.44-1.384-.06-.668.112-1.292l.574.078q.062.003.12.033.05.027.09.102.044.084.02.253-.03.171-.038.427t.06.597q.062.344.29.775.275.519.686.852.405.336.913.468.504.128 1.087.041t1.2-.414q.626-.332 1.023-.77.394-.443.572-.932.17-.492.125-1.007-.047-.52-.308-1.01-.158-.3-.317-.52-.167-.224-.348-.386-.184-.166-.388-.28-.21-.115-.461-.204-.113-.042-.155-.121zM10.367 40.334l.164.776q.028.135-.022.232t-.145.16L8.72 42.574l.702 3.33 1.938.315q.1.012.19.085.092.072.12.202l.163.776-8.046-1.402-.214-1.015zm-1.73 5.443l-.584-2.77-2.773 1.8q-.122.086-.286.18-.166.09-.356.189.213.009.407.028.186.014.333.043zM7.974 34.565q.134-.047.283-.087l.287-.082q-.135-.07-.265-.145-.134-.075-.252-.16L3.72 30.965q-.113-.078-.13-.155-.017-.082 0-.219l.094-.75 7.525.936-.111.893-5.53-.688q-.11-.014-.236-.035-.125-.021-.255-.048l4.384 3.164q.221.15.19.397l-.018.147q-.03.247-.282.338l-5.049 2.049q.139 0 .27.012.133.006.243.02l5.53.688-.111.893-7.525-.937.093-.751q.017-.137.053-.207.035-.07.165-.123l4.955-2.023zM10.05 26.253l2.575 1.19-.429.928-6.883-3.182.94-2.032q.301-.653.677-1.063.373-.416.798-.604.426-.188.89-.16.468.024.953.248.48.222.801.574.321.353.458.813.14.455.08 1.01-.06.55-.35 1.174zm-.74-.342l.511-1.104q.184-.399.219-.75.036-.357-.056-.65-.094-.3-.31-.528-.215-.228-.532-.374-.658-.304-1.216-.067-.557.232-.939 1.059l-.51 1.104zM11.395 14.61l.651-.55q.105-.089.218-.094.118-.01.206.055l4.596 3.018q.12.085.25.19.135.101.275.218-.088-.161-.165-.31-.077-.157-.13-.293l-2.035-5.178q-.034-.09-.013-.204.021-.122.122-.207l.227-.191q.105-.09.214-.091.11-.002.21.051l4.758 2.882q.125.074.255.172.135.094.269.203-.085-.15-.163-.292t-.139-.27l-2.198-5.042q-.04-.09-.02-.205.025-.118.126-.203l.61-.516 3.083 7.321-.703.594-5.198-3.182q-.15-.087-.327-.223l.093.192q.045.087.076.165l2.254 5.665-.704.594zM31.646 7.157q.272.807.244 1.57-.03.758-.333 1.402-.303.643-.869 1.135-.562.485-1.355.751-.792.267-1.534.22-.743-.051-1.373-.381t-1.112-.916q-.483-.591-.755-1.399-.271-.807-.242-1.565.029-.763.331-1.407.302-.648.863-1.138.56-.49 1.353-.757.793-.266 1.536-.215.748.05 1.38.385.63.33 1.113.92.482.587.753 1.395zm-.998.335q-.222-.662-.58-1.128-.358-.466-.81-.716-.454-.255-.991-.292-.538-.037-1.12.159-.576.194-.982.548-.406.354-.619.833-.21.473-.213 1.06-.003.587.22 1.25.222.662.58 1.128.355.46.81.715.457.248.994.286.536.032 1.113-.162.582-.196.989-.545.406-.354.615-.827.208-.477.213-1.06.004-.587-.219-1.249zM35.888 7.392l.089 3.163-1.021.029-.213-7.58 2.142-.06q.72-.02 1.247.113.528.128.874.394.352.265.527.652.175.381.188.863.012.402-.106.754-.117.353-.352.64-.23.282-.574.493-.338.205-.775.313.205.121.348.313l2.296 2.947-.91.026q-.28.008-.419-.205l-2.044-2.653q-.093-.125-.2-.175-.103-.055-.32-.049zm-.02-.746l1.078-.03q.444-.013.78-.128.34-.12.563-.323.227-.207.335-.486.109-.278.1-.611-.02-.677-.473-1.009-.454-.33-1.343-.306l-1.121.032zM44.068 6.787l.376.087q.196.046.325.027.13-.024.256-.12l3.106-2.212q.134-.11.26-.135.125-.025.29.013l.845.197-3.554 2.526q-.131.1-.248.16-.111.055-.231.081.128.08.22.198.093.114.167.284l2.125 4.182-.866-.2q-.098-.024-.168-.05-.063-.032-.109-.07-.044-.042-.077-.088-.026-.05-.05-.11L44.87 8.033q-.073-.153-.18-.232-.105-.084-.347-.14l-.454-.106-.786 3.381-.995-.231 1.717-7.386.995.231zM54.37 13.73q.075.04.099.131l.152.58q-.666.256-1.396.207-.725-.046-1.556-.49-.718-.385-1.174-.947-.453-.566-.628-1.236-.173-.675-.065-1.427.109-.753.513-1.508.405-.756.98-1.259.575-.502 1.246-.725.677-.22 1.41-.145.737.07 1.465.46.714.381 1.138.902.423.52.628 1.135l-.52.255q-.053.032-.117.04-.057.006-.132-.035-.084-.045-.158-.198-.071-.158-.207-.375t-.383-.463q-.244-.25-.673-.48-.518-.278-1.044-.325-.525-.053-1.02.12-.49.176-.924.574-.435.397-.765 1.013-.334.625-.42 1.21-.08.587.046 1.093.133.503.458.905.33.404.82.667.298.16.553.254.263.093.503.125.246.036.478.016.24-.022.497-.088.117-.027.197.015zM63.08 18.743q-.607.597-1.305.906-.695.305-1.406.314-.711.009-1.401-.285-.682-.294-1.269-.89-.586-.596-.868-1.283-.279-.691-.258-1.402.02-.71.337-1.4.32-.694.928-1.291.607-.597 1.302-.902.698-.309 1.41-.318.714-.013 1.4.278.686.29 1.273.886.586.596.865 1.287.282.694.257 1.409-.02.71-.34 1.404-.317.69-.924 1.287zm-.738-.75q.498-.49.76-1.016.263-.526.29-1.042.03-.52-.171-1.019-.202-.5-.632-.937-.427-.434-.923-.644-.496-.21-1.02-.192-.516.019-1.046.272-.53.254-1.028.744t-.76 1.015q-.26.522-.29 1.042-.023.52.18 1.02.204.495.631.929.43.437.923.65.496.21 1.012.193.52-.022 1.047-.272.53-.254 1.027-.744zM70.31 23.723l-.736.396-1.728-3.21-2.218 1.194 1.4 2.6-.708.381-1.4-2.6-2.278 1.226 1.73 3.216-.739.391-2.214-4.114 6.677-3.594zM67.902 32.42q-.113.085-.243.168l-.25.164q.15.026.296.059.151.031.288.076l5.05 1.69q.13.041.17.11.04.073.065.208l.136.744-7.46 1.365-.161-.884 5.481-1.004q.11-.02.235-.037.126-.018.258-.031l-5.131-1.703q-.257-.076-.301-.321l-.027-.146q-.045-.244.167-.407l4.202-3.47q-.133.04-.262.07-.128.034-.237.054l-5.482 1.003-.162-.885 7.46-1.365.136.745q.025.135.012.213-.013.077-.12.167l-4.12 3.417zM64.847 45.743l.12-.785q.02-.136.1-.21.081-.073.192-.099l1.917-.426.51-3.364-1.704-.976q-.089-.046-.149-.146-.06-.1-.04-.23l.12-.785 7.042 4.135-.156 1.025zm3.529-4.49l-.425 2.798 3.229-.714q.145-.037.331-.068l.399-.052q-.196-.083-.37-.168-.17-.08-.298-.158zM70.904 51.055q-.03.062-.06.1-.026.041-.06.065-.031.027-.08.044-.045.02-.111.035l-7.046 1.482.247.096q.122.052.227.103l4.841 2.325-.39.811-6.834-3.283.222-.463q.053-.11.127-.167.073-.054.198-.082l7.046-1.482q-.124-.048-.24-.098-.117-.05-.213-.096l-4.87-2.339.39-.81 6.835 3.282-.23.477zM20.11 37.922q-.004-.05.034-.092l.242-.266q.346.252.56.635.213.38.26.944.04.487-.094.9-.138.413-.418.72-.284.307-.698.498-.414.19-.927.233-.512.043-.953-.083-.44-.126-.772-.392-.331-.268-.533-.662-.205-.394-.246-.888-.04-.484.084-.867t.367-.687l.298.179q.033.016.058.046.022.027.026.078.005.057-.049.144-.056.087-.121.227-.065.139-.108.343-.047.205-.023.496.03.351.177.632.145.281.393.474.249.19.59.279.342.09.76.054.424-.035.746-.183.322-.15.536-.379.21-.23.307-.526.096-.298.068-.63-.017-.202-.052-.362-.04-.162-.101-.294-.063-.135-.148-.246-.09-.114-.207-.222-.052-.05-.056-.103zM17.085 33.075l.512.076-.217 1.458 3.988.593-.09.606-3.988-.593-.218 1.46-.512-.076zM20.88 30.34l1.696.853-.276.548-4.064-2.045.578-1.148q.194-.386.414-.627.218-.242.457-.35.24-.11.494-.092.252.016.51.146.215.108.368.27.153.163.238.369.083.202.097.443.012.237-.055.498.122-.073.264-.094l2.21-.374-.245.488q-.076.15-.228.163l-1.983.324q-.092.014-.149.057-.058.038-.117.154zm-.4-.2l.29-.58q.12-.238.155-.448.033-.214-.01-.389-.045-.179-.162-.316-.116-.136-.294-.226-.363-.183-.668-.037-.304.145-.543.622l-.303.601zM24.62 27.782l-.364.496-3.664-2.697.365-.496zM21.77 23.919l.358-.339q.06-.056.125-.061.066-.005.128.024l3.137 1.45q.105.05.22.116.114.066.234.142-.073-.12-.135-.235-.06-.119-.104-.226l-1.276-3.211q-.023-.052-.015-.122.009-.074.067-.128l.357-.338 1.78 4.58-.402.379zM28.714 18.667l.25.435-1.897 1.09.753 1.31 1.536-.883.24.419-1.536.882.774 1.347 1.9-1.092.247.436-2.43 1.397-2.268-3.944zM31.827 20.283l.553 1.817-.586.178-1.326-4.352 1.23-.375q.413-.126.74-.132.326-.01.568.09.246.097.408.293.162.193.246.47.07.23.058.453-.011.223-.102.426-.089.2-.254.376-.163.173-.399.304.138.038.251.126L35.01 21.3l-.522.159q-.161.049-.275-.053l-1.604-1.21q-.073-.058-.143-.07-.068-.015-.193.022zm-.13-.428l.619-.188q.255-.078.43-.198.179-.124.275-.276.099-.156.117-.335.02-.178-.04-.37-.117-.388-.433-.508-.315-.12-.825.036l-.644.196zM37.664 17.258q-.025.05-.058.078-.03.024-.077.028-.054.004-.13-.044-.078-.048-.194-.102-.112-.058-.272-.1-.156-.042-.374-.025-.206.017-.36.086-.15.066-.25.17-.098.103-.141.237-.044.13-.032.28.014.19.116.309.105.116.264.192.162.077.36.128.201.048.41.101.21.054.41.127.204.07.366.191.166.12.273.307.11.185.132.467.024.298-.057.568-.08.268-.262.476-.178.209-.454.342-.273.133-.634.161-.443.035-.816-.095-.374-.133-.651-.385l.154-.305q.022-.037.055-.061.036-.029.08-.032.042-.003.095.027.057.028.127.073.07.046.16.099.09.053.203.096.114.041.256.065.142.021.316.007.219-.017.385-.09.166-.074.275-.19.111-.121.162-.278.052-.157.037-.344-.016-.206-.121-.328-.103-.126-.262-.202-.158-.077-.36-.122l-.408-.095q-.208-.05-.411-.12-.203-.07-.366-.194-.162-.124-.273-.32-.108-.198-.132-.499-.019-.24.055-.472.078-.232.241-.42.167-.189.418-.314.255-.125.593-.152.38-.03.7.066.323.096.578.305zM44.043 21.115q.05.012.077.062l.174.314q-.35.247-.781.327-.429.08-.978-.056-.474-.117-.822-.377-.347-.262-.548-.626-.2-.367-.249-.82-.048-.454.076-.953.124-.5.384-.876.26-.378.618-.606.36-.228.798-.293.439-.068.92.05.471.118.795.358.323.24.533.567l-.265.225q-.026.027-.062.04-.033.012-.082 0-.056-.014-.121-.092-.065-.082-.176-.188-.111-.106-.291-.212-.179-.11-.462-.18-.343-.085-.656-.035-.312.047-.575.221-.259.175-.453.47t-.295.702q-.102.413-.065.766.04.353.188.628.151.273.4.46.251.186.575.266.197.049.36.066.166.015.31 0 .149-.017.28-.062.137-.048.277-.125.064-.033.116-.02zM49.52 22.448q-.252.445-.604.739-.35.29-.76.413-.408.123-.854.067-.442-.056-.88-.303-.436-.247-.712-.597-.275-.352-.38-.766-.106-.413-.038-.863.07-.453.322-.898t.602-.736q.352-.293.76-.416.41-.125.854-.071.444.054.88.3.437.247.712.6.278.354.382.77.105.413.035.866-.068.45-.32.895zm-.55-.31q.205-.366.27-.712.065-.347-.005-.649-.069-.305-.267-.56-.2-.254-.52-.435-.318-.18-.638-.219-.321-.04-.62.058-.295.096-.559.33-.264.234-.47.599-.206.364-.27.71-.064.345.005.65.072.303.271.558.2.252.518.431.321.182.64.224.32.039.616-.057.296-.099.558-.33.264-.234.47-.599zM50.648 25.955q.197.203.42.297.223.093.452.083.232-.008.458-.116.228-.107.433-.306l1.986-1.924.427.44-1.986 1.924q-.283.274-.613.417-.328.146-.67.15-.336.003-.67-.141-.335-.145-.627-.446-.291-.3-.425-.64-.134-.338-.122-.677.014-.341.167-.667.156-.323.439-.597l1.985-1.925.427.44-1.984 1.923q-.205.199-.32.421-.114.225-.131.454-.015.231.069.46.088.227.285.43zM56.394 26.653q.02.037.027.065.011.027.01.052.002.024-.007.054-.006.029-.023.066l-1.791 3.931.134-.085q.068-.04.13-.073l2.847-1.511.253.477-4.019 2.133-.144-.272q-.035-.065-.036-.121 0-.054.031-.125l1.792-3.93q-.067.042-.133.08-.066.04-.122.069l-2.863 1.52-.253-.477 4.018-2.133.15.28zM55.94 35.794q.01.05-.022.096l-.203.296q-.378-.201-.642-.552-.263-.348-.387-.9-.107-.476-.03-.904.08-.427.316-.77.238-.343.623-.588.384-.246.886-.358.502-.113.955-.049.454.065.818.282.365.221.62.584.256.362.364.845.107.474.036.87-.07.397-.269.731l-.32-.136q-.035-.012-.064-.038-.025-.024-.036-.073-.012-.056.028-.15.044-.094.09-.24.045-.148.06-.356.018-.21-.046-.494-.077-.344-.262-.602-.181-.259-.454-.416-.272-.153-.623-.195-.35-.042-.76.05-.415.093-.714.284-.298.193-.479.448-.176.258-.231.563-.055.309.018.634.045.198.102.351.06.156.14.278.08.125.18.223.104.1.235.192.058.042.07.094zM55.072 37.674l-.027-.616 4.545-.203.027.616zM55.543 39.497l-.206 1.958-.514-.054.27-2.567 4.524.475-.064.61z" />
  <path
     id="path12"
     fill="#fff"
     word-spacing="0"
     letter-spacing="-.318"
     font-family="Lato"
     font-size="4.057"
     font-weight="400"
     style="line-height:100%;-inkscape-font-specification:Lato"
     d="M18.205 44.8l2.711-1.048.335.865q.096.25.117.448.02.201-.026.352-.045.152-.156.258-.11.105-.274.169-.1.039-.206.043-.104.006-.208-.027-.103-.031-.203-.104-.099-.07-.188-.184.056.32-.04.532-.098.21-.351.309-.172.067-.339.057-.166-.008-.316-.091-.149-.082-.274-.238-.124-.156-.212-.383zm1.377-.112l-.944.365.227.586q.06.158.14.257.08.1.172.147.095.048.197.048.104-.001.212-.043.21-.081.273-.278.065-.197-.05-.496zm.261-.101l.187.484q.06.156.138.256.079.102.168.152.09.053.189.056.1.002.203-.037.24-.093.294-.28.056-.186-.06-.49l-.194-.499zM21.9 49.102q-.283.162-.572.208-.287.045-.552-.021-.264-.066-.49-.243-.225-.175-.384-.454-.159-.278-.196-.56-.036-.284.041-.545.078-.261.263-.486.186-.226.47-.388.283-.162.57-.207.29-.046.554.02.266.066.492.24.226.175.385.454.159.278.195.561.036.285-.043.548-.077.261-.264.487-.184.224-.468.386zm-.2-.35q.233-.133.382-.302.149-.169.21-.358.061-.19.036-.394-.026-.205-.143-.41-.116-.202-.279-.328-.163-.127-.36-.171-.192-.044-.414-.002-.22.042-.453.175-.233.133-.381.302-.147.168-.21.357-.06.19-.033.396.027.203.143.406.117.204.278.332.163.126.357.17.195.043.414.002.221-.042.454-.175zM22.64 50.502l-.914.712-.242-.31.914-.713.724-1.915.212.272q.032.042.03.082 0 .039-.019.082l-.482 1.219q-.033.072-.065.133-.03.062-.064.117.062-.02.127-.035.067-.016.146-.031l1.299-.172q.038-.007.08.001.043.008.074.048l.213.274zM26.024 52.164q-.034.01-.061.007-.025-.003-.047-.024-.025-.024-.036-.08-.01-.058-.035-.136-.021-.078-.07-.171-.048-.092-.15-.187-.097-.09-.196-.132-.097-.043-.189-.045-.09-.001-.172.036-.08.036-.145.106-.083.089-.096.188-.009.1.024.208.034.109.095.224.065.116.13.237.065.122.117.248.055.126.068.255.015.13-.026.26-.04.133-.163.265-.13.14-.292.218-.16.078-.337.083-.175.006-.357-.066-.18-.071-.35-.229-.208-.193-.308-.425-.099-.233-.1-.473l.21-.06q.027-.004.053 0 .029.005.05.024.02.018.028.057.011.038.02.09l.023.12q.014.065.042.135.03.073.08.15.052.075.133.151.103.096.21.142.106.047.208.047.105 0 .2-.043.097-.043.178-.131.09-.097.102-.199.015-.102-.018-.21-.032-.108-.098-.222-.064-.116-.132-.234-.066-.12-.12-.245-.055-.126-.067-.256-.012-.13.032-.267.047-.136.178-.277.105-.113.246-.179.143-.064.302-.068.16-.003.328.062.169.065.328.213.178.166.27.358.095.193.107.404zM27.045 55.245q.026.02.03.055l.029.228q-.266.063-.541.007-.273-.055-.566-.266-.253-.183-.398-.42-.143-.238-.175-.502-.031-.265.048-.545.08-.28.272-.547.193-.266.437-.428.244-.161.51-.212.269-.049.544.017.276.065.533.25.251.182.386.401.134.22.18.463l-.21.07q-.022.01-.047.01-.022-.001-.048-.02-.03-.021-.05-.084-.02-.063-.06-.153-.04-.089-.121-.195-.08-.108-.231-.217-.183-.132-.38-.177-.197-.047-.394-.006-.195.042-.38.17-.186.13-.343.346-.16.22-.221.439-.06.219-.039.417.025.198.128.367.104.17.277.296.105.076.197.125.095.048.185.073.091.026.18.03.093.004.194-.008.046-.004.074.016zM30.522 56.145q-.148.291-.364.489-.216.195-.473.285-.258.09-.544.066-.284-.023-.57-.169-.285-.145-.471-.36-.186-.218-.265-.479-.078-.26-.047-.55.032-.291.18-.582t.364-.486q.216-.197.474-.287.258-.092.543-.07.284.022.57.168.285.145.47.362.188.219.266.481.079.261.047.552-.032.29-.18.58zm-.36-.183q.122-.238.154-.461.031-.223-.022-.414-.052-.193-.186-.35-.134-.157-.344-.264-.208-.105-.413-.121-.206-.016-.395.054-.185.07-.347.226-.162.157-.283.395-.122.239-.153.462-.03.22.021.414.055.191.19.348.134.156.342.261.21.107.415.125.205.016.391-.053.187-.072.347-.226.162-.157.284-.396zM31.876 57.801q.172.055.326.04.154-.016.28-.09.128-.075.222-.205.096-.129.151-.303l.533-1.684.374.118-.534 1.684q-.076.24-.218.42-.14.182-.331.287-.188.104-.42.125-.232.02-.487-.061-.256-.08-.434-.231-.178-.15-.274-.344-.095-.196-.108-.426-.01-.229.066-.468l.533-1.685.373.118-.532 1.683q-.055.174-.053.334.004.161.064.295.062.134.178.237.12.102.291.156zM36.238 56.11l-.055.325-.928-.156-.428 2.54-.386-.064.428-2.54-.93-.157.054-.327zM37.942 56.639q-.02.03-.043.044-.021.013-.052.012-.034-.002-.079-.039-.045-.036-.114-.08-.066-.046-.164-.086-.096-.039-.235-.046-.132-.007-.235.025-.101.03-.173.087-.07.058-.108.139-.039.08-.044.174-.006.122.05.206.056.082.15.143.097.062.218.11.124.047.251.098.13.052.25.114.124.061.217.151.095.09.147.217.055.126.046.307-.01.19-.082.355-.073.163-.205.28-.13.118-.316.18-.183.062-.414.05-.284-.014-.51-.126-.226-.115-.381-.298l.122-.18q.018-.022.04-.035.026-.015.054-.014.026.001.058.026.033.022.074.056.041.035.094.076.053.041.12.077.07.036.157.062.088.025.2.03.14.008.25-.026.112-.033.19-.098.081-.067.126-.162.046-.095.052-.215.006-.132-.05-.218-.055-.088-.15-.15-.094-.06-.218-.106l-.25-.093q-.128-.05-.251-.11-.123-.061-.216-.153t-.148-.224q-.052-.135-.042-.328.007-.154.073-.294.068-.141.187-.247.121-.106.29-.165.172-.058.389-.047.243.012.438.098.196.087.341.24zM42.148 57.25q.045.323-.02.608-.066.284-.226.504-.16.22-.41.365-.246.143-.563.186-.318.044-.594-.027-.276-.073-.49-.242-.213-.17-.352-.425-.14-.257-.184-.58-.045-.324.021-.608.065-.285.226-.505.16-.223.406-.367.246-.145.564-.188.317-.044.594.03.278.072.492.243.213.17.353.427.14.255.183.579zm-.4.054q-.036-.265-.137-.466t-.254-.328q-.152-.128-.352-.18-.2-.053-.433-.021-.231.031-.41.136-.177.104-.292.269-.113.163-.156.384-.044.22-.007.486.036.265.137.466.101.2.254.328.154.126.354.179.2.05.43.019.234-.032.412-.135.178-.104.291-.267.113-.164.156-.383.044-.221.008-.487zM44.058 55.187l.088.308-1.345.382.278.978 1.15-.327.087.308-1.149.327.342 1.202-.379.108-.795-2.796zM48.234 56.515l-.276.129q-.048.022-.088.012-.04-.01-.073-.04l-.543-.52-1.182.552.051.75q.005.039-.014.08-.02.04-.066.061l-.275.13-.179-3.126.36-.169zm-2.183-.17l.983-.46-.914-.878q-.043-.039-.092-.092l-.101-.116q.015.08.025.154.01.071.013.129zM49.476 54.459q.048.026.098.058l.097.06q-.015-.056-.027-.112-.013-.058-.02-.113l-.218-2.029q-.007-.052.01-.077.02-.025.062-.056l.238-.166 1.669 2.38-.283.198-1.226-1.749-.05-.076q-.027-.04-.053-.085l.228 2.06q.015.102-.064.156l-.046.033q-.078.055-.169.007l-1.88-.909q.035.04.066.08.032.04.056.075l1.227 1.748-.283.198-1.668-2.38.237-.166q.043-.03.072-.038.03-.008.078.015l1.85.888zM51.425 50.342l.224.23-1 .976.675.69.81-.79.215.22-.81.791.693.71 1.001-.978.223.23-1.281 1.252-2.032-2.08zM53.242 50.807l.95.755-.244.306-2.276-1.809.512-.643q.171-.216.34-.338.169-.123.332-.159.165-.037.321.007.155.043.3.158.12.096.195.217.074.122.1.262.026.137.003.29-.023.15-.1.304.087-.03.178-.025l1.432.055-.218.273q-.066.084-.163.072l-1.283-.055q-.06-.003-.1.015-.042.017-.094.082zm-.224-.178l.257-.324q.106-.134.156-.26.048-.13.044-.245-.005-.118-.06-.219-.055-.1-.155-.18-.203-.161-.412-.11-.21.051-.421.318l-.268.337zM55.719 49.477l-.217.33-2.427-1.6.216-.328zM56.585 46.726q.015-.029.05-.038l.222-.059q.099.255.081.535-.017.278-.186.597-.147.276-.362.45-.216.175-.473.243-.258.067-.547.027-.288-.041-.579-.195-.29-.155-.483-.374-.193-.22-.28-.477-.085-.26-.057-.54.026-.283.175-.563.145-.274.344-.437.2-.163.435-.242l.098.2q.013.02.016.044.002.022-.014.05-.017.033-.075.061-.061.028-.144.08-.083.053-.177.147-.096.094-.183.259-.106.199-.124.4-.02.202.048.391.068.188.22.354.153.166.39.292.24.127.464.16.225.03.419-.02.193-.05.346-.176.155-.127.255-.315.061-.114.097-.212.035-.101.047-.193.014-.094.006-.184-.009-.091-.034-.19-.011-.045.005-.075zM58.29 43.943l-.104.286q-.018.05-.054.071-.036.021-.08.023l-.752.017-.444 1.226.568.495q.03.024.045.066t-.002.09l-.104.286-2.338-2.082.135-.374zm-1.664 1.424l.37-1.02-1.268.026q-.057.003-.13 0-.071-.003-.153-.01.067.047.126.092.058.042.1.081z" />
  <path
     id="path14"
     fill="maroon"
     d="M38.097 27.671L23.404 38.103l14.693 10.431L52.79 38.103z" />
  <path
     id="path16"
     fill="#fff"
     d="M38.1 27.452L23.103 38.1 38.1 48.748 53.097 38.1zm0 1.065L51.597 38.1 38.1 47.683 24.603 38.1zm.017 3.584a5.998 5.998 0 00-3.014 11.193 5.997 5.997 0 008.191-2.197l-.832-.481a5.075 5.075 0 01-1.638 1.723l1.285-7.287c.304.4.55.846.725 1.327l.903-.33a6 6 0 00-2.639-3.143 5.964 5.964 0 00-2.982-.805zm-.017.962a5.01 5.01 0 013.185 1.136l-1.21 6.854-1.965-5.402-1.965 5.402-1.211-6.869a5.022 5.022 0 013.166-1.12zm-3.992 1.965l1.292 7.326a5.034 5.034 0 01-1.292-7.326zm4.002 3.429l1.608 4.416a5.025 5.025 0 01-3.22.006zM17.715 66.28a5.038 5.038 0 01-.355-.481 15.05 15.05 0 00-.185-.287c-.007-.008-.073.028-.149.08-.246.17-.404.217-.67.198-.406-.029-.666-.228-.761-.583-.039-.144-.036-.197.02-.378.053-.17.11-.254.296-.437.234-.23.352-.288.318-.156-.026.1.05.305.144.391a.365.365 0 00.404.068c.144-.06.286-.242.21-.268a.669.669 0 01-.145-.1c-.08-.068-.098-.113-.098-.252 0-.147.017-.185.122-.279.112-.1.12-.12.099-.26a1.483 1.483 0 00-.308-.65c-.294-.335-.785-.379-1.043-.095-.168.186-.241.49-.197.82.014.105.014.191.002.191-.013 0-.138-.08-.276-.177-.672-.472-.982-1.087-.888-1.764.064-.454.219-.755.532-1.03.421-.371 1.13-.429 1.634-.133l.15.087.077-.314c.1-.403.281-.758.726-1.42.439-.653.536-.819.619-1.053l.064-.184.103.262c.099.254.229.482.709 1.24.354.558.58 1.111.58 1.415 0 .052.007.094.015.094s.126-.053.263-.118c.23-.109.277-.118.612-.117.322 0 .389.012.589.104.15.069.293.175.428.316.59.619.594 1.6.009 2.298-.115.137-.78.628-.808.595-.005-.006.004-.1.019-.21.084-.597-.183-1.018-.644-1.015a.796.796 0 00-.599.281 1.106 1.106 0 00-.293.557l-.052.201.122.116c.101.097.122.142.122.272 0 .123-.022.176-.102.253-.056.054-.122.098-.145.098-.141 0 .1.28.268.311.258.049.45-.114.486-.411l.019-.16.168.127c.325.25.526.698.436.971-.119.357-.4.556-.785.556a.96.96 0 01-.651-.214l-.158-.12-.166.26c-.212.33-.555.713-.64.713-.037 0-.148-.094-.247-.21zM57.875 66.28a5.038 5.038 0 01-.355-.481 15.05 15.05 0 00-.185-.287c-.007-.008-.073.028-.149.08-.246.17-.404.217-.67.198-.406-.029-.666-.228-.761-.583-.039-.144-.036-.197.02-.378.053-.17.11-.254.296-.437.234-.23.352-.288.318-.156-.026.1.05.305.144.391a.365.365 0 00.404.068c.144-.06.286-.242.209-.268a.669.669 0 01-.144-.1c-.08-.068-.098-.113-.098-.252 0-.147.017-.185.122-.279.112-.1.12-.12.099-.26a1.483 1.483 0 00-.308-.65c-.294-.335-.785-.379-1.043-.095-.168.186-.241.49-.197.82.014.105.014.191.002.191-.013 0-.138-.08-.276-.177-.673-.472-.982-1.087-.888-1.764.064-.454.218-.755.532-1.03.421-.371 1.13-.429 1.634-.133l.15.087.077-.314c.1-.403.281-.758.726-1.42.439-.653.536-.819.619-1.053l.064-.184.102.262c.1.254.23.482.71 1.24.354.558.58 1.111.58 1.415 0 .052.007.094.015.094s.126-.053.263-.118c.23-.109.277-.118.612-.117.322 0 .389.012.589.104.15.069.293.175.428.316.59.619.594 1.6.009 2.298-.115.137-.78.628-.808.595-.005-.006.004-.1.019-.21.084-.597-.183-1.018-.644-1.015a.796.796 0 00-.599.281 1.106 1.106 0 00-.293.557l-.052.201.122.116c.101.097.122.142.122.272 0 .123-.022.176-.102.253-.056.054-.122.098-.145.098-.141 0 .1.28.267.311.259.049.451-.114.487-.411l.019-.16.168.127c.325.25.526.698.436.971-.119.357-.4.556-.786.556a.96.96 0 01-.65-.214l-.158-.12-.166.26c-.212.33-.555.713-.64.713-.037 0-.148-.094-.247-.21z" />
</svg>
