<svg xmlns="http://www.w3.org/2000/svg" width="384" height="384" viewBox="0 0 101.6 101.6"><defs><clipPath id="b" clipPathUnits="userSpaceOnUse"><circle cx="106.382" cy="145.999" r="48.513" style="color:#000;display:inline;overflow:visible;visibility:visible;fill:none;fill-opacity:1;stroke:#f4eed4;stroke-width:4.57385588;stroke-linecap:butt;stroke-linejoin:miter;stroke-miterlimit:4;stroke-dasharray:none;stroke-dashoffset:0;stroke-opacity:1;marker:none;enable-background:accumulate"/></clipPath><clipPath id="a" clipPathUnits="userSpaceOnUse"><circle cx="100.532" cy="139.952" r="48.513" style="color:#000;display:inline;overflow:visible;visibility:visible;fill:none;fill-opacity:1;stroke:#f4eed4;stroke-width:4.57385588;stroke-linecap:butt;stroke-linejoin:miter;stroke-miterlimit:4;stroke-dasharray:none;stroke-dashoffset:0;stroke-opacity:1;marker:none;enable-background:accumulate"/></clipPath></defs><g transform="translate(-2.54 -192.86)"><circle cx="53.34" cy="243.66" r="48.513" style="color:#000;display:inline;overflow:visible;visibility:visible;fill:#52493a;fill-opacity:1;stroke:#f4eed4;stroke-width:4.57385588;stroke-linecap:butt;stroke-linejoin:miter;stroke-miterlimit:4;stroke-dasharray:none;stroke-dashoffset:0;stroke-opacity:1;marker:none;enable-background:accumulate"/><circle cx="39.201" cy="229.262" r="7.818" style="color:#000;clip-rule:nonzero;display:inline;overflow:visible;visibility:visible;opacity:1;isolation:auto;mix-blend-mode:normal;color-interpolation:sRGB;color-interpolation-filters:linearRGB;solid-color:#000;solid-opacity:1;fill:#f4eed4;fill-opacity:1;fill-rule:nonzero;stroke:none;stroke-width:.26499999;stroke-linecap:round;stroke-linejoin:round;stroke-miterlimit:4;stroke-dasharray:none;stroke-dashoffset:0;stroke-opacity:1;color-rendering:auto;image-rendering:auto;shape-rendering:auto;text-rendering:auto;enable-background:accumulate"/><g clip-path="url(#a)" transform="translate(-47.192 103.708)"><path d="m60.76 178.089-8.505-36.097 7.909-.664c14.674.066 29.405 2.793 42.012 9.68 13.888 4.54 29.36-2.043 42.752 4.793 4.961 6.078 1.11 14.13 2.177 21.1.034.22.073.44.117.659v.529l-86.288-.006z" style="fill:#7c856a;fill-opacity:1;fill-rule:evenodd;stroke:none;stroke-width:.26458332px;stroke-linecap:butt;stroke-linejoin:miter;stroke-opacity:1"/><g transform="translate(36.087 1.748)"><path d="m34.794 125.452 5.059-6.22 5.059 6.22-5.06-1.112z" style="fill:#7c856a;fill-opacity:1;fill-rule:evenodd;stroke:#7c856a;stroke-width:.88180435;stroke-linecap:round;stroke-linejoin:round;stroke-miterlimit:4;stroke-dasharray:none;stroke-opacity:1"/><path d="m33.874 129.61 5.979-7.351 5.979 7.35-5.98-1.314z" style="fill:#7c856a;fill-opacity:1;fill-rule:evenodd;stroke:#7c856a;stroke-width:1.04213428;stroke-linecap:round;stroke-linejoin:round;stroke-miterlimit:4;stroke-dasharray:none;stroke-opacity:1"/><path d="m32.954 134.396 6.899-8.482 6.899 8.482-6.9-1.517z" style="fill:#7c856a;fill-opacity:1;fill-rule:evenodd;stroke:#7c856a;stroke-width:1.20246267;stroke-linecap:round;stroke-linejoin:round;stroke-miterlimit:4;stroke-dasharray:none;stroke-opacity:1"/><path d="m32.034 139.75 7.819-9.613 7.818 9.612-7.818-1.719z" style="fill:#7c856a;fill-opacity:1;fill-rule:evenodd;stroke:#7c856a;stroke-width:1.36279106;stroke-linecap:round;stroke-linejoin:round;stroke-miterlimit:4;stroke-dasharray:none;stroke-opacity:1"/><rect width="2.788" height="6.993" x="38.459" y="136.209" ry=".541" style="color:#000;clip-rule:nonzero;display:inline;overflow:visible;visibility:visible;opacity:1;isolation:auto;mix-blend-mode:normal;color-interpolation:sRGB;color-interpolation-filters:linearRGB;solid-color:#000;solid-opacity:1;fill:#7c856a;fill-opacity:1;fill-rule:nonzero;stroke:#7c856a;stroke-width:2;stroke-linecap:round;stroke-linejoin:round;stroke-miterlimit:4;stroke-dasharray:none;stroke-dashoffset:0;stroke-opacity:1;color-rendering:auto;image-rendering:auto;shape-rendering:auto;text-rendering:auto;enable-background:accumulate"/></g><g transform="matrix(.89995 0 0 .89995 56.54 19.15)"><path d="m34.794 125.452 5.059-6.22 5.059 6.22-5.06-1.112z" style="fill:#7c856a;fill-opacity:1;fill-rule:evenodd;stroke:#7c856a;stroke-width:.88180435;stroke-linecap:round;stroke-linejoin:round;stroke-miterlimit:4;stroke-dasharray:none;stroke-opacity:1"/><path d="m33.874 129.61 5.979-7.351 5.979 7.35-5.98-1.314z" style="fill:#7c856a;fill-opacity:1;fill-rule:evenodd;stroke:#7c856a;stroke-width:1.04213428;stroke-linecap:round;stroke-linejoin:round;stroke-miterlimit:4;stroke-dasharray:none;stroke-opacity:1"/><path d="m32.954 134.396 6.899-8.482 6.899 8.482-6.9-1.517z" style="fill:#7c856a;fill-opacity:1;fill-rule:evenodd;stroke:#7c856a;stroke-width:1.20246267;stroke-linecap:round;stroke-linejoin:round;stroke-miterlimit:4;stroke-dasharray:none;stroke-opacity:1"/><path d="m32.034 139.75 7.819-9.613 7.818 9.612-7.818-1.719z" style="fill:#7c856a;fill-opacity:1;fill-rule:evenodd;stroke:#7c856a;stroke-width:1.36279106;stroke-linecap:round;stroke-linejoin:round;stroke-miterlimit:4;stroke-dasharray:none;stroke-opacity:1"/><rect width="2.788" height="6.993" x="38.459" y="136.209" ry=".541" style="color:#000;clip-rule:nonzero;display:inline;overflow:visible;visibility:visible;opacity:1;isolation:auto;mix-blend-mode:normal;color-interpolation:sRGB;color-interpolation-filters:linearRGB;solid-color:#000;solid-opacity:1;fill:#7c856a;fill-opacity:1;fill-rule:nonzero;stroke:#7c856a;stroke-width:2;stroke-linecap:round;stroke-linejoin:round;stroke-miterlimit:4;stroke-dasharray:none;stroke-dashoffset:0;stroke-opacity:1;color-rendering:auto;image-rendering:auto;shape-rendering:auto;text-rendering:auto;enable-background:accumulate"/></g><g transform="matrix(.77203 0 0 .77203 76.915 43.118)"><path d="m34.794 125.452 5.059-6.22 5.059 6.22-5.06-1.112z" style="fill:#7c856a;fill-opacity:1;fill-rule:evenodd;stroke:#7c856a;stroke-width:.88180435;stroke-linecap:round;stroke-linejoin:round;stroke-miterlimit:4;stroke-dasharray:none;stroke-opacity:1"/><path d="m33.874 129.61 5.979-7.351 5.979 7.35-5.98-1.314z" style="fill:#7c856a;fill-opacity:1;fill-rule:evenodd;stroke:#7c856a;stroke-width:1.04213428;stroke-linecap:round;stroke-linejoin:round;stroke-miterlimit:4;stroke-dasharray:none;stroke-opacity:1"/><path d="m32.954 134.396 6.899-8.482 6.899 8.482-6.9-1.517z" style="fill:#7c856a;fill-opacity:1;fill-rule:evenodd;stroke:#7c856a;stroke-width:1.20246267;stroke-linecap:round;stroke-linejoin:round;stroke-miterlimit:4;stroke-dasharray:none;stroke-opacity:1"/><path d="m32.034 139.75 7.819-9.613 7.818 9.612-7.818-1.719z" style="fill:#7c856a;fill-opacity:1;fill-rule:evenodd;stroke:#7c856a;stroke-width:1.36279106;stroke-linecap:round;stroke-linejoin:round;stroke-miterlimit:4;stroke-dasharray:none;stroke-opacity:1"/><rect width="2.788" height="6.993" x="38.459" y="136.209" ry=".541" style="color:#000;clip-rule:nonzero;display:inline;overflow:visible;visibility:visible;opacity:1;isolation:auto;mix-blend-mode:normal;color-interpolation:sRGB;color-interpolation-filters:linearRGB;solid-color:#000;solid-opacity:1;fill:#7c856a;fill-opacity:1;fill-rule:nonzero;stroke:#7c856a;stroke-width:2;stroke-linecap:round;stroke-linejoin:round;stroke-miterlimit:4;stroke-dasharray:none;stroke-dashoffset:0;stroke-opacity:1;color-rendering:auto;image-rendering:auto;shape-rendering:auto;text-rendering:auto;enable-background:accumulate"/></g><g transform="translate(85.884 10.554)"><path d="m34.794 125.452 5.059-6.22 5.059 6.22-5.06-1.112z" style="fill:#7c856a;fill-opacity:1;fill-rule:evenodd;stroke:#7c856a;stroke-width:.88180435;stroke-linecap:round;stroke-linejoin:round;stroke-miterlimit:4;stroke-dasharray:none;stroke-opacity:1"/><path d="m33.874 129.61 5.979-7.351 5.979 7.35-5.98-1.314z" style="fill:#7c856a;fill-opacity:1;fill-rule:evenodd;stroke:#7c856a;stroke-width:1.04213428;stroke-linecap:round;stroke-linejoin:round;stroke-miterlimit:4;stroke-dasharray:none;stroke-opacity:1"/><path d="m32.954 134.396 6.899-8.482 6.899 8.482-6.9-1.517z" style="fill:#7c856a;fill-opacity:1;fill-rule:evenodd;stroke:#7c856a;stroke-width:1.20246267;stroke-linecap:round;stroke-linejoin:round;stroke-miterlimit:4;stroke-dasharray:none;stroke-opacity:1"/><path d="m32.034 139.75 7.819-9.613 7.818 9.612-7.818-1.719z" style="fill:#7c856a;fill-opacity:1;fill-rule:evenodd;stroke:#7c856a;stroke-width:1.36279106;stroke-linecap:round;stroke-linejoin:round;stroke-miterlimit:4;stroke-dasharray:none;stroke-opacity:1"/><rect width="2.788" height="6.993" x="38.459" y="136.209" ry=".541" style="color:#000;clip-rule:nonzero;display:inline;overflow:visible;visibility:visible;opacity:1;isolation:auto;mix-blend-mode:normal;color-interpolation:sRGB;color-interpolation-filters:linearRGB;solid-color:#000;solid-opacity:1;fill:#7c856a;fill-opacity:1;fill-rule:nonzero;stroke:#7c856a;stroke-width:2;stroke-linecap:round;stroke-linejoin:round;stroke-miterlimit:4;stroke-dasharray:none;stroke-dashoffset:0;stroke-opacity:1;color-rendering:auto;image-rendering:auto;shape-rendering:auto;text-rendering:auto;enable-background:accumulate"/></g></g><ellipse cx="108.479" cy="186.763" clip-path="url(#b)" rx="81.265" ry="18.237" style="color:#000;clip-rule:nonzero;display:inline;overflow:visible;visibility:visible;opacity:1;isolation:auto;mix-blend-mode:normal;color-interpolation:sRGB;color-interpolation-filters:linearRGB;solid-color:#000;solid-opacity:1;fill:#52493a;fill-opacity:1;fill-rule:nonzero;stroke:none;stroke-width:1.86699998;stroke-linecap:round;stroke-linejoin:round;stroke-miterlimit:4;stroke-dasharray:none;stroke-dashoffset:0;stroke-opacity:1;color-rendering:auto;image-rendering:auto;shape-rendering:auto;text-rendering:auto;enable-background:accumulate" transform="translate(-53.042 97.66)"/><path d="M91.607 172.62c7.216-.368 11.425-3.308 11.425-3.308l-4.777-6.448-2.238.134z" style="fill:#7c856a;fill-opacity:1;fill-rule:evenodd;stroke:#7c856a;stroke-width:.26499999;stroke-linecap:round;stroke-linejoin:round;stroke-miterlimit:4;stroke-dasharray:none;stroke-opacity:1" transform="translate(-52.078 97.555)"/><path d="m83.338 175.326 6.064 1.804c.998-.53 1.898-3.276 2.338-5.145-2.268-.25-4.855-.51-6.147-.618-.434 1.737-2.255 3.959-2.255 3.959z" style="fill:#f4eed4;fill-opacity:1;fill-rule:evenodd;stroke:#f4eed4;stroke-width:.26499999;stroke-linecap:round;stroke-linejoin:round;stroke-miterlimit:4;stroke-dasharray:none;stroke-opacity:1" transform="matrix(2.24004 0 0 2.24004 -159.599 -125.53)"/><path d="M91.74 171.985c2.189 3.073 2.756 3.207 2.756 3.207l-.534.568c-1.13-1.182-1.236-1.64-2.222-3.775" style="fill:#f4eed4;fill-opacity:1;fill-rule:evenodd;stroke:#f4eed4;stroke-width:.26458332px;stroke-linecap:round;stroke-linejoin:round;stroke-opacity:1" transform="matrix(2.24004 0 0 2.24004 -159.599 -125.53)"/><path d="M76.178 269.413c-.185-.413.323-.697.55-.31.488.016.848-.463 1.362-.395a2.106 2.106 0 0 1 1.577.429c.43.436.005 1.18-.536 1.27-.451.28-.994.214-1.494.26-.39-.032-.799-.266-.877-.678-.047-.364-.337-.402-.582-.576" style="fill:#f4eed4;fill-opacity:1;fill-rule:evenodd;stroke:#7c856a;stroke-width:.58519125;stroke-linecap:round;stroke-linejoin:round;stroke-miterlimit:4;stroke-dasharray:none;stroke-opacity:1"/><path d="M73.217 270.282c.672-.165 1.28-.519 1.818-.945.353-.257.81-.164 1.143.076.393.176.82.434.983.85-.14.313-.547.453-.819.668-.387.232-.843.105-1.251.25-.339.251-.723.368-1.021-.028-.403-.176-.309-.692-.697-.832" style="fill:#f4eed4;fill-opacity:1;fill-rule:evenodd;stroke:#7c856a;stroke-width:.58519125;stroke-linecap:round;stroke-linejoin:round;stroke-miterlimit:4;stroke-dasharray:none;stroke-opacity:1"/><path d="M74.976 273.059c-.473-2.452 1.907-4.586 1.076-7.037-1.107-1.138-2.216-3.045-.62-4.315 1.17-1.215 3.246-1.391 3.913-3.105.876-2.007.49-4.267 1-6.361.222-1.815.203-4.014 1.808-5.229 1.608-.57 1.671-1.498 2.37-3.14.84-1.385 3.594-.92 5.28-1.672 2.664-1.186 4.628-4.335 7.543-4.43 1.337-.044 3.056.019 3.587 1.801 4.107 13.774-6.583 3.802-6.509 3.924.763 1.714.145 3.644-.176 5.395-.635 2.785-1.014 5.705-2.356 8.261a3.875 3.875 0 0 1-3.575 2.023c-1.838.161-3.511.3-5.227 1.08-1.25 2.805-3.54 5.252-3.543 8.454-.677 1.547-.205 3.455-1.306 4.84-1.014.477-2.357-.192-3.287-.147l-.025-.174.047-.168z" style="fill:#f4eed4;fill-opacity:1;fill-rule:evenodd;stroke:none;stroke-width:.26458332px;stroke-linecap:butt;stroke-linejoin:miter;stroke-opacity:1"/><path d="M81.12 273.214c-.511-.499-.751-1.175-.99-1.81-.32-.244-.487-.83.119-.754.588-.108 1.215-.354 1.792-.055.604.204 1.002.711 1.212 1.294.228.432.267 1.04-.177 1.35-.419.35-.938.055-1.355-.128-.211-.053-.391.129-.601.103z" style="fill:#f4eed4;fill-opacity:1;fill-rule:evenodd;stroke:#7c856a;stroke-width:.58519125;stroke-linecap:round;stroke-linejoin:round;stroke-miterlimit:4;stroke-dasharray:none;stroke-opacity:1"/><path d="M79.667 269.137c-.199-.612.597-.352.929-.341.514.077 1.15.25 1.347.795.232.298.62.512.657.926-.211.321-.721.097-1.053.154-.416-.084-.783.22-1.196.138-.35-.083-.796-.234-.843-.652-.046-.357.165-.672.159-1.02z" style="fill:#f4eed4;fill-opacity:1;fill-rule:evenodd;stroke:#7c856a;stroke-width:.58519125;stroke-linecap:round;stroke-linejoin:round;stroke-miterlimit:4;stroke-dasharray:none;stroke-opacity:1"/><path d="M76.812 273.752c.805 1.637 3.679 1.094 3.857-.711.306-1.28.577-2.58.85-3.872.373-1.511.86-3.175 2.218-4.096 1.774-1.343 8.922-5.458 11.456-9.796 1.175-2.012.02-4.944 1.348-6.858.978-1.408 4.653-1.931 4.382-2.691-.261-.736.699-4.166-.89-4.81-1.2-.486-3.888.384-5.278 1.585-3.577 3.09-2.59 9.58-6.008 12.845-.913.872-2.747.299-3.503 1.446-1.164 1.42-1.792 3.445-3.617 4.195-1.66 1.062-1.876 3.188-2.165 4.96-.166 1.29-.503 2.56-1.119 3.713-.542 1.158-1.259 2.286-1.485 3.555.019.111-.225 1.161-.046.535z" style="fill:#7c856a;fill-opacity:1;fill-rule:evenodd;stroke:none;stroke-width:.26458332px;stroke-linecap:butt;stroke-linejoin:miter;stroke-opacity:1"/><path d="M75.88 273.62c-.618.041-1.25-.237-1.852-.006-.328.152-.585.451-.718.783-.151.503.186 1.025.627 1.254.262.14.558.177.801.357.661.344 1.402.513 2.143.556.511.164.993-.156 1.455-.327.282-.135.652 0 .885-.236.238-.26.091-.629-.04-.901-.16-.34-.469-.562-.768-.77-.506-.365-1.043-.718-1.652-.881a1.523 1.523 0 0 0-.88.17z" style="fill:#f4eed4;fill-opacity:1;fill-rule:evenodd;stroke:#7c856a;stroke-width:.58499998;stroke-linecap:round;stroke-linejoin:round;stroke-miterlimit:4;stroke-dasharray:none;stroke-opacity:1"/><path d="M78.847 274.505c.3.047.522-.204.727-.38.375-.286.893-.347 1.207-.719.22-.214.544-.257.838-.271a.727.727 0 0 1 .543.237c.164.137.328.335.287.563.043.268-.073.528-.209.75-.095.24-.25.47-.245.737-.039.218-.155.513-.427.478-.266.03-.498.232-.775.183-.294.008-.587.054-.881.029-.26-.01-.516-.05-.773-.083.063.05.217.063.131-.052.044-.202.226-.413.1-.62-.158-.228-.464-.35-.522-.644-.007-.07.006-.139 0-.208zM73.022 274.456c-.526-.059-.633-.697-.955-1.06-.252-.53-.553-1.139-.42-1.736.194-.655.809-1.008 1.394-1.265.698-.353 1.062.45 1.334.937.507.43.658 1.085.601 1.727.114.745-.682 1.064-1.214 1.344z" style="fill:#f4eed4;fill-opacity:1;fill-rule:evenodd;stroke:#7c856a;stroke-width:.58519125;stroke-linecap:round;stroke-linejoin:round;stroke-miterlimit:4;stroke-dasharray:none;stroke-opacity:1"/><path d="M85.954 253.801a5.038 5.038 0 0 1-.355-.48 15.05 15.05 0 0 0-.185-.287c-.007-.008-.074.028-.149.08-.246.17-.404.216-.67.197-.406-.029-.666-.228-.761-.583-.039-.143-.036-.197.02-.377.053-.17.11-.254.296-.437.234-.23.352-.29.318-.157-.026.1.05.306.144.391a.365.365 0 0 0 .404.069c.144-.06.286-.243.209-.268a.669.669 0 0 1-.145-.1c-.08-.068-.097-.114-.097-.253 0-.146.017-.184.122-.278.111-.1.12-.121.099-.26a1.483 1.483 0 0 0-.309-.651c-.293-.334-.784-.379-1.042-.094-.168.185-.241.49-.197.82.014.105.014.19.002.19-.013 0-.138-.08-.276-.176-.673-.473-.982-1.087-.888-1.764.064-.455.218-.755.532-1.031.421-.371 1.13-.429 1.634-.133l.15.088.077-.315c.1-.402.281-.758.726-1.42.438-.653.536-.819.618-1.053l.065-.184.102.262c.1.254.23.482.71 1.24.354.559.58 1.111.58 1.415 0 .052.006.094.015.094.008 0 .126-.053.263-.118.23-.108.277-.117.612-.117.322 0 .389.012.589.104.15.069.293.175.428.316.59.62.594 1.601.009 2.299-.115.137-.781.627-.808.595-.005-.006.004-.1.019-.21.084-.598-.183-1.018-.644-1.016a.796.796 0 0 0-.599.282 1.106 1.106 0 0 0-.293.556l-.053.201.122.117c.102.096.122.142.122.271 0 .123-.02.176-.101.253-.056.054-.122.098-.146.098-.14 0 .1.28.268.311.259.049.451-.114.487-.41l.019-.162.168.129c.325.249.526.697.435.97-.118.357-.399.556-.785.556a.96.96 0 0 1-.65-.214l-.158-.12-.166.26c-.212.331-.555.713-.64.713-.037 0-.148-.094-.247-.209z" style="fill:#52493a;fill-opacity:1;stroke-width:.03630511"/><circle cx="243.66" cy="-53.34" r="48.513" style="color:#000;display:inline;overflow:visible;visibility:visible;fill:none;fill-opacity:1;stroke:#f4eed4;stroke-width:4.57385588;stroke-linecap:butt;stroke-linejoin:miter;stroke-miterlimit:4;stroke-dasharray:none;stroke-dashoffset:0;stroke-opacity:1;marker:none;enable-background:accumulate" transform="rotate(90)"/><path d="m64.006 212.201-16.43 11.665 16.43 11.664 16.429-11.664zm0 1.166 14.785 10.499-14.785 10.498-14.786-10.498zm.018 3.927a6.572 6.572 0 0 0-3.302 12.262 6.57 6.57 0 0 0 8.974-2.407l-.912-.527a5.56 5.56 0 0 1-1.794 1.887l1.408-7.982c.333.437.601.927.793 1.453l.99-.361a6.569 6.569 0 0 0-2.89-3.443 6.538 6.538 0 0 0-3.267-.882zm-.018 1.053a5.49 5.49 0 0 1 3.489 1.245L66.17 227.1l-2.154-5.918-2.152 5.918-1.327-7.524a5.499 5.499 0 0 1 3.469-1.229zm-4.373 2.153 1.416 8.026a5.514 5.514 0 0 1-1.416-8.026zm4.383 3.756 1.762 4.838a5.507 5.507 0 0 1-3.527.006z" style="display:inline;fill:#f4eed4;fill-opacity:1;fill-rule:nonzero;stroke:none;stroke-width:.14727646"/><g aria-label="CAMP WORKCOEMAN" style="font-style:normal;font-weight:400;font-size:10.58333302px;line-height:125%;font-family:sans-serif;text-align:center;letter-spacing:0;word-spacing:0;text-anchor:middle;fill:#f4eed4;fill-opacity:1;stroke:none;stroke-width:.26458332px;stroke-linecap:butt;stroke-linejoin:miter;stroke-opacity:1"><path d="M17.215 239.161c.087-.825-.149-1.595-.72-2.202l-1.155.771c.266.307.48.727.427 1.218-.088.825-.814 1.304-2.012 1.177-1.16-.123-1.778-.845-1.699-1.591.046-.432.276-.726.584-1.011l-.986-.999c-.5.404-.966 1.05-1.056 1.895-.17 1.61.89 3.213 3.032 3.44 2.18.232 3.411-1.067 3.585-2.698zM15.672 232.782l-.393-.234c-.54-.33-1.23-.707-1.814-1.03l.012-.037c.66.036 1.453.113 2.084.141l.457.026zm3.088-.947.526-1.72-6.712-.005-.6 1.965 5.568 3.747.508-1.663-1.211-.7.525-1.72zM19.878 228.688l.739-1.33-1.658-.92c-.57-.317-1.51-.68-2.109-.923l.02-.035 1.596.3 2.24.34.441-.794-1.472-1.723-1.088-1.214.019-.035c.523.381 1.328.987 1.898 1.303l1.657.921.749-1.347-5.613-3.118-.882 1.589 1.845 2.088c.254.276.551.554.822.84l-.02.035c-.385-.08-.779-.185-1.147-.254l-2.767-.43-.883 1.59zM24.33 221.367l1.118-1.28-1.532-1.339.455-.52c.884-1.012 1.177-2.382-.005-3.416-1.22-1.066-2.4-.497-3.323.559l-1.547 1.77zm-1.425-3.503-1.28-1.118.378-.432c.429-.49.84-.63 1.27-.253.432.377.477.836.035 1.342zM32.6 213.47l1.828-1.06-.868-2.443c-.162-.477-.37-.973-.548-1.418l.035-.02c.289.38.625.802.958 1.18l1.705 1.957 1.863-1.08-2.297-6.09-1.402.813 1.1 2.605c.267.599.54 1.228.822 1.853l-.034.02c-.444-.53-.894-1.07-1.318-1.566l-1.937-2.12-1.23.714.877 2.734c.229.632.468 1.281.703 1.922l-.035.02c-.396-.547-.801-1.088-1.198-1.635l-1.715-2.248-1.504.871zM42.601 208.872c1.7-.523 2.485-2.068 1.862-4.088-.62-2.01-2.123-2.798-3.822-2.274-1.7.524-2.502 2.011-1.88 4.031.623 2.02 2.141 2.855 3.84 2.331zm-.43-1.397c-.736.227-1.405-.332-1.748-1.446-.343-1.113-.088-1.895.648-2.122.736-.227 1.387.275 1.73 1.39.344 1.113.106 1.951-.63 2.178zM48.736 202.315l.61-.057c.669-.062 1.04.082 1.09.633.052.55-.275.879-.943.941l-.61.057zm4.11 4.717-1.618-2.35c.589-.392.946-1.03.861-1.945-.148-1.593-1.372-1.955-2.75-1.827l-2.419.225.595 6.393 1.692-.157-.2-2.145.65-.06 1.3 2.042zM54.843 207.109l1.69.17.162-1.591.697-.803 1.166 2.6 1.848.187-1.896-4.024 2.17-2.402-1.848-.187-1.853 2.215-.04-.004.242-2.378-1.69-.171zM64.501 208.996c.796.237 1.596.145 2.297-.306l-.548-1.276c-.35.205-.802.338-1.275.198-.796-.237-1.134-1.038-.791-2.193.332-1.118 1.154-1.595 1.874-1.38.416.123.663.403.887.758l1.162-.788c-.306-.565-.856-1.141-1.67-1.383-1.553-.462-3.323.29-3.936 2.354-.625 2.102.429 3.549 2 4.016zM70.344 211.471c1.572.832 3.22.297 4.209-1.571.984-1.86.479-3.48-1.092-4.312-1.571-.832-3.191-.349-4.18 1.52-.99 1.867-.508 3.531 1.063 4.363zm.685-1.292c-.681-.36-.758-1.228-.212-2.258.545-1.03 1.279-1.402 1.96-1.041.68.36.785 1.176.24 2.206-.546 1.03-1.307 1.454-1.988 1.093zM74.838 214.073l3.29 2.686.9-1.101-1.974-1.612.725-.888 1.622 1.325.9-1.102-1.623-1.324.638-.78 1.897 1.549.9-1.102-3.214-2.624zM79.771 218.277l.957 1.182 1.474-1.193c.507-.41 1.195-1.146 1.645-1.611l.024.03-.874 1.37-1.153 1.95.572.706 2.148-.722 1.533-.555.025.03c-.55.343-1.411.863-1.918 1.274l-1.474 1.193.97 1.198 4.99-4.04-1.144-1.413-2.627.932c-.35.131-.72.303-1.086.447l-.025-.03c.217-.329.462-.654.664-.97l1.433-2.406-1.144-1.412zM87.997 225.333l.445-.105c.618-.138 1.376-.347 2.02-.52l.018.035c-.5.433-1.124.928-1.598 1.347l-.346.299zm-1.564 2.826.817 1.602 4.832-4.66-.934-1.83-6.608 1.174.79 1.55 1.358-.338.816 1.601zM87.821 231.328l.435 1.56 1.789-.498c.76-.212 1.618-.594 2.301-.866l.01.038-1.215.974-2.387 2.141.466 1.675 6.185-1.722-.434-1.56-1.79.498c-.76.212-1.656.604-2.3.866l-.012-.038 1.226-.977 2.378-2.138-.466-1.675z" style="font-style:normal;font-variant:normal;font-weight:900;font-stretch:normal;font-size:9.8777771px;font-family:&quot;Source Sans Pro&quot;;-inkscape-font-specification:&quot;Source Sans Pro Heavy&quot;;text-align:center;letter-spacing:3.4395833px;text-anchor:middle;fill:#f4eed4;fill-opacity:1;stroke-width:.26458332px"/></g><circle cx="-243.66" cy="-53.34" r="48.513" style="color:#000;display:inline;overflow:visible;visibility:visible;fill:none;fill-opacity:1;stroke:#f4eed4;stroke-width:4.57385588;stroke-linecap:butt;stroke-linejoin:miter;stroke-miterlimit:4;stroke-dasharray:none;stroke-dashoffset:0;stroke-opacity:1;marker:none;enable-background:accumulate" transform="matrix(0 -1 -1 0 0 0)"/><g aria-label="CT RIVERS COUNCIL" style="font-style:normal;font-weight:400;font-size:8.46666622px;line-height:80.00000119%;font-family:sans-serif;text-align:center;letter-spacing:0;word-spacing:0;text-anchor:middle;fill:#f4eed4;fill-opacity:1;stroke:none;stroke-width:.26458332px;stroke-linecap:butt;stroke-linejoin:miter;stroke-opacity:1"><path d="M12.332 258.533a2.083 2.083 0 0 0 1.244 1.3l.474-.807c-.331-.147-.637-.386-.773-.774-.246-.704.167-1.358 1.149-1.701.96-.336 1.72-.018 1.948.634.12.344.049.657-.086.976l.888.33a2.14 2.14 0 0 0 .12-1.654c-.422-1.208-1.712-1.933-3.294-1.38-1.604.562-2.093 1.868-1.67 3.076zM13.968 262.223l.505 1.032 3.681-1.8.61 1.249.865-.423-1.724-3.528-.865.423.61 1.248zM21.239 266.453l.35.475c.354.48.41.845.01 1.139-.4.295-.8.184-1.154-.297l-.35-.475zm-1.637 4.78.95-2.126c.516.295 1.11.302 1.71-.14.968-.713.748-1.64.113-2.503l-1.081-1.469-4.075 3 .676.92 1.469-1.082.373.506-.894 1.863zM20.655 272.39l.765.847 3.755-3.391-.765-.847zM23.473 275.312l1.014.927 4.538-2.707-.86-.785-2.033 1.337c-.48.307-.906.611-1.392.924l-.023-.02c.262-.518.534-.964.791-1.475l1.146-2.15-.893-.817zM26.637 278.053l2.63 1.9.563-.78-1.704-1.232.682-.943 1.396 1.01.56-.774-1.397-1.01.596-.823 1.641 1.186.564-.78-2.566-1.855zM33.748 277.813l.515.286c.523.29.725.598.484 1.032-.242.434-.65.5-1.173.21l-.516-.287zm.5 5.028-.02-2.329c.592.054 1.134-.187 1.496-.838.584-1.052-.002-1.803-.938-2.323l-1.595-.886-2.457 4.424.998.554.885-1.595.55.305-.038 2.066zM36.884 284.056c1.121.457 2.044.045 2.36-.732.27-.661.065-1.188-.41-1.65l-.503-.49c-.335-.33-.604-.556-.486-.843.108-.266.402-.33.769-.181.374.152.606.406.818.769l.811-.45a2.343 2.343 0 0 0-1.257-1.232c-.978-.398-1.92-.061-2.236.715-.278.683.018 1.273.42 1.663l.506.507c.34.34.567.542.447.836-.114.28-.4.365-.838.187-.388-.158-.738-.535-.958-.96l-.9.48a2.77 2.77 0 0 0 1.457 1.38zM44.74 286.423a2.082 2.082 0 0 0 1.757-.385l-.442-.825c-.298.206-.66.343-1.063.256-.729-.156-1.072-.848-.855-1.865.213-.994.88-1.479 1.556-1.334.357.076.586.3.788.582l.745-.587a2.14 2.14 0 0 0-1.35-.964c-1.252-.268-2.542.456-2.893 2.095-.356 1.662.505 2.76 1.757 3.027zM49.571 287.106c1.361.116 2.374-.794 2.515-2.441.14-1.64-.706-2.67-2.067-2.787-1.361-.116-2.37.748-2.51 2.395-.142 1.647.701 2.716 2.062 2.833zm.084-.982c-.688-.06-1.066-.738-.98-1.751.087-1.005.571-1.571 1.26-1.512.688.058 1.07.699.983 1.704-.086 1.013-.574 1.618-1.263 1.559zM55.481 287.215c1.303-.063 1.957-.833 1.876-2.53l-.13-2.714-1.102.053.136 2.83c.048.992-.261 1.349-.827 1.376-.566.027-.892-.299-.94-1.291l-.136-2.83-1.148.056.13 2.713c.083 1.697.831 2.4 2.141 2.337zM59.29 286.816l1.069-.196-.323-1.763c-.108-.588-.321-1.236-.468-1.777l.03-.006.688.995 1.752 2.243 1.153-.212-.912-4.977-1.07.196.323 1.756c.108.588.328 1.273.47 1.792l-.03.006-.69-1.01-1.752-2.236-1.152.212zM67.052 285.07a2.083 2.083 0 0 0 1.333-1.207l-.794-.496c-.156.327-.403.625-.795.75-.71.227-1.352-.203-1.669-1.194-.309-.968.03-1.72.687-1.93.348-.111.659-.031.973.113l.355-.88a2.14 2.14 0 0 0-1.65-.165c-1.22.39-1.98 1.659-1.47 3.256.518 1.619 1.81 2.143 3.03 1.754zM70.055 283.852l1.047-.452-2.006-4.645-1.048.452zM72.964 282.534l2.757-1.51-.462-.844-1.756.962-1.968-3.595-1 .548z" style="font-style:normal;font-variant:normal;font-weight:700;font-stretch:normal;font-size:7.76111126px;line-height:100%;font-family:&quot;Source Sans Pro&quot;;-inkscape-font-specification:&quot;Source Sans Pro Bold&quot;;text-align:center;letter-spacing:1.32291663px;text-anchor:middle;fill:#f4eed4;fill-opacity:1;stroke-width:.26458332px"/></g><path d="M10.304 252.257s20.638-3.07 42.9 8.882" style="fill:none;fill-rule:evenodd;stroke:#7c856a;stroke-width:.26499999;stroke-linecap:butt;stroke-linejoin:miter;stroke-miterlimit:4;stroke-dasharray:none;stroke-opacity:1"/><g aria-label="2023" style="font-style:normal;font-weight:400;font-size:8.46666622px;line-height:80.00000119%;font-family:sans-serif;letter-spacing:0;word-spacing:0;fill:#f4eed4;fill-opacity:1;stroke:none;stroke-width:.26458332px;stroke-linecap:butt;stroke-linejoin:miter;stroke-opacity:1"><path d="m10.523 252.204 2.828-.239-.066-.785-.81.069c-.19.016-.466.065-.667.107.594-.738 1.166-1.513 1.109-2.19-.065-.772-.646-1.233-1.437-1.166-.576.049-.931.296-1.294.753l.549.457c.184-.232.389-.447.68-.471.348-.03.588.167.62.559.049.57-.614 1.32-1.557 2.375zM15.846 251.985c.864-.012 1.432-.756 1.414-2.127-.018-1.372-.605-2.069-1.468-2.058-.864.012-1.432.724-1.414 2.095.018 1.372.605 2.101 1.468 2.09zm-.009-.724c-.311.004-.562-.279-.577-1.377-.014-1.105.23-1.356.541-1.36.318-.004.562.24.577 1.345.014 1.099-.223 1.388-.541 1.392zM18.287 251.907l2.836.121.034-.787-.812-.034c-.19-.008-.47.005-.675.022.683-.657 1.348-1.354 1.377-2.032.033-.774-.485-1.305-1.278-1.339-.578-.024-.961.176-1.379.584l.486.522c.213-.207.443-.394.735-.381.349.014.562.24.545.633-.024.57-.777 1.232-1.846 2.159zM23.46 252.297c.81.076 1.532-.283 1.602-1.03.049-.517-.255-.878-.704-1.054l.002-.025c.447-.143.715-.411.754-.829.066-.701-.453-1.152-1.281-1.23-.493-.046-.916.112-1.313.393l.415.613c.273-.197.5-.31.785-.283.316.03.478.21.452.489-.03.322-.278.516-.999.448l-.062.658c.873.082 1.06.323 1.027.677-.028.303-.303.45-.695.413-.342-.032-.623-.231-.841-.488l-.485.548c.258.369.692.64 1.343.7z" style="font-style:normal;font-variant:normal;font-weight:700;font-stretch:normal;font-size:6.3499999px;line-height:100%;font-family:&quot;Source Sans Pro&quot;;-inkscape-font-specification:&quot;Source Sans Pro Bold&quot;;letter-spacing:.5291667px;fill:#f4eed4;fill-opacity:1;stroke-width:.26458332px" transform="translate(-.094 -.283)"/></g><g aria-label="Est. 1924" style="font-style:normal;font-variant:normal;font-weight:400;font-stretch:normal;font-size:10.58333302px;line-height:60.00000238%;font-family:sans-serif;-inkscape-font-specification:&quot;sans-serif, Normal&quot;;font-variant-ligatures:normal;font-variant-caps:normal;font-variant-numeric:normal;text-align:center;letter-spacing:0;word-spacing:0;writing-mode:lr-tb;text-anchor:middle;fill:#f4eed4;fill-opacity:1;stroke:none;stroke-width:.26458332px;stroke-linecap:butt;stroke-linejoin:miter;stroke-opacity:1"><path d="M65.957 263.23h2.36v-.7h-1.53v-.847h1.253v-.694h-1.253v-.74h1.473v-.7h-2.303zM69.806 263.297c.751 0 1.152-.395 1.152-.903 0-.513-.4-.711-.756-.84-.288-.108-.548-.176-.548-.356 0-.141.102-.22.316-.22.198 0 .39.09.593.237l.372-.497c-.242-.18-.558-.356-.987-.356-.65 0-1.073.356-1.073.875 0 .463.4.694.74.824.287.113.57.198.57.384 0 .147-.108.237-.356.237-.237 0-.468-.102-.722-.293l-.373.519c.282.231.706.39 1.072.39zM72.448 263.297c.27 0 .474-.056.62-.101l-.129-.604a.793.793 0 0 1-.265.056c-.22 0-.361-.13-.361-.446v-1.123h.671v-.65h-.671v-.744h-.69l-.095.745-.429.034v.615h.384v1.135c0 .649.27 1.083.965 1.083zM73.938 263.297a.5.5 0 0 0 .502-.519c0-.3-.214-.525-.502-.525-.288 0-.502.226-.502.525a.5.5 0 0 0 .502.52zM64.024 269.58h2.28v-.672h-.672v-2.913h-.61a2.497 2.497 0 0 1-.891.328v.513h.672v2.072h-.78ZM68.031 267.65c-.27 0-.474-.142-.474-.52 0-.406.209-.581.452-.581.254 0 .485.18.558.745-.158.26-.355.355-.536.355zm-1.18 1.568a1.46 1.46 0 0 0 1.05.43c.751 0 1.451-.605 1.451-1.942 0-1.259-.666-1.778-1.36-1.778-.65 0-1.191.457-1.191 1.202 0 .756.457 1.106 1.067 1.106.22 0 .53-.14.716-.378-.028.835-.338 1.118-.739 1.118a.797.797 0 0 1-.553-.254zM69.798 269.58h2.523v-.7h-.722c-.17 0-.418.022-.599.045.582-.61 1.146-1.253 1.146-1.857 0-.689-.48-1.14-1.185-1.14-.514 0-.847.192-1.203.57l.452.446c.18-.192.378-.367.638-.367.31 0 .508.192.508.542 0 .508-.644 1.123-1.558 1.986zM73.472 268.09l.475-.78c.101-.203.203-.406.293-.603h.023c-.012.225-.034.57-.034.801v.581zm1.942 0h-.412v-2.095h-1.016l-1.31 2.157v.57h1.553v.858h.773v-.858h.412z" style="font-style:normal;font-variant:normal;font-weight:700;font-stretch:normal;font-size:5.64444447px;line-height:60.00000238%;font-family:&quot;Source Sans Pro&quot;;-inkscape-font-specification:&quot;Source Sans Pro Bold&quot;;text-align:center;text-anchor:middle;fill:#f4eed4;fill-opacity:1;stroke-width:.26458332px" transform="rotate(1.505)"/></g></g></svg>