<svg xmlns="http://www.w3.org/2000/svg" xml:space="preserve" width="393.333" height="393.333"><defs><clipPath id="a" clipPathUnits="userSpaceOnUse"><path d="M1466.45 2853.16c-759.501-3.08-1372.66-621.25-1369.61-1380.7C99.922 712.969 718.09 99.77 1477.54 102.852c759.49 3.046 1372.69 621.207 1369.61 1380.698-3.05 759.5-621.21 1372.66-1380.7 1369.61z"/></clipPath><clipPath id="b" clipPathUnits="userSpaceOnUse"><path d="M90 100h2760v2760H90Z"/></clipPath><clipPath id="c" clipPathUnits="userSpaceOnUse"><path d="M1466.45 2853.16c-759.501-3.08-1372.66-621.25-1369.61-1380.7C99.922 712.969 718.09 99.77 1477.54 102.852c759.49 3.046 1372.69 621.207 1369.61 1380.698-3.05 759.5-621.21 1372.66-1380.7 1369.61z"/></clipPath><clipPath id="d" clipPathUnits="userSpaceOnUse"><path d="M90 100h2760v2760H90Z"/></clipPath></defs><path d="M2911.99 1478.01c0-795.311-644.69-1439.998-1440-1439.998-795.271 0-1440.002 644.687-1440.002 1439.998 0 795.27 644.731 1440 1440.002 1440 795.31 0 1440-644.73 1440-1440z" style="fill:none;stroke:#fff;stroke-width:56.69290161;stroke-linecap:square;stroke-linejoin:miter;stroke-miterlimit:4;stroke-dasharray:none;stroke-opacity:1" transform="matrix(.13333 0 0 -.13333 0 393.333)"/><path d="M1466.45 2853.16c-759.501-3.08-1372.66-621.25-1369.61-1380.7C99.922 712.969 718.09 99.77 1477.54 102.852c759.49 3.046 1372.69 621.207 1369.61 1380.698-3.05 759.5-621.21 1372.66-1380.7 1369.61z" style="fill:#fff;fill-opacity:1;fill-rule:nonzero;stroke:none" transform="matrix(.13333 0 0 -.13333 0 393.333)"/><path d="m1471.99 2450.74-465.7-330.66 465.7-330.67 465.71 330.67z" style="fill:#a90c0c;fill-opacity:1;fill-rule:nonzero;stroke:none" transform="matrix(.13333 0 0 -.13333 0 393.333)"/><g clip-path="url(#a)" transform="matrix(.13333 0 0 -.13333 0 393.333)"><g clip-path="url(#b)"><path d="M-342.539 597.379c1814.529 266.141 1814.529 266.141 3629.059 0" style="fill:none;stroke:#000;stroke-width:7.5;stroke-linecap:butt;stroke-linejoin:miter;stroke-miterlimit:4;stroke-dasharray:none;stroke-opacity:1"/></g></g><path d="m599.301 566.051 70.269 77.5 24.77-22.422c4.019-3.668 7.379-7.34 10.039-11.09 2.851-3.707 4.801-7.418 5.891-11.129 1.21-3.711 1.41-7.43.55-11.101-.82-3.707-2.808-7.379-6.05-10.93-3.36-3.719-7.43-6.289-12.192-7.738-4.769-1.442-9.379-1.211-13.867.699l-.43-.461c3.438-4.848 5.117-10.039 5.078-15.629.121-5.59-2.187-10.98-6.91-16.211-3.519-3.867-7.308-6.519-11.371-8.008-4.098-1.48-8.316-1.949-12.738-1.441-4.328.461-8.75 1.871-13.238 4.211-4.411 2.469-8.75 5.59-13.051 9.461zm55 33.051 9.84-8.903c5.429-4.969 10.269-7.5 14.41-7.699 4.258-.23 7.859 1.289 10.898 4.609 3.442 3.789 4.61 7.621 3.481 11.52-1.09 3.871-4.141 8.09-9.219 12.66l-10.082 9.141zm-31.602-34.84 11.641-10.551c5.66-5.16 10.969-8.09 15.93-8.832 5-.66 9.5 1.172 13.441 5.512 3.711 4.14 4.918 8.441 3.559 12.968-1.29 4.653-4.848 9.61-10.711 14.879l-11.598 10.551zM708.789 470.699c-5.43 4.102-9.648 8.871-12.66 14.262-2.93 5.469-4.609 11.289-5 17.461-.309 6.289.672 12.777 2.973 19.488 2.269 6.68 6.019 13.442 11.168 20.238 5.082 6.684 10.55 11.993 16.332 15.903 5.859 4.019 11.796 6.597 17.777 7.808 6.012 1.172 11.992 1.051 18-.429 5.98-1.481 11.68-4.258 17.109-8.399 5.434-4.14 9.653-8.91 12.66-14.261 3.012-5.391 4.762-11.129 5.192-17.219.551-6.172-.352-12.621-2.61-19.34-2.23-6.602-5.902-13.281-10.98-19.961-5.199-6.801-10.699-12.191-16.52-16.168-5.859-4.031-11.921-6.641-18.128-7.973-6.051-1.25-12.114-1.211-18.161.192-5.98 1.449-11.722 4.258-17.152 8.398zm9.801 12.852c3.32-2.531 6.84-4.063 10.551-4.602 3.75-.59 7.539-.238 11.41.973 3.937 1.289 7.847 3.398 11.679 6.367 3.942 3.051 7.692 6.91 11.25 11.563 7.071 9.339 10.7 18.128 10.782 26.367.269 8.242-2.934 14.922-9.571 19.961-6.601 5.039-13.91 6.371-21.882 3.98-7.809-2.379-15.27-8.199-22.379-17.539-3.551-4.68-6.289-9.289-8.16-13.902-1.84-4.528-2.86-8.828-3.051-12.969-.117-4.059.582-7.809 2.109-11.25 1.524-3.441 3.942-6.449 7.262-8.949zM784.379 419.801l20.973 32.738 9.097 72.301 16.68-10.699-4.84-28.629c-.859-4.141-1.68-8.172-2.418-12.114a993.84 993.84 0 0 1-2.191-12.308l.55-.352c3.629 2.5 7.071 4.852 10.391 7.032 3.359 2.269 6.719 4.691 10.109 7.191l23.989 16.371 16.293-10.434-62.032-38.359-20.941-32.738zM913.949 343.871c-6.328 3.078-11.84 7.301-16.609 12.609a53.939 53.939 0 0 0-10.461 17.86l15.351 6.519a48.266 48.266 0 0 1 7.649-13.437c3.359-4.024 7.191-7.113 11.492-9.223 5.348-2.648 9.957-3.551 13.828-2.73 3.86.863 6.68 3.082 8.473 6.722.937 1.911 1.367 3.707 1.289 5.43-.039 1.68-.473 3.32-1.332 4.961-.738 1.637-1.789 3.359-3.16 5.117a114.358 114.358 0 0 1-4.489 5.422l-10.16 11.961c-1.8 2.066-3.519 4.406-5.121 6.988a34.296 34.296 0 0 0-3.469 8.129c-.82 2.891-1.14 5.973-.98 9.211.27 3.211 1.25 6.531 2.969 9.969 1.832 3.742 4.301 6.793 7.383 9.211 3.238 2.461 6.839 4.18 10.777 5.199 3.949 1.012 8.172 1.25 12.66.699 4.57-.578 9.18-1.988 13.75-4.258 5.473-2.691 10.191-6.398 14.18-11.089 4.019-4.61 6.953-9.653 8.793-15.082l-13.711-6.438c-1.84 4.02-4.031 7.539-6.571 10.578-2.531 3.051-5.82 5.551-9.839 7.539-4.493 2.192-8.551 2.973-12.231 2.274-3.629-.59-6.289-2.582-8-6.063-.898-1.789-1.289-3.551-1.18-5.269.239-1.68.79-3.36 1.61-5.078a44.155 44.155 0 0 1 3.512-5.153 377.108 377.108 0 0 1 4.488-5.039L955 389.801c2.191-2.531 4.059-5.11 5.621-7.77 1.527-2.652 2.617-5.39 3.25-8.199.738-2.891.899-5.863.539-9.031-.308-3.039-1.32-6.281-3-9.762-1.922-3.828-4.422-7.027-7.621-9.609-3.168-2.621-6.879-4.45-11.129-5.59-4.109-1.051-8.64-1.32-13.601-.781-4.797.589-9.84 2.191-15.11 4.812zM1013.2 300.082c-6.13 2.457-11.44 5.816-15.899 10.148-4.492 4.34-7.852 9.418-10.11 15.239-2.152 5.82-3.132 12.301-2.89 19.453.23 7.148 1.949 14.726 5.148 22.738 3.172 7.93 7.153 14.57 11.921 19.879 4.92 5.391 10.23 9.449 15.93 12.231 5.79 2.73 11.84 4.179 18.09 4.289 6.37.121 12.62-1.09 18.75-3.508 6.13-2.461 11.09-5.903 14.84-10.281 3.75-4.372 6.53-8.821 8.29-13.321l-13.68-7.461c-1.52 3.633-3.47 6.762-5.86 9.461-2.34 2.77-5.39 4.883-9.14 6.403-3.98 1.597-7.97 2.23-12.03 1.878-3.9-.281-7.69-1.449-11.4-3.519-3.56-2.031-6.92-4.961-10.04-8.75-3.05-3.832-5.63-8.481-7.82-13.941-4.45-11.059-5.54-20.75-3.35-28.989 2.38-8.16 7.65-13.91 15.85-17.191 4.38-1.75 8.6-2.418 12.66-1.988 4.14.546 8.16 1.718 12.15 3.597l4.84-14.539c-5.78-2.961-11.75-4.64-17.89-5.07-5.97-.36-12.11.742-18.36 3.242zM1103.01 268.98c-6.56 2-12.15 5-16.84 8.989-4.69 4.101-8.24 8.98-10.78 14.652-2.46 5.777-3.79 12.18-3.98 19.289-.16 7.07.97 14.692 3.47 22.86 2.46 8.039 5.71 14.921 9.77 20.582 4.1 5.777 8.79 10.269 13.98 13.48 5.24 3.199 10.9 5.148 17.03 5.859 6.1.7 12.43.039 18.95-1.961 6.56-1.992 12.15-4.96 16.84-8.941 4.68-4.019 8.32-8.789 10.85-14.379 2.66-5.578 4.07-11.91 4.26-19.019.2-6.95-.94-14.493-3.4-22.539-2.46-8.161-5.78-15.153-9.88-20.903-4.1-5.777-8.83-10.347-14.22-13.75-5.23-3.32-10.94-5.347-17.07-6.168-6.13-.66-12.46-.043-18.98 1.949zm4.69 15.469c3.98-1.211 7.81-1.437 11.52-.66 3.67.742 7.15 2.383 10.35 4.883 3.24 2.578 6.13 5.898 8.75 10.039 2.62 4.219 4.77 9.098 6.48 14.73 3.44 11.207 3.75 20.7.98 28.469-2.62 7.82-7.89 12.969-15.86 15.391-7.97 2.429-15.27 1.14-21.91-3.86-6.53-4.921-11.49-13.011-14.92-24.222-1.72-5.629-2.66-10.899-2.82-15.86-.15-4.879.39-9.3 1.64-13.238 1.29-3.832 3.25-7.109 5.86-9.812 2.66-2.688 5.94-4.649 9.93-5.86zM1214.34 240.551c-5.98 1.25-11.18 3.199-15.63 5.859-4.33 2.731-7.85 6.36-10.51 10.82-2.58 4.45-4.18 9.801-4.84 16.051-.55 6.328.04 13.707 1.8 22.188l11.91 57.461 18.2-3.75-12.22-58.91c-1.14-5.54-1.64-10.309-1.53-14.372.28-3.988 1.06-7.308 2.39-9.957 1.36-2.703 3.24-4.851 5.5-6.41 2.35-1.441 5.04-2.5 8.17-3.16 3.16-.633 6.13-.781 8.94-.351 2.82.5 5.39 1.679 7.78 3.589 2.34 1.911 4.41 4.653 6.25 8.2 1.83 3.64 3.36 8.242 4.49 13.75l12.19 58.91 17.42-3.59-11.92-57.5c-1.75-8.438-4.14-15.469-7.14-21.059-3.01-5.468-6.61-9.769-10.82-12.808-4.15-3.051-8.79-4.961-13.95-5.742-5.04-.711-10.55-.43-16.48.781zM1309.57 226.52l10.86 88.32-30.04 3.68 1.91 15.582 78.48-9.692-1.91-15.539-30.04 3.711-10.86-88.32zM1410.98 215.738c-7.03.313-13.79 1.992-20.24 4.961-6.4 2.973-11.95 7.031-16.72 12.192l11.45 12.07c3.55-3.672 7.69-6.762 12.38-9.223 4.69-2.34 9.45-3.668 14.22-3.859 5.98-.32 10.55.703 13.79 3 3.2 2.312 4.88 5.473 5.08 9.531.11 2.149-.24 3.949-1.02 5.512-.66 1.527-1.72 2.848-3.16 3.988-1.33 1.25-3.01 2.379-4.96 3.43-1.88 1.058-3.99 2.109-6.25 3.172l-14.1 6.949c-2.5 1.168-5 2.621-7.5 4.34a34.732 34.732 0 0 0-6.41 6.09c-1.95 2.308-3.48 5-4.61 8.05-1.02 3.039-1.45 6.481-1.25 10.309.2 4.18 1.21 7.969 3.09 11.41a30.53 30.53 0 0 0 7.81 9.059c3.2 2.543 6.99 4.41 11.33 5.703 4.45 1.289 9.21 1.797 14.33 1.558 6.06-.269 11.88-1.789 17.38-4.492 5.55-2.609 10.24-6.047 14.11-10.308l-10-11.371c-3.28 2.929-6.68 5.281-10.24 7.07-3.55 1.762-7.54 2.742-12.03 2.973-5 .238-9.06-.704-12.15-2.77-3.08-1.992-4.72-4.922-4.88-8.75-.12-2.031.23-3.793 1.02-5.352.89-1.41 2.07-2.781 3.47-3.992 1.56-1.168 3.32-2.258 5.31-3.316 2-.942 4.03-1.871 6.1-2.852l13.94-6.558a53.901 53.901 0 0 0 8.28-4.883c2.47-1.84 4.54-3.91 6.25-6.258 1.8-2.301 3.17-5 4.11-8.039.93-2.934 1.29-6.293 1.13-10.121-.24-4.262-1.25-8.242-3.13-11.871-1.91-3.68-4.57-6.84-8-9.57-3.32-2.622-7.39-4.649-12.15-6.141-4.65-1.359-9.92-1.91-15.78-1.641zM1564.34 217.621c-6.8-.512-13.13.27-18.95 2.301-5.82 2.148-10.9 5.43-15.31 9.808-4.38 4.489-7.93 10.04-10.63 16.559-2.73 6.563-4.41 14.063-5 22.582-.62 8.399-.04 15.969 1.72 22.731 1.76 6.878 4.49 12.738 8.21 17.617 3.71 4.84 8.28 8.711 13.74 11.562 5.47 2.848 11.61 4.528 18.4 5.039 6.8.469 13.13-.269 18.95-2.34 5.82-2.031 10.9-5.199 15.27-9.46 4.49-4.29 8.09-9.68 10.78-16.25 2.74-6.438 4.38-13.821 5-22.258.63-8.481.04-16.172-1.72-23.051-1.75-6.871-4.53-12.852-8.32-17.93-3.71-4.961-8.28-8.941-13.75-11.91-5.46-2.851-11.6-4.5-18.39-5zm-1.18 16.129c4.14.27 7.82 1.449 10.98 3.52 3.16 2.031 5.82 4.8 7.93 8.242 2.07 3.59 3.59 7.769 4.53 12.539.94 4.879 1.17 10.23.78 16.09-.86 11.718-3.98 20.66-9.33 26.91-5.28 6.371-12.07 9.258-20.35 8.64-8.32-.589-14.65-4.421-19.07-11.492-4.33-6.91-6.05-16.25-5.19-27.969.43-5.851 1.44-11.128 3.04-15.82 1.64-4.57 3.72-8.469 6.33-11.711 2.58-3.129 5.55-5.469 8.99-7.078 3.43-1.562 7.22-2.18 11.36-1.871zM1640.47 227.031l-16.09 103.399 62.46 9.73 2.38-15.512-44.1-6.839 4.57-29.258 37.61 5.859 2.43-15.5-37.66-5.859 6.72-43.172zM1782.23 312.07l-.16-13.32 25.78 7.07-6.95 11.371a535.11 535.11 0 0 0-9.3 15.188c-3.01 5.281-5.98 10.512-8.94 15.672l-.63-.199a11945 11945 0 0 0 .35-18.122c.08-5.98.04-11.839-.15-17.66zm-19.07-62.968 5.2 109.957 20.98 5.742 60.54-91.91-18.83-5.161-15.35 25.161-33.94-9.301-.39-29.488zM1870.39 279.449l-36.64 98.051 19.65 7.301 35.31-41.442c2.27-2.699 4.49-5.507 6.72-8.398 2.19-2.852 4.45-5.66 6.76-8.441l.58.242c-.07 3.59-.27 7.187-.58 10.699-.24 3.668-.39 7.269-.43 10.777l-1.02 54.301 19.81 7.383 36.64-98.012-16.06-6.012-16.75 44.801c-.86 2.313-1.72 4.852-2.62 7.582-.82 2.77-1.64 5.551-2.46 8.321-.82 2.847-1.6 5.668-2.27 8.359-.7 2.809-1.37 5.391-2.03 7.769l-.62-.23.58-25.738.43-50.043-10.35-3.867-32.66 38.007-16.29 19.84-.62-.187c1.09-2.231 2.23-4.653 3.44-7.313 1.25-2.461 2.5-5.078 3.75-7.808a103.33 103.33 0 0 0 3.63-7.852c1.21-2.617 2.23-5.078 3.09-7.379l16.75-44.808zM1989.34 326.41l-45.16 94.371 56.84 27.231 6.79-14.141-40.11-19.223 11.52-24.097 33.9 16.25 6.76-14.18-33.9-16.211 13.36-27.859 41.56 19.89 6.76-14.14zM2075.2 368.91l-52.54 90.5 30.58 17.738c4.69 2.731 9.34 4.801 13.95 6.25 4.61 1.442 8.98 1.954 13.16 1.563 4.14-.313 8.01-1.723 11.68-4.141 3.71-2.422 7.07-6.129 10-11.211 4.02-6.91 5.59-13.48 4.77-19.648-.78-6.09-3.36-11.68-7.74-16.68l43.52-25.23-17.97-10.43-40.08 24.059-13.83-8.008 20.55-35.434zm-11.88 57.461 12.85 7.5c6.17 3.59 10.12 7.609 11.88 12.07 1.79 4.489 1.21 9.329-1.8 14.489-3.05 5.269-6.84 7.929-11.33 8.05-4.41.149-9.69-1.57-15.86-5.16l-12.89-7.461zM2165.98 423.949l-58.28 86.91 15.42 10.352 58.25-86.91zM2247.11 479.801c-5.23-4.02-10.86-6.871-16.88-8.512-5.97-1.641-12.07-1.91-18.24-.898-6.09 1.129-12.19 3.589-18.2 7.418-6.06 3.871-11.68 9.222-16.95 16.062-5.2 6.789-8.83 13.59-10.98 20.391-2.11 6.988-2.93 13.629-2.38 19.957.62 6.402 2.46 12.301 5.54 17.769 3.17 5.512 7.35 10.282 12.62 14.301 5.24 4.02 10.7 6.52 16.41 7.543 5.66.969 10.9 1.09 15.66.309l-.59-15.551c-3.86.512-7.57.43-11.09-.27-3.59-.59-6.99-2.109-10.19-4.57-3.4-2.621-5.98-5.738-7.74-9.371-1.76-3.481-2.69-7.391-2.81-11.609-.08-4.098.74-8.469 2.38-13.079 1.76-4.57 4.42-9.222 8.01-13.871 7.27-9.449 15-15.351 23.2-17.66 8.24-2.14 15.9-.539 22.89 4.852 3.75 2.847 6.45 6.129 8.17 9.879 1.64 3.789 2.69 7.89 3.12 12.23l14.96-3.211c-.39-6.48-1.99-12.5-4.76-17.961-2.78-5.359-6.8-10.078-12.15-14.148zM2271.45 574.84l5.82-11.988 19.88 17.886-11.33 7.032c-4.96 3.011-10 6.14-15.12 9.421-5.04 3.36-10.04 6.68-15 9.957l-.47-.429c2.82-5.348 5.63-10.699 8.44-16.059 2.74-5.308 5.35-10.578 7.78-15.82zM2282.7 510l-44.73 100.59 16.17 14.531 95.35-54.922-14.49-13.09-25.04 15.59-26.13-23.558 12.89-26.481z" style="fill:#2c2e6a;fill-opacity:1;fill-rule:nonzero;stroke:none" transform="matrix(.13333 0 0 -.13333 0 393.333)"/><path d="M1472.54 2306.37c-64.49.11-127.31-33.28-161.84-93.17-51.44-89.06-20.86-203 68.21-254.45 89.1-51.41 202.97-20.82 254.41 68.24l-25.86 14.96c-12.5-21.6-29.96-40-50.86-53.51l39.92 226.29a157.263 157.263 0 0 0 22.46-41.21l28.05 10.23c-14.96 41.17-43.94 75.74-81.87 97.62-29.26 16.87-61.14 24.92-92.62 25zm-.55-29.89c37.54 0 71.96-13.2 98.91-35.27l-37.54-212.81-61.06 167.73-61.01-167.73-37.62 213.28c26.88 21.72 61.1 34.8 98.32 34.8zm-123.94-61.01 40.11-227.5c-43.63 27.77-72.61 76.52-72.61 132.07 0 35.9 12.15 69.02 32.5 95.43zm124.25-106.49 49.97-137.1a155.97 155.97 0 0 0-50.28-8.29c-17.38 0-34.06 2.86-49.72 8.09z" style="fill:#fff;fill-opacity:1;fill-rule:nonzero;stroke:none" transform="matrix(.13333 0 0 -.13333 0 393.333)"/><path d="M111.129 1167.77h504.02v620.469h-504.02zM2076.13 1167.77h760.902v620.469H2076.13Z" style="fill:#a90c0c;fill-opacity:1;fill-rule:nonzero;stroke:none" transform="matrix(.13333 0 0 -.13333 0 393.333)"/><path d="M2269.41 1812.34c-1.48-5.04-3.75-12.14-6.71-21.29-2.82-8.98-6.37-20.27-10.63-33.9-4.14-13.6-6.17-20.9-6.17-21.84 0-.74 1.48-1.09 4.49-1.09 3.16 0 10.55 2.03 22.11 6.13 11.56 4.3 18.4 6.45 20.43 6.45 4.69 0 6.99-3.17 6.99-9.5 0-6.36-6.25-14.02-18.75-22.96-12.5-8.79-25.58-13.17-39.18-13.17-5.97 0-13.08 3.28-21.29 9.81-8.24 6.52-12.34 13.16-12.34 19.88 0 5.59 2.81 17.34 8.4 35.27 5.82 18.09 9.72 30.51 11.76 37.23-7.27-2.03-12.78-3.09-16.49-3.09-3.75 0-7.65 2.54-11.8 7.58-4.1 5.24-6.13 10.16-6.13 14.85 0 5.97 14.45 11.01 43.4 15.11 3.55 17.35 5.31 32.39 5.31 45.08 0 5.59 2.81 8.4 8.4 8.4 4.84 0 11.02-3.01 18.48-8.95 7.65-5.82 11.48-11.6 11.48-17.38 0-5.58-1.21-13.51-3.63-23.79 8.94.35 15.78.55 20.43.55 14.02 0 21.01-3.17 21.01-9.49 0-4.14-4.1-7.66-12.34-10.67-8.01-2.81-20.43-5.86-37.23-9.22z" style="fill:#2c2e6a;fill-opacity:1;fill-rule:nonzero;stroke:none" transform="matrix(.13333 0 0 -.13333 0 393.333)"/><path d="M2269.41 1812.34c-1.48-5.04-3.75-12.14-6.71-21.29-2.82-8.98-6.37-20.27-10.63-33.9-4.14-13.6-6.17-20.9-6.17-21.84 0-.74 1.48-1.09 4.49-1.09 3.16 0 10.55 2.03 22.11 6.13 11.56 4.3 18.4 6.45 20.43 6.45 4.69 0 6.99-3.17 6.99-9.5 0-6.36-6.25-14.02-18.75-22.96-12.5-8.79-25.58-13.17-39.18-13.17-5.97 0-13.08 3.28-21.29 9.81-8.24 6.52-12.34 13.16-12.34 19.88 0 5.59 2.81 17.34 8.4 35.27 5.82 18.09 9.72 30.51 11.76 37.23-7.27-2.03-12.78-3.09-16.49-3.09-3.75 0-7.65 2.54-11.8 7.58-4.1 5.24-6.13 10.16-6.13 14.85 0 5.97 14.45 11.01 43.4 15.11 3.55 17.35 5.31 32.39 5.31 45.08 0 5.59 2.81 8.4 8.4 8.4 4.84 0 11.02-3.01 18.48-8.95 7.65-5.82 11.48-11.6 11.48-17.38 0-5.58-1.21-13.51-3.63-23.79 8.94.35 15.78.55 20.43.55 14.02 0 21.01-3.17 21.01-9.49 0-4.14-4.1-7.66-12.34-10.67-8.01-2.81-20.43-5.86-37.23-9.22z" style="fill:none;stroke:#fff;stroke-width:85.03939819;stroke-linecap:butt;stroke-linejoin:miter;stroke-miterlimit:4;stroke-dasharray:none;stroke-opacity:1" transform="matrix(.13333 0 0 -.13333 0 393.333)"/><path d="M2358.16 1912.3c0 7.82 3.09 11.76 9.26 11.76 5.04 0 10.82-4.22 17.35-12.61 6.52-8.4 9.8-15.59 9.8-21.57 0-5.97-1.21-14.37-3.63-25.19-2.42-10.82-4.96-20.71-7.58-29.69-2.42-8.95-6.13-21.76-11.17-38.36-5.04-16.41-8.52-27.89-10.39-34.41 12.15 24.61 24.92 44.68 38.36 60.19 13.63 15.47 25.04 23.24 34.18 23.24 5.78 0 12.42-5.15 19.88-15.43 7.46-10.07 11.21-19.21 11.21-27.42 0-8.04-1.52-19.8-4.49-35.27-3.01-15.51-8.21-30.43-15.71-44.81-7.46-14.37-15.11-21.56-22.93-21.56-6.17 0-9.25 4.38-9.25 13.17 0 6.32 1.87 16.68 5.62 31.05 5.39 21.49 8.09 34.53 8.09 39.22 0 4.65-.74 6.99-2.23 6.99-10.82 0-26.68-18.01-47.62-54.02-7.07-12.35-13.04-21.49-17.89-27.46-4.68-5.98-9.14-8.95-13.43-8.95-4.3 0-9.54 3.44-15.71 10.35-5.97 6.92-8.94 12.23-8.94 15.98 0 3.91.74 9.61 2.22 17.07 1.68 7.46 4.11 18.09 7.31 31.91 3.36 13.83 8.75 38.83 16.21 75.04 7.66 36.41 11.48 56.64 11.48 60.78z" style="fill:#2c2e6a;fill-opacity:1;fill-rule:nonzero;stroke:none" transform="matrix(.13333 0 0 -.13333 0 393.333)"/><path d="M2358.16 1912.3c0 7.82 3.09 11.76 9.26 11.76 5.04 0 10.82-4.22 17.35-12.61 6.52-8.4 9.8-15.59 9.8-21.57 0-5.97-1.21-14.37-3.63-25.19-2.42-10.82-4.96-20.71-7.58-29.69-2.42-8.95-6.13-21.76-11.17-38.36-5.04-16.41-8.52-27.89-10.39-34.41 12.15 24.61 24.92 44.68 38.36 60.19 13.63 15.47 25.04 23.24 34.18 23.24 5.78 0 12.42-5.15 19.88-15.43 7.46-10.07 11.21-19.21 11.21-27.42 0-8.04-1.52-19.8-4.49-35.27-3.01-15.51-8.21-30.43-15.71-44.81-7.46-14.37-15.11-21.56-22.93-21.56-6.17 0-9.25 4.38-9.25 13.17 0 6.32 1.87 16.68 5.62 31.05 5.39 21.49 8.09 34.53 8.09 39.22 0 4.65-.74 6.99-2.23 6.99-10.82 0-26.68-18.01-47.62-54.02-7.07-12.35-13.04-21.49-17.89-27.46-4.68-5.98-9.14-8.95-13.43-8.95-4.3 0-9.54 3.44-15.71 10.35-5.97 6.92-8.94 12.23-8.94 15.98 0 3.91.74 9.61 2.22 17.07 1.68 7.46 4.11 18.09 7.31 31.91 3.36 13.83 8.75 38.83 16.21 75.04 7.66 36.41 11.48 56.64 11.48 60.78z" style="fill:none;stroke:#fff;stroke-width:85.03939819;stroke-linecap:butt;stroke-linejoin:miter;stroke-miterlimit:4;stroke-dasharray:none;stroke-opacity:1" transform="matrix(.13333 0 0 -.13333 0 393.333)"/><path d="M547.23 1059.73v550.23c0 20.66.54 42.27 1.719 64.84l-94.648-78.59c-8.442-6.52-16.84-10.55-25.281-12.07-8-1.13-15.661-1.13-22.93 0-7.262 1.52-13.789 4.02-19.531 7.46-5.7 3.83-9.918 7.66-12.61 11.49l-56.219 74.57 260.469 218.59h146.879v-836.52z" style="fill:#2c2e6a;fill-opacity:1;fill-rule:nonzero;stroke:none" transform="matrix(.13333 0 0 -.13333 0 393.333)"/><path d="M547.23 1059.73v550.23c0 20.66.54 42.27 1.719 64.84l-94.648-78.59c-8.442-6.52-16.84-10.55-25.281-12.07-8-1.13-15.661-1.13-22.93 0-7.262 1.52-13.789 4.02-19.531 7.46-5.7 3.83-9.918 7.66-12.61 11.49l-56.219 74.57 260.469 218.59h146.879v-836.52z" style="fill:none;stroke:#fff;stroke-width:85.03939819;stroke-linecap:butt;stroke-linejoin:miter;stroke-miterlimit:4;stroke-dasharray:none;stroke-opacity:1" transform="matrix(.13333 0 0 -.13333 0 393.333)"/><path d="M547.23 1059.73v550.23c0 20.66.54 42.27 1.719 64.84l-94.648-78.59c-8.442-6.52-16.84-10.55-25.281-12.07-8-1.13-15.661-1.13-22.93 0-7.262 1.52-13.789 4.02-19.531 7.46-5.7 3.83-9.918 7.66-12.61 11.49l-56.219 74.57 260.469 218.59h146.879v-836.52z" style="fill:#2c2e6a;fill-opacity:1;fill-rule:nonzero;stroke:none" transform="matrix(.13333 0 0 -.13333 0 393.333)"/><path d="M1515.55 1478.01c0-231.02-187.23-418.28-418.25-418.28-231.011 0-418.28 187.26-418.28 418.28 0 230.97 187.269 418.24 418.28 418.24 231.02 0 418.25-187.27 418.25-418.24z" style="fill:#000;fill-opacity:1;fill-rule:nonzero;stroke:none" transform="matrix(.13333 0 0 -.13333 0 393.333)"/><path d="M1515.55 1478.01c0-231.02-187.23-418.28-418.25-418.28-231.011 0-418.28 187.26-418.28 418.28 0 230.97 187.269 418.24 418.28 418.24 231.02 0 418.25-187.27 418.25-418.24z" style="fill:none;stroke:#fff;stroke-width:85.03939819;stroke-linecap:square;stroke-linejoin:miter;stroke-miterlimit:4;stroke-dasharray:none;stroke-opacity:1" transform="matrix(.13333 0 0 -.13333 0 393.333)"/><path d="M1515.55 1478.01c0-231.02-187.23-418.28-418.25-418.28-231.011 0-418.28 187.26-418.28 418.28 0 230.97 187.269 418.24 418.28 418.24 231.02 0 418.25-187.27 418.25-418.24z" style="fill:#2c2e6a;fill-opacity:1;fill-rule:nonzero;stroke:none" transform="matrix(.13333 0 0 -.13333 0 393.333)"/><path d="M1337.73 1478.01c0-63.79-25.35-124.92-70.43-170-45.07-45.12-106.25-70.43-170-70.43s-124.921 25.31-169.999 70.43a240.428 240.428 0 0 0-70.422 170c0 63.75 25.351 124.92 70.422 170 45.078 45.08 106.249 70.43 169.999 70.43a240.45 240.45 0 0 0 170-70.43c45.08-45.08 70.43-106.25 70.43-170z" style="fill:#fff;fill-opacity:1;fill-rule:nonzero;stroke:none" transform="matrix(.13333 0 0 -.13333 0 393.333)"/><path d="M2265.55 1478.01c0-231.02-187.23-418.28-418.25-418.28-231.01 0-418.28 187.26-418.28 418.28 0 230.97 187.27 418.24 418.28 418.24 231.02 0 418.25-187.27 418.25-418.24z" style="fill:#000;fill-opacity:1;fill-rule:nonzero;stroke:none" transform="matrix(.13333 0 0 -.13333 0 393.333)"/><path d="M2265.55 1478.01c0-231.02-187.23-418.28-418.25-418.28-231.01 0-418.28 187.26-418.28 418.28 0 230.97 187.27 418.24 418.28 418.24 231.02 0 418.25-187.27 418.25-418.24z" style="fill:none;stroke:#fff;stroke-width:85.03939819;stroke-linecap:square;stroke-linejoin:miter;stroke-miterlimit:4;stroke-dasharray:none;stroke-opacity:1" transform="matrix(.13333 0 0 -.13333 0 393.333)"/><path d="M2265.55 1478.01c0-231.02-187.23-418.28-418.25-418.28-231.01 0-418.28 187.26-418.28 418.28 0 230.97 187.27 418.24 418.28 418.24 231.02 0 418.25-187.27 418.25-418.24z" style="fill:#2c2e6a;fill-opacity:1;fill-rule:nonzero;stroke:none" transform="matrix(.13333 0 0 -.13333 0 393.333)"/><path d="M2087.73 1478.01c0-63.79-25.35-124.92-70.43-170-45.07-45.12-106.25-70.43-170-70.43s-124.92 25.31-170 70.43a240.43 240.43 0 0 0-70.42 170c0 63.75 25.35 124.92 70.42 170 45.08 45.08 106.25 70.43 170 70.43a240.45 240.45 0 0 0 170-70.43c45.08-45.08 70.43-106.25 70.43-170z" style="fill:#fff;fill-opacity:1;fill-rule:nonzero;stroke:none" transform="matrix(.13333 0 0 -.13333 0 393.333)"/><path d="M991.91 1490.47v33.12h32.62v78.71h-28.792v25.47c8.642 1.76 16.022 3.75 22.072 5.98 6.1 2.27 12.03 5.2 17.78 8.91h30.23v-119.07h27.38v-33.12zM1167.58 1575.43c3.71 0 7.22.98 10.58 2.89 3.52 2.07 6.49 5.43 8.87 10.08-.82 5.27-1.99 9.61-3.59 12.97-1.45 3.51-3.05 6.25-4.81 8.16-1.75 2.07-3.67 3.44-5.78 4.06-1.91.82-3.83 1.21-5.74 1.21-4.34 0-8.16-1.52-11.52-4.57-3.21-3.04-4.81-8.55-4.81-16.56 0-3.67.51-6.72 1.45-9.1.97-2.27 2.15-4.1 3.59-5.55 1.6-1.25 3.36-2.22 5.27-2.85 2.11-.51 4.26-.74 6.49-.74zm-4.81-87.81c-10.86 0-20.23 1.91-28.04 5.74-7.85 3.83-14.34 8.32-19.46 13.44l21.61 24.49c2.38-2.74 5.74-5.2 10.07-7.46 4.34-2.07 8.64-3.13 12.97-3.13 3.83 0 7.35.67 10.55 1.96 3.2 1.4 6.01 3.75 8.4 6.95 2.58 3.36 4.65 7.58 6.25 12.69 1.6 5.32 2.54 11.76 2.89 19.46-1.96-2.38-4.1-4.57-6.49-6.49-2.42-1.91-4.96-3.51-7.69-4.8-2.54-1.25-5.12-2.23-7.7-2.85-2.38-.67-4.61-.98-6.72-.98-6.56 0-12.61.86-18.24 2.66-5.58 1.91-10.47 4.76-14.61 8.63-4.02 3.83-7.22 8.71-9.61 14.65-2.42 5.9-3.59 12.93-3.59 21.09 0 8.17 1.37 15.43 4.06 21.84 2.89 6.4 6.72 11.83 11.53 16.33 4.8 4.49 10.39 7.85 16.79 10.07 6.41 2.43 13.21 3.6 20.39 3.6 7.39 0 14.57-1.45 21.6-4.3 7.23-2.73 13.64-7.15 19.22-13.2 5.59-6.1 10.08-14.03 13.44-23.75 3.52-9.61 5.27-21.29 5.27-35.04 0-13.79-1.75-25.78-5.27-36.02-3.51-10.23-8.16-18.71-13.91-25.43-5.78-6.72-12.5-11.75-20.15-15.11-7.54-3.36-15.39-5.04-23.56-5.04zM984.73 1310.47v23.51a2826.8 2826.8 0 0 1 24.96 23.52c7.81 7.38 14.61 14.26 20.39 20.66 5.74 6.57 10.23 12.74 13.44 18.48 3.36 5.94 5.03 11.45 5.03 16.56 0 6.88-1.75 11.92-5.27 15.12-3.36 3.36-7.85 5.04-13.44 5.04-5.11 0-9.68-1.52-13.71-4.57-3.83-2.85-7.58-6.13-11.25-9.84l-22.11 22.1c4.031 4.15 7.929 7.74 11.761 10.79 3.867 3.2 7.849 5.78 12.029 7.69a56.92 56.92 0 0 0 13.44 4.53c4.8.98 10 1.45 15.59 1.45 7.69 0 14.72-1.17 21.13-3.6 6.4-2.38 11.91-5.74 16.56-10.07 4.65-4.34 8.24-9.61 10.78-15.82 2.58-6.1 3.87-12.9 3.87-20.43 0-6.06-1.37-12.31-4.1-18.71-2.54-6.26-5.9-12.47-10.08-18.72-4.14-6.25-8.87-12.34-14.14-18.24a415.573 415.573 0 0 0-15.39-16.8c3.87.47 8.16.86 12.97 1.22 4.96.46 9.14.7 12.5.7h25.43v-34.57zM1175.27 1310.47v34.1h-64.8v28.79l51.83 89.3h51.37v-86.92H1230v-31.17h-16.33v-34.1zm-25.93 65.27h25.93v25.71c.16 3.2.32 6.4.47 9.6.16 3.21.31 6.29.47 9.34.2 3.2.35 6.09.51 8.63h-.98c-1.91-4.61-3.9-9.18-5.97-13.67-2.11-4.45-4.26-9.02-6.49-13.67zM1734.73 1490.47v23.51c8.94 8.32 17.26 16.18 24.96 23.52 7.81 7.38 14.61 14.26 20.39 20.66 5.74 6.57 10.23 12.74 13.44 18.48 3.36 5.94 5.03 11.45 5.03 16.56 0 6.88-1.75 11.92-5.27 15.12-3.36 3.36-7.85 5.04-13.44 5.04-5.11 0-9.68-1.52-13.71-4.57-3.83-2.85-7.58-6.13-11.25-9.84l-22.11 22.1c4.03 4.15 7.93 7.74 11.76 10.79 3.87 3.2 7.85 5.78 12.03 7.69a56.92 56.92 0 0 0 13.44 4.53c4.8.98 10 1.45 15.59 1.45 7.69 0 14.72-1.17 21.13-3.6 6.4-2.38 11.91-5.74 16.56-10.07 4.65-4.34 8.24-9.61 10.78-15.82 2.58-6.1 3.87-12.9 3.87-20.43 0-6.06-1.37-12.31-4.1-18.71-2.54-6.26-5.9-12.47-10.08-18.72-4.14-6.25-8.87-12.34-14.14-18.24a415.573 415.573 0 0 0-15.39-16.8c3.87.47 8.16.86 12.97 1.22 4.96.46 9.14.7 12.5.7h25.43v-34.57zM1920.47 1487.62c-8.48 0-16.17 1.68-23.05 5.04-6.87 3.51-12.89 8.63-18.01 15.35-4.96 6.72-8.79 15.04-11.48 24.96-2.73 9.92-4.1 21.37-4.1 34.3 0 12.96 1.37 24.33 4.1 34.1 2.69 9.92 6.52 18.08 11.48 24.45 5.12 6.56 11.14 11.45 18.01 14.65 6.88 3.36 14.57 5.04 23.05 5.04 8.32 0 15.94-1.68 22.81-5.04 7.03-3.2 13.05-8.09 18.01-14.65 5.12-6.52 9.02-14.69 11.76-24.45 2.69-9.77 4.06-21.14 4.06-34.1 0-12.93-1.37-24.38-4.06-34.3-2.74-9.92-6.64-18.24-11.76-24.96-4.96-6.72-10.98-11.84-18.01-15.35-6.87-3.36-14.49-5.04-22.81-5.04zm0 31.68c2.38 0 4.65.54 6.72 1.68 2.22 1.25 4.18 3.67 5.78 7.18 1.56 3.52 2.85 8.4 3.83 14.65.93 6.21 1.44 14.38 1.44 24.46 0 10.07-.51 18.16-1.44 24.25-.98 6.1-2.27 10.78-3.83 14.14-1.6 3.36-3.56 5.55-5.78 6.49-2.07 1.13-4.34 1.68-6.72 1.68s-4.73-.55-6.95-1.68c-2.07-.94-3.91-3.13-5.51-6.49-1.6-3.36-2.89-8.04-3.87-14.14-.94-6.09-1.44-14.18-1.44-24.25 0-10.08.5-18.25 1.44-24.46.98-6.25 2.27-11.13 3.87-14.65 1.6-3.51 3.44-5.93 5.51-7.18 2.22-1.14 4.57-1.68 6.95-1.68zM1734.73 1310.47v23.51c8.94 8.32 17.26 16.18 24.96 23.52 7.81 7.38 14.61 14.26 20.39 20.66 5.74 6.57 10.23 12.74 13.44 18.48 3.36 5.94 5.03 11.45 5.03 16.56 0 6.88-1.75 11.92-5.27 15.12-3.36 3.36-7.85 5.04-13.44 5.04-5.11 0-9.68-1.52-13.71-4.57-3.83-2.85-7.58-6.13-11.25-9.84l-22.11 22.1c4.03 4.15 7.93 7.74 11.76 10.79 3.87 3.2 7.85 5.78 12.03 7.69a56.92 56.92 0 0 0 13.44 4.53c4.8.98 10 1.45 15.59 1.45 7.69 0 14.72-1.17 21.13-3.6 6.4-2.38 11.91-5.74 16.56-10.07 4.65-4.34 8.24-9.61 10.78-15.82 2.58-6.1 3.87-12.9 3.87-20.43 0-6.06-1.37-12.31-4.1-18.71-2.54-6.26-5.9-12.47-10.08-18.72-4.14-6.25-8.87-12.34-14.14-18.24a415.573 415.573 0 0 0-15.39-16.8c3.87.47 8.16.86 12.97 1.22 4.96.46 9.14.7 12.5.7h25.43v-34.57zM1925.27 1310.47v34.1h-64.8v28.79l51.83 89.3h51.37v-86.92H1980v-31.17h-16.33v-34.1zm-25.93 65.27h25.93v25.71c.16 3.2.32 6.4.47 9.6.16 3.21.31 6.29.47 9.34.2 3.2.35 6.09.51 8.63h-.98c-1.91-4.61-3.9-9.18-5.97-13.67-2.11-4.45-4.26-9.02-6.49-13.67z" style="fill:#a90c0c;fill-opacity:1;fill-rule:nonzero;stroke:none" transform="matrix(.13333 0 0 -.13333 0 393.333)"/><path d="M2269.41 1812.34c-1.48-5.04-3.75-12.14-6.71-21.29-2.82-8.98-6.37-20.27-10.63-33.9-4.14-13.6-6.17-20.9-6.17-21.84 0-.74 1.48-1.09 4.49-1.09 3.16 0 10.55 2.03 22.11 6.13 11.56 4.3 18.4 6.45 20.43 6.45 4.69 0 6.99-3.17 6.99-9.5 0-6.36-6.25-14.02-18.75-22.96-12.5-8.79-25.58-13.17-39.18-13.17-5.97 0-13.08 3.28-21.29 9.81-8.24 6.52-12.34 13.16-12.34 19.88 0 5.59 2.81 17.34 8.4 35.27 5.82 18.09 9.72 30.51 11.76 37.23-7.27-2.03-12.78-3.09-16.49-3.09-3.75 0-7.65 2.54-11.8 7.58-4.1 5.24-6.13 10.16-6.13 14.85 0 5.97 14.45 11.01 43.4 15.11 3.55 17.35 5.31 32.39 5.31 45.08 0 5.59 2.81 8.4 8.4 8.4 4.84 0 11.02-3.01 18.48-8.95 7.65-5.82 11.48-11.6 11.48-17.38 0-5.58-1.21-13.51-3.63-23.79 8.94.35 15.78.55 20.43.55 14.02 0 21.01-3.17 21.01-9.49 0-4.14-4.1-7.66-12.34-10.67-8.01-2.81-20.43-5.86-37.23-9.22zM2358.16 1912.3c0 7.82 3.09 11.76 9.26 11.76 5.04 0 10.82-4.22 17.35-12.61 6.52-8.4 9.8-15.59 9.8-21.57 0-5.97-1.21-14.37-3.63-25.19-2.42-10.82-4.96-20.71-7.58-29.69-2.42-8.95-6.13-21.76-11.17-38.36-5.04-16.41-8.52-27.89-10.39-34.41 12.15 24.61 24.92 44.68 38.36 60.19 13.63 15.47 25.04 23.24 34.18 23.24 5.78 0 12.42-5.15 19.88-15.43 7.46-10.07 11.21-19.21 11.21-27.42 0-8.04-1.52-19.8-4.49-35.27-3.01-15.51-8.21-30.43-15.71-44.81-7.46-14.37-15.11-21.56-22.93-21.56-6.17 0-9.25 4.38-9.25 13.17 0 6.32 1.87 16.68 5.62 31.05 5.39 21.49 8.09 34.53 8.09 39.22 0 4.65-.74 6.99-2.23 6.99-10.82 0-26.68-18.01-47.62-54.02-7.07-12.35-13.04-21.49-17.89-27.46-4.68-5.98-9.14-8.95-13.43-8.95-4.3 0-9.54 3.44-15.71 10.35-5.97 6.92-8.94 12.23-8.94 15.98 0 3.91.74 9.61 2.22 17.07 1.68 7.46 4.11 18.09 7.31 31.91 3.36 13.83 8.75 38.83 16.21 75.04 7.66 36.41 11.48 56.64 11.48 60.78zM492.809 1884.69c-4.571-11.57-10.821-21.88-18.707-31.02-8.051-8.87-17.422-15.78-28.243-20.78-10.898-4.69-23.007-7.11-36.41-7.19-13.551-.04-28.039 3.01-43.469 9.14-15.242 6.02-27.781 13.79-37.582 23.25-10 9.53-17.378 19.88-22.226 31.05-4.961 11.41-7.5 23.2-7.652 35.27-.079 12.31 2.14 24.22 6.71 35.75 4.77 12.11 11.45 21.91 20.04 29.49 8.402 7.65 17.152 13.44 26.25 17.38l20.75-37.26c-5.668-2.89-10.668-6.29-15-10.2-4.461-3.59-7.891-8.48-10.321-14.61-2.148-5.39-2.929-10.98-2.461-16.8.59-5.58 2.391-11.13 5.391-16.64 3.051-5.27 7.391-10.35 13.012-15.15 5.699-4.61 12.66-8.56 20.82-11.76 17.109-6.8 31.641-8.44 43.559-4.96 11.992 3.63 20.269 11.33 24.921 23.05 2.77 7.07 3.75 13.86 2.93 20.42-.98 6.84-2.82 13.05-5.551 18.68l40.078 13.16c5.821-11.33 8.942-23.01 9.372-35 .511-11.8-1.559-23.55-6.211-35.27zM468.441 2056.76l9.879-9.73 18.442 30.9-13.282 4.1c-9.3 2.74-19.3 5.9-29.96 9.49-10.668 3.56-20.821 6.84-30.469 9.77l-.629-1.02c7.457-7.03 15.308-14.37 23.519-22.07 8.161-7.42 15.661-14.57 22.5-21.44zm43.008-112.97-137.07 150.9 31.949 53.59 197.934-48.83-27.973-46.91-40.469 12.97-27.968-46.92 30.628-29.45zM608.551 2105.94l-146.832 128.32 36.332 41.56 79.41-30.35c5.269-2.23 10.59-4.61 16.019-7.23 5.43-2.62 10.899-5.15 16.442-7.62l.816.9a582.347 582.347 0 0 1-9.758 15.32c-3.32 5-6.41 9.96-9.3 14.88l-41.52 73.75 36.32 41.56 146.84-128.32-30.82-35.23-43.359 37.89a272.61 272.61 0 0 0-12.032 11.33c-4.14 4.37-8.32 8.86-12.578 13.39-4.453 4.65-8.633 9.26-12.652 13.83-3.988 4.53-7.578 8.63-10.789 12.23l-.82-.9 24.609-43.01 32.781-60.51-18.172-20.78-64.367 24.38-45.512 19.06-.781-.94c3.981-2.69 8.512-5.7 13.551-9.06a452.883 452.883 0 0 0 15.391-10.66c5.082-3.64 10-7.27 14.769-10.9 4.922-3.52 9.262-6.92 13.051-10.2l43.359-37.89zM757.809 2268.91l-121.09 152.85 55.98 44.33c8.321 6.57 16.91 12 25.821 16.21 8.75 4.42 17.57 6.8 26.441 7.19 8.75.55 17.379-1.17 25.898-5.15 8.52-3.68 16.602-10.32 24.141-19.89 7.461-9.41 12.148-18.83 14.02-28.32 2.07-9.33 2-18.43-.149-27.3-2.312-8.71-6.25-17.07-11.922-25.12-5.738-7.85-12.609-14.96-20.578-21.29l-16.492-13.04 38.359-48.44zm-23.239 112.46 14.571 11.52c7.968 6.37 12.379 12.89 13.16 19.65.937 6.84-1.321 13.75-6.789 20.62-5.473 6.92-11.453 10.08-17.891 9.57-6.492-.54-13.641-3.9-21.449-10.11L702.5 2421.8ZM974.488 2422.11l-108.199 165.78 48.551 20.78 43.48-74.06c4.918-8.99 9.961-17.93 15.078-26.84 5.122-8.9 10.122-17.85 15.082-26.83l1.09.47c-2.379 10.11-4.73 20.19-7.07 30.27-2.379 10.08-4.73 20.16-7.109 30.27l-16.411 85.63 39.692 16.99 50.668-70.98c5.5-8.32 11.13-16.87 16.87-25.74 5.67-8.67 11.37-17.42 17.11-26.29l1.13.47c-3.2 9.96-6.25 19.88-9.14 29.73-2.93 9.84-5.9 19.57-8.9 29.14l-23.6 82.58 45.24 19.37 46.95-192.03-60.12-25.74-44.26 65.27a387.14 387.14 0 0 0-12.92 19.57c-4.03 6.76-7.9 13.28-11.65 19.49l-1.09-.46c1.92-7 3.87-14.34 5.82-22 2.15-7.54 3.99-15.15 5.51-22.77l17.23-76.8zM1254.84 2515.55c-13.32-2.74-25.93-3.01-37.81-.82-11.72 2.26-22.34 6.79-31.95 13.59-9.42 7.03-17.58 16.25-24.46 27.7-6.91 11.64-11.99 25.31-15.23 40.97-3.28 15.67-4.02 30-2.23 43.05 1.72 13.2 5.59 24.73 11.49 34.57 6.09 10.04 14.06 18.32 23.94 24.88 10.08 6.6 21.76 11.25 35.08 14.03 13.13 2.73 25.63 3.08 37.46 1.05 11.88-2.03 22.5-6.45 31.88-13.28 9.57-6.8 17.81-15.82 24.65-27.03 6.79-11.25 11.87-24.73 15.11-40.39 3.25-15.67 4.03-30.2 2.35-43.64-1.76-13.24-5.63-24.96-11.68-35.19-5.9-10.04-13.83-18.44-23.87-25.2-10.04-6.79-21.6-11.56-34.73-14.29zm-9.02 43.47c11.52 2.43 19.49 9.3 23.91 20.63 4.53 11.56 5 26.05 1.36 43.47-3.63 17.43-9.76 30.16-18.36 38.17-8.47 8.24-18.47 11.17-30.03 8.75-11.53-2.38-19.65-9.06-24.3-20.04-4.53-10.74-4.96-24.84-1.33-42.27 3.63-17.42 9.73-30.54 18.32-39.41 8.71-8.59 18.87-11.68 30.43-9.3zM1368.01 2538.83l-5.59 194.92 73.79 2.11c10.39.31 20.31-.39 29.77-2.15 9.64-1.72 18.04-4.88 25.19-9.49 7.31-4.57 13.21-10.9 17.62-18.99 4.45-7.89 6.83-17.93 7.19-30.11.39-13.99-2.19-25.67-7.7-35.04-5.35-9.34-12.73-16.76-22.19-22.23l44.46-74.37-57.58-1.64-35.47 64.41-19.77-.55 1.88-65.39zm48.55 107.65 18.6.51c20.78.59 30.93 9.49 30.43 26.68-.24 8.4-3.09 14.14-8.6 17.19-5.27 3.05-13.04 4.41-23.24 4.14l-18.59-.55zM1550.7 2540.7l26.53 193.17 51.13-6.99-9.88-71.96 1.21-.15 58.59 65.23 55.86-7.66-68.4-70.54 53.21-124.22-55.86 7.69-32.62 80.16-22.03-23.63-6.6-48.13zM1803.59 2485.23c-11.83 3.6-22.65 8.99-32.38 16.1-9.53 7.26-17.19 16.09-23.05 26.44-5.58 10.47-8.98 22.39-10.15 35.67-1.13 13.51.7 28.24 5.54 44.1 4.77 15.7 11.45 28.83 20.08 39.37 8.71 10.75 18.4 18.99 29.14 24.69 10.98 5.86 22.5 9.38 34.53 10.55 12.27 1.09 24.3-.2 36.18-3.79 12.42-3.75 22.77-9.61 31.01-17.54 8.32-7.77 14.81-16.02 19.49-24.73l-35.43-23.75c-3.35 5.43-7.18 10.12-11.4 14.11-3.95 4.14-9.1 7.18-15.43 9.1-5.55 1.68-11.17 2.03-16.92 1.05-5.54-1.05-10.89-3.28-16.13-6.72-5.04-3.47-9.72-8.24-14.06-14.22-4.1-6.05-7.46-13.32-10.04-21.71-5.31-17.62-5.78-32.23-1.37-43.79 4.65-11.64 12.97-19.3 25.04-22.97 7.27-2.19 14.14-2.62 20.63-1.25 6.72 1.52 12.77 3.86 18.12 7.07l16.41-38.87c-10.82-6.76-22.19-10.82-34.1-12.23-11.72-1.44-23.64-.35-35.71 3.32zM1945 2426.68c-12.15 6.09-22.23 13.67-30.2 22.81-7.77 9.03-13.32 19.18-16.64 30.47-3.04 11.33-3.71 23.63-1.99 36.88 1.76 13.39 6.25 27.26 13.4 41.6 7.15 14.29 15.47 26.01 24.96 35.15 9.57 9.3 19.69 15.98 30.43 20 11.02 4.11 22.42 5.67 34.22 4.69 11.99-1.05 24.06-4.65 36.21-10.74 11.99-5.98 22.03-13.44 30.08-22.38 8.05-8.95 13.63-18.99 16.76-30.2 3.32-11.25 4.18-23.44 2.57-36.48-1.6-13.05-6.01-26.76-13.16-41.06s-15.55-26.21-25.19-35.7c-9.57-9.3-19.93-16.1-31.02-20.39-10.82-4.22-22.27-5.86-34.34-4.96-12.07.9-24.1 4.33-36.09 10.31zm19.84 39.73c10.59-5.28 21.1-4.85 31.57 1.32 10.7 6.29 20.04 17.39 28 33.29 7.97 15.93 11.06 29.72 9.26 41.32-1.52 11.72-7.58 20.24-18.12 25.51-10.55 5.27-21.06 5.04-31.53-.7-10.19-5.63-19.25-16.41-27.22-32.31-7.97-15.93-11.33-30.04-10.04-42.26 1.52-12.19 7.54-20.9 18.08-26.17zM2049.8 2373.01l115.28 157.3 101.64-74.49-25.55-34.84-60 43.98-18.08-24.69 51.29-37.61-25.51-34.85-51.33 37.62-20.55-28.09 62.42-45.74-25.54-34.84zM2176.48 2280.12l141.18 134.53 38.08-39.96-37.5-76.33c-2.65-5.04-5.54-10.12-8.63-15.27-3.09-5.2-6.13-10.43-9.06-15.71l.82-.9c5.43 2.7 10.82 5.47 16.09 8.32 5.31 2.86 10.55 5.47 15.7 7.9l77.23 34.64 38.09-39.96-141.18-134.53-32.3 33.91 41.72 39.72c3.59 3.44 7.73 7.11 12.34 10.94 4.77 3.71 9.61 7.5 14.49 11.33 5.04 3.98 10 7.73 14.93 11.33 4.88 3.55 9.29 6.76 13.16 9.65l-.82.86-45.08-20.55-63.24-27.15-19.02 20 30.11 61.88 23.13 43.55-.82.9c-3.05-3.75-6.49-8.01-10.28-12.74-3.78-4.68-7.81-9.49-12.03-14.33-4.06-4.73-8.12-9.3-12.18-13.71-3.95-4.57-7.74-8.6-11.33-12.03l-41.72-39.73zM2432.34 2125.82l-13.12-4.65 19.76-30.12 9.5 10.2c6.52 7.15 13.75 14.77 21.6 22.81 7.89 8.05 15.27 15.74 22.15 23.13l-.67 1.01c-9.57-3.63-19.61-7.5-30.11-11.52-10.24-4.1-19.97-7.7-29.11-10.86zm-120.43 10.66 195.59 57.39 34.26-52.19L2411.37 1985l-29.96 45.66 29.33 30.75-29.96 45.62-39.88-14.69zM2415.78 1974.92l178.75 77.89 21.09-48.4-62.5-74.33-32.73-34.57.51-1.1c4.53 2.62 9.45 5.55 14.84 8.75a577.37 577.37 0 0 0 16.49 9.5c5.78 3.16 11.52 6.32 17.15 9.41 5.89 3.01 11.56 5.7 17.07 8.13l51.71 22.53 19.65-45.11-178.75-77.89-21.09 48.39 62.77 74.46 32.42 34.45-.46 1.09c-9.77-5.58-20.4-11.71-31.88-18.47-11.44-6.72-22.7-12.5-33.67-17.31l-51.72-22.54z" style="fill:#2c2e6a;fill-opacity:1;fill-rule:nonzero;stroke:none" transform="matrix(.13333 0 0 -.13333 0 393.333)"/><path d="M1139.77 697.461s6.71.937 10.39 2.5c2.96 1.598 7.38 5.43 10.27 8.48 2.93 2.34 5.08 6.129 9.49 8.469 0 0 5.94 2.391 11.88 2.539-17.42 10.781-34.14 21.571-50.16 33.871v-.781c-5.23.621-11.17-1.019-11.17-1.019-5.2-1.641-8.09-5.469-10.27-7.731-3.68-2.34-8.79-6.207-11.8-7.027-3.67-1.602-10.43-1.024-10.43-1.024 16.05-13.789 33.55-26.047 51.05-38.277zM1211.02 656.68s6.68 1.679 10.43 3.242c2.14 2.308 6.52 6.918 8.67 9.957 2.93 3.051 4.33 6.84 8.75 9.922 0 0 5.15 3.129 11.09 4.031-18.87 7.727-37.07 16.988-54.49 26.988h.74c-5.98-.859-11.87-3.281-11.87-3.281-4.42-2.34-6.57-6.129-8.72-9.18-2.96-2.308-7.34-6.91-10.27-8.48-3.71-1.559-10.39-2.457-10.39-2.457 17.46-10.82 36.41-21.524 55.35-30.781zM1287.27 625.738s6.71 1.641 9.61 4.731c2.18 2.301 5.82 6.871 7.96 10.621 1.41 3.051 2.78 7.582 7.19 10.672 0 0 4.42 3.859 10.35 5.508-19.61 5.46-39.22 12.46-57.34 20.23l.04-.781c-5.2-.86-10.35-3.989-10.35-3.989-4.42-3.121-5.82-7.609-7.97-10.66-2.89-3.05-6.53-7.621-9.46-9.961-2.92-2.308-9.64-3.199-9.64-3.199 18.9-9.262 38.55-16.961 58.9-23.949zM1767.62 658.789s2.81 6.051 3.47 9.801c-.07 3.012-.97 9.691-1.83 13.398-.82 3.711-3.17 7.391-3.28 12.621 0 0 1.32 6.012 3.43 11.289-17.69-10.117-35.39-18.828-53.9-26.757-2.85-4.571-4.96-10.59-4.96-10.59-1.33-6.012-.51-8.199-.39-12.731.82-3.672-.51-10.468-1.18-13.48-.66-3.75-3.47-11.289-3.47-11.289 19.29 7.23 42.93 17.539 62.15 27zM1838.32 699.41s2.81 6.801 2.7 11.289c-.82 2.973-2.47 8.91-4.07 12.621-1.56 2.93-3.86 6.602-4.02 11.84 0 0-.16 6.719 1.91 12.031-16.83-12.39-33.75-23.281-50.7-33.441h.74c-2.85-5.309-3.43-11.289-3.43-11.289.11-5.191 2.46-8.871 3.32-12.621.82-3.668 2.46-9.61 2.53-13.36-.62-3.75-3.47-9.8-3.47-9.8 18.44 9.41 36.83 20.351 54.49 32.73zM1903.52 750.391s1.32 6.757 1.25 10.507c-.82 2.973-3.99 8.832-5.55 12.543-1.56 2.93-5.39 5.86-6.29 11.047 0 0-.16 5.981.47 11.992-14.61-13.859-29.96-27.691-45.35-40.031v.742c-1.37-6.019-1.21-11.961-1.21-11.961.11-5.23 3.2-8.898 4.76-11.832 1.6-3.707 4.02-9.609 4.1-12.617.08-3.711-1.99-10.511-1.99-10.511 17.66 11.679 33.75 25.55 49.84 39.378zM1223.71 450.781c-10.31-6.992-16.13-12.34-16.13-12.34l33.08-36.531 12.89 20.469zM1241.13 470.621c28.52 24.649 53.21-6.09 53.21-6.09l-21.14-21.441ZM1753.36 454.449c9.88-7.219 15.98-12.301 15.98-12.301l-32.66-37.418-13.24 20.579zM1735.7 473.551c-29.06 24.769-52.93-6.602-52.93-6.602l20.75-21.211zM1679.57 534.77c-38.59 19.21-58.01-10.391-58.01-10.391 23.44-10.629 42.78-36.289 42.78-36.289l6.21-9.57-.78.742s29.06 32.847 51.25 13.238c-9.26 11.719-17.74 21.988-22.39 27.07-3.79 3.629-10.66 9.45-19.06 15.2zM1693.55 544.102c21.76 26.718 11.25 57.808 7.11 72.66l-45-22.071c.79-2.23 7.82-14.73-4.49-30 0 0 44.57-17.543 42.38-20.589zM1427.62 513.48c-4.5-.898-8.21-.98-12.7-1.101-7.46-.188-15.7 1.141-22.54 3.91-5.47-19.527-49.65-16.168-49.65-16.168 16.06-14.531 37.27-25.242 59.77-28.359l-.04.738s24.53 5.82 24.38 41.719zM1605 530.66c0-.738 29.88 29.141 49.53 20.672l-4.57 3.629c-17.54 13.008-39.37 19.918-60.31 20.121-18.67-.473-51.41-6.531-58.56-18.672 0 0 28.52-5.238 46.92-22.699 1.52-1.441 8.98.199 26.99-3.051zM1328.67 496.762c-8.83-6.211-13.9-11.532-13.9-11.532l-8.79-8.468.74.039s-29.22 32.89-51.13 12.89c8.71 11.438 16.6 22.809 21.71 27.457 4.38 5.352 10.2 10.743 19.03 15.391l-2.93-1.519c3.71 1.562 6.68 2.378 9.61 3.98.04 0 6.72-28.238 25.66-38.238zM1558.01 528.012c-26.72 20.937-52.93 24.019-72.5 29.527l-38.17-27.891 46.68-14.488c14.3-3.359 17.46-10.039 35.67-20.781 0 0 40.51 24.922 28.32 33.633zM1638.87 491.172c-14.57-15.313-39.92-17.422-39.92-17.422-17.15-1.211-33.64.629-54.11 12.07 0 0 33.01 23.95 31.25 35.121 8.25-1.293 32.27-5.16 38.13-.511 0 0 8.71-19.961 24.65-29.258zM1440.2 516.02l.74.781 19.53-3.992c35.35-8.079 41.44-13.161 41.44-13.161s-38.63-38.316-73.98-30.238c0 0 25.66 20.078 13.01 47.391zM1686.99 626.879s1.37 4.492 1.99 8.281c.71 2.961 2.07 7.5 1.25 11.25-.07 3.711-3.16 6.641-1.79 11.129 0 0 3.47 11.293 7.11 15.859-19.3-7.187-46.64-18.316-64.34-28.476-4.41-2.383-8.09-4.723-8.09-4.723-2.14-4.539-2.81-8.289-2.69-12 .08-3.75-.51-9.758-.39-13.469.19-8.992-7.7-21.14-7.7-21.14 20.82 4.301 47.43 16.922 64.3 27.82zM1573.91 637.461c17.54 15.391 32.3 21.019 44.33 18.32 40.67 18.199 47.35 19.879 47.35 19.879-16.18 18.25-32.7 20.82-61.02 19.379-12.69-1.09-51.17-16.25-56.95-24.609z" style="fill:#2c2e6a;fill-opacity:1;fill-rule:evenodd;stroke:none" transform="matrix(.13333 0 0 -.13333 0 393.333)"/><path d="M1573.91 637.461s-32.78 24.57-23.36 36.059zM1365.47 517.891c4.45 1.597 8.83 5.468 10.31 6.988h.74c-16.01 11.57-26.21 30.711-26.72 51.601-28.51 3.051-35.31 34.969-35.31 34.969-4.18-11.289-6.13-22.5-5.82-35.238.55-21.641 7.07-42.379 18.71-59.301l.74.039s21.76-3.937 37.35.942zM1322.3 628.871s7.58-33.441 30-34.34c4.15 14.258 22.39 31.168 34.15 39.688l4.33 5.351c-4.41 27.5 7.89 43.52 7.89 43.52l-12.62-3.32c-26.71-8.129-50.15-27.43-63.75-50.899zM1424.14 680c3.56 5.309 10.35 3.238 14.84 4.102 24.57 3.597 59.34-11.911 66.45-27.461l-11.02-8.481c-8.71-8.43-22.14-10.269-22.14-10.269l-6.02 2.109c-7.54 2.77-19.53 3.949-28.52 3.711-8.2-.191-17.96 1.801-25.35-1.371-9.96 9.461 11.76 37.66 11.76 37.66zM1536.13 592.422c-3.67-1.602 20.47-9.184 57.66-3.012l-.04.75s5.12 5.352 6.56 8.36c.67 3 3.44 10.539 3.32 14.25.67 3.789 1.41 6.019 1.25 11.289 0 0-.11 4.461 2 9.031-4.42-2.391-26.65-10.391-26.65-10.391-5.93-1.679-10.39-2.5-10.39-2.5-2.93-2.347-5.86-5.398-8-7.699-2.23-1.559-6.61-5.391-10.98-10-2.23-1.559-13.24-8.551-14.73-10.078zM1451.17 585.82s-3.01-.082.35 16.41c.63 4.532 2.03 7.54 3.44 11.321 1.41 3.008 2.77 7.5 6.41 12.109 0 0-5.16-3.121 0 0l-7.46-.93c-20.94 1.719-31.45 2.93-50.98 6.168-5.23-.16 0 0 0 0-5.94-1.636-14.73-7.847-16.88-11.636-1.4-3.012-4.37-4.571-6.56-6.883-2.15-2.297-7.22-9.141-7.22-9.141 20.39-8.468 58.75-18.707 78.9-17.418zM1561.45 628.91s-27.47 21.711-23.4 38.281c-29.22-27.66-40.82-41.371-65.47-41.992-6.72-.937-1.53-.039-1.53-.039-2.85-3.828-4.21-9.07-5.62-12.859-.66-3.75-2.07-7.5-1.95-11.25-.47-10.461.31-13.43.31-13.43 27.69-.781 25.47-1.601 50.7 5.777 0 0 17.03 6.403 33.05 23.243 2.93 2.308 10.98 9.218 13.91 12.269zM1462.23 562.93c-30.94 10.39-72.82 13.09-95 3.55l5.47-10.308 16.21-20.512 17.89 1.961s13.47.348 24.06-4.652c0 0 27.62 30.582 31.37 29.961zM1744.3 458.711l-3.87 4.379-29.22-26.879 3.83-4.371zM1260.08 430.039l3.63 4.57-29.02 26.172-3.64-4.57z" style="fill:#2c2e6a;fill-opacity:1;fill-rule:evenodd;stroke:none" transform="matrix(.13333 0 0 -.13333 0 393.333)"/><path d="M2544.77 1329.41c-3.56 4.14-9.3 11.92-12.74 17.31-3.48 5.39-6.44 10.04-6.68 10.31-.27.31-2.65-1.01-5.35-2.85-8.87-6.13-14.57-7.81-24.1-7.15-14.65 1.06-24.02 8.24-27.42 21.02-1.41 5.15-1.29 7.07.74 13.55 1.87 6.13 3.94 9.18 10.62 15.74 8.44 8.28 12.7 10.39 11.45 5.67-.94-3.63 1.8-11.02 5.19-14.1 4.14-3.79 9.3-4.65 14.54-2.46 5.15 2.14 10.27 8.71 7.53 9.64-.93.32-3.28 1.92-5.19 3.56-2.89 2.5-3.52 4.14-3.52 9.14 0 5.27.59 6.64 4.38 10 4.02 3.59 4.3 4.37 3.55 9.37-1.09 7.27-5.97 17.58-11.09 23.4-10.55 12.03-28.24 13.64-37.5 3.4-6.06-6.68-8.71-17.62-7.11-29.53.51-3.75.51-6.84.08-6.84-.47 0-4.96 2.86-9.96 6.37-24.18 16.99-35.31 39.1-31.92 63.48 2.27 16.36 7.85 27.15 19.14 37.11 15.16 13.32 40.63 15.39 58.79 4.76l5.39-3.16 2.78 11.33c3.59 14.49 10.11 27.26 26.13 51.09 15.78 23.52 19.3 29.49 22.27 37.93l2.34 6.6 3.67-9.45c3.56-9.14 8.24-17.35 25.51-44.61 12.73-20.12 20.9-40 20.9-50.9 0-1.87.23-3.4.51-3.4.31 0 4.57 1.92 9.49 4.22 8.24 3.95 9.96 4.26 22.03 4.26 11.56-.04 13.98-.47 21.17-3.75 5.39-2.5 10.59-6.33 15.39-11.41 21.25-22.26 21.41-57.61.35-82.69-4.14-4.92-28.08-22.58-29.1-21.41-.15.2.16 3.59.7 7.54 3.01 21.52-6.56 36.64-23.16 36.56-8.2-.04-15.59-3.51-21.56-10.15-5.94-6.61-8.13-10.71-10.55-20l-1.87-7.27 4.37-4.18c3.63-3.48 4.38-5.12 4.38-9.76 0-4.42-.75-6.33-3.64-9.11-2.03-1.95-4.37-3.51-5.23-3.51-5.08 0 3.59-10.08 9.65-11.21 9.29-1.76 16.21 4.1 17.5 14.8l.66 5.78 6.06-4.61c11.71-8.98 18.94-25.11 15.7-34.96-4.3-12.85-14.38-20-28.28-20-9.65 0-16.06 2.11-23.4 7.74l-5.7 4.33-5.98-9.37c-7.62-11.92-19.96-25.67-23.05-25.67-1.29 0-5.27 3.36-8.86 7.5z" style="fill:#fff;fill-opacity:1;fill-rule:nonzero;stroke:none" transform="matrix(.13333 0 0 -.13333 0 393.333)"/><path d="M1466.45 2853.17C706.957 2850.08 93.793 2231.92 96.84 1472.46 99.926 712.969 718.09 99.762 1477.54 102.848c759.49 3.047 1372.69 621.211 1369.61 1380.702-3.05 759.5-621.21 1372.66-1380.7 1369.62z" style="fill:none;stroke:#a90c0c;stroke-width:129.65699768;stroke-linecap:butt;stroke-linejoin:miter;stroke-miterlimit:4;stroke-dasharray:none;stroke-opacity:1" transform="matrix(.13333 0 0 -.13333 0 393.333)"/><path d="m2601.64 880.551 301.95-42.43-138.75-125.23 99.14-156.95-301.99 42.379z" style="fill:#a90c0c;fill-opacity:1;fill-rule:nonzero;stroke:none" transform="matrix(.13333 0 0 -.13333 0 393.333)"/><path d="m2601.64 880.551 301.95-42.43-138.75-125.23 99.14-156.95-301.99 42.379z" style="fill:none;stroke:#fff;stroke-width:56.69290161;stroke-linecap:square;stroke-linejoin:round;stroke-miterlimit:4;stroke-dasharray:none;stroke-opacity:1" transform="matrix(.13333 0 0 -.13333 0 393.333)"/><path d="m2601.64 880.551 301.95-42.43-138.75-125.23 99.14-156.95-301.99 42.379zM342.379 880.551l-301.988-42.43 138.75-125.23L80 555.941l301.988 42.379Z" style="fill:#a90c0c;fill-opacity:1;fill-rule:nonzero;stroke:none" transform="matrix(.13333 0 0 -.13333 0 393.333)"/><path d="m342.379 880.551-301.988-42.43 138.75-125.23L80 555.941l301.988 42.379Z" style="fill:none;stroke:#fff;stroke-width:56.69290161;stroke-linecap:square;stroke-linejoin:round;stroke-miterlimit:4;stroke-dasharray:none;stroke-opacity:1" transform="matrix(.13333 0 0 -.13333 0 393.333)"/><path d="m342.379 880.551-301.988-42.43 138.75-125.23L80 555.941l301.988 42.379Z" style="fill:#a90c0c;fill-opacity:1;fill-rule:nonzero;stroke:none" transform="matrix(.13333 0 0 -.13333 0 393.333)"/><g clip-path="url(#c)" transform="matrix(.13333 0 0 -.13333 0 393.333)"><g clip-path="url(#d)"><path d="M3286.52 837.379c-1814.53 266.141-1814.53 266.141-3629.059 0v-285c1814.529 266.141 1814.529 266.141 3629.059 0z" style="fill:#a90c0c;fill-opacity:1;fill-rule:evenodd;stroke:none"/></g></g><path d="M546.801 805.43 540 822.699a781.386 781.386 0 0 0-12.07 29.883 1665.354 1665.354 0 0 1-11.84 30.539l-1.168-.152a6725.66 6725.66 0 0 0-3.32-32.809c-.981-11.019-2.223-21.57-3.711-31.64l-2.461-18.481zm13.398-33.051-59.219-7.731-5.902-47.66-44.609-5.816 35.39 201.879 52.661 6.871 85.968-186.051-46.398-6.062zM645.27 933.59l45 5.242 61.878-90.672 24.063-40.699 1.168.16c-2.18 10.188-4.719 21.598-7.578 34.141-2.692 12.578-4.68 24.648-6.012 36.168l-7.969 68.519 41.719 4.84 22.582-194.301-45-5.187-61.922 90.929-23.98 40.122-1.207-.153c2.258-10.629 4.687-22 7.297-34.179 2.812-12.149 4.921-23.989 6.25-35.508l8.011-68.871-41.718-4.84zM870.43 959.18l45.121 4.179 59.719-92.07 23.089-41.25 1.211.121a2565.6 2565.6 0 0 1-6.8 34.289c-2.379 12.66-4.098 24.731-5.149 36.289l-6.371 68.711 41.84 3.871 18-194.769-45.11-4.172-59.769 92.383-23.051 40.66-1.172-.121a7524.365 7524.365 0 0 1 6.492-34.371c2.54-12.192 4.329-24.098 5.43-35.629l6.36-69.02-41.829-3.871zM1096.33 978.629l43.98 3.012 13.24-195.161-44.02-3zM1189.18 985.23l46.76 1.84 27.03-90.191c3.4-10.668 6.41-21.059 9.02-31.18 2.81-9.879 5.9-20.187 9.34-30.859l1.21.082c2.34 10.898 4.53 21.367 6.52 31.488 2.03 10.27 4.18 20.86 6.56 31.75l19.46 92.07 45 1.758-51.02-197.769-53.04-2.11zM1411.21 992.578l122.38.043.04-37.191-78.32-.039.04-39.301 66.6.039v-36.91l-66.6-.039v-45l81.33.039v-37.188l-125.39-.082zM1646.45 899.449l22.77-.898c11.6-.461 20.51 1.57 26.68 6.14 6.4 4.719 9.8 11.911 10.19 21.481.39 9.609-2.46 16.406-8.47 20.469-5.86 4.019-14.57 6.289-26.17 6.757l-22.78.903zm57.5-108-34.61 71.949-24.3.981-2.85-70.43-44.07 1.789 7.9 195.434 70.43-2.852c10.39-.429 20.07-1.8 28.98-4.179 9.1-2.34 16.95-6.09 23.55-11.129 6.61-4.891 11.76-11.293 15.43-19.262 3.71-7.969 5.32-17.73 4.85-29.301-.59-14.41-4.26-26.168-11.06-35.308-6.56-8.942-15.23-15.469-26.01-19.653l41.21-80.039zM1817.73 839.801c6.53-6.481 13.83-11.949 21.92-16.36 8.28-4.461 16.52-6.992 24.69-7.621 9.18-.66 16.09.512 20.74 3.559 4.84 3.043 7.46 7.461 7.93 13.242.19 3-.28 5.66-1.53 7.93-1.01 2.301-2.77 4.328-5.23 6.129-2.27 1.949-5.16 3.789-8.63 5.468a408.972 408.972 0 0 1-10.98 5.942l-24.61 12.691a79.417 79.417 0 0 0-14.06 8.867 72.865 72.865 0 0 0-11.76 12.032c-3.24 4.652-5.74 9.84-7.54 15.621-1.76 5.937-2.34 12.5-1.79 19.687.58 7.973 2.85 15.313 6.75 22.032 3.95 6.96 9.18 12.781 15.78 17.46 6.57 4.93 14.18 8.559 22.78 10.942 8.79 2.348 18.28 3.129 28.47 2.348 11.37-.86 22.35-3.911 33.01-9.11 10.82-5.23 20.12-12.34 27.85-21.359l-24.53-26.141c-6.01 5.469-12.11 9.77-18.28 12.82-6.17 3.282-13.16 5.231-20.94 5.821-7.57.539-13.79-.59-18.59-3.442-4.61-2.66-7.15-6.757-7.58-12.339-.19-3.008.28-5.629 1.52-7.93 1.45-2.11 3.4-4.18 5.86-6.18 2.66-1.789 5.75-3.629 9.22-5.5 3.48-1.68 7.23-3.558 11.29-5.672l24.38-12.066c11.6-5.703 20.47-12.973 26.6-21.871 6.37-8.91 9.02-20.242 7.97-33.992-.63-8.2-2.89-15.821-6.84-22.969-3.75-6.91-9.02-12.961-15.82-18.039-6.6-4.922-14.61-8.711-24.02-11.449-9.42-2.461-19.92-3.282-31.49-2.422-12.77.98-25.35 4.218-37.77 9.769-12.19 5.742-22.93 13.672-32.19 23.821zM2080.27 842.93l-2.65 18.359c-1.8 10.043-3.44 20.66-4.92 31.871-1.45 11.18-2.97 22-4.54 32.43l-1.21.109c-3.43-10.109-6.99-20.5-10.7-31.211-3.48-10.468-7.11-20.468-10.86-29.918l-6.6-17.422zm5.47-35.231-59.41 6.012-16.64-45.039-44.77 4.566 80.67 188.403 52.85-5.391 41.09-200.781-46.56 4.761zM2239.3 849.879l22.65-2.731c11.53-1.367 20.55-.039 27.07 3.981 6.76 4.262 10.71 11.141 11.84 20.672 1.17 9.531-1.13 16.519-6.84 21.051-5.5 4.488-13.98 7.418-25.5 8.789l-22.66 2.738zm48.75-112.219-28.79 74.449-24.14 2.93-8.4-70-43.79 5.27 23.36 194.179 70-8.398c10.31-1.25 19.8-3.391 28.51-6.481 8.91-3.089 16.45-7.379 22.62-12.968 6.21-5.391 10.82-12.192 13.87-20.43 3.05-8.199 3.87-18.09 2.46-29.609-1.72-14.301-6.33-25.704-13.79-34.301-7.26-8.352-16.41-14.211-27.5-17.531l34.73-83.051zM2425.78 790.199l-42.11 132.653 46.99-6.172 11.37-46.91c1.8-7.7 3.44-15.2 4.92-22.43 1.68-7.11 3.4-14.57 5.2-22.5l1.17-.149c3.79 7.188 7.38 13.938 10.86 20.348 3.71 6.563 7.42 13.359 11.17 20.313l23.44 42.308 45.78-6.058-75.08-117.192-9.1-68.98-43.71 5.781z" style="fill:#fff;fill-opacity:1;fill-rule:nonzero;stroke:none" transform="matrix(.13333 0 0 -.13333 0 393.333)"/><path d="m475.121 655-204.769-27.301-54.102 303 65.43 11.371M2468.87 655l204.76-27.301 54.1 303-65.43 11.371" style="fill:none;stroke:#fff;stroke-width:28.3465004;stroke-linecap:butt;stroke-linejoin:round;stroke-miterlimit:4;stroke-dasharray:none;stroke-opacity:1" transform="matrix(.13333 0 0 -.13333 0 393.333)"/></svg>