<svg xmlns="http://www.w3.org/2000/svg" width="3in" height="3in" viewBox="0 0 288 288"><circle cx="144" cy="144" r="144" fill="#0d3b02" style="display:inline;fill:maroon;stroke-width:.576;fill-opacity:1"/><g transform="matrix(1.68 0 0 1.68 43.2 43.2)"><path fill="#ce1126" d="m47.28 0-1.167.074-1.17.127-1.08.469-1.07.466-1.02.582-.876.784-.774.872-.878.766-.854.788-.877.763-.75.894-.91.729-.819.824-.759.884-.926.73-1.005.608-1.054.51-1.114.366-1.125.294-1.122.304-1.144.217-1.1.383-1.15.191-1.112.337-1.123.294-1.135.248-1.087.435-1.076.452-1.005.604-.924.73-.805.865-.542 1.05-.6 1.004-.424 1.097-.26 1.134-.318 1.118-.28 1.128-.451 1.078-.286 1.127-.22 1.144-.44 1.082-.227 1.143-.411 1.101-.547 1.039-.715.927-.784.861-.837.808-.793.852-.822.821-.817.826-.885.754-.794.849-.856.785-.829.813-.82.846-.571 1.03-.563 1.022-.364 1.11-.234 1.14-.145 1.16.051 1.17.154 1.168.388 1.1.283 1.129.293 1.123.262 1.131.269 1.13.311 1.12.227 1.14.351 1.108.129 1.172.151 1.17-.234 1.16-.117 1.174-.41 1.091-.3 1.124-.282 1.127-.382 1.098-.318 1.117-.216 1.146-.45 1.079-.323 1.115-.199 1.164-.057 1.173L0 73.848l.261 1.15.451 1.082.416 1.095.713.932.725.912.743.9.822.822.889.756.762.878.85.792.752.889.826.816.803.838.731.916.684.955.556 1.042.346 1.131.18 1.154.359 1.108.302 1.122.19 1.149.28 1.127.29 1.124.238 1.137.442 1.087.266 1.142.525 1.05.616 1 .823.837.77.898.976.671 1.068.508 1.117.374 1.128.283 1.11.348 1.105.36 1.136.25 1.106.357 1.126.285 1.1.373 1.154.189 1.054.535 1.06.49.983.635.84.817.845.8.797.847.869.776.7.938.883.76.766.875.86.783.818.823.87.777.89.775 1.046.553 1.152.266 1.136.277 1.166.12 1.165-.129 1.142-.22 1.134-.258 1.157-.166 1.088-.439 1.137-.236 1.13-.272 1.113-.332 1.137-.237 1.115-.329 1.165-.203 1.178-.007 1.163.15 1.17.143 1.115.328 1.085.435 1.144.226 1.13.267 1.098.385 1.1.376 1.132.267 1.114.326 1.145.272 1.173.119 1.172-.123 1.171-.14 1.123-.37 1.021-.588 1.044-.55.86-.81.773-.873.83-.814.942-.697.781-.862.83-.812.826-.815.853-.789.764-.88.919-.745 1.012-.604 1.08-.454 1.115-.348 1.134-.256 1.1-.394 1.116-.324 1.125-.286 1.143-.217 1.123-.297 1.152-.175 1.126-.286 1.078-.486 1.082-.45.973-.654.942-.708.69-.956.772-.892.5-1.067.335-1.124.388-1.098.224-1.145.377-1.1.286-1.126.38-1.099.279-1.128.256-1.134.33-1.113.472-1.08.547-1.034.652-.972.751-.903.807-.839.85-.792.895-.747.776-.867.86-.78.86-.781.836-.805.798-.846.732-.911.7-.933.582-1.018.35-1.12.326-1.13-.028-1.179-.067-1.16-.129-1.165-.356-1.109-.197-1.149-.28-1.127-.276-1.128-.27-1.13-.33-1.113-.236-1.138-.363-1.106-.204-1.16-.081-1.174.163-1.166.294-1.13.22-1.147.291-1.125.337-1.112.325-1.115.296-1.122.339-1.11.394-1.096.314-1.118.13-1.17.15-1.158.041-1.171v-.011l-.285-1.145-.43-1.09-.42-1.096-.598-1.017-.869-.802-.728-.913-.804-.84-.804-.84-.808-.833-.798-.843-.814-.827-.885-.76-.84-.802-.728-.93-.553-1.037-.562-1.027-.334-1.124-.284-1.127-.348-1.11-.194-1.15-.25-1.134-.374-1.103-.278-1.127-.226-1.14-.319-1.118-.314-1.137-.627-1.001-.603-.999-.767-.882-.872-.774-.909-.748-1.062-.506-1.1-.421-1.137-.248-1.094-.405-1.148-.21-1.113-.33-1.1-.377-1.103-.364-1.156-.181-1.113-.332-1.057-.523-1.054-.498-.985-.63-.896-.762-.774-.87-.863-.782-.823-.82-.75-.89-.868-.775-.793-.848-.806-.836-.81-.83-.79-.878-1.048-.543-.987-.638-1.139-.292-1.122-.346L74.51.378l-1.168.104-1.138.256-1.167.126-1.1.392-1.14.23-1.106.362-1.146.204-1.135.244-1.106.365-1.124.29-1.162.178-1.169.013-1.174-.015-1.13-.318-1.123-.297-1.149-.213-1.107-.354-1.123-.291-1.092-.406L51.829.95 50.704.664l-1.125-.29-1.138-.251Z" style="fill:#ff0;fill-opacity:1;fill-rule:evenodd"/><ellipse cx="60" cy="60" fill="#fff" rx="51.714" ry="51.73" style="fill:navy;fill-opacity:1;fill-rule:evenodd;stroke-width:1.07772"/><path d="M63.29 14.045a46.236 46.236 0 0 0-6.578-.006.808.808 0 0 0-.748.864.808.808 0 0 0 .864.749c2.11-.15 4.233-.146 6.345.005a.808.808 0 0 0 .865-.747.808.808 0 0 0-.748-.865zm6.509.932a.808.808 0 0 0-.96.618.808.808 0 0 0 .618.96 43.907 43.907 0 0 1 6.088 1.784.808.808 0 0 0 1.04-.475.808.808 0 0 0-.475-1.04 45.503 45.503 0 0 0-6.311-1.847zm-19.595-.008a45.401 45.401 0 0 0-6.311 1.854.808.808 0 0 0-.473 1.042.808.808 0 0 0 1.04.472 43.768 43.768 0 0 1 6.085-1.788.808.808 0 0 0 .62-.962.808.808 0 0 0-.96-.618zm31.888 4.59a.808.808 0 0 0-1.098.32.808.808 0 0 0 .322 1.098 44.122 44.122 0 0 1 5.335 3.434.808.808 0 0 0 1.13-.16.808.808 0 0 0-.16-1.133 45.709 45.709 0 0 0-5.53-3.56zm-44.178 0a46.009 46.009 0 0 0-5.53 3.561.808.808 0 0 0-.162 1.132.808.808 0 0 0 1.132.16 44.372 44.372 0 0 1 5.335-3.433.808.808 0 0 0 .322-1.097.808.808 0 0 0-1.097-.322zm54.1 7.634a.808.808 0 0 0-.571.235.808.808 0 0 0 0 1.144 44.67 44.67 0 0 1 4.153 4.798.808.808 0 0 0 1.132.162.808.808 0 0 0 .162-1.132 46.25 46.25 0 0 0-4.304-4.97.808.808 0 0 0-.571-.237Zm-63.456.234a.808.808 0 0 0-1.142 0 46.173 46.173 0 0 0-4.31 4.968.808.808 0 0 0 .163 1.13.808.808 0 0 0 1.132-.16 44.525 44.525 0 0 1 4.157-4.794.808.808 0 0 0 0-1.144ZM99.351 37.61a.808.808 0 0 0-.322 1.097 44.024 44.024 0 0 1 2.638 5.769.808.808 0 0 0 1.04.476.808.808 0 0 0 .476-1.04 45.635 45.635 0 0 0-2.734-5.98.808.808 0 0 0-1.098-.322Zm-78.705-.008a.808.808 0 0 0-1.098.322 45.386 45.386 0 0 0-2.732 5.983.808.808 0 0 0 .478 1.04.808.808 0 0 0 1.04-.476 43.78 43.78 0 0 1 2.633-5.771.808.808 0 0 0-.321-1.098zm83.427 12.001a.808.808 0 0 0-.618.962 43.87 43.87 0 0 1 .893 6.28.808.808 0 0 0 .862.75.808.808 0 0 0 .75-.86 45.5 45.5 0 0 0-.927-6.513.808.808 0 0 0-.96-.619zM15.931 49.6a.808.808 0 0 0-.96.619 46.325 46.325 0 0 0-.928 6.51.808.808 0 0 0 .75.864.808.808 0 0 0 .863-.748 44.71 44.71 0 0 1 .896-6.284.808.808 0 0 0-.62-.96zm89.274 12.845a.808.808 0 0 0-.865.748 44.716 44.716 0 0 1-.9 6.283.808.808 0 0 0 .616.96.808.808 0 0 0 .963-.618c.466-2.144.776-4.321.934-6.508a.808.808 0 0 0-.748-.865zm-90.415-.003a.808.808 0 0 0-.75.862 45.49 45.49 0 0 0 .933 6.51.808.808 0 0 0 .962.619.808.808 0 0 0 .617-.962c-.451-2.068-.75-4.17-.898-6.28a.808.808 0 0 0-.864-.749zm87.903 12.646a.808.808 0 0 0-1.04.476 43.765 43.765 0 0 1-2.639 5.768.808.808 0 0 0 .32 1.098.808.808 0 0 0 1.097-.32 45.409 45.409 0 0 0 2.738-5.983.808.808 0 0 0-.476-1.039zm-84.77.018a.808.808 0 0 0-.62-.022.808.808 0 0 0-.474 1.04 45.617 45.617 0 0 0 2.741 5.979.808.808 0 0 0 1.098.32.808.808 0 0 0 .318-1.097 44 44 0 0 1-2.642-5.768.808.808 0 0 0-.421-.452ZM96.108 86.35a.808.808 0 0 0-.532.314 44.522 44.522 0 0 1-4.162 4.791.808.808 0 0 0-.001 1.144.808.808 0 0 0 1.142 0 46.126 46.126 0 0 0 4.314-4.963.808.808 0 0 0-.163-1.132.808.808 0 0 0-.598-.154zm-72.815.147a.808.808 0 0 0-.162 1.133 46.16 46.16 0 0 0 4.309 4.965.808.808 0 0 0 1.144 0 .808.808 0 0 0-.002-1.143 44.555 44.555 0 0 1-4.159-4.792.808.808 0 0 0-1.13-.163zm63.322 9.11a44.473 44.473 0 0 1-5.338 3.431.808.808 0 0 0-.323 1.097.808.808 0 0 0 1.096.323 46.099 46.099 0 0 0 5.533-3.557.808.808 0 0 0 .162-1.13.808.808 0 0 0-1.13-.164zm-53.237.001a.808.808 0 0 0-1.13.163.808.808 0 0 0 .16 1.133 45.809 45.809 0 0 0 5.533 3.556.808.808 0 0 0 1.096-.324.808.808 0 0 0-.322-1.096 44.202 44.202 0 0 1-5.337-3.432zm42.126 6.066a43.76 43.76 0 0 1-6.087 1.783.808.808 0 0 0-.62.96.808.808 0 0 0 .959.62 45.394 45.394 0 0 0 6.313-1.85.808.808 0 0 0 .474-1.039.808.808 0 0 0-1.04-.474zm-31.015-.001a.808.808 0 0 0-1.04.475.808.808 0 0 0 .476 1.04 45.558 45.558 0 0 0 6.314 1.843.808.808 0 0 0 .959-.62.808.808 0 0 0-.619-.961 43.955 43.955 0 0 1-6.09-1.777zm18.644 2.676a44.713 44.713 0 0 1-6.346-.01.808.808 0 0 0-.864.747.808.808 0 0 0 .748.865c2.187.158 4.385.165 6.575.012a.808.808 0 0 0 .75-.864.808.808 0 0 0-.863-.75z" style="color:#000;fill:#fff;fill-opacity:1;fill-rule:evenodd;stroke-width:1.07772;stroke-linecap:round;stroke-linejoin:round;stroke-dasharray:6.4663,6.4663;-inkscape-stroke:none"/></g><path fill="maroon" d="m144 98.686-63.826 45.316L144 189.314l63.826-45.312Z" style="display:inline;fill:maroon;stroke-width:4.34398;fill-opacity:1"/><path fill="#fff" d="M144 97.745 78.853 144 144 190.255 209.147 144Zm0 4.627L202.63 144 144 185.628 85.37 144Zm.074 15.568a26.055 26.055 0 0 0-13.093 48.623c12.461 7.189 28.39 2.916 35.582-9.544l-3.615-2.09a22.046 22.046 0 0 1-7.115 7.485l5.582-31.654a21.9 21.9 0 0 1 3.15 5.764l3.922-1.434a26.064 26.064 0 0 0-11.464-13.653 25.907 25.907 0 0 0-12.954-3.497zm-.074 4.18a21.765 21.765 0 0 1 13.836 4.934l-5.257 29.774-8.536-23.466-8.535 23.466-5.261-29.839A21.815 21.815 0 0 1 144 122.124zm-17.341 8.535 5.612 31.824c-10.871-6.889-13.471-21.631-5.612-31.824zm17.384 14.896 6.986 19.183a21.829 21.829 0 0 1-13.988.026z" style="fill:#fff;fill-opacity:1;stroke-width:4.34398"/><g aria-label="CAMP WORKCOEMAN" style="font-size:32px;line-height:100%;font-family:&quot;Source Sans Pro&quot;;-inkscape-font-specification:&quot;Source Sans Pro&quot;;text-align:center;letter-spacing:2px;word-spacing:0;text-anchor:middle;white-space:pre;fill:#ff0;stroke-width:1px"><path d="M22.94 119.027q-2.44-.658-4.203-1.863-1.764-1.205-2.798-2.776-1.035-1.572-1.304-3.4-.291-1.87.233-3.816.5-1.853 1.648-3.035 1.116-1.19 2.346-1.82l1.246 1.893q-1.081.57-1.842 1.426-.784.816-1.134 2.114-.391 1.452-.12 2.784.239 1.324 1.095 2.45.826 1.117 2.215 1.99 1.389.87 3.273 1.379 1.916.517 3.577.5 1.64-.055 2.937-.566 1.298-.512 2.193-1.497.904-1.016 1.296-2.468.4-1.483.104-2.723-.287-1.27-1.102-2.55l1.967-1.028q1.066 1.58 1.43 3.302.364 1.723-.16 3.669-.517 1.916-1.67 3.361-1.143 1.416-2.797 2.262-1.676.808-3.805.963-2.153.115-4.624-.551zM35.444 89.495l-3.317-.466q-1.838-.23-3.62-.503-1.81-.287-3.678-.601l-.055.115q1.446 1.212 2.82 2.426 1.345 1.2 2.691 2.47l2.472 2.262zm2.226.306-3.26 6.919 4.93 4.551-1.16 2.46-15.96-15.373 1.282-2.721 22.017 2.521-1.214 2.577zM31.232 71.334l1.869-2.519 11.468 3.448 4.358 1.322.077-.103-2.567-3.737-6.643-9.95 1.868-2.519 16.859 12.508-1.507 2.03-9.277-6.883q-1.13-.839-2.436-1.926-1.285-1.114-2.34-2.055l-.076.103 2.741 4.145 6.413 9.778-.896 1.208-11.237-3.276-4.743-1.447-.077.102q1.188.762 2.627 1.67 1.438.908 2.569 1.747l9.277 6.883-1.468 1.979zM49.938 48.558l4.788-4.295q1.286-1.153 2.572-1.877 1.286-.723 2.516-.837 1.232-.16 2.428.358 1.219.497 2.373 1.783 1.11 1.24 1.494 2.53.407 1.268.178 2.547-.228 1.28-1.022 2.55-.792 1.226-2.078 2.38l-2.811 2.521 5.555 6.194-1.977 1.773zm11.558 3.733q2.048-1.838 2.341-3.476.296-1.684-1.2-3.351-1.517-1.692-3.094-1.437-1.599.23-3.624 2.046l-2.573 2.308 5.577 6.217zM75.663 28.284l2.482-1.189 6.925 9.351q1.005 1.434 2.013 2.797 1.007 1.363 2.013 2.797l.115-.055q-.429-1.71-.8-3.378-.387-1.695-.802-3.377L85.303 23.67l2.194-1.05 7.56 9.046Q96.12 33 97.2 34.365q1.078 1.363 2.17 2.756l.116-.055q-.486-1.683-.945-3.308-.472-1.654-.916-3.322l-2.941-11.258 2.309-1.105 5.139 20.813-2.887 1.382-8.315-10.033q-.785-.973-1.513-1.901-.713-.971-1.47-1.958l-.115.056q.294 1.207.546 2.4.266 1.149.56 2.356l2.658 12.741-2.857 1.368zM119.067 34.295q-1.935.438-3.728.056-1.761-.389-3.227-1.5-1.472-1.143-2.573-2.961-1.076-1.856-1.635-4.322-.558-2.466-.372-4.542.21-2.115 1.062-3.718.844-1.635 2.273-2.713 1.46-1.085 3.395-1.523 1.935-.438 3.697-.05 1.785.35 3.25 1.463 1.49 1.073 2.56 2.898 1.093 1.787 1.644 4.221.559 2.466.355 4.612-.179 2.107-1.047 3.78-.844 1.635-2.297 2.751-1.422 1.11-3.357 1.548zm-.516-2.279q1.373-.31 2.331-1.15.99-.848 1.523-2.117.557-1.307.648-2.936.083-1.659-.355-3.594-.43-1.904-1.214-3.334-.783-1.43-1.835-2.308-1.02-.885-2.271-1.192-1.227-.346-2.6-.035-1.373.311-2.362 1.158-.966.81-1.537 2.054-.54 1.238-.63 2.866-.091 1.628.34 3.532.438 1.935 1.228 3.397.783 1.43 1.818 2.377 1.058.909 2.285 1.255 1.258.338 2.631.027zM136.619 20.258l3.518-.101q2.463-.071 3.746-1.1 1.282-1.062 1.223-3.11-.06-2.079-1.396-2.872-1.335-.794-3.798-.723l-3.519.102zm9.179 10.78-5.31-8.715-3.806.11.256 8.86-2.655.077-.607-20.983 6.558-.19q1.599-.045 2.952.236 1.383.248 2.363.924 1.012.675 1.588 1.779.577 1.103.624 2.735.07 2.463-1.166 3.971-1.237 1.508-3.364 2.114l5.574 8.995zM157.986 10.732l2.626.393-1.559 10.412.095.015 10.199-9.119 2.975.446-7.673 6.94 5.577 13.972-2.943-.44-4.587-11.721-4.207 3.673-.985 6.583-2.627-.393zM176.548 24.776q.803-2.397 2.11-4.085 1.308-1.688 2.939-2.627 1.63-.94 3.472-1.098 1.883-.18 3.794.46 1.82.61 2.932 1.826 1.122 1.185 1.677 2.45l-1.965 1.131q-.504-1.113-1.313-1.924-.768-.83-2.042-1.258-1.426-.477-2.772-.287-1.336.16-2.511.948-1.165.757-2.118 2.092-.953 1.334-1.573 3.185-.63 1.882-.713 3.541-.043 1.64.39 2.966.434 1.326 1.363 2.278.96.963 2.387 1.44 1.456.488 2.711.267 1.286-.21 2.612-.947l.908 2.025q-1.64.969-3.381 1.23-1.741.26-3.653-.38-1.881-.63-3.256-1.866-1.344-1.226-2.09-2.928-.706-1.72-.734-3.856.013-2.155.826-4.583zM199.105 45.922q-1.729-.973-2.802-2.459-1.045-1.47-1.386-3.277-.326-1.836.078-3.923.447-2.098 1.687-4.301 1.24-2.203 2.771-3.618 1.575-1.427 3.281-2.045 1.723-.646 3.506-.487 1.811.175 3.54 1.148 1.729.974 2.774 2.443 1.09 1.458 1.43 3.266.385 1.796-.047 3.866-.387 2.059-1.612 4.234-1.24 2.203-2.83 3.658-1.547 1.442-3.313 2.1-1.722.647-3.55.5-1.798-.132-3.527-1.105zm1.146-2.036q1.227.691 2.501.71 1.302.036 2.549-.547 1.29-.596 2.45-1.743 1.175-1.174 2.148-2.903.958-1.701 1.337-3.287.379-1.586.187-2.942-.163-1.341-.884-2.408-.678-1.08-1.905-1.77-1.227-.69-2.529-.726-1.259-.048-2.517.492-1.231.556-2.39 1.702-1.16 1.147-2.118 2.848-.973 1.729-1.368 3.343-.379 1.586-.247 2.982.176 1.384.854 2.464.705 1.095 1.932 1.785zM225.831 37.921l9.26 7.783-1.441 1.715-7.227-6.074-4.241 5.046 6.1 5.127-1.462 1.739-6.1-5.127-4.9 5.83 7.472 6.28-1.462 1.74-9.505-7.989zM242.855 53.33l1.966 2.443L238.59 66l-2.378 3.884.08.1 4.264-1.54 11.304-3.92 1.966 2.444-16.357 13.158-1.585-1.97 9.002-7.24q1.097-.883 2.478-1.871 1.402-.964 2.58-1.746l-.08-.1-4.704 1.607-11.08 3.738-.943-1.172 6.005-10.046 2.598-4.225-.08-.1q-1.037.957-2.279 2.12-1.24 1.163-2.338 2.045l-9.001 7.241-1.544-1.92zM253.194 90.784l2.381-2.357q1.296-1.323 2.592-2.575 1.325-1.267 2.707-2.563l-.06-.113q-1.839.416-3.636.774-1.77.343-3.597.645l-3.296.597zm-1.591 1.586-3.53-6.785-6.609 1.166-1.255-2.413 21.901-3.387 1.388 2.668-15.343 15.991-1.314-2.526zM270.05 98.252l.792 2.636-10.442 11.059-3.513 3.429.037.122q1.504-.553 3.092-1.163 1.627-.59 3.22-1.07l10.389-3.123.728 2.421-20.103 6.045-.793-2.636 10.464-11.099 3.483-3.42-.037-.122q-1.496.583-3.062 1.154-1.526.593-3.12 1.072l-10.51 3.16-.728-2.42z"/></g><g aria-label="SCOUTING AMERICA" style="font-size:32px;line-height:100%;font-family:&quot;Source Sans Pro&quot;;-inkscape-font-specification:&quot;Source Sans Pro&quot;;text-align:center;letter-spacing:6px;word-spacing:0;text-anchor:middle;white-space:pre;fill:#ff0;stroke-width:1px"><path d="M17.895 173.316q-.841 1.397-1.147 3.043-.267 1.668.17 3.24.557 2.005 1.76 2.866 1.233.853 2.713.442.77-.215 1.217-.638.487-.4.728-.966.281-.543.418-1.246.137-.702.279-1.505l.458-3.25q.112-.795.338-1.654.226-.86.68-1.618.453-.757 1.183-1.358.76-.61 1.87-.919 1.14-.317 2.256-.128 1.124.219 2.064.854.98.658 1.698 1.687.726 1.06 1.112 2.447.506 1.82.225 3.558-.25 1.73-1.06 3.118l-2.05-.925q.637-1.173.813-2.451.216-1.256-.179-2.674-.47-1.696-1.564-2.521-1.053-.803-2.44-.418-.74.206-1.188.63-.407.445-.671 1.05-.233.596-.378 1.267-.115.663-.19 1.348l-.437 3.21q-.13.966-.409 1.874-.248.9-.741 1.634-.462.727-1.24 1.275-.738.57-1.848.88-1.202.333-2.388.131-1.177-.17-2.227-.842-1.02-.68-1.833-1.815-.783-1.144-1.229-2.748-.59-2.127-.295-4.169.296-2.042 1.315-3.753zM29.57 190.802q2.281-1.09 4.404-1.323 2.122-.234 3.93.285 1.809.52 3.204 1.732 1.438 1.228 2.307 3.047.828 1.733.727 3.377-.073 1.63-.596 2.91l-2.18-.627q.45-1.137.471-2.281.064-1.13-.516-2.343-.648-1.357-1.721-2.192-1.044-.849-2.427-1.146-1.354-.31-2.976-.067-1.622.242-3.383 1.084-1.79.855-3.04 1.949-1.209 1.11-1.86 2.343-.653 1.233-.69 2.564-.025 1.359.623 2.716.662 1.386 1.694 2.134 1.045.778 2.497 1.219l-.824 2.06q-1.838-.505-3.235-1.575-1.398-1.07-2.267-2.889-.855-1.79-.922-3.638-.054-1.818.65-3.538.746-1.704 2.262-3.208 1.558-1.49 3.868-2.593zM35.805 223.538q-1.177-1.598-1.545-3.393-.349-1.77.083-3.558.457-1.807 1.682-3.544 1.27-1.73 3.306-3.228 2.035-1.5 4.013-2.16 2.021-.654 3.831-.517 1.836.119 3.397.997 1.579.903 2.755 2.5 1.177 1.599 1.526 3.368.394 1.776-.038 3.565-.387 1.795-1.631 3.505-1.2 1.718-3.21 3.198-2.035 1.499-4.082 2.172-2.003.68-3.884.554-1.836-.118-3.44-1.003-1.587-.859-2.763-2.456zm1.88-1.385q.836 1.134 1.99 1.675 1.172.567 2.548.547 1.421-.013 2.95-.582 1.553-.588 3.151-1.764 1.572-1.157 2.569-2.448.997-1.29 1.38-2.605.402-1.29.182-2.559-.174-1.262-1.009-2.396t-2.007-1.701q-1.128-.56-2.498-.585-1.35 0-2.878.57-1.529.568-3.1 1.726-1.598 1.176-2.621 2.486-.997 1.29-1.45 2.617-.409 1.334-.234 2.597.193 1.288 1.028 2.422zM62.655 222.65l1.968 1.783-8.313 9.179q-1.267 1.4-1.842 2.606-.575 1.206-.616 2.205-.017 1.02.41 1.883.45.838 1.209 1.526.783.709 1.661 1.073.9.34 1.914.222 1.014-.118 2.158-.809 1.144-.69 2.411-2.09l8.313-9.179 1.898 1.719-8.27 9.131q-1.697 1.874-3.284 2.768-1.587.894-3.077 1.013-1.444.117-2.786-.451-1.32-.592-2.506-1.666-1.186-1.074-1.93-2.351-.697-1.28-.747-2.75-.005-1.472.728-3.14.733-1.667 2.43-3.54zM82.705 241.499l-5.4-3.315 1.172-1.91 13.09 8.037-1.172 1.91-5.4-3.316-9.811 15.98-2.29-1.406zM97.831 247.074l2.436 1.058-8.366 19.253-2.436-1.059zM108.167 251.364l2.663.695 4.01 14.672 1.099 4.784.123.033q.312-1.573.616-3.246.344-1.696.764-3.306l2.74-10.497 2.445.639-5.3 20.311-2.664-.695-4.031-14.71-1.108-4.754-.124-.033q-.28 1.58-.607 3.215-.289 1.612-.709 3.222l-2.771 10.62-2.446-.638zM128.385 266.69q.15-2.523.973-4.494.854-1.969 2.215-3.298 1.393-1.328 3.194-1.958 1.802-.663 3.91-.537 2.173.129 3.56 1.044 1.423.886 2.292 1.9l-1.602 1.604q-.749-.878-1.77-1.484-.989-.636-2.586-.73-1.597-.096-2.911.435-1.312.5-2.273 1.564-.959 1.033-1.563 2.568-.572 1.537-.688 3.486-.117 1.98.235 3.604.386 1.594 1.182 2.763.828 1.171 2.07 1.854 1.274.685 2.967.785 1.118.067 2.127-.194 1.043-.29 1.716-.828l.324-5.462-4.44-.264.131-2.204 6.868.408-.524 8.816q-1.084.994-2.82 1.596-1.7.572-3.808.447-2.077-.123-3.758-.96-1.681-.838-2.846-2.285-1.162-1.48-1.745-3.534-.581-2.086-.43-4.642zM173.974 265.784l-1.654-2.914q-.939-1.596-1.809-3.175-.876-1.61-1.767-3.282l-.125.028q-.078 1.884-.202 3.713-.13 1.798-.317 3.64l-.284 3.338zm1.115 1.95-7.47 1.636-.601 6.683-2.657.582 2.449-22.025 2.938-.644 11.43 18.986-2.782.61zM181.32 250.953l2.872-1.26 8.249 8.68 3.13 3.31.117-.052-.376-4.518-.835-11.935 2.871-1.26 8.438 19.221-2.315 1.016-4.643-10.577q-.566-1.29-1.16-2.881-.565-1.605-1.013-2.945l-.118.051.325 4.96.72 11.67-1.377.605-8.133-8.416-3.402-3.61-.117.052q.654 1.25 1.453 2.752.799 1.501 1.365 2.79l4.643 10.578-2.256.99zM203.91 239.875l9.923-6.915 1.28 1.837-7.744 5.398 3.769 5.408 6.537-4.556 1.3 1.864-6.538 4.556 4.354 6.248 8.008-5.58 1.299 1.864-10.187 7.099zM228.175 233.562l2.49-2.488q1.743-1.742 1.97-3.37.205-1.653-1.243-3.101-1.47-1.472-2.986-1.133-1.517.339-3.26 2.08l-2.49 2.489zm14.074 1.544-9.842-2.696-2.694 2.691 6.266 6.27-1.88 1.878-14.837-14.85 4.64-4.637q1.132-1.13 2.31-1.854 1.176-.769 2.353-.95 1.2-.203 2.376.205 1.176.408 2.33 1.562 1.741 1.743 1.876 3.69.135 1.945-.997 3.846l10.227 2.719zM233.77 212.491l1.588-2.128 16.827 12.551-1.588 2.129zM249.013 209.264q-2.223-1.204-3.66-2.783-1.437-1.58-2.08-3.348-.644-1.768-.483-3.61.147-1.885 1.108-3.657.914-1.689 2.304-2.574 1.361-.9 2.703-1.228l.775 2.13q-1.184.305-2.122.961-.95.614-1.591 1.795-.716 1.323-.761 2.681-.073 1.344.5 2.637.545 1.278 1.695 2.447 1.15 1.17 2.867 2.099 1.744.945 3.364 1.313 1.607.325 2.989.127 1.38-.198 2.48-.95 1.113-.779 1.83-2.101.731-1.35.73-2.625.014-1.302-.483-2.736l2.152-.545q.671 1.783.628 3.543-.044 1.76-1.004 3.532-.945 1.745-2.4 2.885-1.44 1.113-3.244 1.554-1.818.399-3.925.057-2.121-.384-4.372-1.604zM264.08 180.216l-3.35-.057q-1.852-.002-3.653-.055-1.832-.063-3.725-.146l-.04.122q1.583 1.025 3.095 2.061 1.482 1.026 2.974 2.123l2.73 1.941zm2.246.03-2.387 7.267 5.45 3.913-.848 2.584-17.726-13.302.94-2.858 22.16-.196-.89 2.706z"/></g><g fill="#fff"><path d="M21.538 158.48a17.67 17.67 0 0 1-1.245-1.687 52.826 52.826 0 0 0-.649-1.007c-.024-.028-.256.098-.522.28-.863.597-1.417.762-2.35.695-1.424-.101-2.336-.8-2.67-2.044-.136-.506-.126-.691.07-1.326.187-.596.387-.891 1.039-1.533.82-.807 1.235-1.01 1.115-.547-.09.35.176 1.07.505 1.371.38.362.94.457 1.417.239.505-.21 1.003-.849.737-.94a2.347 2.347 0 0 1-.509-.35c-.28-.24-.343-.397-.343-.885 0-.515.06-.649.427-.978.393-.351.421-.421.348-.912a5.201 5.201 0 0 0-1.08-2.28c-1.032-1.175-2.754-1.33-3.659-.333-.589.652-.845 1.718-.69 2.876.048.368.048.67.007.67-.046 0-.484-.28-.968-.621-2.357-1.655-3.444-3.812-3.115-6.187.225-1.592.768-2.648 1.866-3.612 1.477-1.302 3.963-1.505 5.731-.467l.526.305.27-1.101c.351-1.413.986-2.659 2.547-4.98 1.54-2.29 1.88-2.873 2.17-3.694l.225-.645.361.919c.347.89.803 1.69 2.487 4.35 1.241 1.956 2.034 3.896 2.034 4.962 0 .182.025.33.053.33.028 0 .442-.186.922-.414.807-.383.972-.414 2.147-.41 1.129 0 1.364.041 2.065.364.527.242 1.028.614 1.502 1.108 2.069 2.171 2.083 5.612.031 8.06-.403.48-2.736 2.203-2.834 2.087-.017-.021.014-.35.067-.737.294-2.093-.642-3.57-2.259-3.56a2.791 2.791 0 0 0-2.1.986 3.879 3.879 0 0 0-1.028 1.954l-.183.705.428.407c.354.34.428.498.428.953 0 .432-.077.618-.358.888-.196.19-.428.344-.508.344-.495 0 .35.982.94 1.09.905.172 1.578-.4 1.704-1.441l.067-.561.59.445c1.139.877 1.844 2.448 1.528 3.406-.417 1.252-1.403 1.95-2.753 1.95a3.367 3.367 0 0 1-2.283-.75l-.554-.422-.583.912c-.743 1.158-1.946 2.5-2.244 2.5-.13 0-.52-.329-.867-.736zM266.323 158.48a17.67 17.67 0 0 1-1.245-1.687 52.822 52.822 0 0 0-.649-1.007c-.024-.028-.256.098-.522.28-.863.597-1.417.762-2.35.695-1.424-.101-2.336-.8-2.67-2.044-.136-.506-.126-.691.071-1.326.186-.596.386-.891 1.038-1.533.82-.807 1.235-1.01 1.115-.547-.09.35.176 1.07.505 1.371.38.362.94.457 1.417.239.505-.21 1.004-.849.737-.94a2.346 2.346 0 0 1-.509-.35c-.28-.24-.343-.397-.343-.885 0-.515.06-.649.428-.978.392-.351.42-.421.347-.912a5.201 5.201 0 0 0-1.08-2.28c-1.032-1.175-2.754-1.33-3.659-.333-.589.652-.845 1.718-.69 2.876.049.368.049.67.007.67-.046 0-.485-.28-.969-.621-2.356-1.655-3.444-3.812-3.114-6.187.224-1.592.768-2.648 1.866-3.612 1.476-1.302 3.963-1.505 5.73-.467l.527.305.27-1.101c.35-1.413.986-2.659 2.546-4.98 1.54-2.29 1.88-2.873 2.171-3.694l.225-.645.361.919c.347.89.803 1.69 2.487 4.35 1.241 1.956 2.034 3.896 2.034 4.962 0 .182.024.33.052.33.028 0 .442-.186.923-.414.807-.383.971-.414 2.146-.41 1.13 0 1.365.041 2.066.364.526.242 1.028.614 1.501 1.108 2.07 2.171 2.084 5.612.032 8.06-.404.48-2.736 2.203-2.834 2.087-.018-.021.014-.35.066-.737.295-2.093-.641-3.57-2.258-3.56a2.791 2.791 0 0 0-2.101.986 3.88 3.88 0 0 0-1.028 1.954l-.182.705.428.407c.354.34.428.498.428.953 0 .432-.077.618-.358.888-.196.19-.428.344-.509.344-.494 0 .351.982.94 1.09.905.172 1.579-.4 1.705-1.441l.066-.561.59.445c1.14.877 1.845 2.448 1.529 3.406-.417 1.252-1.403 1.95-2.753 1.95a3.367 3.367 0 0 1-2.284-.75l-.554-.422-.582.912c-.743 1.158-1.946 2.5-2.245 2.5-.13 0-.519-.329-.866-.736z" style="fill:#ff0;fill-opacity:1;stroke-width:3.50729" transform="translate(-1)"/></g></svg>