<svg xmlns="http://www.w3.org/2000/svg" viewBox="0 0 80.142 62.386" height="235.79" width="302.899"><path d="M20.463 19.915c-2.802-.432-5.09-1.973-6.333-4.266-.543-1.002-.772-1.954-.776-3.233-.003-1.03.119-1.753.428-2.55.95-2.44 2.914-4.102 5.792-4.898.987-.272 3.146-.275 4.205-.006 1.578.403 2.916 1.127 3.97 2.15.351.341.685.682.742.758l-6.738 12.054-.54.012a6.193 6.193 0 01-.75-.022zM6.832 49.311c8.728-15.444 17.746-31.254 26.59-46.81l5.85 10.27-3.538 6.154-2.254-3.82L13.88 49.303l-7.049.007z" fill="#e6e6e6" fill-opacity=".784"/><path d="M24.866 32.966l8.455-15.047 1.536 2.732-6.595 11.593c-.594 0-2.582.44-3.248.718 0 0-.148.036-.148.005zM46.724 14.973L36.828 32.37l-3.575.022c-1.967.012-3.563-.008-3.547-.043l16.951-29.8L73.31 49.345h-7.038L46.724 14.973z" fill="#e6e6e6" fill-opacity=".784"/><path d="M46.696 17.663L37.931 32.54l.39.068c1.801.315 3.533.747 5.476 1.365.508.162 1.005.296 1.105.298.1.003.817-.17 1.227-.244 2.44-.432 4.863-.929 7.346-1.144.81-.07 1.486-.141 1.503-.158l-8.282-15.062zm-.084 3.951c.003-.001.007.002.012.01.006.01.016.04.023.07.022.09.104.338.134.404l.07.148c.059.12.084.167.161.305.052.093.061.108.12.204l.066.107c.024.04.18.282.306.47a11.144 11.144 0 01.366.585c.175.286.3.535.415.824.079.197.1.261.143.433.036.148.048.212.071.41.014.114.019.117.105.063.156-.098.41-.205.6-.253.174-.045.223-.05.482-.049.238 0 .26.002.375.027.13.028.289.08.406.132.311.14.52.31.75.613.201.266.344.61.397.955l.019.125c.013.073.017.418.006.526-.025.26-.105.53-.22.746a2.307 2.307 0 01-.266.428 2.666 2.666 0 01-.498.488c-.269.2-.667.442-.704.428-.014-.005-.014-.012-.003-.065.064-.302.076-.55.038-.794-.044-.275-.166-.49-.359-.634a.834.834 0 00-.567-.15.91.91 0 00-.254.053c-.291.088-.576.356-.735.692a2.562 2.562 0 00-.184.599c-.013.087-.014.088.061.13.292.165.356.55.13.777a.578.578 0 01-.208.136c-.038.014-.047.022-.05.043-.008.073.148.26.266.318.1.05.162.062.26.057a.527.527 0 00.427-.248c.062-.096.078-.16.082-.344.002-.09.008-.167.012-.17.026-.027.32.183.446.316.295.313.445.653.427.97a.978.978 0 01-.213.548c-.163.202-.461.353-.767.387a1.696 1.696 0 01-.446-.029 1.462 1.462 0 01-.664-.365c-.038-.035-.075-.063-.08-.06-.007.003-.05.07-.097.151a4.679 4.679 0 01-.964 1.173l-.032.016-.076-.067a5.15 5.15 0 01-.523-.588 5.32 5.32 0 01-.316-.473l-.086-.157c-.029-.053-.05-.082-.062-.084-.011-.001-.05.023-.099.065-.207.173-.357.254-.575.31-.43.11-.9-.011-1.192-.306a.932.932 0 01-.205-.313.79.79 0 01-.066-.353c0-.327.149-.634.444-.92.145-.14.425-.333.449-.31.004.005.008.09.008.19 0 .176.001.185.026.243.055.13.11.201.207.267.097.067.15.081.29.08.134 0 .174-.01.27-.066a.797.797 0 00.215-.22c.038-.076.034-.086-.065-.135a.485.485 0 01-.288-.393.484.484 0 01.136-.397.626.626 0 01.115-.095c.1-.06.098-.053.073-.202a2.159 2.159 0 00-.25-.718 1.423 1.423 0 00-.5-.49 1.12 1.12 0 00-.582-.114c-.57.062-.867.664-.728 1.473.023.13.024.145.004.145-.024 0-.253-.14-.422-.26a3.785 3.785 0 01-.594-.51 2.738 2.738 0 01-.355-.52 1.654 1.654 0 00-.077-.14.055.055 0 01-.013-.026c0-.016-.037-.132-.054-.171a1.84 1.84 0 01-.102-.478 3.995 3.995 0 00-.012-.125c-.006-.053.01-.287.03-.422.05-.335.143-.607.3-.871.125-.21.371-.473.566-.604a2.03 2.03 0 01.786-.3c.22-.034.547-.016.763.041.197.053.462.17.622.275.078.052.097.049.105-.017l.01-.088a3.205 3.205 0 01.22-.774 5.1 5.1 0 01.116-.256c.047-.097.156-.292.266-.476.08-.134.324-.503.455-.69.39-.558.66-1 .765-1.253.042-.1.115-.315.115-.335a.27.27 0 01.022-.077h-.001zM15.299 49.297l9.08-15.184.392-.13c.492-.162 2.146-.44 3.312-.556 1.498-.15 5.406-.2 7.028-.09a51.84 51.84 0 015.334.648c1.335.235 3.11.618 3.283.709.06.03-.664.22-1.609.419-.944.2-2.593.584-3.664.855-4.804 1.216-5.789 1.805-3.963 2.37.795.247 2.052.452 4.683.762 4.724.558 6.229.796 6.891 1.09.78.345.662.64-.39.976-.386.123-1.864.434-3.284.69-4.359.79-5.832 1.236-6.207 1.882-.15.258-.151.291-.023.487.076.115.413.347.75.515.768.384.993.587.993.898 0 .37-.223.634-.838.996-.65.383-2.906 1.358-4.989 2.156l-1.452.556-15.327-.05zm24.893-.148c.162-.108.867-.55 1.565-.984 2.111-1.31 2.402-1.521 2.628-1.907.114-.196.208-.441.208-.546 0-.312-.416-.63-1.323-1.011-1.131-.476-1.405-.79-1.2-1.378.19-.543 1.043-.855 3.9-1.422 1.975-.392 2.703-.596 3.118-.876.344-.232.402-.436.19-.67-.547-.605-2.082-.906-9.4-1.842-4.16-.532-4.43-.588-4.315-.89.08-.208.846-.515 2.344-.938 5.712-1.615 12.315-2.671 16.635-2.66l1.185.003 8.819 15.254-24.649.064.295-.197z" fill="#e6e6e6" fill-opacity=".784"/><path style="line-height:.80000001;-inkscape-font-specification:'Arial Bold Italic';text-align:center" d="M4.763 53.088l.723.143q-.212.766-.635 1.172-.423.403-.991.403-.64 0-1.001-.502-.36-.503-.36-1.458 0-.775.24-1.417.243-.645.671-.986.428-.34.932-.34.566 0 .916.396.35.394.411 1.076l-.687.087q-.057-.397-.221-.574-.162-.18-.433-.18-.297 0-.556.236-.257.236-.412.738-.154.5-.154.998 0 .546.2.844.202.297.501.297.278 0 .51-.235.232-.236.346-.698zM5.881 52.942q0-.403.093-.85.121-.598.369-1.038.25-.44.627-.694.378-.258.861-.258.647 0 1.044.524.4.524.4 1.39 0 .719-.26 1.392-.26.672-.704 1.035-.444.363-1.005.363-.488 0-.818-.288-.33-.289-.469-.714-.138-.427-.138-.862zm.709-.018q0 .468.219.784.218.317.575.317.29 0 .556-.248.269-.252.443-.757.176-.509.176-.99 0-.536-.222-.84-.22-.306-.563-.306-.525 0-.856.638-.328.64-.328 1.402zM12.126 54.725h-.668l-.942-3.054-.49 3.054h-.668l.728-4.545h.67l.944 3.041.487-3.041h.666zM15.543 54.725h-.668l-.942-3.054-.49 3.054h-.667l.727-4.545h.67l.944 3.041.488-3.041h.666zM16.174 54.725l.727-4.545h2.585l-.121.76h-1.867l-.166 1.032h1.804l-.121.76H17.21l-.218 1.234h2.028l-.124.76zM21.85 53.088l.723.143q-.212.766-.635 1.172-.423.403-.992.403-.64 0-1-.502-.36-.503-.36-1.458 0-.775.24-1.417.243-.645.671-.986.428-.34.932-.34.566 0 .915.396.35.394.412 1.076l-.687.087q-.057-.397-.222-.574-.161-.18-.432-.18-.297 0-.557.236-.256.236-.41.738-.155.5-.155.998 0 .546.2.844.201.297.5.297.28 0 .51-.235.233-.236.347-.698zM24.26 54.725h-.719l.609-3.786h-1.023l.122-.76h2.746l-.122.76h-1.008zM25.587 54.725l.73-4.545h.715l-.727 4.545zM29.391 53.088l.723.143q-.211.766-.635 1.172-.423.403-.991.403-.64 0-1.001-.502-.359-.503-.359-1.458 0-.775.24-1.417.243-.645.67-.986.429-.34.933-.34.565 0 .915.396.35.394.411 1.076l-.687.087q-.057-.397-.22-.574-.163-.18-.434-.18-.297 0-.556.236-.257.236-.411.738-.155.5-.155.998 0 .546.2.844.202.297.502.297.278 0 .508-.235.233-.236.347-.698zM31.014 50.18h.715l-.394 2.468-.098.608q-.01.077-.01.145 0 .27.15.447.153.173.44.173.26 0 .428-.127.17-.127.262-.378.093-.251.188-.853l.4-2.483h.715l-.397 2.486q-.126.785-.29 1.2-.164.416-.497.676-.333.26-.842.26-.609 0-.932-.387-.323-.39-.323-1.001 0-.127.016-.276.01-.1.084-.565zM35.218 54.725H34.5l.609-3.786h-1.023l.122-.76h2.746l-.122.76h-1.008zM38.456 54.725h-.718l.73-4.545h1.548q.4 0 .62.108.224.106.36.391.137.285.137.691 0 .58-.266.959-.266.375-.806.465.138.16.26.424.24.534.534 1.507h-.77q-.093-.384-.364-1.2-.147-.44-.314-.592-.102-.09-.356-.09h-.293zm.412-2.564h.38q.578 0 .766-.09.19-.09.297-.282.107-.192.107-.403 0-.248-.155-.372-.095-.075-.411-.075h-.79zM41.11 54.725l.73-4.545h.716l-.728 4.545zM44.133 54.725h-.766l-.625-4.545h.716l.442 3.438 1.443-3.438h.711zM45.541 54.725l.728-4.545h2.584l-.121.76h-1.866l-.167 1.032h1.805l-.121.76h-1.805l-.219 1.234h2.028l-.123.76zM49.425 54.725h-.718l.73-4.545h1.547q.4 0 .62.108.224.106.36.391.138.285.138.691 0 .58-.266.959-.267.375-.806.465.137.16.259.424.24.534.535 1.507h-.77q-.093-.384-.364-1.2-.148-.44-.314-.592-.103-.09-.357-.09h-.292zm.411-2.564h.38q.578 0 .766-.09.19-.09.297-.282.107-.192.107-.403 0-.248-.154-.372-.095-.075-.412-.075h-.79zM52.22 53.252l.681-.046q.015.425.112.574.157.241.58.241.352 0 .51-.164.156-.164.156-.397 0-.201-.128-.34-.09-.103-.497-.333-.404-.229-.592-.381-.186-.155-.293-.4-.107-.245-.107-.574 0-.573.319-.951.318-.379.922-.379.614 0 .949.375.338.376.37.999l-.686.04q-.026-.325-.18-.499-.155-.174-.457-.174-.298 0-.426.137-.126.136-.126.344 0 .195.117.322.116.13.515.357.602.338.766.549.245.31.245.797 0 .601-.366 1.029-.364.425-1.015.425-.45 0-.78-.196-.328-.198-.464-.548-.135-.35-.126-.807zM58.933 53.088l.723.143q-.212.766-.635 1.172-.423.403-.991.403-.64 0-1.001-.502-.36-.503-.36-1.458 0-.775.241-1.417.243-.645.67-.986.428-.34.932-.34.566 0 .916.396.35.394.411 1.076l-.687.087q-.057-.397-.221-.574-.162-.18-.433-.18-.297 0-.556.236-.257.236-.411.738-.155.5-.155.998 0 .546.2.844.202.297.501.297.279 0 .51-.235.232-.236.346-.698zM60.052 52.942q0-.403.092-.85.122-.598.369-1.038.25-.44.627-.694.378-.258.861-.258.647 0 1.044.524.4.524.4 1.39 0 .719-.26 1.392-.259.672-.704 1.035-.444.363-1.005.363-.488 0-.818-.288-.33-.289-.469-.714-.137-.427-.137-.862zm.708-.018q0 .468.219.784.219.317.575.317.29 0 .556-.248.27-.252.443-.757.176-.509.176-.99 0-.536-.221-.84-.222-.306-.564-.306-.525 0-.856.638-.328.64-.328 1.402zM64.24 50.18h.715l-.395 2.468-.097.608q-.01.077-.01.145 0 .27.15.447.152.173.44.173.259 0 .428-.127.169-.127.261-.378.093-.251.188-.853l.4-2.483h.715l-.397 2.486q-.126.785-.29 1.2-.164.416-.497.676-.333.26-.841.26-.61 0-.932-.387-.324-.39-.324-1.001 0-.127.017-.276.01-.1.083-.565zM69.713 54.725h-.668l-.942-3.054-.49 3.054h-.667l.727-4.545h.67l.945 3.041.487-3.041h.666zM72.869 53.088l.723.143q-.212.766-.635 1.172-.423.403-.992.403-.64 0-1-.502-.36-.503-.36-1.458 0-.775.24-1.417.243-.645.671-.986.428-.34.932-.34.566 0 .915.396.35.394.412 1.076l-.687.087q-.057-.397-.221-.574-.162-.18-.433-.18-.297 0-.557.236-.256.236-.41.738-.155.5-.155.998 0 .546.2.844.201.297.501.297.278 0 .509-.235.233-.236.347-.698zM73.73 54.725l.73-4.545h.716l-.728 4.545zM75.03 54.725l.73-4.545h.715l-.606 3.786h1.773l-.121.76z" font-style="italic" font-weight="700" font-family="Arial" letter-spacing="-.5" word-spacing="-.5" text-anchor="middle" fill="#e6e6e6" fill-opacity=".784"/><path style="line-height:.80000001;-inkscape-font-specification:'Arial Bold Italic'" d="M20.52 58.333l.682-.047q.014.425.112.574.157.241.58.241.352 0 .509-.164.157-.164.157-.397 0-.201-.129-.34-.09-.103-.497-.333-.404-.229-.592-.38-.185-.156-.292-.4-.107-.246-.107-.575 0-.573.318-.951.319-.379.923-.379.613 0 .948.375.338.376.371.999l-.687.04q-.026-.325-.18-.499-.155-.174-.457-.174-.297 0-.425.137-.126.136-.126.344 0 .195.116.322.117.13.516.357.601.338.766.549.244.31.244.797 0 .601-.366 1.029-.364.425-1.015.425-.45 0-.78-.196-.328-.198-.463-.548-.136-.35-.126-.806zM26.651 58.168l.723.143q-.212.766-.635 1.172-.423.403-.991.403-.64 0-1.001-.502-.36-.503-.36-1.458 0-.775.24-1.417.243-.645.671-.986.428-.34.932-.34.566 0 .916.396.35.394.41 1.076l-.686.087q-.057-.397-.221-.574-.162-.18-.433-.18-.297 0-.556.236-.257.236-.412.738-.154.5-.154.998 0 .546.2.844.202.297.501.297.278 0 .509-.235.233-.236.347-.698zM28.334 58.022q0-.403.093-.85.121-.598.368-1.038.25-.44.628-.694.378-.258.86-.258.647 0 1.044.524.4.524.4 1.39 0 .719-.26 1.392-.258.672-.703 1.035-.445.363-1.006.363-.487 0-.818-.288-.33-.289-.468-.714-.138-.427-.138-.862zm.709-.018q0 .468.218.784.22.317.576.317.29 0 .556-.248.269-.252.442-.757.176-.509.176-.99 0-.536-.22-.84-.222-.306-.564-.306-.526 0-.856.638-.328.64-.328 1.402zM33.087 55.26h.715l-.394 2.468-.098.608q-.01.077-.01.145 0 .27.15.447.153.173.44.173.26 0 .428-.127.169-.127.262-.378.092-.251.188-.853l.399-2.483h.716l-.397 2.486q-.126.785-.29 1.2-.165.416-.497.676-.333.26-.842.26-.609 0-.932-.387-.323-.39-.323-1.001 0-.127.016-.276.01-.1.083-.565zM37.856 59.805h-.718l.608-3.786h-1.022l.121-.76h2.746l-.121.76h-1.008z" font-style="italic" font-weight="700" font-family="Arial" letter-spacing="2.284" word-spacing="-.5" fill="#e6e6e6" fill-opacity=".784"/><path style="line-height:.80000001;-inkscape-font-specification:'Arial Bold Italic';text-align:center" d="M44.118 58.168l.722.143q-.211.766-.634 1.172-.424.403-.992.403-.64 0-1-.502-.36-.503-.36-1.458 0-.775.24-1.417.243-.645.67-.986.429-.34.933-.34.566 0 .915.396.35.394.412 1.076l-.688.087q-.057-.397-.22-.574-.162-.18-.433-.18-.298 0-.557.236-.257.236-.411.738-.155.5-.155.998 0 .546.2.844.202.297.502.297.278 0 .509-.235.233-.236.347-.698zM48.089 58.8h-1.381l-.419 1.005h-.737l1.971-4.545h.797l.565 4.545h-.68zm-.088-.756l-.202-1.83-.842 1.83zM52.025 59.805h-.68l-.126-3.798-.554 3.798h-.647l.728-4.545h1.022l.107 3.184 1.189-3.184h1.034l-.73 4.545h-.654l.687-3.77zM55.492 59.805h-.718l.73-4.545h1.417q.378 0 .597.118.22.114.35.384.128.267.128.639 0 .344-.103.67-.102.325-.252.52-.147.196-.318.298-.172.1-.462.152-.168.031-.632.031h-.459zm.397-2.486h.221q.568 0 .759-.093.19-.093.3-.298.109-.205.109-.45 0-.164-.058-.27-.054-.105-.156-.151-.1-.05-.45-.05h-.513zM58.833 58.333l.683-.047q.014.425.111.574.157.241.58.241.352 0 .51-.164.156-.164.156-.397 0-.201-.128-.34-.09-.103-.497-.333-.404-.229-.592-.38-.186-.156-.293-.4-.107-.246-.107-.575 0-.573.319-.951.319-.379.923-.379.613 0 .948.375.338.376.371.999l-.687.04q-.026-.325-.18-.499-.155-.174-.457-.174-.297 0-.426.137-.126.136-.126.344 0 .195.117.322.116.13.516.357.601.338.765.549.245.31.245.797 0 .601-.366 1.029-.364.425-1.015.425-.45 0-.78-.196-.328-.198-.464-.548-.135-.35-.126-.806z" font-style="italic" font-weight="700" font-family="Arial" letter-spacing="3.426" word-spacing="1.713" text-anchor="middle" fill="#e6e6e6" fill-opacity=".784"/></svg>
