<?xml version="1.0" encoding="UTF-8" standalone="no"?>
<svg
   xmlns:dc="http://purl.org/dc/elements/1.1/"
   xmlns:cc="http://creativecommons.org/ns#"
   xmlns:rdf="http://www.w3.org/1999/02/22-rdf-syntax-ns#"
   xmlns:svg="http://www.w3.org/2000/svg"
   xmlns="http://www.w3.org/2000/svg"
   width="297mm"
   height="150mm"
   viewBox="0 0 1052.3622 531.49606"
   id="svg2"
   version="1.1">
  <defs
     id="defs4" />
  <metadata
     id="metadata7">
    <rdf:RDF>
      <cc:Work
         rdf:about="">
        <dc:format>image/svg+xml</dc:format>
        <dc:type
           rdf:resource="http://purl.org/dc/dcmitype/StillImage" />
        <dc:title></dc:title>
      </cc:Work>
    </rdf:RDF>
  </metadata>
  <g
     transform="translate(9.375,-45.027672)"
     style="fill:#000000"
     id="g4408">
    <path
       id="path4157"
       style="font-style:normal;font-variant:normal;font-weight:normal;font-stretch:normal;font-size:112.5px;line-height:125%;font-family:'Source Sans Pro';-inkscape-font-specification:'Source Sans Pro';letter-spacing:0px;word-spacing:0px;fill:#000000;fill-opacity:1;stroke:none;stroke-width:1px;stroke-linecap:butt;stroke-linejoin:miter;stroke-opacity:1"
       d="m 73.93021,282.77768 h 9.674996 l 7.7625,40.1625 q 1.0125,6.075 2.1375,11.925 1.125,5.85 2.1375,11.925 h 0.45 q 1.2375,-6.075 2.5875,-11.925 1.350004,-5.9625 2.587504,-11.925 l 10.2375,-40.1625 h 8.55 l 10.2375,40.1625 q 1.35,5.85 2.7,11.8125 1.35,5.9625 2.7,12.0375 h 0.45 q 1.0125,-6.075 2.025,-11.925 1.0125,-5.9625 2.1375,-11.925 l 7.7625,-40.1625 h 9 l -15.3,73.8 h -11.25 l -11.1375,-44.4375 q -1.0125,-4.275 -1.9125,-8.325 -0.7875,-4.1625 -1.6875,-8.4375 h -0.45 q -0.9,4.275 -1.9125,8.4375 -0.9,4.05 -1.8,8.325 l -10.9125,44.4375 H 89.567706 Z" />
    <path
       id="path4159"
       style="font-style:normal;font-variant:normal;font-weight:normal;font-stretch:normal;font-size:112.5px;line-height:125%;font-family:'Source Sans Pro';-inkscape-font-specification:'Source Sans Pro';letter-spacing:0px;word-spacing:0px;fill:#000000;fill-opacity:1;stroke:none;stroke-width:1px;stroke-linecap:butt;stroke-linejoin:miter;stroke-opacity:1"
       d="m 168.89779,276.47768 h 9.225 v 21.825 l -0.3375,11.25 q 3.9375,-3.7125 8.2125,-6.3 4.275,-2.7 10.0125,-2.7 8.6625,0 12.6,5.4 4.05,5.4 4.05,15.975 v 34.65 h -9.225 v -33.4125 q 0,-7.7625 -2.475,-11.1375 -2.475,-3.4875 -7.875,-3.4875 -4.275,0 -7.5375,2.1375 -3.2625,2.1375 -7.425,6.3 v 39.6 h -9.225 z" />
    <path
       id="path4161"
       style="font-style:normal;font-variant:normal;font-weight:normal;font-stretch:normal;font-size:112.5px;line-height:125%;font-family:'Source Sans Pro';-inkscape-font-specification:'Source Sans Pro';letter-spacing:0px;word-spacing:0px;fill:#000000;fill-opacity:1;stroke:none;stroke-width:1px;stroke-linecap:butt;stroke-linejoin:miter;stroke-opacity:1"
       d="m 226.489,371.65268 q 0.9,0.225 2.025,0.45 1.125,0.3375 2.1375,0.3375 4.725,0 7.65,-3.375 3.0375,-3.2625 4.725,-8.325 l 1.2375,-4.05 -21.9375,-54.7875 h 9.5625 l 11.1375,30.2625 q 1.2375,3.6 2.5875,7.65 1.4625,3.9375 2.7,7.7625 h 0.45 q 1.2375,-3.7125 2.3625,-7.7625 1.125,-4.05 2.25,-7.65 l 9.7875,-30.2625 h 9 l -20.5875,59.175 q -1.4625,4.05 -3.2625,7.5375 -1.8,3.4875 -4.275,5.9625 -2.475,2.5875 -5.625,4.05 -3.15,1.4625 -7.3125,1.4625 -1.9125,0 -3.4875,-0.3375 -1.575,-0.225 -2.925,-0.7875 z" />
    <path
       id="path4164"
       style="font-style:normal;font-variant:normal;font-weight:bold;font-stretch:normal;font-size:137.5px;line-height:125%;font-family:'Source Sans Pro';-inkscape-font-specification:'Source Sans Pro Bold';letter-spacing:0px;word-spacing:0px;fill:#000000;fill-opacity:1;stroke:none;stroke-width:1px;stroke-linecap:butt;stroke-linejoin:miter;stroke-opacity:1"
       d="m 103.9806,359.96129 h 20.7625 l 6.1875,41.9375 q 0.825,7.0125 1.7875,14.1625 0.9625,7.0125 1.7875,14.1625 h 0.55 q 1.375,-7.15 2.6125,-14.1625 1.375,-7.15 2.75,-14.1625 l 9.625,-41.9375 h 17.1875 l 9.625,41.9375 q 1.375,6.875 2.6125,14.025 1.375,7.0125 2.75,14.3 h 0.55 q 0.9625,-7.2875 1.7875,-14.3 0.9625,-7.0125 1.925,-14.025 l 6.1875,-41.9375 h 19.3875 l -15.95,89.65 h -25.4375 l -8.8,-40.7 q -1.1,-5.225 -2.0625,-10.45 -0.825,-5.3625 -1.5125,-10.3125 h -0.55 q -0.825,4.95 -1.7875,10.3125 -0.825,5.225 -1.925,10.45 l -8.3875,40.7 h -25.025 z" />
    <path
       id="path4166"
       style="font-style:normal;font-variant:normal;font-weight:bold;font-stretch:normal;font-size:137.5px;line-height:125%;font-family:'Source Sans Pro';-inkscape-font-specification:'Source Sans Pro Bold';letter-spacing:0px;word-spacing:0px;fill:#000000;fill-opacity:1;stroke:none;stroke-width:1px;stroke-linecap:butt;stroke-linejoin:miter;stroke-opacity:1"
       d="m 218.72435,415.51129 q 0,-8.525 2.75,-15.125 2.75,-6.7375 7.2875,-11.275 4.675,-4.5375 10.725,-6.875 6.05,-2.475 12.5125,-2.475 6.4625,0 12.375,2.475 6.05,2.3375 10.5875,6.875 4.675,4.5375 7.425,11.275 2.75,6.6 2.75,15.125 0,8.525 -2.75,15.2625 -2.75,6.6 -7.425,11.1375 -4.5375,4.5375 -10.5875,7.0125 -5.9125,2.3375 -12.375,2.3375 -6.4625,0 -12.5125,-2.3375 -6.05,-2.475 -10.725,-7.0125 -4.5375,-4.5375 -7.2875,-11.1375 -2.75,-6.7375 -2.75,-15.2625 z m 20.7625,0 q 0,8.9375 3.025,14.1625 3.1625,5.225 9.4875,5.225 6.1875,0 9.35,-5.225 3.1625,-5.225 3.1625,-14.1625 0,-8.9375 -3.1625,-14.1625 -3.1625,-5.225 -9.35,-5.225 -6.325,0 -9.4875,5.225 -3.025,5.225 -3.025,14.1625 z" />
    <path
       id="path4168"
       style="font-style:normal;font-variant:normal;font-weight:bold;font-stretch:normal;font-size:137.5px;line-height:125%;font-family:'Source Sans Pro';-inkscape-font-specification:'Source Sans Pro Bold';letter-spacing:0px;word-spacing:0px;fill:#000000;fill-opacity:1;stroke:none;stroke-width:1px;stroke-linecap:butt;stroke-linejoin:miter;stroke-opacity:1"
       d="m 298.98139,381.41129 h 16.5 l 1.375,11.9625 h 0.55 q 3.7125,-7.0125 8.9375,-10.3125 5.225,-3.3 10.45,-3.3 2.8875,0 4.675,0.4125 1.925,0.275 3.4375,0.9625 l -3.3,17.4625 q -1.925,-0.55 -3.575,-0.825 -1.65,-0.275 -3.85,-0.275 -3.85,0 -8.1125,2.75 -4.125,2.75 -6.875,9.7625 v 39.6 h -20.2125 z" />
    <path
       id="path4170"
       style="font-style:normal;font-variant:normal;font-weight:bold;font-stretch:normal;font-size:137.5px;line-height:125%;font-family:'Source Sans Pro';-inkscape-font-specification:'Source Sans Pro Bold';letter-spacing:0px;word-spacing:0px;fill:#000000;fill-opacity:1;stroke:none;stroke-width:1px;stroke-linecap:butt;stroke-linejoin:miter;stroke-opacity:1"
       d="m 353.76654,353.22379 h 19.6625 v 55.275 h 0.55 l 21.5875,-27.0875 h 22 l -23.925,28.05 25.7125,40.15 h -21.8625 l -15.4,-26.5375 -8.6625,9.7625 v 16.775 h -19.6625 z" />
    <path
       id="path4172"
       style="font-style:normal;font-variant:normal;font-weight:bold;font-stretch:normal;font-size:137.5px;line-height:125%;font-family:'Source Sans Pro';-inkscape-font-specification:'Source Sans Pro Bold';letter-spacing:0px;word-spacing:0px;fill:#000000;fill-opacity:1;stroke:none;stroke-width:1px;stroke-linecap:butt;stroke-linejoin:miter;stroke-opacity:1"
       d="m 421.48314,415.51129 q 0,-8.525 2.8875,-15.125 2.8875,-6.7375 7.7,-11.275 4.95,-4.5375 11.4125,-6.875 6.4625,-2.475 13.475,-2.475 6.325,0 11.4125,2.2 5.0875,2.0625 8.525,5.6375 l -9.2125,12.5125 q -4.8125,-3.9875 -9.4875,-3.9875 -7.425,0 -11.6875,5.225 -4.2625,5.225 -4.2625,14.1625 0,8.9375 4.2625,14.1625 4.4,5.225 11,5.225 3.7125,0 6.7375,-1.5125 3.025,-1.5125 5.5,-3.4375 l 8.1125,12.7875 q -4.95,4.4 -11,6.4625 -6.05,2.0625 -11.6875,2.0625 -7.15,0 -13.3375,-2.3375 -6.05,-2.475 -10.5875,-7.0125 -4.5375,-4.5375 -7.15,-11.1375 -2.6125,-6.7375 -2.6125,-15.2625 z" />
    <path
       id="path4174"
       style="font-style:normal;font-variant:normal;font-weight:bold;font-stretch:normal;font-size:137.5px;line-height:125%;font-family:'Source Sans Pro';-inkscape-font-specification:'Source Sans Pro Bold';letter-spacing:0px;word-spacing:0px;fill:#000000;fill-opacity:1;stroke:none;stroke-width:1px;stroke-linecap:butt;stroke-linejoin:miter;stroke-opacity:1"
       d="m 481.90795,415.51129 q 0,-8.525 2.75,-15.125 2.75,-6.7375 7.2875,-11.275 4.675,-4.5375 10.725,-6.875 6.05,-2.475 12.5125,-2.475 6.4625,0 12.375,2.475 6.05,2.3375 10.5875,6.875 4.675,4.5375 7.425,11.275 2.75,6.6 2.75,15.125 0,8.525 -2.75,15.2625 -2.75,6.6 -7.425,11.1375 -4.5375,4.5375 -10.5875,7.0125 -5.9125,2.3375 -12.375,2.3375 -6.4625,0 -12.5125,-2.3375 -6.05,-2.475 -10.725,-7.0125 -4.5375,-4.5375 -7.2875,-11.1375 -2.75,-6.7375 -2.75,-15.2625 z m 20.7625,0 q 0,8.9375 3.025,14.1625 3.1625,5.225 9.4875,5.225 6.1875,0 9.35,-5.225 3.1625,-5.225 3.1625,-14.1625 0,-8.9375 -3.1625,-14.1625 -3.1625,-5.225 -9.35,-5.225 -6.325,0 -9.4875,5.225 -3.025,5.225 -3.025,14.1625 z" />
    <path
       id="path4176"
       style="font-style:normal;font-variant:normal;font-weight:bold;font-stretch:normal;font-size:137.5px;line-height:125%;font-family:'Source Sans Pro';-inkscape-font-specification:'Source Sans Pro Bold';letter-spacing:0px;word-spacing:0px;fill:#000000;fill-opacity:1;stroke:none;stroke-width:1px;stroke-linecap:butt;stroke-linejoin:miter;stroke-opacity:1"
       d="m 558.17748,415.51129 q 0,-8.25 2.75,-14.85 2.75,-6.7375 7.15,-11.275 4.5375,-4.675 10.3125,-7.15 5.775,-2.475 11.9625,-2.475 7.2875,0 12.65,2.475 5.5,2.475 9.075,6.875 3.7125,4.4 5.5,10.45 1.7875,5.9125 1.7875,12.925 0,2.75 -0.275,5.0875 -0.275,2.2 -0.55,3.4375 h -40.8375 q 1.375,7.8375 6.05,11.4125 4.8125,3.4375 11.6875,3.4375 7.2875,0 14.7125,-4.5375 l 6.7375,12.2375 q -5.225,3.575 -11.6875,5.6375 -6.325,2.0625 -12.5125,2.0625 -7.2875,0 -13.6125,-2.3375 -6.325,-2.475 -11,-7.0125 -4.675,-4.675 -7.2875,-11.275 -2.6125,-6.6 -2.6125,-15.125 z m 44,-7.0125 q 0,-5.9125 -2.6125,-9.625 -2.6125,-3.7125 -8.8,-3.7125 -4.8125,0 -8.525,3.3 -3.575,3.1625 -4.675,10.0375 z" />
    <path
       id="path4178"
       style="font-style:normal;font-variant:normal;font-weight:bold;font-stretch:normal;font-size:137.5px;line-height:125%;font-family:'Source Sans Pro';-inkscape-font-specification:'Source Sans Pro Bold';letter-spacing:0px;word-spacing:0px;fill:#000000;fill-opacity:1;stroke:none;stroke-width:1px;stroke-linecap:butt;stroke-linejoin:miter;stroke-opacity:1"
       d="m 633.33197,381.41129 h 16.5 l 1.375,8.8 h 0.55 q 4.2625,-4.2625 9.075,-7.2875 4.8125,-3.1625 11.55,-3.1625 7.2875,0 11.6875,3.025 4.5375,2.8875 7.15,8.3875 4.5375,-4.675 9.4875,-7.975 5.0875,-3.4375 11.9625,-3.4375 11,0 16.0875,7.425 5.225,7.2875 5.225,20.075 v 42.35 h -20.2125 v -39.7375 q 0,-7.425 -2.0625,-10.175 -1.925,-2.75 -6.325,-2.75 -5.0875,0 -11.6875,6.6 v 46.0625 h -20.2125 v -39.7375 q 0,-7.425 -2.0625,-10.175 -1.925,-2.75 -6.325,-2.75 -5.225,0 -11.55,6.6 v 46.0625 h -20.2125 z" />
    <path
       id="path4180"
       style="font-style:normal;font-variant:normal;font-weight:bold;font-stretch:normal;font-size:137.5px;line-height:125%;font-family:'Source Sans Pro';-inkscape-font-specification:'Source Sans Pro Bold';letter-spacing:0px;word-spacing:0px;fill:#000000;fill-opacity:1;stroke:none;stroke-width:1px;stroke-linecap:butt;stroke-linejoin:miter;stroke-opacity:1"
       d="m 748.75248,430.63629 q 0,-10.725 9.075,-16.775 9.075,-6.05 29.2875,-8.1125 -0.275,-4.5375 -2.75,-7.15 -2.475,-2.75 -7.975,-2.75 -4.4,0 -8.8,1.65 -4.4,1.65 -9.35,4.5375 l -7.15,-13.3375 q 6.6,-3.9875 13.75,-6.4625 7.2875,-2.475 15.4,-2.475 13.2,0 20.075,7.5625 7.0125,7.425 7.0125,23.2375 v 39.05 h -16.5 l -1.5125,-7.0125 h -0.4125 q -4.4,3.85 -9.35,6.325 -4.8125,2.3375 -10.5875,2.3375 -4.675,0 -8.3875,-1.65 -3.7125,-1.5125 -6.325,-4.2625 -2.6125,-2.8875 -4.125,-6.6 -1.375,-3.7125 -1.375,-8.1125 z m 19.25,-1.5125 q 0,3.3 2.0625,4.95 2.2,1.5125 5.775,1.5125 3.575,0 6.05,-1.5125 2.475,-1.5125 5.225,-4.2625 v -11.9625 q -10.8625,1.5125 -14.9875,4.4 -4.125,2.8875 -4.125,6.875 z" />
    <path
       id="path4182"
       style="font-style:normal;font-variant:normal;font-weight:bold;font-stretch:normal;font-size:137.5px;line-height:125%;font-family:'Source Sans Pro';-inkscape-font-specification:'Source Sans Pro Bold';letter-spacing:0px;word-spacing:0px;fill:#000000;fill-opacity:1;stroke:none;stroke-width:1px;stroke-linecap:butt;stroke-linejoin:miter;stroke-opacity:1"
       d="m 824.54291,381.41129 h 16.5 l 1.375,8.6625 h 0.55 q 4.4,-4.125 9.625,-7.15 5.225,-3.1625 12.2375,-3.1625 11.1375,0 16.0875,7.2875 5.0875,7.2875 5.0875,20.2125 v 42.35 h -20.2125 v -39.7375 q 0,-7.425 -2.0625,-10.175 -1.925,-2.75 -6.325,-2.75 -3.85,0 -6.6,1.7875 -2.75,1.65 -6.05,4.8125 v 46.0625 h -20.2125 z" />
    <path
       id="path4185"
       style="font-style:normal;font-variant:normal;font-weight:normal;font-stretch:normal;font-size:375px;line-height:125%;font-family:'Source Sans Pro';-inkscape-font-specification:'Source Sans Pro';letter-spacing:0px;word-spacing:0px;fill:#000000;fill-opacity:1;stroke:none;stroke-width:1px;stroke-linecap:butt;stroke-linejoin:miter;stroke-opacity:1"
       d="m 897.05699,449.47373 q -2.25,-14.625 0.75,-26.25 3.375,-12 9,-21.75 5.625,-10.125 12.75,-18.75 7.5,-8.625 13.875,-16.875 6.375,-8.625 10.5,-17.25 4.5,-8.625 4.5,-18.75 0,-15 -9.375,-25.5 -9,-10.875 -27,-10.875 -12.375,0 -23.625,6 -10.875,5.625 -19.5,15.75 l -17.625,-16.125 q 12,-13.5 27.375,-22.125 15.375,-9 35.625,-9 29.25,0 46.5,16.125 17.625,15.75 17.625,43.875 0,12.375 -4.5,22.5 -4.5,10.125 -11.25,19.125 -6.375,9 -13.875,18 -7.125,8.625 -13.5,18 -6,9.375 -9.375,20.25 -3.375,10.5 -1.875,23.625 z m -7.875,55.5 q 0,-10.875 6.375,-17.25 6.375,-6.75 15.75,-6.75 9.375,0 15.75,6.75 6.75,6.375 6.75,17.25 0,10.125 -6.75,16.875 -6.375,6.375 -15.75,6.375 -9.375,0 -15.75,-6.375 -6.375,-6.75 -6.375,-16.875 z" />
    <path
       id="path7153"
       style="display:inline;fill:#000000;fill-opacity:1;fill-rule:nonzero;stroke:none"
       d="M 526.18111,93.32768 350.69416,217.92572 526.18111,342.5159 701.66804,217.92572 Z m 0,12.45921 L 684.1158,217.92572 526.18111,330.05668 368.2464,217.92572 Z m 0.20057,41.93973 c -24.29704,-0.0393 -47.96294,12.54377 -60.9825,35.1025 -19.381,33.56083 -7.8578,76.49163 25.70892,95.87853 33.56673,19.37903 76.47582,7.8578 95.85494,-25.70893 l -9.73974,-5.63771 c -4.70163,8.14096 -11.2833,15.07061 -19.1647,20.16363 l 15.03916,-85.26381 c 3.55732,4.67024 6.42231,9.9009 8.47336,15.52485 l 10.56957,-3.864 c -5.6378,-15.50126 -16.56918,-28.52877 -30.86298,-36.77789 -11.01587,-6.36136 -23.02879,-9.39554 -34.89603,-9.41717 z m -0.20057,11.25184 c 14.14042,0 27.11483,4.98486 37.26941,13.29691 l -14.14829,80.20029 -23.00518,-63.21636 -22.99134,63.21636 -14.17189,-80.37727 c 10.125,-8.18816 23.01289,-13.11993 37.04729,-13.11993 z m -46.70239,22.99134 15.11781,85.72985 c -16.44711,-10.4692 -27.37645,-28.82766 -27.37645,-49.7582 0,-13.53484 4.58568,-26.01765 12.25864,-35.97165 z m 46.81833,40.12669 18.8186,51.67152 c -5.94644,2.02148 -12.30583,3.11874 -18.93454,3.11874 -6.5521,0 -12.84275,-1.07563 -18.73413,-3.04991 z" />
  </g>
</svg>
